<svg width="619" height="564" viewBox="0 0 619 564" fill="none" xmlns="http://www.w3.org/2000/svg">
<path fill-rule="evenodd" clip-rule="evenodd" d="M217.489 520.279C176.269 486.915 191.731 415.77 156.186 376.416C115.904 331.815 24.7543 341.203 4.61131 284.58C-14.184 231.746 29.0185 171.35 69.3905 132.429C106.119 97.0212 166.571 107.766 212.033 84.6158C246.519 67.0549 270.11 36.3658 301.764 14.1016C357.95 -25.416 425.332 33.6331 494 35.4073C557.379 37.0448 606.327 42.9996 617.5 105.407C630.112 175.851 541.949 144.122 526.617 214.024C518.165 252.554 560.669 291.348 547.362 328.482C534.055 365.617 482.679 372.44 458.642 403.717C423.203 449.829 426.997 527.923 374.636 553.232C325.612 576.927 259.811 554.535 217.489 520.279Z" fill="#E1E1E1"/>
</svg>
