<svg xmlns="http://www.w3.org/2000/svg" height="1200" width="1600" version="1.1" xmlnsXlink="http://www.w3.org/1999/xlink" xmlnsSvgjs="http://svgjs.com/svgjs"><rect fill="#fff" width="1600" height="1200"></rect><g><path d="M335.31 911.52V840.02L402.67 798.39V720.42H402.52L502.71 658.36H582.78L660.59 706.39C663.95 704.2 667.84 703.11 671.82 703.11H727.02C740.51 703.11 744.95 711.06 750.1 720.19 756.81 732.12 765.15 747.01 796.73 750.44V782.33H971.45V705.76L1021.35 654.93H1161.7L1211.59 705.68V788.33L1261.49 839.09V911.44H335.31V911.52Z" fill="#d7e7ef" opacity="1" stroke-width="4" stroke="none"></path><path d="M602.97 720.42L502.71 658.44" stroke="#bcd7e4" stroke-width="4" stroke-linecap="round" stroke-linejoin="round" opacity="1" fill="none"></path><path d="M403.61 720.42H603.21V910.51" stroke="#bcd7e4" stroke-width="4" stroke-linecap="round" stroke-linejoin="round" opacity="1" fill="none"></path><path d="M400.1 910.9L401.04 799.32" stroke="#bcd7e4" stroke-width="4" stroke-linecap="round" stroke-linejoin="round" opacity="1" fill="none"></path><path d="M336.24 840.02H399.87" stroke="#bcd7e4" stroke-width="4" stroke-linecap="round" stroke-linejoin="round" opacity="1" fill="none"></path><path d="M401.19 826.69H601.73" stroke="#bcd7e4" stroke-width="4" stroke-linecap="round" stroke-linejoin="round" opacity="1" fill="none"></path><path d="M969.19 855.07H1111.25" stroke="#bcd7e4" stroke-width="4" stroke-linecap="round" stroke-linejoin="round" opacity="1" fill="none"></path><path d="M602.97 720.42H649.75" stroke="#bcd7e4" stroke-width="4" stroke-linecap="round" stroke-linejoin="round" opacity="1" fill="none"></path><path d="M972.31 705.76H1111.64V910.51" stroke="#bcd7e4" stroke-width="4" stroke-linecap="round" stroke-linejoin="round" opacity="1" fill="none"></path><path d="M1111.64 909.57V705.76H1209.65" stroke="#bcd7e4" stroke-width="4" stroke-linecap="round" stroke-linejoin="round" opacity="1" fill="none"></path><path d="M742.46 752.23H795.71" stroke="#bcd7e4" stroke-width="4" stroke-linecap="round" stroke-linejoin="round" opacity="1" fill="none"></path><path d="M1161.62 910.51V839.17H1259.94" stroke="#bcd7e4" stroke-width="4" stroke-linecap="round" stroke-linejoin="round" opacity="1" fill="none"></path><path d="M1161.07 655.55L1111.64 705.76" stroke="#bcd7e4" stroke-width="4" stroke-linecap="round" stroke-linejoin="round" opacity="1" fill="none"></path><path d="M1111.64 788.41L1161.62 839.17" stroke="#bcd7e4" stroke-width="4" stroke-linecap="round" stroke-linejoin="round" opacity="1" fill="none"></path><path d="M1210.04 786.23H1112.11" stroke="#bcd7e4" stroke-width="4" stroke-linecap="round" stroke-linejoin="round" opacity="1" fill="none"></path><path d="M672.91 704.9C641.96 704.9 659.11 746.23 603.21 752.23H742.69C686.63 746.23 703.87 704.9 672.91 704.9Z" stroke="#bcd7e4" stroke-width="4" stroke-linecap="round" stroke-linejoin="round" opacity="1" fill="none"></path><path d="M603.21 909.57V752.23H742.62V910.51" stroke="#bcd7e4" stroke-width="4" stroke-linecap="round" stroke-linejoin="round" opacity="1" fill="none"></path><path d="M742.46 909.57V797.84H969.19V910.51" stroke="#bcd7e4" stroke-width="4" stroke-linecap="round" stroke-linejoin="round" opacity="1" fill="none"></path><path d="M742.85 795.74L795.24 780.61" stroke="#bcd7e4" stroke-width="4" stroke-linecap="round" stroke-linejoin="round" opacity="1" fill="none"></path><path d="M969.19 783.34V797.84H742.46" stroke="#bcd7e4" stroke-width="4" stroke-linecap="round" stroke-linejoin="round" opacity="1" fill="none"></path><path d="M772.09 911.52V839.09C772.09 830.59 779.03 823.73 787.45 823.73H787.68C796.18 823.73 803.04 830.67 803.04 839.09V911.52H772.09Z" fill="#ddedf5" opacity="1" stroke-width="4" stroke="none"></path><path d="M910.72 911.52V839.09C910.72 830.59 917.65 823.73 926.07 823.73H926.31C934.81 823.73 941.67 830.67 941.67 839.09V911.52H910.72Z" fill="#ddedf5" opacity="1" stroke-width="4" stroke="none"></path><path d="M841.4 911.52V839.09C841.4 830.59 848.34 823.73 856.76 823.73H856.99C865.49 823.73 872.35 830.67 872.35 839.09V911.52H841.4Z" fill="#ddedf5" opacity="1" stroke-width="4" stroke="none"></path><path d="M1197.72 911.52V874.33C1197.72 865.83 1204.66 858.97 1213.08 858.97H1213.31C1221.81 858.97 1228.67 865.91 1228.67 874.33V911.52H1197.72Z" fill="#ddedf5" opacity="1" stroke-width="4" stroke="none"></path><path d="M428.48 911.52V874.33C428.48 865.83 435.42 858.97 443.84 858.97H444.07C452.57 858.97 459.43 865.91 459.43 874.33V911.52H428.48Z" fill="#ddedf5" opacity="1" stroke-width="4" stroke="none"></path><path d="M546.45 911.52V874.33C546.45 865.83 553.31 858.97 561.81 858.97H562.04C570.54 858.97 577.4 865.83 577.48 874.33V911.52H546.45Z" fill="#ddedf5" opacity="1" stroke-width="4" stroke="none"></path><path d="M487.42 911.52V874.33C487.42 865.83 494.36 858.97 502.78 858.97H503.02C511.52 858.97 518.38 865.91 518.38 874.33V911.52H487.42Z" fill="#ddedf5" opacity="1" stroke-width="4" stroke="none"></path><path d="M428.48 800.49V747.94H459.43L459.51 800.49H428.48Z" fill="#ddedf5" opacity="1" stroke-width="4" stroke="none"></path><path d="M546.37 800.49V747.94H577.4V800.49H546.37Z" fill="#ddedf5" opacity="1" stroke-width="4" stroke="none"></path><path d="M487.42 800.49V747.94H518.46V800.49H487.42Z" fill="#ddedf5" opacity="1" stroke-width="4" stroke="none"></path><path d="M635.56 817.65L635.49 778.9H661.29V817.65H635.56Z" fill="#ddedf5" opacity="1" stroke-width="4" stroke="none"></path><path d="M684.53 817.65V778.9H710.26V817.65H684.53Z" fill="#ddedf5" opacity="1" stroke-width="4" stroke="none"></path><path d="M635.56 885.71L635.49 846.96 661.29 846.88V885.71H635.56Z" fill="#ddedf5" opacity="1" stroke-width="4" stroke="none"></path><path d="M684.53 885.71V846.96L710.26 846.88V885.71H684.53Z" fill="#ddedf5" opacity="1" stroke-width="4" stroke="none"></path><path d="M1003.03 766.03V727.28H1028.76L1028.84 766.03H1003.03Z" fill="#ddedf5" opacity="1" stroke-width="4" stroke="none"></path><path d="M1052.07 766.03L1051.99 727.28H1077.8V766.03H1052.07Z" fill="#ddedf5" opacity="1" stroke-width="4" stroke="none"></path><path d="M1151.01 766.03V727.28H1176.74L1176.82 766.03H1151.01Z" fill="#ddedf5" opacity="1" stroke-width="4" stroke="none"></path><path d="M1003.03 834.02V795.27H1028.76L1028.84 834.02H1003.03Z" fill="#ddedf5" opacity="1" stroke-width="4" stroke="none"></path><path d="M1052.07 834.02L1051.99 795.27H1077.8V834.02H1052.07Z" fill="#ddedf5" opacity="1" stroke-width="4" stroke="none"></path></g><g><path d="M1352.18 550.71L1353.55 513.43 1377.04 547.12 1419.4 525.29 1395.51 564.45 1432.91 579.11 1391.52 591.48 1413.07 611.2" stroke="#ffffff" stroke-width="4" stroke-linecap="round" stroke-linejoin="round" opacity="1" fill="none"></path></g><g><path d="M283.48 447.78L258.98 399.81 258.02 460.89 186.98 423.37 240.88 505.22 165.06 510.58 220.49 534.32" stroke="#ffffff" stroke-width="4" stroke-linecap="round" stroke-linejoin="round" opacity="1" fill="none"></path></g><g><path d="M721.24 517.68L721.32 517.52C731.5 500.33 740.05 488.53 746.38 482.83 752.93 476.97 758.95 475.58 765.27 474.19L765.5 474.11C766.81 473.81 768.2 473.5 769.66 473.11L771.05 472.8C774.29 471.95 778.22 469.8 782 467.71L782.39 467.48C787.24 464.86 791.87 462.39 795.11 462.39 796.34 462.39 797.34 462.7 797.96 463.4 798.58 464.01 798.89 464.78 798.81 465.71 798.65 470.64 789.48 478.89 790 479.86 789.94 480.67 792.1 480.9 794.11 480.9 799.19 480.9 802.9 479.97 807.98 478.59L808.6 478.43C811.69 477.58 815.23 476.66 819.78 475.89 822.63 475.35 825.33 475.12 827.8 475.12 832.12 475.12 835.13 476.04 836.21 477.74 840.14 478.12 842.76 479.28 843.68 481.05 844.15 481.98 844.38 483.52 843.07 485.68 843.99 486.99 844.22 488.46 843.84 489.92 842.37 495.01 832.43 499.56 821.94 504.42L815 507.66C800.81 514.52 779.84 517.52 773.75 518.3H773.6C771.82 526.39 769.2 535.03 766.58 542.74L766.5 542.89 721.24 517.68Z" fill="#996b4d" opacity="1" stroke-width="4" stroke="none"></path><path d="M663.46 1001.84V1002.52C657.12 988.52 645.57 975.4 630.73 969.68H630.09C629.75 969.56 629.55 969.18 629.08 969.04L628.25 963.74C621.08 917.55 625.17 879 626.94 855.56 628.48 834.2 625.94 815.62 618.69 795.42L618.61 795.18 700.11 794.95V795.11C700.81 803.82 701.27 811.84 701.27 819.16 701.27 848.39 699.34 883.32 697.8 911.38L697.49 917.78C696.8 930.97 696.18 942.38 695.87 950.94 695.64 959.27 698.34 966.74 704.12 973.68L704.08 974.1C698.93 986.28 696.47 992.37 687.85 1001.38V1001.34H663.34V1002.79 1003.27Z" fill="#996b4d" opacity="1" stroke-width="4" stroke="none"></path><path d="M687.16 1001.21C687.93 989.88 694.18 979.62 703.89 973.68L704.05 973.61 704.12 973.68C709.6 980.24 716.77 985.1 723.17 989.41 723.71 989.8 724.17 990.11 724.63 990.42 725.33 990.88 725.94 991.34 726.56 991.73 729.88 993.96 732.73 997.05 734.73 1000.67 734.81 1000.83 734.73 1001.06 734.5 1001.06L687.08 1001.37 687.16 1001.21Z" fill="#30a8ff" opacity="1" stroke-width="4" stroke="none"></path><path d="M636.04 1001.37C635.96 1001.37 635.88 1001.29 635.88 1001.21 633.03 990.88 630.72 980.08 629.02 968.9V968.75H630.26C648.53 968.75 663.8 983.01 665.03 1001.29V1001.44L636.04 1001.37Z" fill="#30a8ff" opacity="1" stroke-width="4" stroke="none"></path><path d="M531.89 1008.77V1008.61C527.95 989.41 517.69 977.13 503.26 970.48H502.36C502.27 970.67 502.05 970.67 502.15 970.28 501.68 970.61 501.78 970.55 502.2 970.55L501.31 969.75 501.04 968.9C494.03 923.87 499.04 886.17 502.67 867.74 504.98 855.94 508.07 845.46 510.53 836.98 514.7 822.86 518.09 810.84 520.17 795.34L597.35 795.18V795.34C596.74 800.43 596.12 804.59 595.5 807.68 592.5 825.18 587.64 847 582.94 868.13 575.69 900.51 568.21 934.05 567.75 951.02 567.44 959.81 570.44 967.75 577 975L577.08 975.15 576.92 975.23C573.52 984.36 569.75 992.27 569.52 1002.14 569.52 1002.91 569.44 1003.6 569.44 1004.3 569.44 1005.84 569.36 1007.23 569.29 1008.61V1008.77H531.89V1008.77Z" fill="#996b4d" opacity="1" stroke-width="4" stroke="none"></path><path d="M507.89 1001.37C504.88 990.42 502.64 979.54 501.03 968.98V968.83H501.26C501.87 968.75 502.41 968.75 503.03 968.75 521.3 968.75 536.57 983.01 537.8 1001.29V1001.44L507.89 1001.37Z" fill="#30a8ff" opacity="1" stroke-width="4" stroke="none"></path><path d="M562.25 1001.21C562.94 990.65 568.34 981.09 576.97 975L577.05 974.92 577.13 975C582.45 980.93 589.39 985.56 594.94 989.26 595.79 989.8 596.64 990.42 597.48 990.96L598.64 991.73C602.03 994.04 604.42 995.89 606.43 999.75L607.05 1001.13C607.12 1001.21 607.05 1001.29 606.97 1001.29L562.25 1001.37V1001.21 1001.21Z" fill="#30a8ff" opacity="1" stroke-width="4" stroke="none"></path><path d="M571.42 475.79V476.15C571.35 471.18 571.11 467.56 570.88 463.4 570.73 461.01 570.65 458.46 570.5 455.69L570.19 450.29C569.26 432.01 571.19 415.36 571.42 406.11 571.58 397.32 575.28 388.91 581.83 382.51 588.54 376.03 597.48 372.49 607.12 372.49 625.86 372.49 637.35 372.87 645.29 384.82 649.99 391.92 650.46 404.33 650.84 413.43 651 417.44 651.23 421.99 651.77 425.15 653.54 434.94 654.39 445.12 648.76 453.3 644.06 460 636.42 461.39 630.79 461.39 629.1 461.39 627.71 461.31 626.48 461.08L627.5 477.51 571.42 476.4Z" fill="#996b4d" opacity="1" stroke-width="4" stroke="none"></path><path d="M613.29 455.99C617.22 458.08 626.32 461.08 626.48 461.08L627.02 470.03 613.29 455.99Z" fill="#191919" opacity="0.2" stroke-width="4" stroke="none"></path><path d="M644.44 417.67C643.05 417.67 641.9 416.52 641.9 415.13 641.9 413.74 643.05 412.58 644.44 412.58 645.83 412.58 646.99 413.74 646.99 415.13 646.99 416.52 645.83 417.67 644.44 417.67Z" fill="#231f20" opacity="1" stroke-width="4" stroke="none"></path><path d="M626.63 418.52C625.24 418.52 624.09 417.36 624.09 415.98 624.09 414.59 625.24 413.43 626.63 413.43 628.02 413.43 629.18 414.59 629.18 415.98 629.18 417.36 628.02 418.52 626.63 418.52Z" fill="#231f20" opacity="1" stroke-width="4" stroke="none"></path><path d="M559.09 386.68C544.59 386.68 532.79 374.88 532.79 360.38 532.79 345.89 544.59 334.09 559.09 334.09 573.58 334.09 585.38 345.89 585.38 360.38 585.38 374.88 573.58 386.68 559.09 386.68Z" fill="#231f20" opacity="1" stroke-width="4" stroke="none"></path><path d="M519.3 814C518.53 814 517.83 814 517.06 813.92H516.91V813.77C518.45 806.83 519.53 801.04 520.22 795.34 521.38 786.78 522 777.91 522.08 768.97 522.15 754.55 521.38 740.05 519.76 725.94 516.37 694.1 519.53 660.94 528.94 630.1 535.95 606.97 544.28 592.63 545.21 591.01L545.28 590.85H586.77C586.84 590.78 586.92 590.78 587 590.78L648.38 589.54 648.99 591.47C649.3 592.32 685 685.23 697.26 768.89 698.65 778.76 699.57 787.09 700.27 795.11 700.73 801.35 701.19 806.83 701.27 812.07V812.15L701.12 812.22C700.34 812.53 699.73 812.69 699.11 812.84 697.03 813.38 695.02 813.69 693.1 813.69 684.23 813.69 676.06 808.37 672.43 800.35 672.05 799.42 670.74 799.42 670.35 800.35 667.57 806.36 662.33 810.99 655.85 812.84 653.7 813.38 651.77 813.69 649.76 813.69 641.13 813.69 633.19 808.68 629.41 801.04 628.87 799.89 627.17 799.89 626.63 801.04 623.78 806.75 618.69 811.07 612.44 812.84 610.28 813.38 608.36 813.69 606.35 813.69 597.41 813.69 589.16 808.21 585.53 800.2 585.15 799.35 583.99 799.35 583.61 800.2 580.83 806.36 575.59 810.99 569.03 812.92 566.87 813.46 564.95 813.77 562.94 813.77 553.07 813.77 544.05 807.14 541.2 797.65 538.11 807.29 529.17 814 519.3 814Z" fill="#32c1ff" opacity="1" stroke-width="4" stroke="none"></path><path d="M519.3 681.3C523.54 627.86 544.36 592.47 545.21 591.01L545.28 590.93H586.77L586.84 590.78H622.24L621.85 591.16C621.39 591.47 575.59 622.31 557.85 637.42 539.19 653.31 522.69 676.75 519.61 681.3 519.53 681.45 519.38 681.68 519.38 681.68L519.22 682.07 519.3 681.3Z" fill="#000000" opacity="0.2" stroke-width="4" stroke="none"></path><path d="M639.28 1012.92C638.27 1009.84 637.43 1006.76 636.58 1003.83L636.19 1002.51 635.81 1001.2C635.81 1001.13 635.88 1001.05 635.96 1001.05L734.35 1000.51C734.5 1000.51 734.58 1000.59 734.66 1000.66L735.04 1001.51C736.89 1005.06 737.82 1008.76 737.59 1012.85V1013L639.28 1012.92Z" fill="#000000" opacity="1" stroke-width="4" stroke="none"></path><path d="M626.48 461.08C623.01 459.7 619.46 458.54 615.68 457.07" stroke="#000000" stroke-width="4" stroke-linecap="round" stroke-linejoin="round" opacity="1" fill="none"></path><path d="M637.19 437.1C634.11 437.8 630.87 436.25 629.41 433.48" stroke="#191919" stroke-width="4" stroke-linecap="round" stroke-linejoin="round" opacity="1" fill="none"></path><path d="M638.12 420.99C639.12 423.61 639.89 425.54 637.27 426.62" stroke="#191919" stroke-width="4" stroke-linecap="round" stroke-linejoin="round" opacity="1" fill="none"></path><path d="M541.04 799.35C544.9 766.96 545.36 749.85 541.51 713.61 537.65 677.37 544.98 641.28 549.83 631.18" stroke="#2d2d2d" stroke-width="4" stroke-linecap="round" stroke-linejoin="round" opacity="1" fill="none"></path><path d="M842.99 486.61C834.12 485.83 814.85 494.78 797.81 496.94 797.81 496.94 765.27 486.61 752.62 496.94" stroke="#191919" stroke-width="4" stroke-linecap="round" stroke-linejoin="round" opacity="1" fill="none"></path><path d="M836.1 477.73C831.89 478.43 805.21 485.83 797.81 486.61" stroke="#191919" stroke-width="4" stroke-linecap="round" stroke-linejoin="round" opacity="1" fill="none"></path><path d="M721.63 517.06L721.39 517.37C715.3 527.7 711.06 535.95 709.6 539.04 709.21 538.34 699.65 522.38 684.85 506.5 670.97 491.54 649.53 473.65 626.25 473.57H544.2 544.05 543.97C526.24 477.89 514.13 505.96 514.06 506.19 513.98 506.34 502.8 527.86 495.32 552.45 482.75 593.55 489.69 611.52 497.79 619.38 506.11 627.48 519.3 631.56 537.03 631.56 549.99 631.56 565.95 629.17 583.22 624.7L583.99 624.47 581.06 591.16 648.68 591.08 652 562.25C657.24 569.65 665.88 580.29 676.67 589.08 688.86 598.95 700.73 603.96 711.99 603.96H712.6C727.79 603.73 749.54 592.86 766.81 542.28L767.12 541.2 721.63 517.06Z" fill="#76c6dd" opacity="1" stroke-width="4" stroke="none"></path><path d="M548.83 549.37L559.24 552.45 550.84 571.42 547.52 574.04 548.83 549.37Z" fill="#2d2d2d" opacity="0.2" stroke-width="4" stroke="none"></path><path d="M669.5 582.83C663.18 576.67 657.4 569.88 652 562.32L654 540.27H654.31L669.81 582.68 669.5 582.83Z" fill="#2d2d2d" opacity="0.2" stroke-width="4" stroke="none"></path><path d="M709.6 539.04L710.68 546.82" stroke="#2d2d2d" stroke-width="4" stroke-linecap="round" stroke-linejoin="round" opacity="1" fill="none"></path><path d="M651.77 647.37C646.45 647.37 631.57 631.26 627.17 626.24L627.09 626.17C626.71 626.17 626.32 626.17 626.01 626.24 625.63 626.24 625.24 626.24 624.86 626.24 616.3 626.24 607.89 623.85 600.57 619.3 599.95 619.54 593.32 621.93 583.45 624.63L583.22 624.39 579.37 575.66H579.52C592.94 576.43 612.37 577.9 627.17 581.37 639.97 584.38 652.08 589.77 662.25 597.1 670.04 602.73 676.44 609.36 679.45 614.83 682.61 620.69 681.92 624.32 680.76 626.32 680.22 627.17 679.76 627.63 679.53 627.79 680.07 630.41 679.68 632.64 678.45 634.11 676.83 636.04 674.36 636.35 673.59 636.42H673.43C672.2 639.51 669.89 641.05 666.57 641.05 661.25 641.05 654.7 637.04 652.15 635.34 652.77 636.65 655.78 643.52 654.08 646.29 653.62 647.06 652.85 647.37 651.77 647.37Z" fill="#996b4d" opacity="1" stroke-width="4" stroke="none"></path><path d="M651.77 634.96L637.89 621.85" stroke="#191919" stroke-width="4" stroke-linecap="round" stroke-linejoin="round" opacity="1" fill="none"></path><path d="M673.36 636.5C673.36 636.5 654.85 618.77 644.83 611.05" stroke="#191919" stroke-width="4" stroke-linecap="round" stroke-linejoin="round" opacity="1" fill="none"></path><path d="M679.53 628.02C674.13 621.08 658.78 607.04 651.38 601.72" stroke="#191919" stroke-width="4" stroke-linecap="round" stroke-linejoin="round" opacity="1" fill="none"></path><path d="M493.08 560.16C476.04 557.62 463.71 549.91 455.3 537.19 445.35 522.07 444.12 502.95 447.28 490.77 451.99 472.73 461.47 459.46 475.35 451.44 487.99 444.12 501.18 443.04 507.89 443.04 511.43 443.04 514.06 443.35 515.14 443.5 518.61 422.99 535.03 415.67 549.22 415.67 556.93 415.67 564.33 417.83 568.49 421.22 568.26 413.05 568.18 405.26 568.26 399.86 568.42 391.07 572.12 382.67 578.67 376.27 585.38 369.79 594.32 366.24 603.96 366.24 622.7 366.24 637.35 372.8 645.29 384.75 646.83 387.22 647.99 389.84 648.61 392.69V392.77L648.53 392.84C648.53 392.84 648.45 392.84 648.38 392.92 646.29 393.92 640.51 396.24 630.87 396.24 624.15 396.38 612.01 394.06 612.21 394.28 614.22 402.05 612.92 406.04 612.34 408.87L610.78 414.5 609.43 418.37C609.1 419.59 601.03 413.28 593.78 413.28 589.54 413.28 586.46 414.97 584.76 418.44 579.6 428.93 593.32 440.96 596.17 443.27 596.25 443.35 596.25 443.35 596.25 443.35L596.33 443.43V443.5C589.77 499.33 551.61 507.66 529.4 507.66 521.92 507.66 516.29 506.65 514.29 506.27 513.36 507.73 493.08 560.16 493.08 560.16Z" fill="#231f20" opacity="1" stroke-width="4" stroke="none"></path><path d="M580.06 575.66C562.32 574.89 538.42 574.81 538.42 574.81" stroke="#2d2d2d" stroke-width="4" stroke-linecap="round" stroke-linejoin="round" opacity="1" fill="none"></path><path d="M529.01 631.26C547.75 632.72 568.8 628.48 583.22 624.7" stroke="#2d2d2d" stroke-width="4" stroke-linecap="round" stroke-linejoin="round" opacity="1" fill="none"></path><path d="M559.24 552.45L549.29 574.51" stroke="#2d2d2d" stroke-width="4" stroke-linecap="round" stroke-linejoin="round" opacity="1" fill="none"></path><path d="M511.36 1012.93C510.36 1009.85 509.51 1006.76 508.66 1003.83L508.2 1002.45 507.89 1001.52C507.81 1001.29 507.96 1001.06 508.2 1001.06H606.97L607.05 1001.13C608.9 1004.68 609.74 1008.69 609.51 1012.78V1012.93H511.36Z" fill="#000000" opacity="1" stroke-width="4" stroke="none"></path><path d="M651.92 562.86L654.08 542.43" stroke="#2d2d2d" stroke-width="4" stroke-linecap="round" stroke-linejoin="round" opacity="1" fill="none"></path></g><g><path d="M925.59 760.76C921.35 760.76 920 755.72 919.73 754.46 919.73 754.37 919.64 754.37 919.64 754.37 905.4 757.25 911.17 720.21 911.53 716.69 911.53 716.6 911.44 716.6 911.44 716.6 910.63 716.97 909.45 717.33 908.19 717.33 902.15 716.78 902.42 710.48 903.51 702.64 904.59 697.68 906.57 685.6 911.53 668.66 911.53 668.57 911.53 668.48 911.62 668.48 912.16 668.57 930.09 670.1 930.45 670.1 930.9 670.28 962.54 681.91 963.89 682.81V682.9C959.47 700.65 958.03 715.34 956.95 725.89 955.51 736.97 955.69 746.07 949.92 747.25 947.31 747.25 945.23 743.37 944.42 741.48 944.42 741.39 944.24 741.39 944.24 741.48 942.26 756.89 936.58 759.14 933.25 759.14 931.98 759.14 930.99 758.78 930.63 758.6H930.54C928.74 760.13 927.03 760.76 925.59 760.76Z" fill="#cf5934" opacity="1" stroke-width="4" stroke="none"></path><path d="M911.71 716.24C917.11 710.84 920.72 700.02 920.72 700.02 920.81 699.84 930.63 693.71 933.34 681.1" stroke="#030202" stroke-width="4" stroke-linecap="round" stroke-linejoin="round" opacity="1" fill="none"></path><path d="M919.82 754.09C922.52 741.48 926.13 714.44 926.13 714.44" stroke="#030202" stroke-width="4" stroke-linecap="round" stroke-linejoin="round" opacity="1" fill="none"></path><path d="M930.63 758.6C934.24 745.98 936.04 734.27 938.74 716.24" stroke="#000000" stroke-width="4" stroke-linecap="round" stroke-linejoin="round" opacity="1" fill="none"></path><path d="M944.15 740.58C945.05 736.07 946.85 721.65 947.76 715.34" stroke="#000000" stroke-width="4" stroke-linecap="round" stroke-linejoin="round" opacity="1" fill="none"></path><path d="M944.51 990.84C944.42 990.57 922.07 949.84 921.98 949.66 923.42 942.18 924.05 931.9 924.14 918.11 923.78 917.57 998.4 918.11 998.4 917.93 998.22 923.34 997.86 928.75 997.41 934.34 996.06 948.58 994.53 962.27 992.1 975.07L944.51 990.84Z" fill="#cf5934" opacity="1" stroke-width="4" stroke="none"></path><path d="M1069.6 985.43C1069.6 985.25 1042.2 949.93 1042.38 949.66 1041.21 939.56 1039.59 929.56 1037.34 919.65 1037.79 918.48 1066.81 856.56 1066.72 856.47 1066.72 856.47 1111.23 918.57 1112.14 919.83 1113.76 938.39 1113.58 956.51 1112.32 975.07L1111.41 977.77 1069.6 985.43Z" fill="#cf5934" opacity="1" stroke-width="4" stroke="none"></path><path d="M1019.94 662.35C1008.86 662.35 999.85 653.34 999.85 642.25V528.88C999.85 517.8 1008.86 508.79 1019.94 508.79H1070.41C1079.87 508.79 1088.16 515.55 1090.06 524.83L1113.4 638.29C1115.65 649.1 1108.62 659.74 1097.81 661.99 1096.45 662.26 1095.1 662.44 1093.75 662.44L1019.94 662.35Z" fill="#1f2123" opacity="1" stroke-width="4" stroke="none"></path><path d="M1107.27 883.87C1101.41 854.4 1096 838.09 1091.68 825.02 1085.82 807.27 1082.22 796.54 1082.76 768.6 1082.85 760.94 1083.21 753.01 1083.48 744.63 1085.1 699.48 1087.08 648.2 1066.35 612.52 1066.35 612.52 1066.35 612.42 1066.26 612.42 1064.82 612.52 1032.2 612.33 1012.55 612.33 990.83 612.33 959.02 612.42 957.49 612.52 957.49 612.52 957.4 612.52 957.4 612.61 952.53 625.4 947.85 641.44 943.52 659.38 942.17 664.97 940.91 670.73 939.55 676.59 926.76 736.43 918.38 812.49 923.15 869.63 923.78 887.11 924.23 903.33 924.05 918.2 924.05 918.29 924.05 918.29 924.14 918.29 926.85 918.29 995.61 918.29 998.22 918.29 998.31 918.29 998.31 918.29 998.31 918.2 999.21 894.41 996.87 876.12 994.89 860.08 992.73 843.31 990.92 828.71 993.54 812.76 996.51 798.79 1000.21 784.11 1004.26 768.96 1004.26 769.05 1004.26 769.05 1004.26 769.14 1006.42 788.16 1009.4 806.45 1013.45 823.04 1020.93 854.85 1030.85 890.81 1037.16 919.56L1037.25 919.65 1068.34 919.74C1068.43 919.74 1068.43 919.74 1068.43 919.65 1068.52 917.66 1070.14 878.01 1070.32 874.05 1070.32 873.96 1070.41 873.96 1070.5 874.05 1081.13 892.52 1090.24 919.11 1090.96 920.19 1090.96 920.19 1090.96 920.19 1091.05 920.19L1111.96 919.74C1112.05 919.74 1112.05 919.65 1112.05 919.65 1111.14 907.75 1109.61 895.58 1107.27 883.87Z" fill="#30a8ff" opacity="1" stroke-width="4" stroke="none"></path><path d="M983.62 465.62V460.21C983.62 460.03 983.44 459.94 983.26 459.94 962.17 468.41 949.29 454.71 950.73 437.68L951.18 431.82C951.18 431.73 951.18 431.64 951 431.55 949.92 431.01 945.77 428.31 945.77 425.06 945.77 421.82 950.01 419.93 951.09 419.57 951.18 419.57 951.27 419.48 951.27 419.3 950.01 386.49 969.02 370.45 1000.39 371.8 1008.68 372.25 1035.8 376.4 1035.8 413.44L1036.25 465.53C1036.25 465.71 1036.16 465.8 1035.98 465.8 1035.71 465.62 983.62 466.16 983.62 465.62Z" fill="#cf5934" opacity="1" stroke-width="4" stroke="none"></path><path d="M999.76 452.91L984.34 469.76C984.07 470.03 983.62 469.85 983.62 469.49V460.12C983.62 459.94 983.71 459.76 983.89 459.76 985.43 459.22 990.92 456.7 999.21 452.28 999.67 452.01 1000.03 452.55 999.76 452.91Z" fill="#030202" opacity="0.2" stroke-width="4" stroke="none"></path><path d="M879.62 999.04C879.53 999.04 879.53 998.95 879.53 998.86 887.83 984.44 908.82 976.15 917.93 961.28 919.64 958.67 920.99 954.7 921.98 949.66 921.62 949.21 940.46 949.57 941.9 949.48H942.17C949.02 949.39 954.6 956.24 953.07 962.9 953.07 962.9 951.18 972.37 950.82 974.26 950.82 974.44 950.91 974.62 951.09 974.62 954.88 974.71 988.31 974.35 991.91 974.71 992.1 974.71 992.19 974.89 992.19 975.07 990.74 983.18 987.68 997.24 987.23 999.22 987.23 999.22 987.23 999.31 987.14 999.31 985.7 999.31 940.37 1004.63 939.46 1004.72 938.29 1004.63 882.15 998.95 879.62 999.04Z" fill="#2c3c5b" opacity="1" stroke-width="4" stroke="none"></path><path d="M1010.03 999.4C1010.03 999.4 1018.32 990.75 1026.07 985.25 1030.22 982.37 1034 978.41 1037.97 975.43 1044.37 970.56 1042.38 949.57 1042.38 949.57H1062.66C1063.38 949.57 1064.1 949.66 1064.82 949.75 1070.95 950.92 1074.92 956.96 1073.74 963.08L1071.49 974.26C1071.4 974.53 1071.67 974.89 1071.94 974.89 1076.99 974.98 1112.59 974.53 1112.23 975.07 1111.6 983.45 1110.69 991.83 1109.52 999.58 1109.43 1000.49 1068.34 1014.27 1010.03 999.4Z" fill="#2c3c5b" opacity="1" stroke-width="4" stroke="none"></path><path d="M993.45 812.22C996.42 799.16 1000.21 784.47 1004.35 769.14 1001.38 743.28 999.85 715.97 999.03 689.12 999.03 689.03 998.94 689.03 998.85 689.03 977.59 708.22 992 803.57 993.36 812.22 993.27 812.31 993.45 812.31 993.45 812.22Z" fill="#001321" opacity="0.2" stroke-width="4" stroke="none"></path><path d="M1088.43 489.86C1068.43 472.56 1039.32 471.03 1036.34 470.94L1036.25 470.85V465.53H983.62V471.12C983.62 471.57 983.35 472.02 982.9 472.2 979.84 473.73 967.58 479.86 962.08 484.54 942.44 500.86 938.38 548.44 933.88 574.21 930 603.32 919.1 636.04 911.53 668.48 911.53 668.48 911.53 668.57 911.62 668.57 912.79 668.84 926.58 672.9 939.73 676.5 941 670.55 942.35 664.88 943.7 659.29 947.94 641.8 952.53 626.3 957.22 613.69 955.69 618.19 954.06 622.7 952.44 628.11 952.26 627.84 1067.62 627.84 1073.56 627.84 1073.65 627.84 1073.74 627.75 1073.74 627.66 1073.47 626.84 1073.11 625.94 1072.75 624.95 1072.75 624.77 1072.84 624.68 1073.02 624.77 1081.22 628.2 1090.6 630.9 1099.43 630.36 1116.1 630.36 1136.65 624.14 1139.98 594.67 1144.49 559.61 1106.82 506.71 1088.43 489.86Z" fill="#32c1ff" opacity="1" stroke-width="4" stroke="none"></path><path d="M998.94 688.94C999.85 712.64 1001.38 743.37 1004.35 768.87" stroke="#001321" stroke-width="4" stroke-linecap="round" stroke-linejoin="round" opacity="1" fill="none"></path><path d="M1013.36 442.1C1013.72 441.2 1023.1 431.46 1022.83 421.91 1022.74 418.58 1021.29 415.69 1018.77 413.35 1010.48 404.79 993.27 419.03 992 420.56 992 420.56 992 420.56 991.91 420.56 990.92 420.29 977.59 413.89 977.32 397.31 977.32 397.22 977.23 397.22 977.23 397.22 970.11 399.74 963.89 401 958.84 401 954.88 400.91 953.34 400.37 953.25 400.1 953.25 400.1 953.25 400.1 953.25 400.01 957.13 377.57 972.72 366.21 996.78 366.12 1044.09 367.75 1035.98 406.59 1036.25 449.94 1036.25 450.03 1036.25 450.03 1036.16 450.03 1034.9 449.94 1019.67 449.22 1013.36 442.1Z" fill="#231f20" opacity="1" stroke-width="4" stroke="none"></path><path d="M951.36 562.68C950.64 568.45 949.92 573.76 949.29 578.45 945.95 604.49 957.49 612.52 957.49 612.52L954.97 619.63 952.26 628.11" stroke="#000000" stroke-width="4" stroke-linecap="round" stroke-linejoin="round" opacity="1" fill="none"></path><path d="M957.67 612.61H1048.24" stroke="#000000" stroke-width="4" stroke-linecap="round" stroke-linejoin="round" opacity="1" fill="none"></path><path d="M968.21 627.93L972.18 612.61" stroke="#000000" stroke-width="4" stroke-linecap="round" stroke-linejoin="round" opacity="1" fill="none"></path><path d="M984.25 627.93L987.41 612.61" stroke="#000000" stroke-width="4" stroke-linecap="round" stroke-linejoin="round" opacity="1" fill="none"></path><path d="M1001.02 627.93L1002.73 612.61" stroke="#000000" stroke-width="4" stroke-linecap="round" stroke-linejoin="round" opacity="1" fill="none"></path><path d="M1016.34 627.93L1018.05 612.61" stroke="#000000" stroke-width="4" stroke-linecap="round" stroke-linejoin="round" opacity="1" fill="none"></path><path d="M1032.56 627.93L1033.37 612.61" stroke="#000000" stroke-width="4" stroke-linecap="round" stroke-linejoin="round" opacity="1" fill="none"></path><path d="M1049.77 627.84L1048.24 612.61" stroke="#000000" stroke-width="4" stroke-linecap="round" stroke-linejoin="round" opacity="1" fill="none"></path><path d="M1077.53 640.72C1052.12 636.22 1003.27 611.07 998.94 566.64 991.82 526.99 1018.32 484.54 1036.25 470.94 1043.01 470.76 1049.05 471.39 1058.51 474.63 1057.52 475.98 1018.23 514.91 1022.74 560.34 1025.53 600.35 1050.58 611.97 1072.48 624.68 1077.98 633.6 1077.71 640.45 1077.71 640.54V640.72H1077.53Z" fill="#1f2123" opacity="1" stroke-width="4" stroke="none"></path><path d="M1041.75 604.4L1028.14 594.22C1026.43 593.86 1016.7 592.78 999.85 579.35 997.05 577.1 991.91 576.11 986.96 575.02 980.65 573.76 974.7 572.5 974.7 568.99 974.7 567 979.21 565.92 988.22 565.92 990.65 565.92 993.09 566.01 994.98 566.1 995.52 566.1 995.61 565.47 995.16 565.29 985.97 561.51 966.86 554.48 972.81 543.66 972.9 543.48 972.9 543.3 972.81 543.12 970.38 540.15 971.46 533.03 977.41 533.39 978.31 533.39 978.94 533.48 979.48 533.57 979.75 533.57 979.93 533.48 980.02 533.21 980.65 530.23 984.62 528.88 988.76 529.42 995.97 530.14 1012.55 535.82 1017.42 537.53 1017.78 537.62 1018.14 537.26 1017.96 536.99 1010.12 514.01 1042.56 545.56 1048.15 551.86L1067.08 563.76C1067.26 563.85 1067.35 564.12 1067.26 564.39L1042.29 604.85 1041.75 604.4Z" fill="#cf5934" opacity="1" stroke-width="4" stroke="none"></path><path d="M1040.76 973.18L1049.59 979.4" stroke="#1c1c1c" stroke-width="4" stroke-linecap="round" stroke-linejoin="round" opacity="1" fill="none"></path><path d="M1033.46 979.94L1038.78 985.43" stroke="#1c1c1c" stroke-width="4" stroke-linecap="round" stroke-linejoin="round" opacity="1" fill="none"></path><path d="M907.2 973.27L917.11 979.4" stroke="#1c1c1c" stroke-width="4" stroke-linecap="round" stroke-linejoin="round" opacity="1" fill="none"></path><path d="M900.62 979.22L906.3 985.43" stroke="#1c1c1c" stroke-width="4" stroke-linecap="round" stroke-linejoin="round" opacity="1" fill="none"></path><path d="M979.75 533.48C989.75 536.45 1019.76 547.9 1019.76 547.9" stroke="#030202" stroke-width="4" stroke-linecap="round" stroke-linejoin="round" opacity="1" fill="none"></path><path d="M972.9 543.39L1013.54 557.63" stroke="#030202" stroke-width="4" stroke-linecap="round" stroke-linejoin="round" opacity="1" fill="none"></path><path d="M1017.87 537.44L1026.25 540.87" stroke="#030202" stroke-width="4" stroke-linecap="round" stroke-linejoin="round" opacity="1" fill="none"></path><path d="M1003.63 432.36L1009.04 426.96" stroke="#030202" stroke-width="4" stroke-linecap="round" stroke-linejoin="round" opacity="1" fill="none"></path><path d="M960.46 439.57C964.25 440.11 967.22 437.14 967.49 435.61" stroke="#030202" stroke-width="4" stroke-linecap="round" stroke-linejoin="round" opacity="1" fill="none"></path><path d="M963.08 416.41C966.14 416.41 966.14 421.1 963.08 421.1 960.01 421.1 960.01 416.41 963.08 416.41Z" fill="#231f20" opacity="1" stroke-width="4" stroke="none"></path><path d="M1067.08 563.76L1102.31 582.96" stroke="#000000" stroke-width="4" stroke-linecap="round" stroke-linejoin="round" opacity="1" fill="none"></path><path d="M1066.17 536.09L1078.7 569.62" stroke="#000000" stroke-width="4" stroke-linecap="round" stroke-linejoin="round" opacity="1" fill="none"></path><path d="M1071.4 974.8L1065.27 999.22" stroke="#1c1c1c" stroke-width="4" stroke-linecap="round" stroke-linejoin="round" opacity="1" fill="none"></path><path d="M950.46 974.89L944.87 999.22" stroke="#1c1c1c" stroke-width="4" stroke-linecap="round" stroke-linejoin="round" opacity="1" fill="none"></path><path d="M1067.62 564.12L1067.08 563.76 1055.09 556.19C1054.73 555.92 1054.55 555.47 1054.73 555.11 1055.45 552.95 1057.79 546.01 1058.96 541.23 1059.51 538.26 1062.66 535.91 1065.09 535.46 1065.54 535.37 1065.99 535.64 1066.17 536.09 1067.71 540.15 1075.37 560.61 1077.89 567.45 1078.16 568.27 1077.35 568.99 1076.63 568.63 1073.38 567 1067.62 564.12 1067.62 564.12Z" fill="#000000" opacity="0.2" stroke-width="4" stroke="none"></path><path d="M983.62 459.85C987.32 458.23 999.21 452.28 999.21 452.28" stroke="#030202" stroke-width="4" stroke-linecap="round" stroke-linejoin="round" opacity="1" fill="none"></path><path d="M948.48 584.13C948.48 584.04 948.39 584.04 948.3 584.04 942.35 588.18 937.93 602.33 942.8 649.1 943.16 652.62 943.34 655.86 943.43 658.75 943.43 658.84 943.61 658.84 943.61 658.75 947.94 641.08 952.53 625.4 957.31 612.79V612.7C956.05 611.43 947.4 602.78 948.48 584.13Z" fill="#000000" opacity="0.2" stroke-width="4" stroke="none"></path><path d="M875.48 1012.83C875.48 1007.97 876.74 1002.92 879.53 998.95H879.62C882.15 998.95 984.25 999.4 987.14 999.4 987.14 999.4 987.23 999.4 987.14 999.49 986.87 1000.39 983.26 1012.11 982.81 1012.92 982.81 1012.92 982.81 1012.92 982.72 1012.92 980.29 1012.83 878.72 1012.92 875.48 1012.83 875.48 1012.92 875.48 1012.92 875.48 1012.83Z" fill="#1c1c1c" opacity="1" stroke-width="4" stroke="none"></path><path d="M1010.03 999.4C1010.12 999.4 1105.92 999.49 1109.52 999.49 1109.61 999.49 1109.61 999.58 1109.61 999.58 1109.43 1000.85 1107.36 1011.84 1107.18 1012.74 1107.18 1012.83 1107.09 1012.92 1106.91 1012.92H1004.62C1004.17 1012.92 1003.9 1012.56 1003.99 1012.11 1004.62 1009.86 1003.72 1004.18 1010.03 999.4Z" fill="#1c1c1c" opacity="1" stroke-width="4" stroke="none"></path><path d="M1042.29 604.85C1042.29 604.85 1070.14 629.01 1093.93 630.27" stroke="#000000" stroke-width="4" stroke-linecap="round" stroke-linejoin="round" opacity="1" fill="none"></path></g></svg>