<svg width="471" height="502" viewBox="0 0 471 502" fill="none" xmlns="http://www.w3.org/2000/svg">
<path fill-rule="evenodd" clip-rule="evenodd" d="M224.379 4.35144C266.126 17.8153 264.529 85.9695 303.427 106.249C349.283 130.155 419.484 86.0281 454.341 124.24C485.769 158.692 467.08 220.136 444.583 260.989C424.105 298.175 363.414 294.335 340.867 330.301C311.097 377.788 346.092 456.972 300.926 490.141C260.298 519.977 201.146 486.417 154.594 467.096C111.597 449.251 73.4885 421.58 45.7039 384.213C19.209 348.581 -6.81383 304.961 1.61464 261.358C9.87058 218.647 69.3199 206.286 87.7163 166.87C105.843 128.031 76.4394 74.7404 104.022 41.9397C131.638 9.09827 183.55 -8.81586 224.379 4.35144Z" fill="#E1E1E1"/>
<path d="M45.9463 366.52C56.5673 392.259 81.4118 404.415 97.2926 412.187C113.131 419.933 131.058 425.483 150.102 428.549C168.257 431.472 188.104 424.832 207.469 422.974C231.501 420.676 255.162 421.817 278.197 411.291C294.111 404.026 309.409 394.692 323.565 383.119C339.606 370.009 418.663 301.339 400.347 208.46C384.162 126.351 302.424 78.7747 233.556 72.5067C176.502 67.3031 101.969 88.0922 75.5939 138.211C59.0027 169.737 78.8918 179.722 65.2857 251.111C53.5062 312.904 32.966 335.045 45.9463 366.52Z" fill="#C1FF72"/>
<path d="M279.22 410.987C276.015 386.996 273.588 371.453 273.588 371.453L172.147 353.857L162.016 382.545C158.989 391.237 154.837 404.085 150.964 419.899C150.398 422.231 149.67 425.28 149.002 428.38C190.286 435.113 237.082 430.551 279.22 410.987Z" fill="black"/>
<path d="M151.226 380.272C148.977 387.942 145.459 398.544 149.357 403.638C156.435 412.888 162.304 411.401 171.048 408.225C188.518 401.855 216.407 391.803 224.542 397.395L224.905 380.272H151.226Z" fill="black"/>
<path d="M251.424 216.13C265.935 216.063 279.195 224.257 285.545 237.206C292.902 252.218 303.286 291.473 303.692 308.621C304.403 338.601 278.112 340.291 277.334 340.333C277.326 340.333 277.317 340.341 277.317 340.35C277.402 341.22 280.471 373.785 280.717 379.563C281.156 390.139 261.53 406.637 238.977 398.51C216.542 390.426 155.252 374.308 149.019 388.027C149.011 388.052 148.986 388.044 148.994 388.019L174.709 292.723C174.709 292.715 174.701 292.706 174.684 292.706L153.577 293.72C153.577 293.72 153.577 293.72 153.569 293.72L136.377 283.786C136.377 283.786 136.369 283.777 136.369 283.769L140.724 264.509C148.994 231.597 171.115 216.502 199.672 216.367L251.424 216.13Z" fill="#7ED957"/>
<path d="M183.741 289.64C179.792 288.913 180.874 284.343 167.014 283.524C127.008 281.141 146.398 260.851 169.306 264.72C176.908 265.995 179.893 270.903 182.751 272.153C206.725 282.603 191.605 291.093 183.741 289.64Z" fill="white"/>
<path d="M183.859 289.006C187.875 289.741 193.879 287.697 194.911 284.335C195.537 282.299 194.75 278.092 182.489 272.745C181.482 272.314 180.51 271.495 179.377 270.548C177.06 268.614 174.176 266.198 169.204 265.362C158.684 263.588 148.985 266.975 145.679 271.267C144.875 272.314 144.089 273.927 144.884 275.685C145.713 277.492 149.535 281.826 167.048 282.873C176.569 283.439 179.242 285.762 181.195 287.452C182.091 288.229 182.734 288.795 183.859 289.006ZM185.668 290.459C184.958 290.459 184.273 290.408 183.622 290.282C182.142 290.011 181.263 289.251 180.332 288.44C178.523 286.869 176.045 284.715 166.972 284.174C153.949 283.397 145.687 280.576 143.7 276.225C142.854 274.367 143.184 272.382 144.647 270.472C148.19 265.869 158.422 262.219 169.415 264.078C174.743 264.973 177.905 267.617 180.214 269.552C181.271 270.43 182.176 271.191 183.013 271.554C195.537 277.019 197.076 281.724 196.162 284.715C195.072 288.271 190.015 290.459 185.668 290.459Z" fill="black"/>
<path d="M234.097 221.739C235.434 220.599 234.723 218.419 232.981 218.208L230.267 217.879C227.349 217.532 224.922 215.598 223.975 212.92L219.502 179.958L210.344 183.227L198.218 177.238L199.3 212.464C199.215 215.53 197.211 218.242 194.243 219.306L190.7 220.565C188.84 221.232 188.747 223.758 190.556 224.552C197.769 227.686 227.104 227.711 234.097 221.739Z" fill="white"/>
<path d="M198.903 178.311L199.951 212.438C199.858 215.843 197.702 218.757 194.463 219.923L190.92 221.182C190.193 221.443 189.922 222.06 189.905 222.542C189.888 223.023 190.117 223.648 190.818 223.952C194.277 225.456 203.148 226.267 212.382 225.912C222.758 225.515 230.715 223.766 233.675 221.241C234.081 220.894 234.233 220.371 234.072 219.847C233.945 219.416 233.573 218.935 232.897 218.858L230.191 218.529C227.02 218.149 224.398 216.079 223.358 213.14C223.341 213.097 223.333 213.047 223.324 213.004L218.969 180.845L210.564 183.844C210.395 183.903 210.209 183.895 210.056 183.818L198.903 178.311ZM208.145 227.297C200.357 227.297 193.364 226.486 190.294 225.143C189.212 224.679 188.561 223.657 188.603 222.499C188.637 221.334 189.364 220.354 190.48 219.957L194.023 218.69C196.755 217.718 198.564 215.26 198.649 212.447L197.567 177.263C197.558 177.035 197.668 176.816 197.863 176.697C198.057 176.571 198.302 176.554 198.505 176.655L210.386 182.526L219.282 179.341C219.468 179.282 219.671 179.299 219.84 179.4C220.009 179.502 220.128 179.671 220.153 179.874L224.61 212.759C225.497 215.201 227.688 216.916 230.343 217.237L233.057 217.558C234.14 217.693 235.011 218.428 235.324 219.467C235.637 220.489 235.324 221.545 234.52 222.237C229.945 226.14 217.549 227.019 212.433 227.213C210.995 227.272 209.549 227.297 208.145 227.297Z" fill="black"/>
<path d="M223.569 153.746C239.188 159.49 236.499 169.585 236.499 169.585C236.304 172.364 236.194 177.449 236.71 179.291C237.133 180.811 239.636 183.667 239.754 184.511C239.873 185.356 238.52 187.096 235.814 187.704C235.814 187.704 234.791 201.195 231.247 203.408C227.713 205.613 214.081 201.372 214.081 201.372L211.79 200.46C204.399 197.495 199.883 191.345 197.735 183.726C197.735 183.726 187.791 140.585 223.569 153.746Z" fill="white"/>
<path d="M214.301 200.764C218.03 201.921 228.212 204.54 230.901 202.859C233.581 201.186 234.884 191.32 235.163 187.662C235.188 187.375 235.391 187.138 235.67 187.071C238.19 186.496 239.154 184.984 239.103 184.604C239.053 184.342 238.418 183.413 237.953 182.746C237.158 181.58 236.338 180.389 236.084 179.468C235.467 177.289 235.704 171.561 235.848 169.542C235.848 169.5 235.856 169.458 235.865 169.416C235.966 169.027 238.165 159.811 223.341 154.362C213.946 150.907 206.97 151.102 202.615 154.937C193.702 162.776 198.319 183.379 198.37 183.582C200.611 191.539 205.338 197.174 212.026 199.852L214.301 200.764ZM227.907 204.692C222.732 204.692 214.986 202.344 213.878 201.997C213.87 201.997 213.853 201.989 213.836 201.981L211.536 201.06C204.467 198.23 199.469 192.3 197.101 183.911C196.898 182.999 192.256 162.311 201.744 153.957C206.496 149.784 213.912 149.505 223.789 153.137C239.086 158.763 237.353 168.723 237.15 169.678C236.947 172.609 236.871 177.441 237.336 179.113C237.539 179.823 238.368 181.031 239.036 182.011C239.856 183.202 240.321 183.903 240.397 184.427C240.575 185.685 239.002 187.485 236.431 188.228C236.194 190.906 235.044 201.812 231.594 203.957C230.757 204.489 229.446 204.692 227.907 204.692Z" fill="black"/>
<path d="M218.428 146.447C222.529 147.444 226.546 150.003 228.668 150.232C232.085 150.595 234.554 146.211 238.875 147.807C242.672 149.201 244.811 152.428 245.353 156.069C245.446 156.677 245.471 157.319 245.412 158.003C244.608 167.211 238.841 169.171 236.499 169.585C236.499 169.585 222.944 168.334 220.297 168.968C217.828 169.568 213.997 173.42 212.847 178.885C212.703 179.586 212.077 180.102 211.358 180.161C210.513 180.22 209.743 179.637 209.6 178.809C209.151 176.182 207.908 170.936 205.245 170.776C202.133 170.598 198.167 176.748 202.234 180.592C203.486 181.783 203.071 183.937 201.465 184.587C200.137 185.119 198.471 185.153 196.662 183.692C196.662 183.692 188.637 169.635 192.467 157.767C196.289 145.906 212.965 145.112 218.428 146.447Z" fill="black"/>
<path d="M240.228 184.157C240.05 184.157 239.881 184.089 239.746 183.954C239.501 183.684 239.518 183.27 239.788 183.025C240.744 182.138 241.437 180.152 241.547 177.965C241.632 176.393 241.412 174.907 240.938 173.792C240.532 172.837 239.991 172.271 239.458 172.246C239.442 172.246 239.425 172.246 239.408 172.246C238.435 172.246 237.395 173.893 236.972 176.106C236.905 176.461 236.566 176.689 236.211 176.621C235.856 176.562 235.619 176.216 235.695 175.861C236.27 172.837 237.81 170.86 239.518 170.945C240.592 170.995 241.522 171.832 242.139 173.285C242.689 174.577 242.942 176.267 242.849 178.032C242.723 180.575 241.885 182.864 240.668 183.988C240.549 184.097 240.389 184.157 240.228 184.157Z" fill="black"/>
<path d="M229.988 172.051C228.195 172.051 226.563 174.619 226.402 177.728C226.318 179.341 226.622 180.87 227.265 182.036C227.848 183.1 228.635 183.7 229.48 183.751C231.315 183.835 233.007 181.242 233.167 178.074C233.252 176.461 232.947 174.932 232.305 173.766C231.721 172.71 230.935 172.102 230.089 172.06C230.055 172.051 230.022 172.051 229.988 172.051ZM229.582 185.052C229.523 185.052 229.472 185.052 229.413 185.052C228.102 184.984 226.935 184.14 226.115 182.67C225.362 181.293 224.999 179.519 225.092 177.66C225.303 173.656 227.527 170.607 230.157 170.75C231.468 170.818 232.635 171.663 233.446 173.141C234.207 174.509 234.571 176.283 234.469 178.142C234.267 182.061 232.136 185.052 229.582 185.052Z" fill="black"/>
<path d="M226.233 175.481C226.208 175.481 226.191 175.481 226.174 175.481L211.274 174.155C210.91 174.121 210.648 173.8 210.682 173.445C210.716 173.082 211.029 172.82 211.392 172.854L226.284 174.18C226.647 174.214 226.91 174.535 226.876 174.89C226.85 175.228 226.563 175.481 226.233 175.481Z" fill="black"/>
<path d="M233.573 125.945L240.355 143.254C243.095 150.35 233.488 160.605 218.91 166.147C204.323 171.688 190.277 170.421 187.537 163.317L180.755 146.008L233.573 125.945Z" fill="#7ED957"/>
<path d="M181.61 146.388L188.146 163.08C190.759 169.838 204.45 170.936 218.682 165.538C228.542 161.788 236.626 155.545 239.264 149.632C240.279 147.359 240.44 145.298 239.746 143.482L233.193 126.782L181.61 146.388ZM201.659 170.252C200.653 170.252 199.672 170.21 198.725 170.117C192.544 169.568 188.349 167.228 186.929 163.553L180.147 146.253C180.088 146.084 180.088 145.907 180.164 145.746C180.231 145.586 180.367 145.467 180.527 145.4L233.337 125.337C233.666 125.21 234.047 125.371 234.174 125.709L240.964 143.018C241.793 145.163 241.624 147.562 240.457 150.164C237.641 156.474 229.472 162.827 219.138 166.755C213.126 169.044 207.029 170.252 201.659 170.252Z" fill="black"/>
<path d="M177.254 141.303L199.909 119.525C200.348 119.145 200.907 118.942 201.49 118.925L233.006 120.117L243.797 116.02L245.801 121.223C245.928 121.553 245.868 121.941 245.547 122.212L213.371 149.716C212.931 150.097 212.373 150.308 211.79 150.316L169.331 151.169C168.917 151.186 168.604 150.924 168.477 150.595L166.473 145.4L177.254 141.303Z" fill="black"/>
<path d="M167.31 145.771L169.086 150.367C169.111 150.426 169.17 150.519 169.314 150.519L211.781 149.666C212.204 149.657 212.619 149.505 212.948 149.226L245.124 121.721C245.234 121.629 245.209 121.519 245.192 121.46L243.416 116.864L233.243 120.725C233.159 120.758 233.066 120.775 232.981 120.767L201.465 119.576C201.076 119.584 200.653 119.745 200.332 120.024L177.703 141.776C177.644 141.835 177.567 141.877 177.483 141.911L167.31 145.771ZM169.314 151.828C168.663 151.828 168.105 151.44 167.868 150.831L165.864 145.636C165.796 145.476 165.805 145.29 165.873 145.138C165.94 144.977 166.075 144.851 166.236 144.791L176.899 140.745L199.461 119.052C200.036 118.554 200.746 118.292 201.473 118.275L232.905 119.466L243.56 115.411C243.89 115.285 244.27 115.453 244.397 115.791L246.41 120.987C246.646 121.603 246.477 122.287 245.97 122.71L213.794 150.215C213.244 150.688 212.534 150.958 211.807 150.966L169.34 151.828C169.331 151.828 169.323 151.828 169.314 151.828Z" fill="black"/>
<path d="M166.718 144.411L198.894 116.906C199.334 116.526 199.892 116.315 200.475 116.307L242.934 115.453C243.771 115.437 244.177 116.476 243.543 117.016L211.359 144.521C210.927 144.893 210.361 145.104 209.786 145.121L167.319 145.974C166.49 145.991 166.084 144.952 166.718 144.411Z" fill="#7ED957"/>
<path d="M167.141 144.901C167.039 144.994 167.048 145.095 167.082 145.163C167.099 145.222 167.149 145.332 167.31 145.324L209.769 144.47C210.2 144.453 210.614 144.301 210.936 144.023L243.12 116.518C243.222 116.433 243.205 116.332 243.179 116.256C243.162 116.197 243.112 116.095 242.951 116.104L200.492 116.957C200.061 116.965 199.647 117.126 199.317 117.396L167.141 144.901ZM167.301 146.624C166.65 146.624 166.092 146.236 165.855 145.628C165.627 145.011 165.796 144.344 166.295 143.913L198.471 116.408C199.021 115.935 199.731 115.665 200.458 115.656L242.926 114.794C243.585 114.803 244.169 115.175 244.405 115.791C244.634 116.408 244.465 117.084 243.966 117.515L211.79 145.011C211.232 145.484 210.53 145.754 209.794 145.771L167.335 146.624C167.327 146.624 167.31 146.624 167.301 146.624Z" fill="black"/>
<path d="M186.565 161.095C187.36 161.078 188.036 161.669 188.104 162.463L190.227 184.706L184.155 184.858L185.102 162.54C185.136 161.745 185.779 161.112 186.565 161.095Z" fill="black"/>
<path d="M186.607 161.745C186.599 161.745 186.59 161.745 186.582 161.745C186.142 161.754 185.778 162.117 185.762 162.565L184.831 184.19L189.508 184.072L187.461 162.522C187.419 162.083 187.047 161.745 186.607 161.745ZM184.155 185.508C183.977 185.508 183.808 185.44 183.69 185.314C183.563 185.187 183.495 185.01 183.504 184.832L184.451 162.506C184.502 161.382 185.423 160.47 186.556 160.444C186.573 160.444 186.59 160.444 186.607 160.444C187.715 160.444 188.654 161.289 188.755 162.396L190.869 184.638C190.886 184.824 190.835 185.001 190.708 185.136C190.59 185.271 190.421 185.347 190.243 185.356L184.172 185.508C184.163 185.508 184.155 185.508 184.155 185.508Z" fill="black"/>
<path d="M186.844 161.551C186.489 161.551 186.193 161.272 186.193 160.909L185.964 145.695C185.964 145.509 186.041 145.324 186.184 145.197L204.331 129.257C204.602 129.02 205.008 129.045 205.245 129.316C205.481 129.586 205.456 130 205.194 130.236L187.275 145.982L187.495 160.892C187.504 161.255 187.216 161.551 186.852 161.551H186.844Z" fill="black"/>
<path d="M202.479 239.918C202.479 239.918 208.28 249.007 213.506 247.402C216.255 246.558 218.927 237.595 220.026 237.274C223.527 236.252 230.199 234.588 234.292 227.281C238.122 220.455 237.285 216.806 236.304 215.133C235.848 214.356 235.856 213.401 236.355 212.658C237.091 211.585 237.793 209.946 237.057 208.265C236.803 207.683 236.82 207.007 237.082 206.415C238.055 204.152 239.848 198.948 236.355 197.926C235.408 197.647 234.376 198.002 233.801 198.796C232.694 200.325 230.377 203.205 227.51 205.03C223.451 207.607 221.024 209.372 218.986 210.529C217.244 211.526 216.322 202.825 212.128 199.556C208.407 196.659 207.139 198.12 206.767 199.489C206.395 200.849 208.703 201.389 210.014 207.877C211.553 215.463 209.946 221.849 209.481 225.262C208.932 229.266 202.479 239.918 202.479 239.918Z" fill="white"/>
<path d="M203.249 239.901C204.331 241.472 209.16 248.053 213.312 246.777C214.716 246.346 216.407 242.706 217.531 240.298C218.673 237.848 219.164 236.843 219.84 236.649L220.288 236.522C223.891 235.483 229.928 233.743 233.725 226.96C237.454 220.311 236.583 216.907 235.738 215.463C235.146 214.457 235.171 213.241 235.814 212.295C236.457 211.357 237.082 209.938 236.465 208.527C236.144 207.801 236.144 206.931 236.482 206.154C237.716 203.281 238.08 200.899 237.48 199.624C237.226 199.083 236.795 198.737 236.169 198.551C235.484 198.348 234.748 198.602 234.334 199.176C233.184 200.764 230.808 203.704 227.857 205.579C226.089 206.703 224.652 207.657 223.383 208.502C221.76 209.575 220.474 210.428 219.307 211.095C218.994 211.273 218.656 211.306 218.326 211.197C217.438 210.876 216.897 209.507 216.085 207.438C215.138 205.03 213.845 201.719 211.722 200.071C209.659 198.458 208.636 198.449 208.213 198.593C207.739 198.754 207.511 199.26 207.401 199.657C207.333 199.894 207.469 200.122 207.9 200.781C208.627 201.871 209.836 203.704 210.657 207.742C211.967 214.221 211.037 219.796 210.42 223.488C210.301 224.18 210.2 224.805 210.124 225.346C209.616 229.063 204.399 237.967 203.249 239.901ZM212.229 248.239C207.088 248.239 202.15 240.619 201.93 240.264C201.794 240.053 201.794 239.791 201.921 239.58C201.98 239.47 208.306 228.995 208.83 225.169C208.906 224.611 209.016 223.978 209.134 223.268C209.735 219.678 210.64 214.246 209.371 208.004C208.602 204.211 207.485 202.513 206.809 201.499C206.31 200.739 205.913 200.139 206.141 199.311C206.412 198.314 207.003 197.622 207.807 197.351C209.008 196.954 210.555 197.503 212.534 199.041C214.927 200.916 216.305 204.413 217.303 206.964C217.751 208.096 218.352 209.634 218.715 209.93C219.832 209.288 221.083 208.46 222.664 207.412C223.933 206.567 225.379 205.613 227.155 204.481C229.928 202.724 232.178 199.919 233.277 198.416C234.013 197.394 235.323 196.946 236.533 197.301C237.53 197.588 238.241 198.188 238.655 199.066C239.704 201.279 238.494 204.777 237.683 206.669C237.488 207.117 237.48 207.598 237.657 208.004C238.334 209.558 238.072 211.29 236.896 213.03C236.541 213.553 236.524 214.229 236.862 214.804C238.072 216.856 238.706 220.742 234.867 227.602C230.799 234.849 224.195 236.75 220.643 237.772L220.271 237.882C219.958 238.178 219.273 239.656 218.715 240.847C216.982 244.572 215.51 247.47 213.701 248.019C213.21 248.171 212.72 248.239 212.229 248.239Z" fill="black"/>
<path d="M221.599 243.939L204.027 232.755C204.027 232.755 180.274 271.114 162.287 284.132C153.535 290.476 136.546 283.025 136.546 283.025C136.546 283.025 120.234 345.638 151.717 354.583C204.154 369.493 221.599 243.939 221.599 243.939Z" fill="#7ED957"/>
<path d="M274.442 341.735C265.681 341.735 254.798 338.702 242.012 332.705C226.715 325.524 213.574 316.376 207.105 311.561C206.818 311.341 206.758 310.936 206.97 310.648C207.19 310.353 207.596 310.294 207.883 310.513C228.085 325.55 258.57 342.36 277.985 340.248C278.34 340.206 278.662 340.468 278.704 340.823C278.738 341.186 278.484 341.507 278.121 341.541C276.937 341.667 275.711 341.735 274.442 341.735Z" fill="#C1FF72"/>
<path d="M247.83 293.492C236.888 293.492 216.669 284.039 215.73 283.591C215.4 283.439 215.265 283.051 215.417 282.73C215.57 282.4 215.959 282.265 216.288 282.417C216.534 282.535 241.378 294.159 250.578 291.904C266.062 288.119 262.392 268.31 262.349 268.107C262.282 267.752 262.51 267.415 262.865 267.347C263.22 267.271 263.567 267.507 263.635 267.862C263.677 268.073 267.567 289.091 250.883 293.171C249.986 293.39 248.963 293.492 247.83 293.492Z" fill="#C1FF72"/>
<path d="M160.748 286.607C160.554 286.607 160.359 286.522 160.224 286.353C160.012 286.058 160.072 285.652 160.359 285.433C179.293 271.3 202.767 232.501 203.004 232.112C203.19 231.8 203.587 231.699 203.9 231.884C204.205 232.07 204.306 232.476 204.12 232.78C203.883 233.177 180.282 272.187 161.137 286.48C161.027 286.573 160.883 286.607 160.748 286.607Z" fill="#C1FF72"/>
<path d="M159.226 357.076C158.558 357.076 157.881 357.05 157.196 356.991C156.841 356.957 156.571 356.645 156.605 356.282C156.638 355.927 156.951 355.665 157.315 355.69C166.82 356.51 176.062 351.213 184.798 339.936C191.867 330.821 198.607 317.82 204.822 301.306C214.716 275 220.145 247.969 220.872 244.252L213.583 239.614C213.278 239.42 213.194 239.023 213.388 238.719C213.574 238.414 213.98 238.322 214.285 238.516L221.946 243.39C222.174 243.534 222.284 243.795 222.233 244.057C222.183 244.345 216.695 273.463 206.048 301.753C199.782 318.395 192.983 331.505 185.838 340.73C177.424 351.585 168.477 357.076 159.226 357.076Z" fill="#C1FF72"/>
<path d="M88.6162 174.087C88.7346 186.099 79.0522 196.245 67.0021 196.743C54.9435 197.25 45.0751 187.916 44.9567 175.903C44.8383 163.891 54.5122 153.746 66.5708 153.247C78.6294 152.741 88.4978 162.075 88.6162 174.087Z" fill="white"/>
<path d="M66.038 198.103C60.2032 198.103 54.7321 195.949 50.5378 191.97C46.1321 187.789 43.6713 182.095 43.6121 175.937C43.4853 163.215 53.768 152.436 66.537 151.904C74.2491 151.583 81.4791 155.089 85.8679 161.298C86.0793 161.585 86.0117 161.99 85.7157 162.202C85.4197 162.413 85.0138 162.337 84.8024 162.049C80.6758 156.212 73.8685 152.901 66.5962 153.205C54.5207 153.712 44.796 163.899 44.9144 175.929C44.9736 181.732 47.2906 187.088 51.4341 191.024C55.6031 194.978 61.125 197.03 66.9767 196.785C79.0522 196.278 88.7769 186.082 88.6585 174.062C88.65 173.698 88.9375 173.403 89.3011 173.403H89.3096C89.6648 173.403 89.9607 173.69 89.9607 174.045C90.0876 186.767 79.7963 197.554 67.0359 198.086C66.6976 198.095 66.3678 198.103 66.038 198.103Z" fill="black"/>
<path d="M65.2262 188.025L65.1923 185.01C63.0529 185.001 60.9811 184.511 59.7634 183.869L60.6767 180.11C62.0297 180.786 63.9154 181.377 65.9872 181.284C67.8053 181.208 69.0399 180.465 69.0315 179.189C69.0146 177.981 67.9913 177.263 65.6236 176.571C62.1988 175.566 59.8564 174.079 59.8226 170.995C59.7973 168.199 61.7506 165.927 65.1585 165.116L65.1247 162.1L68.2535 161.965L68.2789 164.761C70.4183 164.77 71.8559 165.158 72.9129 165.614L72.025 169.247C71.1878 168.934 69.7164 168.258 67.4248 168.36C65.353 168.444 64.6934 169.365 64.7019 170.252C64.7103 171.3 65.8266 171.925 68.5495 172.82C72.3548 174.003 73.9023 175.684 73.9361 178.539C73.9615 181.369 71.9742 183.869 68.3127 184.655L68.3465 187.89L65.2262 188.025Z" fill="#7ED957"/>
<path d="M117.258 253.425H54.0219C50.225 253.425 47.3837 249.962 48.1448 246.279L57.7426 199.995C58.5459 196.101 62.0045 193.313 66.0043 193.313H120.251L117.258 253.425Z" fill="black"/>
<path d="M66.0042 193.964C62.3258 193.964 59.1208 196.557 58.3767 200.131L48.7873 246.406C48.466 247.96 48.855 249.565 49.8613 250.798C50.8845 252.049 52.3981 252.767 54.0217 252.767H116.64L119.566 193.964H66.0042ZM117.257 254.076H54.0217C52.0007 254.076 50.115 253.18 48.8465 251.626C47.595 250.08 47.1045 248.087 47.5104 246.144L57.0998 199.86C57.9708 195.687 61.7085 192.663 66.0042 192.663H120.251C120.429 192.663 120.598 192.731 120.725 192.866C120.843 192.992 120.911 193.161 120.902 193.339L117.909 253.451C117.892 253.806 117.604 254.076 117.257 254.076Z" fill="black"/>
<path d="M125.359 253.425H113.08C109.283 253.425 106.451 249.962 107.212 246.279L117.782 195.299C118.019 194.141 119.05 193.313 120.243 193.313H123.397C124.708 193.313 125.79 194.31 125.9 195.603L130.221 248.18C130.458 251.001 128.208 253.425 125.359 253.425Z" fill="#7ED957"/>
<path d="M120.243 193.964C119.363 193.964 118.594 194.581 118.416 195.434L107.854 246.406C107.524 247.96 107.922 249.565 108.928 250.798C109.943 252.049 111.465 252.767 113.08 252.767H125.359C126.559 252.767 127.667 252.285 128.479 251.407C129.282 250.536 129.671 249.413 129.57 248.239L125.249 195.653C125.173 194.707 124.361 193.964 123.397 193.964H120.243ZM125.359 254.076H113.08C111.068 254.076 109.182 253.18 107.913 251.626C106.662 250.08 106.171 248.087 106.569 246.144L117.139 195.172C117.444 193.719 118.746 192.663 120.243 192.663H123.397C125.029 192.663 126.416 193.93 126.551 195.552L130.872 248.129C130.999 249.649 130.475 251.162 129.435 252.285C128.394 253.425 126.906 254.076 125.359 254.076Z" fill="black"/>
<path d="M105.707 218.259H59.1296C58.766 218.259 58.47 217.963 58.47 217.608C58.47 217.245 58.766 216.949 59.1296 216.949H105.707C106.873 216.949 107.88 216.164 108.15 215.032L112.514 196.752C112.598 196.405 112.954 196.186 113.3 196.27C113.655 196.355 113.867 196.701 113.791 197.056L109.419 215.336C109.013 217.059 107.482 218.259 105.707 218.259Z" fill="black"/>
<path d="M89.631 217.608L88.6247 223.158C88.3963 224.096 87.5507 224.755 86.5783 224.755H76.769C75.7035 224.755 74.934 223.75 75.2215 222.728L76.2786 217.608H89.631Z" fill="white"/>
<path d="M76.8114 218.259L75.8559 222.863C75.8559 222.871 75.8474 222.888 75.8474 222.905C75.7628 223.192 75.822 223.488 76.0081 223.724C76.1856 223.969 76.4647 224.104 76.7691 224.104H86.5784C87.2549 224.104 87.8299 223.657 87.9906 223.006L88.8531 218.259H76.8114ZM86.5784 225.414H76.7691C76.0588 225.414 75.3992 225.084 74.9679 224.518C74.5367 223.961 74.4014 223.251 74.579 222.575L75.636 217.473C75.7036 217.169 75.9658 216.949 76.2787 216.949H89.6311C89.8256 216.949 90.0116 217.042 90.13 217.186C90.2568 217.338 90.3076 217.532 90.2737 217.718L89.2674 223.277C88.963 224.544 87.8637 225.414 86.5784 225.414Z" fill="black"/>
<path d="M102.408 249.421H53.5059C53.1423 249.421 52.8548 249.134 52.8548 248.771C52.8548 248.416 53.1423 248.12 53.5059 248.12H102.408C102.772 248.12 103.068 248.416 103.068 248.771C103.068 249.134 102.772 249.421 102.408 249.421Z" fill="black"/>
<path d="M78.9168 190.315H74.0037C72.2871 190.315 71.9911 192.105 71.9911 193.204H80.9294C80.9294 192.105 80.6334 190.315 78.9168 190.315Z" fill="#7ED957"/>
<path d="M72.6846 192.553H80.236C80.1345 191.725 79.8047 190.965 78.9168 190.965H74.0038C73.1159 190.965 72.7861 191.725 72.6846 192.553ZM80.9294 193.854H71.9912C71.636 193.854 71.34 193.567 71.34 193.204C71.34 190.982 72.3379 189.656 74.0038 189.656H78.9168C80.5827 189.656 81.5806 190.982 81.5806 193.204C81.5806 193.567 81.2846 193.854 80.9294 193.854Z" fill="black"/>
<path d="M111.406 190.315H106.51C104.582 190.315 104.497 192.105 104.497 193.204H113.418C113.418 192.105 113.207 190.315 111.406 190.315Z" fill="#7ED957"/>
<path d="M105.174 192.553H112.733C112.564 190.965 111.769 190.965 111.406 190.965H106.51C105.647 190.965 105.267 191.396 105.174 192.553ZM113.418 193.854H104.497C104.133 193.854 103.846 193.567 103.846 193.204C103.846 192.325 103.846 189.656 106.51 189.656H111.406C112.404 189.656 114.069 190.12 114.069 193.204C114.069 193.567 113.774 193.854 113.418 193.854Z" fill="black"/>
<path d="M110.636 190.205L111.304 186.302C111.77 183.54 109.892 180.997 107.102 180.997H81.2087C78.4182 180.997 75.7798 183.54 75.3063 186.302L74.6467 190.205H78.4351L78.9509 187.172C79.3145 185.018 81.3694 183.574 83.5342 183.574H104.421C106.882 183.574 108.049 185.018 107.685 187.172L107.169 190.205H110.636Z" fill="white"/>
<path d="M107.947 189.554H110.087L110.653 186.192C110.865 184.976 110.552 183.768 109.808 182.889C109.131 182.087 108.167 181.648 107.102 181.648H81.2085C78.8408 181.648 76.38 183.878 75.9488 186.412L75.416 189.554H77.8852L78.2996 187.062C78.7055 184.697 80.9549 182.923 83.534 182.923H104.421C105.833 182.923 106.949 183.354 107.643 184.173C108.302 184.959 108.539 186.032 108.328 187.282L107.947 189.554ZM110.636 190.855H107.169C106.983 190.855 106.797 190.771 106.67 190.627C106.552 190.475 106.493 190.281 106.527 190.095L107.042 187.062C107.144 186.463 107.161 185.626 106.645 185.018C106.205 184.503 105.436 184.224 104.421 184.224H83.534C81.5806 184.224 79.8894 185.533 79.5934 187.282L79.0776 190.315C79.0184 190.627 78.7478 190.855 78.4349 190.855H74.6465C74.452 190.855 74.2744 190.771 74.1476 190.627C74.0207 190.475 73.97 190.281 74.0038 190.095L74.6634 186.192C75.2046 183.025 78.1981 180.347 81.2085 180.347H107.102C108.564 180.347 109.875 180.946 110.805 182.045C111.795 183.227 112.218 184.815 111.947 186.412L111.279 190.315C111.228 190.627 110.958 190.855 110.636 190.855Z" fill="black"/>
<path d="M105.58 179.679H83.9485C83.0775 179.679 82.2488 180.381 82.105 181.251L81.7837 183.126C81.6399 183.988 82.2319 184.689 83.1029 184.689H104.725C105.596 184.689 106.425 183.988 106.569 183.126L106.89 181.251C107.034 180.381 106.451 179.679 105.58 179.679Z" fill="black"/>
<path d="M83.9485 180.338C83.3904 180.338 82.8407 180.803 82.7477 181.352L82.4264 183.236C82.3925 183.464 82.4433 183.666 82.5617 183.81C82.6885 183.954 82.8745 184.038 83.1029 184.038H104.725C105.284 184.038 105.833 183.565 105.926 183.016L106.248 181.141C106.281 180.913 106.239 180.701 106.112 180.558C105.994 180.414 105.799 180.338 105.58 180.338H83.9485ZM104.725 185.339H83.1029C82.4856 185.339 81.9444 185.094 81.5638 184.655C81.1918 184.216 81.0395 183.616 81.141 183.016L81.4624 181.141C81.6653 179.958 82.7562 179.029 83.9485 179.029H105.58C106.197 179.029 106.738 179.274 107.11 179.713C107.482 180.152 107.634 180.752 107.533 181.352L107.212 183.236C107.017 184.418 105.926 185.339 104.725 185.339Z" fill="black"/>
<path d="M112.97 249.421C112.742 249.421 112.522 249.303 112.395 249.092C112.226 248.779 112.336 248.382 112.649 248.205L120.792 243.601V196.904C120.792 196.54 121.088 196.253 121.443 196.253C121.807 196.253 122.094 196.54 122.094 196.904V243.981C122.094 244.218 121.968 244.429 121.765 244.547L113.291 249.337C113.19 249.396 113.08 249.421 112.97 249.421Z" fill="black"/>
<path d="M394.749 265.336H327.04C326.194 265.336 325.509 264.652 325.509 263.807V218.766C325.509 217.921 326.194 217.237 327.04 217.237H394.749C395.586 217.237 396.271 217.921 396.271 218.766V263.807C396.271 264.652 395.586 265.336 394.749 265.336Z" fill="white"/>
<path d="M393.125 265.919H384.246C383.882 265.919 383.595 265.632 383.595 265.269C383.595 264.914 383.882 264.618 384.246 264.618H393.125C394.63 264.618 395.848 263.41 395.848 261.924V220.472C395.848 218.985 394.63 217.777 393.125 217.777H331.691C331.335 217.777 331.039 217.482 331.039 217.127C331.039 216.764 331.335 216.476 331.691 216.476H393.125C395.349 216.476 397.159 218.267 397.159 220.472V261.924C397.159 264.128 395.349 265.919 393.125 265.919Z" fill="black"/>
<path d="M351.419 265.919H329.112C326.896 265.919 325.086 264.128 325.086 261.924V243.474C325.086 243.111 325.382 242.824 325.738 242.824C326.101 242.824 326.397 243.111 326.397 243.474V261.924C326.397 263.41 327.615 264.618 329.112 264.618H351.419C351.783 264.618 352.07 264.906 352.07 265.269C352.07 265.632 351.783 265.919 351.419 265.919Z" fill="black"/>
<path d="M361.127 259.702C360.763 259.702 360.467 259.415 360.467 259.052V223.995C360.467 223.631 360.763 223.336 361.127 223.336C361.482 223.336 361.778 223.631 361.778 223.995V259.052C361.778 259.415 361.482 259.702 361.127 259.702Z" fill="black"/>
<path d="M358.903 226.588L361.118 224.375L363.334 226.588V224.713L361.118 222.499L358.903 224.713V226.588Z" fill="black"/>
<path d="M387.663 245.569H333.086C332.731 245.569 332.435 245.274 332.435 244.91C332.435 244.556 332.731 244.26 333.086 244.26H387.663C388.026 244.26 388.314 244.556 388.314 244.91C388.314 245.274 388.026 245.569 387.663 245.569Z" fill="black"/>
<path d="M385.066 247.124L387.282 244.91L385.066 242.706H386.944L389.159 244.91L386.944 247.124H385.066Z" fill="black"/>
<path d="M361.245 257.286C354.692 257.286 349.356 251.989 349.356 245.485V238.87C349.356 233.084 344.612 228.379 338.777 228.379H333.086C332.731 228.379 332.435 228.083 332.435 227.72C332.435 227.365 332.731 227.069 333.086 227.069H338.777C345.331 227.069 350.667 232.366 350.667 238.87V245.485C350.667 251.271 355.411 255.985 361.245 255.985C367.08 255.985 371.833 251.271 371.833 245.485V238.87C371.833 232.366 377.168 227.069 383.722 227.069H387.054C387.417 227.069 387.705 227.365 387.705 227.72C387.705 228.083 387.417 228.379 387.054 228.379H383.722C377.887 228.379 373.135 233.084 373.135 238.87V245.485C373.135 251.989 367.799 257.286 361.245 257.286Z" fill="#7ED957"/>
<path d="M306.576 236.978H335.987L306.576 206.872V236.978ZM337.534 238.288H305.916C305.561 238.288 305.265 237.992 305.265 237.629V205.275C305.265 205.005 305.426 204.768 305.671 204.667C305.916 204.566 306.204 204.633 306.39 204.819L337.999 237.173C338.185 237.367 338.236 237.637 338.135 237.882C338.033 238.127 337.796 238.288 337.534 238.288Z" fill="#7ED957"/>
<path d="M308.901 237.629C308.901 239.268 307.565 240.594 305.916 240.594C304.267 240.594 302.931 239.268 302.931 237.629C302.931 235.999 304.267 234.672 305.916 234.672C307.565 234.672 308.901 235.999 308.901 237.629Z" fill="#7ED957"/>
<path d="M305.925 235.323C304.639 235.323 303.591 236.362 303.591 237.629C303.591 238.904 304.639 239.935 305.925 239.935C307.21 239.935 308.25 238.904 308.25 237.629C308.25 236.362 307.21 235.323 305.925 235.323ZM305.925 241.244C303.912 241.244 302.288 239.622 302.288 237.629C302.288 235.635 303.912 234.022 305.925 234.022C307.929 234.022 309.561 235.635 309.561 237.629C309.561 239.622 307.929 241.244 305.925 241.244Z" fill="black"/>
<path d="M340.519 237.629C340.519 239.268 339.183 240.594 337.534 240.594C335.885 240.594 334.549 239.268 334.549 237.629C334.549 235.999 335.885 234.672 337.534 234.672C339.183 234.672 340.519 235.999 340.519 237.629Z" fill="#7ED957"/>
<path d="M337.534 235.323C336.249 235.323 335.2 236.362 335.2 237.637C335.2 238.904 336.249 239.935 337.534 239.935C338.819 239.935 339.868 238.904 339.868 237.637C339.868 236.362 338.819 235.323 337.534 235.323ZM337.534 241.244C335.53 241.244 333.898 239.622 333.898 237.637C333.898 235.644 335.53 234.022 337.534 234.022C339.538 234.022 341.17 235.644 341.17 237.637C341.17 239.622 339.538 241.244 337.534 241.244Z" fill="black"/>
<path d="M308.901 205.275C308.901 206.905 307.565 208.232 305.916 208.232C304.267 208.232 302.931 206.905 302.931 205.275C302.931 203.636 304.267 202.318 305.916 202.318C307.565 202.318 308.901 203.636 308.901 205.275Z" fill="#7ED957"/>
<path d="M305.925 202.961C304.639 202.961 303.591 204 303.591 205.275C303.591 206.542 304.639 207.581 305.925 207.581C307.21 207.581 308.25 206.542 308.25 205.275C308.25 204 307.21 202.961 305.925 202.961ZM305.925 208.882C303.912 208.882 302.288 207.26 302.288 205.275C302.288 203.282 303.912 201.66 305.925 201.66C307.929 201.66 309.561 203.282 309.561 205.275C309.561 207.26 307.929 208.882 305.925 208.882Z" fill="black"/>
<path d="M360.501 158.299H306.305C305.248 158.299 304.394 157.437 304.394 156.381V102.031C304.394 100.975 305.248 100.121 306.305 100.121H360.501C361.567 100.121 362.421 100.975 362.421 102.031V156.381C362.421 157.437 361.567 158.299 360.501 158.299Z" fill="white"/>
<path d="M308.614 100.772C306.643 100.772 305.045 102.377 305.045 104.337V154.075C305.045 156.044 306.643 157.64 308.614 157.64H358.201C360.163 157.64 361.769 156.044 361.769 154.075V104.337C361.769 102.377 360.163 100.772 358.201 100.772H308.614ZM358.201 158.949H308.614C305.925 158.949 303.734 156.762 303.734 154.075V104.337C303.734 101.65 305.925 99.471 308.614 99.471H358.201C360.882 99.471 363.072 101.65 363.072 104.337V154.075C363.072 156.762 360.882 158.949 358.201 158.949Z" fill="black"/>
<path d="M311.979 138.642C311.734 138.642 311.497 138.498 311.387 138.253C311.235 137.924 311.387 137.544 311.717 137.391C331.674 128.479 346.98 115.901 354.65 107.099C354.886 106.829 355.301 106.795 355.571 107.04C355.842 107.268 355.867 107.682 355.63 107.952C347.876 116.856 332.401 129.578 312.25 138.583C312.165 138.625 312.072 138.642 311.979 138.642Z" fill="black"/>
<path d="M355.546 111.677C355.537 111.677 355.537 111.677 355.537 111.677C355.174 111.669 354.886 111.373 354.895 111.019L354.937 107.411L351.115 107.293C350.751 107.285 350.472 106.989 350.48 106.626C350.489 106.263 350.793 105.967 351.157 105.992L355.613 106.127C355.969 106.144 356.248 106.432 356.248 106.786L356.197 111.035C356.197 111.39 355.901 111.677 355.546 111.677Z" fill="black"/>
<path d="M316.529 152.191H312.639C312.03 152.191 311.531 151.693 311.531 151.085V145.552C311.531 144.943 312.03 144.453 312.639 144.453H316.529C317.138 144.453 317.628 144.943 317.628 145.552V151.085C317.628 151.693 317.138 152.191 316.529 152.191Z" fill="#C1FF72"/>
<path d="M329.238 152.191H325.34C324.731 152.191 324.241 151.693 324.241 151.085V138.701C324.241 138.093 324.731 137.603 325.34 137.603H329.238C329.839 137.603 330.338 138.093 330.338 138.701V151.085C330.338 151.693 329.839 152.191 329.238 152.191Z" fill="#C1FF72"/>
<path d="M341.94 152.183H338.05C337.441 152.183 336.942 151.693 336.942 151.085V131.36C336.942 130.752 337.441 130.262 338.05 130.262H341.94C342.557 130.262 343.048 130.752 343.048 131.36V151.085C343.048 151.693 342.557 152.183 341.94 152.183Z" fill="#C1FF72"/>
<path d="M354.649 152.183H350.76C350.151 152.183 349.652 151.693 349.652 151.085V121.882C349.652 121.274 350.151 120.784 350.76 120.784H354.649C355.258 120.784 355.749 121.274 355.749 121.882V151.085C355.749 151.693 355.258 152.183 354.649 152.183Z" fill="black"/>
<path d="M304.969 114.457C297.807 114.457 291.997 108.695 291.997 101.591C291.997 94.4785 297.807 88.7173 304.969 88.7173C312.131 88.7173 317.941 94.4785 317.941 101.591C317.941 108.695 312.131 114.457 304.969 114.457ZM329.915 96.1426C329.873 95.8385 329.627 95.6104 329.323 95.5851L324.909 95.2303C324.647 95.2049 324.427 95.036 324.351 94.791C324.063 93.9801 323.725 93.186 323.344 92.4257C323.226 92.1976 323.251 91.9273 323.412 91.733L326.211 88.3287C326.406 88.0922 326.414 87.7543 326.22 87.5178L323.835 84.4851C323.64 84.2486 323.311 84.1641 323.04 84.2993L319.032 86.1831C318.795 86.2929 318.524 86.2506 318.33 86.0817C317.67 85.5326 316.985 85.0173 316.267 84.5443C316.055 84.4007 315.937 84.1557 315.979 83.9023L316.689 79.5603C316.74 79.2562 316.571 78.969 316.292 78.8507L312.698 77.4146C312.41 77.2964 312.081 77.3977 311.912 77.6427L309.392 81.2582C309.248 81.4694 308.986 81.5708 308.74 81.5285C307.895 81.368 307.041 81.2667 306.17 81.216C305.916 81.2075 305.688 81.047 305.595 80.802L304.03 76.6966C303.92 76.4094 303.624 76.2404 303.32 76.2827L299.489 76.8233C299.176 76.8571 298.948 77.1105 298.923 77.4062L298.559 81.7904C298.542 82.0523 298.373 82.2635 298.128 82.3479C297.308 82.6351 296.513 82.973 295.743 83.3532C295.515 83.463 295.244 83.4376 295.041 83.2771L291.617 80.4979C291.38 80.3036 291.042 80.3036 290.796 80.4895L287.744 82.8632C287.498 83.0491 287.422 83.3785 287.558 83.6488L289.452 87.6276C289.562 87.8641 289.519 88.1344 289.35 88.3287C288.792 88.9792 288.276 89.6634 287.803 90.373C287.659 90.5926 287.414 90.7024 287.152 90.6602L282.78 89.9591C282.484 89.9084 282.179 90.0689 282.07 90.3561L280.624 93.9294C280.505 94.2081 280.607 94.5291 280.852 94.7065L284.496 97.1985C284.708 97.3421 284.809 97.604 284.759 97.849C284.606 98.6853 284.505 99.5385 284.454 100.4C284.437 100.654 284.277 100.882 284.031 100.975L279.896 102.529C279.609 102.639 279.44 102.926 279.482 103.23L280.015 107.04C280.065 107.344 280.311 107.572 280.615 107.597L285.029 107.952C285.283 107.977 285.503 108.146 285.596 108.391C285.875 109.202 286.213 109.988 286.594 110.748C286.712 110.976 286.687 111.255 286.526 111.449L283.718 114.854C283.532 115.09 283.524 115.428 283.71 115.665L286.103 118.697C286.298 118.934 286.627 119.01 286.898 118.883L290.906 116.999C291.143 116.889 291.414 116.932 291.608 117.101C292.268 117.65 292.953 118.165 293.671 118.638C293.883 118.773 294.001 119.027 293.959 119.28L293.249 123.622C293.198 123.918 293.367 124.213 293.646 124.332L297.24 125.768C297.528 125.878 297.849 125.785 298.026 125.531L300.546 121.924C300.69 121.713 300.944 121.612 301.198 121.654C302.043 121.814 302.897 121.916 303.76 121.966C304.022 121.975 304.25 122.135 304.343 122.38L305.908 126.486C306.018 126.773 306.314 126.942 306.618 126.9L310.457 126.359C310.753 126.317 310.99 126.072 311.015 125.776L311.37 121.392C311.396 121.13 311.565 120.919 311.81 120.834C312.63 120.547 313.425 120.209 314.195 119.829C314.423 119.719 314.694 119.745 314.897 119.905L318.321 122.684C318.558 122.87 318.896 122.879 319.142 122.693L322.194 120.319C322.431 120.133 322.507 119.804 322.38 119.534L320.486 115.555C320.376 115.318 320.41 115.048 320.579 114.854C321.137 114.203 321.662 113.519 322.135 112.801C322.27 112.59 322.524 112.48 322.778 112.522L327.158 113.223C327.454 113.274 327.75 113.105 327.868 112.826L329.314 109.253C329.433 108.974 329.331 108.653 329.078 108.484L325.442 105.975C325.23 105.832 325.129 105.578 325.171 105.333C325.332 104.497 325.433 103.644 325.484 102.782C325.501 102.529 325.661 102.301 325.907 102.208L330.042 100.654C330.329 100.544 330.498 100.257 330.465 99.9524L329.915 96.1426Z" fill="white"/>
<path d="M304.969 89.3761C298.179 89.3761 292.657 94.8501 292.657 101.591C292.657 108.324 298.179 113.806 304.969 113.806C311.759 113.806 317.29 108.324 317.29 101.591C317.29 94.8501 311.759 89.3761 304.969 89.3761ZM304.969 115.115C297.46 115.115 291.346 109.042 291.346 101.591C291.346 94.132 297.46 88.0668 304.969 88.0668C312.478 88.0668 318.592 94.132 318.592 101.591C318.592 109.042 312.478 115.115 304.969 115.115ZM301.079 120.995C301.164 120.995 301.24 121.003 301.316 121.012C302.128 121.164 302.965 121.265 303.802 121.307C304.318 121.341 304.766 121.662 304.952 122.144L306.517 126.258L310.356 125.717L310.719 121.333C310.762 120.826 311.108 120.387 311.599 120.218C312.394 119.939 313.163 119.61 313.899 119.246C314.356 119.018 314.914 119.077 315.303 119.398L318.736 122.178L321.789 119.804L319.894 115.834C319.675 115.369 319.751 114.82 320.089 114.431C320.63 113.798 321.129 113.13 321.586 112.446C321.873 112.015 322.381 111.796 322.888 111.88L327.26 112.581L328.714 109.008L325.07 106.516C324.655 106.229 324.435 105.713 324.537 105.215C324.689 104.413 324.782 103.576 324.833 102.748C324.858 102.233 325.188 101.777 325.67 101.6L329.814 100.045L329.272 96.2355L324.858 95.8807C324.342 95.8384 323.903 95.5005 323.734 95.0106C323.454 94.225 323.125 93.4562 322.761 92.7213C322.524 92.2652 322.583 91.7076 322.905 91.319L325.704 87.9147L323.319 84.8905L319.311 86.7743C318.846 86.9855 318.296 86.9179 317.907 86.58C317.273 86.0478 316.605 85.541 315.911 85.0933C315.48 84.8061 315.252 84.2992 315.336 83.8008L316.047 79.4504L312.453 78.0143L309.933 81.6298C309.637 82.0522 309.121 82.2549 308.622 82.1705C307.81 82.0184 306.973 81.917 306.136 81.8748C305.62 81.841 305.172 81.5116 304.986 81.0385L303.413 76.9246L299.574 77.4652L299.21 81.8495C299.168 82.3563 298.83 82.7956 298.339 82.9645C297.545 83.2433 296.775 83.5643 296.039 83.936C295.574 84.1641 295.025 84.1049 294.627 83.7839L291.202 81.0047L288.141 83.3784L290.044 87.3487C290.264 87.8133 290.188 88.3624 289.849 88.751C289.308 89.3761 288.801 90.0435 288.344 90.7362C288.065 91.167 287.558 91.3866 287.05 91.3021L282.678 90.601L281.224 94.1743L284.86 96.6663C285.283 96.9535 285.494 97.4688 285.401 97.9756C285.249 98.7697 285.156 99.606 285.105 100.434C285.072 100.949 284.742 101.397 284.268 101.583L280.125 103.137L280.666 106.947L285.08 107.302C285.596 107.344 286.036 107.69 286.205 108.172C286.484 108.957 286.814 109.726 287.177 110.461C287.414 110.917 287.355 111.466 287.025 111.863L284.226 115.268L286.619 118.292L290.627 116.408C291.084 116.197 291.642 116.264 292.031 116.602C292.665 117.134 293.333 117.633 294.027 118.089C294.458 118.376 294.686 118.875 294.602 119.381L293.891 123.732L297.485 125.159L300.005 121.552C300.251 121.198 300.656 120.995 301.079 120.995ZM306.517 127.559C305.984 127.559 305.493 127.238 305.299 126.722L303.726 122.608C302.83 122.566 301.942 122.456 301.079 122.296L298.559 125.903C298.213 126.41 297.57 126.596 297.003 126.376L293.409 124.931C292.834 124.703 292.505 124.12 292.606 123.521L293.316 119.17C292.572 118.697 291.862 118.165 291.185 117.591L287.177 119.474C286.619 119.736 285.968 119.576 285.596 119.103L283.203 116.07C282.822 115.589 282.831 114.913 283.22 114.44L286.019 111.035C285.621 110.267 285.275 109.447 284.979 108.602L280.564 108.248C279.947 108.197 279.465 107.741 279.372 107.133L278.831 103.323C278.746 102.715 279.085 102.14 279.66 101.921L283.803 100.358C283.854 99.4708 283.955 98.5838 284.116 97.7306L280.48 95.2386C279.981 94.8923 279.786 94.2503 280.015 93.6843L281.461 90.1111C281.698 89.5451 282.281 89.2156 282.89 89.317L287.262 90.0181C287.744 89.2832 288.285 88.5652 288.86 87.8978L286.966 83.936C286.704 83.3784 286.856 82.728 287.346 82.3479L290.399 79.9741C290.881 79.6024 291.549 79.6109 292.031 79.991L295.447 82.7702C296.242 82.3732 297.063 82.0269 297.908 81.7396L298.272 77.3554C298.323 76.7472 298.779 76.2573 299.388 76.1728L303.227 75.6321C303.844 75.5477 304.419 75.8856 304.639 76.46L306.204 80.5739C307.1 80.6161 307.996 80.7259 308.851 80.8865L311.37 77.271C311.726 76.7726 312.368 76.5783 312.935 76.8063L316.529 78.2424C317.104 78.4789 317.434 79.0534 317.332 79.6616L316.622 84.012C317.366 84.4851 318.076 85.0172 318.753 85.5917L322.761 83.7079C323.311 83.446 323.962 83.5981 324.342 84.0796L326.735 87.1122C327.116 87.5937 327.108 88.2695 326.719 88.7426L323.92 92.1469C324.317 92.9241 324.664 93.735 324.96 94.5798L329.374 94.9345C329.991 94.9852 330.473 95.4414 330.558 96.0496L331.107 99.8594C331.192 100.468 330.845 101.042 330.27 101.262L326.135 102.824C326.084 103.711 325.974 104.59 325.814 105.452L329.45 107.944C329.957 108.29 330.152 108.932 329.923 109.498L328.469 113.071C328.241 113.637 327.657 113.967 327.048 113.874L322.676 113.164C322.194 113.899 321.653 114.609 321.078 115.284L322.972 119.246C323.235 119.804 323.082 120.454 322.592 120.834L319.539 123.208C319.057 123.58 318.381 123.571 317.907 123.191L314.482 120.412C313.696 120.809 312.876 121.155 312.03 121.451L311.666 125.827C311.616 126.435 311.151 126.925 310.542 127.009L306.703 127.55C306.643 127.559 306.584 127.559 306.517 127.559Z" fill="black"/>
<path d="M179.893 75.3282C191.85 83.556 193.212 102.622 183.681 119.5C183.673 119.508 183.673 119.517 183.665 119.525C182.963 121.054 190.489 131.064 190.489 131.064C190.489 131.064 178.667 126.942 177.398 128.395C164.951 142.739 146.956 147.925 135.185 139.824C122.213 130.904 121.706 109.228 134.052 91.4205C146.398 73.6049 166.921 66.3992 179.893 75.3282Z" fill="white"/>
<path d="M143.252 145.737C138.331 145.737 133.781 144.403 129.993 141.793C120.733 135.423 117.351 122.684 121.147 108.543C121.24 108.189 121.604 107.986 121.951 108.079C122.297 108.172 122.509 108.526 122.416 108.873C118.754 122.473 121.942 134.671 130.737 140.72C136.225 144.504 143.438 145.433 151.04 143.33C158.634 141.235 166.109 136.293 172.088 129.4C173.263 128.049 179.343 129.704 183.918 131.208C183.225 130.253 182.32 128.969 181.449 127.66C177.66 121.966 178.041 121.13 178.252 120.682L178.295 120.606C187.757 103.838 186.218 85.22 174.701 77.2963C168.942 73.326 161.374 72.5066 153.383 74.9817C145.375 77.4568 137.679 83.0068 131.701 90.601C131.481 90.8882 131.067 90.9389 130.788 90.7108C130.5 90.4912 130.458 90.0773 130.678 89.7985C136.808 81.9931 144.74 76.2911 153.002 73.7315C161.374 71.1466 169.348 72.0251 175.445 76.2235C187.512 84.5273 189.229 103.864 179.453 121.215C179.352 122.279 182.853 127.668 186.184 132.103L187.47 133.818L185.449 133.109C180.138 131.259 173.897 129.67 173.06 130.27C166.93 137.341 159.226 142.426 151.387 144.589C148.613 145.357 145.882 145.737 143.252 145.737Z" fill="black"/>
<path d="M144.216 118.343L140.867 121.096C140.394 121.477 139.7 121.417 139.294 120.97L119.371 98.8205C118.949 98.339 118.999 97.6041 119.49 97.2071L124.581 93.034C125.071 92.6286 125.815 92.7131 126.204 93.2199L144.393 116.788C144.757 117.27 144.689 117.954 144.216 118.343Z" fill="#7ED957"/>
<path d="M144.368 128.26C143.692 126.325 144.639 124.298 146.499 123.749C148.351 123.208 150.406 124.34 151.091 126.275C151.768 128.218 150.812 130.245 148.96 130.794C147.1 131.335 145.045 130.203 144.368 128.26Z" fill="#7ED957"/>
<path d="M160.249 119.855C159.403 117.717 160.266 115.656 162.295 114.879C164.333 114.102 166.321 115.073 167.166 117.219C167.97 119.246 167.251 121.325 165.094 122.144C163.065 122.913 161.052 121.882 160.249 119.855ZM158.329 111.264L157.619 109.794C156.038 106.803 155.733 102.985 157.264 98.3982C158.668 94.3349 159.234 91.5219 158.203 88.9117C157.036 85.9551 154.397 85.2033 150.71 86.5464C148.613 87.3405 146.812 89.3847 145.797 91.0404L142.719 86.9519C144.089 84.8316 147.032 82.6437 150.11 81.4695C156.799 78.9184 161.45 81.8834 163.183 86.2845C164.739 90.221 163.648 93.9041 162.16 98.2715C160.79 102.259 160.866 105.165 162.211 108.045L162.862 109.532L158.329 111.264Z" fill="#7ED957"/>
<path d="M353.364 364.991C351.639 368.336 348.705 370.262 346.794 369.29C344.883 368.319 344.73 364.83 346.447 361.485C348.172 358.14 351.115 356.222 353.026 357.185C354.937 358.157 355.089 361.654 353.364 364.991ZM368.738 350.96C364.755 351.12 358.252 352.514 357.33 351.458C356.417 350.41 361.947 344.126 362.624 339.463C363.292 334.8 361.82 326.149 348.02 327.678C336.688 328.937 312.732 341.456 311.962 367.559C310.398 421.056 370.632 399.946 374.741 368.598C376.602 354.457 372.729 350.807 368.738 350.96Z" fill="white"/>
<path d="M351.927 357.582C350.379 357.582 348.324 359.28 347.03 361.781C345.99 363.808 345.635 365.971 346.109 367.432C346.312 368.057 346.641 368.488 347.09 368.708C348.646 369.502 351.259 367.66 352.789 364.695C353.829 362.676 354.184 360.505 353.711 359.044C353.508 358.427 353.178 357.996 352.73 357.768C352.485 357.642 352.214 357.582 351.927 357.582ZM347.876 370.194C347.394 370.194 346.929 370.093 346.498 369.873C345.737 369.493 345.179 368.784 344.866 367.838C344.282 366.03 344.663 363.546 345.872 361.189C347.792 357.473 351.056 355.454 353.322 356.611C354.083 356.991 354.641 357.692 354.954 358.647C355.537 360.455 355.157 362.938 353.948 365.295C352.4 368.302 349.956 370.194 347.876 370.194ZM335.987 400.977C335.141 400.977 334.304 400.943 333.475 400.867C318.812 399.549 310.736 387.402 311.311 367.542C312.072 341.701 335.547 328.405 347.952 327.028C353.745 326.386 358.024 327.433 360.653 330.145C363.774 333.364 363.52 337.798 363.266 339.547C362.886 342.191 361.085 345.224 359.63 347.665C358.869 348.949 357.931 350.537 357.88 351.069C358.556 351.416 361.787 351.027 363.951 350.774C365.076 350.63 366.235 350.495 367.292 350.402C367.647 350.368 367.968 350.639 368.002 351.002C368.027 351.357 367.765 351.669 367.402 351.703C366.361 351.796 365.22 351.931 364.112 352.066C359.994 352.556 357.626 352.793 356.84 351.889C356.104 351.052 356.958 349.608 358.506 347.006C359.901 344.658 361.634 341.752 361.973 339.37C362.201 337.798 362.429 333.854 359.715 331.049C357.381 328.641 353.474 327.729 348.096 328.32C336.08 329.655 313.349 342.537 312.622 367.576C312.064 386.658 319.708 398.324 333.594 399.566C341.644 400.293 351.174 397.277 359.081 391.499C367.334 385.476 372.78 377.282 374.031 369.012C374.082 368.657 374.42 368.412 374.775 368.463C375.122 368.522 375.376 368.851 375.317 369.206C374.014 377.814 368.382 386.321 359.85 392.546C352.502 397.919 343.758 400.977 335.987 400.977Z" fill="black"/>
<path d="M356.958 341.009C356.958 343.636 354.819 345.764 352.18 345.764C349.533 345.764 347.394 343.636 347.394 341.009C347.394 338.39 349.533 336.261 352.18 336.261C354.819 336.261 356.958 338.39 356.958 341.009Z" fill="#7ED957"/>
<path d="M341.982 342.546C341.982 345.165 339.834 347.293 337.196 347.293C334.549 347.293 332.41 345.165 332.41 342.546C332.41 339.919 334.549 337.79 337.196 337.79C339.834 337.79 341.982 339.919 341.982 342.546Z" fill="black"/>
<path d="M330.228 353.283C330.228 355.91 328.08 358.039 325.442 358.039C322.795 358.039 320.655 355.91 320.655 353.283C320.655 350.664 322.795 348.535 325.442 348.535C328.08 348.535 330.228 350.664 330.228 353.283Z" fill="#C1FF72"/>
<path d="M321.696 363.648C319.421 363.648 317.56 365.489 317.56 367.745C317.56 370 319.421 371.842 321.696 371.842C323.97 371.842 325.831 370 325.831 367.745C325.831 365.489 323.97 363.648 321.696 363.648ZM321.696 373.142C318.694 373.142 316.258 370.718 316.258 367.745C316.258 364.763 318.694 362.347 321.696 362.347C324.698 362.347 327.133 364.763 327.133 367.745C327.133 370.718 324.698 373.142 321.696 373.142Z" fill="#C1FF72"/>
<path d="M370.505 356.146L375.215 362.043L337.559 388.889L330.448 391.575C330.448 391.575 334.659 385.594 334.938 385.366L370.505 356.146Z" fill="white"/>
<path d="M335.378 385.848C335.116 386.143 333.602 388.264 332.215 390.206L337.246 388.314L374.268 361.916L370.403 357.067L335.378 385.848ZM330.448 392.225C330.253 392.225 330.059 392.132 329.932 391.972C329.754 391.744 329.754 391.431 329.915 391.195C332.748 387.191 334.287 385.062 334.515 384.868L370.082 355.64C370.217 355.53 370.395 355.479 370.572 355.496C370.742 355.513 370.902 355.597 371.012 355.732L375.722 361.637C375.832 361.781 375.883 361.958 375.858 362.136C375.832 362.313 375.739 362.473 375.595 362.575L337.931 389.421C337.889 389.455 337.838 389.48 337.788 389.497L330.676 392.183C330.608 392.208 330.524 392.225 330.448 392.225Z" fill="black"/>
<path d="M370.505 356.146L375.215 362.043L366.877 367.99L362.556 362.668L370.505 356.146Z" fill="black"/>
<path d="M363.469 362.761L366.996 367.103L374.268 361.916L370.403 357.067L363.469 362.761ZM366.877 368.64C366.683 368.64 366.497 368.556 366.37 368.404L362.049 363.082C361.821 362.803 361.863 362.397 362.142 362.169L370.082 355.64C370.217 355.53 370.395 355.479 370.572 355.496C370.742 355.513 370.902 355.597 371.012 355.732L375.722 361.637C375.832 361.781 375.883 361.958 375.858 362.136C375.832 362.313 375.739 362.473 375.595 362.575L367.258 368.522C367.139 368.606 367.004 368.64 366.877 368.64Z" fill="black"/>
<path d="M375.849 346.93C371.629 350.343 370.158 353.477 370.429 356.163L375.215 362.093C375.215 362.093 375.223 362.093 375.232 362.102C377.828 362.955 381.253 362.186 385.523 358.748C391.857 353.646 395.916 340.569 395.916 340.569C395.916 340.569 382.191 341.828 375.849 346.93Z" fill="#7ED957"/>
<path d="M375.596 361.527C378.217 362.296 381.498 361.156 385.109 358.241C390.242 354.111 393.912 344.413 394.977 341.338C391.722 341.735 381.397 343.315 376.264 347.446C372.678 350.335 370.886 353.257 371.063 355.91L375.596 361.527ZM377.312 363.082C376.517 363.082 375.756 362.963 375.021 362.719C374.902 362.676 374.784 362.6 374.708 362.499L369.922 356.577C369.845 356.484 369.795 356.366 369.786 356.248C369.448 353.021 371.359 349.718 375.443 346.432C381.862 341.262 395.29 339.978 395.857 339.927C396.077 339.91 396.288 339.995 396.423 340.164C396.559 340.333 396.601 340.561 396.542 340.764C396.373 341.304 392.347 354.085 385.938 359.255C382.775 361.798 379.883 363.082 377.312 363.082Z" fill="black"/>
<path d="M53.4807 414.163H124.792V410.176H122.044L122.052 393.543L124.792 393.526L124.97 389.1H53.6583C50.5464 389.1 45.8278 394.084 45.8278 397.454V406.569C45.8278 409.94 50.3688 414.163 53.4807 414.163Z" fill="#7ED957"/>
<path d="M52.212 410.168H122.297V393.543H52.212C50.9521 393.543 49.9289 394.565 49.9289 395.832V407.887C49.9289 409.146 50.9521 410.168 52.212 410.168Z" fill="white"/>
<path d="M54.9773 394.194C52.5503 394.194 50.58 396.162 50.58 398.586V405.133C50.58 407.549 52.5503 409.517 54.9773 409.517H121.646V394.194H54.9773ZM122.297 410.827H54.9773C51.8316 410.827 49.2778 408.267 49.2778 405.133V398.586C49.2778 395.444 51.8316 392.893 54.9773 392.893H122.297C122.661 392.893 122.949 393.18 122.949 393.543V410.168C122.949 410.531 122.661 410.827 122.297 410.827Z" fill="black"/>
<path d="M118.78 399.372H57.3957C57.0321 399.372 56.7446 399.085 56.7446 398.721C56.7446 398.358 57.0321 398.071 57.3957 398.071H118.78C119.135 398.071 119.431 398.358 119.431 398.721C119.431 399.085 119.135 399.372 118.78 399.372Z" fill="black"/>
<path d="M100.041 404.559H57.3957C57.0321 404.559 56.7446 404.263 56.7446 403.9C56.7446 403.545 57.0321 403.249 57.3957 403.249H100.041C100.404 403.249 100.692 403.545 100.692 403.9C100.692 404.263 100.404 404.559 100.041 404.559Z" fill="black"/>
<path d="M77.5302 356.476L68.5666 358.875L56.4826 314.348L65.4462 311.949L77.5302 356.476Z" fill="white"/>
<path d="M57.2773 314.813L69.023 358.081L76.7351 356.02L64.9894 312.752L57.2773 314.813ZM68.1013 359.669L55.6791 313.892L65.9111 311.155L78.3333 356.94L68.1013 359.669Z" fill="black"/>
<path d="M60.4569 319.324C60.1694 319.324 59.8988 319.13 59.8227 318.834C59.7381 318.488 59.9411 318.133 60.2878 318.04L64.2537 317.009C64.6004 316.916 64.9556 317.128 65.0486 317.474C65.1416 317.82 64.9302 318.175 64.5835 318.268L60.6176 319.299C60.5668 319.315 60.5076 319.324 60.4569 319.324Z" fill="black"/>
<path d="M63.6027 365.253C57.9455 365.185 52.7449 360.328 52.7449 354.347C52.7449 348.375 57.9455 343.526 63.6027 343.45V337.68C55.3325 337.756 46.9355 345.19 46.9355 354.347C46.9355 363.513 55.3325 370.946 63.6027 371.022V365.253Z" fill="white"/>
<path d="M63.0023 371.664C62.9938 371.664 62.9854 371.664 62.9769 371.664C54.9773 371.377 46.0644 364.188 46.0644 354.347C46.0644 344.523 55.2056 337.106 63.3743 337.03C63.5435 337.038 63.721 337.097 63.8479 337.224C63.9663 337.342 64.0339 337.511 64.0339 337.68V343.45C64.0339 343.805 63.7464 344.1 63.3913 344.1C57.9539 344.168 53.1846 348.958 53.1846 354.347C53.1846 359.711 57.7594 364.4 63.1798 364.594C63.535 364.611 63.8141 364.915 63.8056 365.27C63.7887 365.633 63.4927 365.92 63.1291 365.895C57.0322 365.684 51.8739 360.396 51.8739 354.347C51.8739 348.383 56.7869 343.247 62.7317 342.825V338.356C55.3494 338.804 47.3751 345.528 47.3751 354.347C47.3751 363.453 55.62 370.093 63.0276 370.355C63.3828 370.372 63.6619 370.676 63.6534 371.031C63.6365 371.386 63.349 371.664 63.0023 371.664Z" fill="black"/>
<path d="M77.2682 346.39L63.5776 350.047L58.0472 329.689L71.7378 326.031L77.2682 346.39Z" fill="white"/>
<path d="M58.8503 330.154L64.034 349.253L76.4647 345.933L71.281 326.834L58.8503 330.154ZM63.1123 350.85L57.2436 329.233L72.1943 325.237L78.0714 346.846L63.1123 350.85Z" fill="black"/>
<path d="M73.5641 382.95H62.9938V371.09H73.5641V382.95Z" fill="white"/>
<path d="M73.5642 383.601H69.9534C69.5898 383.601 69.3022 383.305 69.3022 382.95C69.3022 382.587 69.5898 382.291 69.9534 382.291H72.9131V371.74H63.6535V382.291H64.1017C64.4653 382.291 64.7528 382.587 64.7528 382.95C64.7528 383.305 64.4653 383.601 64.1017 383.601H62.9939C62.6387 383.601 62.3428 383.305 62.3428 382.95V371.09C62.3428 370.735 62.6387 370.439 62.9939 370.439H73.5642C73.9278 370.439 74.2153 370.735 74.2153 371.09V382.95C74.2153 383.305 73.9278 383.601 73.5642 383.601Z" fill="black"/>
<path d="M86.9504 370.887H62.9938V365.244H86.9504V370.887Z" fill="white"/>
<path d="M86.9504 371.664H62.9939C62.6387 371.664 62.3428 371.369 62.3428 371.014C62.3428 370.651 62.6387 370.355 62.9939 370.355H86.2993V365.903H63.6535V367.846C63.6535 368.201 63.3575 368.496 62.9939 368.496C62.6387 368.496 62.3428 368.201 62.3428 367.846V365.244C62.3428 364.889 62.6387 364.594 62.9939 364.594H86.9504C87.314 364.594 87.61 364.889 87.61 365.244V371.014C87.61 371.369 87.314 371.664 86.9504 371.664Z" fill="black"/>
<path d="M82.6967 388.585H54.6643V382.95H82.6967V388.585Z" fill="white"/>
<path d="M82.6968 389.235H54.6644C54.3007 389.235 54.0132 388.948 54.0132 388.584V382.95C54.0132 382.587 54.3007 382.299 54.6644 382.299H65.1332C65.4968 382.299 65.7843 382.587 65.7843 382.95C65.7843 383.313 65.4968 383.6 65.1332 383.6H55.3155V387.934H82.0457V383.6H69.2852C68.9216 383.6 68.6341 383.313 68.6341 382.95C68.6341 382.587 68.9216 382.299 69.2852 382.299H82.6968C83.0604 382.299 83.3479 382.587 83.3479 382.95V388.584C83.3479 388.948 83.0604 389.235 82.6968 389.235Z" fill="black"/>
<path d="M112.395 382.849L104.717 371.749V355.884H94.713V371.749L87.0517 382.849C85.3773 385.315 87.1616 388.694 90.1636 388.694H109.292C112.294 388.694 114.069 385.315 112.395 382.849Z" fill="white"/>
<path d="M95.3643 356.535V371.951L87.5931 383.22C86.9419 384.166 86.8827 385.358 87.4324 386.397C87.9821 387.427 88.9968 388.044 90.1638 388.044H109.292C110.45 388.044 111.473 387.427 112.023 386.397C112.564 385.358 112.505 384.175 111.854 383.22L104.066 371.951V356.535H95.3643ZM109.292 389.345H90.1638C88.5063 389.345 87.0519 388.475 86.2739 387.005C85.4959 385.535 85.5889 383.845 86.5107 382.485L94.0621 371.546V355.234H105.368V371.546L112.936 382.485C113.867 383.845 113.951 385.535 113.173 387.005C112.395 388.475 110.941 389.345 109.292 389.345Z" fill="black"/>
<path d="M100.37 369.704C100.007 369.704 99.7107 369.409 99.7107 369.054V361.282C99.7107 360.919 100.007 360.632 100.37 360.632C100.725 360.632 101.021 360.919 101.021 361.282V369.054C101.021 369.409 100.725 369.704 100.37 369.704Z" fill="black"/>
<path d="M70.0885 111.677C70.0801 111.677 70.0716 111.677 70.0716 111.677C69.708 111.669 69.4289 111.365 69.4374 111.01L69.5304 108.062C69.5389 107.699 69.8433 107.403 70.2069 107.428C70.5621 107.437 70.8496 107.741 70.8327 108.104L70.7397 111.052C70.7312 111.399 70.4437 111.677 70.0885 111.677Z" fill="black"/>
<path d="M70.4186 101.372C70.4101 101.372 70.4016 101.372 70.3932 101.372C70.038 101.355 69.7505 101.059 69.759 100.696L69.852 97.7476C69.8689 97.3843 70.1733 97.0887 70.5285 97.114C70.8921 97.1309 71.1712 97.4266 71.1627 97.7898L71.0697 100.738C71.0528 101.093 70.7653 101.372 70.4186 101.372Z" fill="black"/>
<path d="M76.879 105.35C76.8705 105.35 76.8621 105.35 76.8451 105.35L73.9277 105.215C73.5641 105.198 73.2851 104.894 73.302 104.531C73.3189 104.176 73.6233 103.889 73.9869 103.914L76.9043 104.049C77.268 104.066 77.547 104.37 77.5301 104.725C77.5132 105.08 77.2257 105.35 76.879 105.35Z" fill="black"/>
<path d="M66.647 104.886C66.6301 104.886 66.6216 104.886 66.6132 104.886L63.6873 104.75C63.3322 104.734 63.0531 104.429 63.07 104.066C63.0869 103.711 63.3829 103.424 63.7465 103.45L66.6724 103.576C67.036 103.593 67.315 103.906 67.2981 104.261C67.2812 104.607 66.9937 104.886 66.647 104.886Z" fill="black"/>
<path d="M94.2313 321.25C94.0621 321.25 93.8845 321.182 93.7577 321.047L91.7282 318.902C91.4745 318.64 91.4914 318.226 91.7536 317.972C92.0157 317.727 92.4301 317.736 92.6753 317.998L94.7048 320.152C94.9585 320.414 94.9416 320.828 94.6794 321.073C94.5526 321.191 94.3919 321.25 94.2313 321.25Z" fill="black"/>
<path d="M101.352 328.777C101.182 328.777 101.005 328.701 100.878 328.565L98.8485 326.42C98.5948 326.158 98.6117 325.744 98.8738 325.499C99.136 325.246 99.5419 325.263 99.7956 325.524L101.825 327.67C102.079 327.932 102.062 328.346 101.8 328.591C101.673 328.718 101.512 328.777 101.352 328.777Z" fill="black"/>
<path d="M91.9059 328.337C91.7283 328.337 91.5507 328.27 91.4239 328.126C91.1871 327.856 91.204 327.45 91.4746 327.205L93.6309 325.246C93.9015 325.001 94.3159 325.026 94.5527 325.296C94.7979 325.558 94.781 325.972 94.5104 326.217L92.3456 328.168C92.2187 328.287 92.0665 328.337 91.9059 328.337Z" fill="black"/>
<path d="M99.4827 321.486C99.3051 321.486 99.1276 321.419 99.0007 321.275C98.7555 321.013 98.7724 320.599 99.043 320.354L101.208 318.395C101.47 318.158 101.884 318.175 102.13 318.445C102.366 318.707 102.349 319.121 102.079 319.366L99.9224 321.318C99.7956 321.436 99.6349 321.486 99.4827 321.486Z" fill="black"/>
<path d="M356.172 190.179C357.694 190.255 358.988 189.107 359.064 187.603C359.106 186.876 358.861 186.184 358.37 185.643C357.88 185.103 357.203 184.782 356.468 184.739C354.954 184.663 353.66 185.821 353.576 187.316C353.542 188.042 353.787 188.743 354.277 189.284C354.768 189.825 355.444 190.137 356.172 190.179ZM356.324 191.489C356.256 191.489 356.18 191.489 356.104 191.48C355.03 191.43 354.032 190.957 353.313 190.154C352.586 189.352 352.214 188.321 352.273 187.248C352.392 185.026 354.303 183.32 356.535 183.438C357.618 183.498 358.616 183.971 359.334 184.765C360.062 185.567 360.425 186.606 360.374 187.679C360.256 189.825 358.463 191.489 356.324 191.489Z" fill="black"/>
<path d="M112.691 292.765C111.245 292.765 110.028 293.889 109.952 295.342C109.909 296.068 110.154 296.769 110.645 297.31C111.135 297.851 111.812 298.172 112.548 298.205C114.061 298.281 115.355 297.132 115.44 295.637C115.473 294.911 115.228 294.21 114.738 293.669C114.247 293.128 113.571 292.807 112.844 292.765C112.793 292.765 112.742 292.765 112.691 292.765ZM112.7 299.515C112.624 299.515 112.548 299.515 112.48 299.515C111.398 299.456 110.4 298.982 109.681 298.18C108.954 297.377 108.59 296.347 108.641 295.274C108.759 293.052 110.67 291.346 112.911 291.464C113.994 291.523 114.983 291.996 115.71 292.79C116.429 293.593 116.801 294.632 116.742 295.705C116.624 297.851 114.831 299.515 112.7 299.515Z" fill="black"/>
<path d="M364.29 411.984C362.7 411.899 361.482 410.556 361.567 408.985C361.651 407.405 363.004 406.197 364.594 406.282C366.184 406.366 367.402 407.71 367.317 409.289C367.233 410.86 365.871 412.068 364.29 411.984Z" fill="black"/>
</svg>
