<svg width="477" height="446" viewBox="0 0 477 446" fill="none" xmlns="http://www.w3.org/2000/svg">
<path fill-rule="evenodd" clip-rule="evenodd" d="M303.316 102.809C348.644 120.114 412.167 67.0152 445.023 101.648C477.374 135.749 420.199 187.044 425.792 231.91C431.145 274.852 483.965 308.815 476.1 350.937C468.177 393.366 429.487 429.581 386.412 442.815C344.708 455.628 302.04 422.655 257.804 418.005C218.138 413.836 177.198 433.8 140.95 417.014C103.208 399.537 83.7654 360.78 61.3388 327.029C35.4135 288.013 0.0236477 250.274 0.0454202 204.963C0.0680702 157.825 29.9922 116.799 61.4569 81.3804C93.6009 45.1973 130.479 -3.54227 181.277 0.958505C235.527 5.76511 252.286 83.3279 303.316 102.809Z" fill="#E1E1E1"/>
<path d="M357.227 106.878C317.601 66.887 328.951 41.8253 301.83 23.3027C260.11 -5.18284 182.244 19.3391 136.304 58.5125C80.0449 106.508 51.0146 194.139 84.0799 273.427C119.301 357.85 211.952 401.681 294.638 388.464C368.469 376.681 441.053 318.322 448.322 248.349C449.122 240.762 452.603 199.753 428.193 164.404C408.018 135.194 388.644 138.571 357.227 106.878Z" fill="#C1FF72"/>
<path d="M70.3116 211.397C71.2203 232.063 75.6095 252.992 84.0798 273.303C119.301 357.742 211.952 401.619 294.638 388.418C368.469 376.619 441.052 318.183 448.322 248.211C448.768 244 450.031 229.765 446.92 211.397H70.3116Z" fill="#C1FF72"/>
<path d="M412.915 66.9797C398.546 66.9797 381.852 63.2474 364.018 55.9988C342.133 47.1 318.324 32.8186 295.161 14.6971C294.853 14.4657 294.807 14.0339 295.038 13.7254C295.269 13.4324 295.7 13.3707 296.008 13.6175C319.063 31.6619 342.765 45.8816 364.541 54.7342C386.256 63.5559 406.216 67.1185 422.279 65.021C439.327 62.8002 448.521 58.1117 448.152 51.8347C447.644 42.7971 428.377 32.8186 415.194 32.6181C414.809 32.6027 414.517 32.2943 414.517 31.9241C414.532 31.5386 414.84 31.2301 415.225 31.2455C429.086 31.4614 448.968 41.8409 449.522 51.7576C449.815 56.7854 445.349 63.4017 422.448 66.3937C419.399 66.7792 416.211 66.9797 412.915 66.9797Z" fill="#7ED957"/>
<path d="M286.306 11.1036L300.567 22.686L284.643 29.5953C284.643 29.5953 282.502 20.0179 286.306 11.1036Z" fill="#C1FF72"/>
<path d="M313.457 32.8186L333.123 44.3084C333.123 44.3084 319.324 58.636 312.07 61.8439C312.07 61.8439 307.265 46.0358 313.457 32.8186Z" fill="#C1FF72"/>
<path d="M345.644 52.8835C346.091 52.2512 357.256 58.8366 368.514 62.0446C368.514 62.0446 355.346 81.2457 345.844 82.2019C345.844 82.2019 341.039 59.5307 345.644 52.8835Z" fill="#C1FF72"/>
<path d="M406.739 69.5242C406.739 69.5242 385.409 68.383 381.02 65.2522C381.02 65.2522 383.5 88.2935 381.559 92.4731C381.559 92.4731 398.099 81.5076 406.739 69.5242Z" fill="#C1FF72"/>
<path d="M436.493 66.5939C436.493 66.5939 423.233 68.9689 418.228 69.2157C418.228 69.2157 421.554 83.4045 416.965 88.2009C416.965 88.2009 426.56 83.4816 436.493 66.5939Z" fill="#C1FF72"/>
<path d="M344.736 85.8415C344.413 85.8415 344.136 85.6256 344.059 85.3017C344.059 85.24 342.842 79.5336 342.226 73.0716C342.195 72.7014 342.472 72.3621 342.842 72.3313C343.227 72.285 343.55 72.5626 343.597 72.9482C344.089 78.0839 344.952 82.7415 345.275 84.3918C348.463 83.7903 352.56 81.0296 357.165 76.3412C357.426 76.0636 357.858 76.0636 358.135 76.3257C358.397 76.6034 358.412 77.0352 358.135 77.2974C352.929 82.6027 348.448 85.4713 344.798 85.8415C344.783 85.8415 344.767 85.8415 344.736 85.8415Z" fill="#7ED957"/>
<path d="M359.582 75.4621C359.413 75.4621 359.259 75.4004 359.12 75.277C358.843 75.0302 358.827 74.5984 359.074 74.3054C362.447 70.6194 365.173 66.9488 366.297 65.3911C361.091 63.818 356.086 61.6434 352.713 60.1012C352.359 59.9469 352.205 59.5305 352.375 59.1912C352.529 58.8365 352.929 58.6977 353.283 58.8519C356.81 60.4559 362.154 62.7847 367.59 64.3424C367.806 64.4041 367.975 64.5583 368.052 64.7742C368.129 64.9747 368.099 65.206 367.975 65.3911C367.945 65.4374 364.572 70.3264 360.09 75.2462C359.952 75.385 359.767 75.4621 359.582 75.4621Z" fill="#7ED957"/>
<path d="M380.45 96.1127C380.296 96.1127 380.127 96.051 380.003 95.9431C379.772 95.7426 379.695 95.4187 379.834 95.1411C380.111 94.5396 380.45 93.0591 380.496 89.3885C380.512 89.0029 380.804 88.7099 381.189 88.7099C381.574 88.7099 381.882 89.0183 381.867 89.4039C381.851 91.2392 381.744 92.7043 381.574 93.8148C385.686 90.9153 397.268 82.3558 404.321 73.0868C403.027 73.0097 400.871 72.8554 398.361 72.6241C397.991 72.5778 397.714 72.254 397.745 71.8684C397.776 71.4983 398.115 71.2052 398.484 71.2515C402.519 71.6216 405.63 71.7913 405.661 71.7913C405.907 71.8067 406.138 71.9609 406.246 72.1923C406.354 72.4082 406.323 72.6858 406.185 72.8863C397.576 84.8234 381.004 95.8968 380.835 96.0048C380.712 96.0819 380.589 96.1127 380.45 96.1127Z" fill="#7ED957"/>
<path d="M380.728 78.1303C380.374 78.1303 380.066 77.8527 380.035 77.498C379.681 72.4702 379.234 68.3215 379.234 68.2907C379.203 68.0131 379.342 67.7509 379.573 67.6121C379.804 67.4887 380.097 67.4887 380.312 67.6583C381.236 68.3061 383.67 69.2931 390.061 70.2493C390.43 70.311 390.692 70.6658 390.631 71.0359C390.584 71.406 390.23 71.6682 389.861 71.6065C385.579 70.9742 382.561 70.2493 380.728 69.4474C380.897 71.0667 381.175 74.0433 381.406 77.39C381.436 77.7756 381.159 78.0994 380.774 78.1303C380.759 78.1303 380.743 78.1303 380.728 78.1303Z" fill="#7ED957"/>
<path d="M415.856 91.8253C415.64 91.8253 415.44 91.7328 415.302 91.5477C415.101 91.2855 415.132 90.9154 415.363 90.6686C419.645 86.1961 416.488 72.4699 416.457 72.3311C416.411 72.1306 416.457 71.9147 416.565 71.7605C416.688 71.5909 416.888 71.4983 417.088 71.4829C418.782 71.3904 421.647 71.0511 425.589 70.465C425.959 70.4033 426.313 70.6655 426.375 71.0356C426.421 71.4212 426.175 71.7605 425.79 71.8222C422.371 72.3311 419.737 72.6704 417.966 72.8092C418.49 75.4157 419.953 83.7747 417.935 89.003C419.876 87.5995 422.848 85.1473 426.267 81.1991C426.529 80.9061 426.96 80.8753 427.237 81.122C427.53 81.3688 427.561 81.816 427.314 82.0937C421.062 89.3114 416.349 91.6711 416.164 91.7636C416.056 91.8099 415.964 91.8253 415.856 91.8253Z" fill="#7ED957"/>
<path d="M439.004 268.661H358.628C358.258 268.661 357.966 268.368 357.966 267.998V145.697C357.966 145.327 358.258 145.034 358.628 145.034H439.004C439.374 145.034 439.682 145.327 439.682 145.697V267.998C439.682 268.368 439.374 268.661 439.004 268.661Z" fill="#7ED957"/>
<path d="M399.178 163.772C391.817 163.772 385.841 169.756 385.841 177.113C385.841 184.469 391.817 190.469 399.178 190.469C406.524 190.469 412.5 184.469 412.5 177.113C412.5 169.756 406.524 163.772 399.178 163.772ZM399.178 191.841C391.062 191.841 384.47 185.225 384.47 177.113C384.47 169 391.062 162.399 399.178 162.399C407.279 162.399 413.87 169 413.87 177.113C413.87 185.225 407.279 191.841 399.178 191.841Z" fill="#C1FF72"/>
<path d="M399.363 210.225C388.752 210.225 380.112 218.862 380.112 229.503C380.112 240.129 388.752 248.781 399.363 248.781C409.974 248.781 418.613 240.129 418.613 229.503C418.613 218.862 409.974 210.225 399.363 210.225ZM399.363 250.154C387.997 250.154 378.741 240.885 378.741 229.503C378.741 218.106 387.997 208.852 399.363 208.852C410.728 208.852 419.984 218.106 419.984 229.503C419.984 240.885 410.728 250.154 399.363 250.154Z" fill="#C1FF72"/>
<path d="M411.606 229.503C411.606 236.258 406.123 241.749 399.362 241.749C392.601 241.749 387.134 236.258 387.134 229.503C387.134 222.732 392.601 217.242 399.362 217.242C406.123 217.242 411.606 222.732 411.606 229.503Z" fill="#C1FF72"/>
<path d="M310.762 59.3301C309.145 59.8699 307.482 60.348 305.772 60.7644C294.807 63.4325 292.574 60.7798 263.898 59.7773C228.877 58.5435 217.018 61.9828 208.763 65.5917C204.066 67.6583 200.339 69.8637 193.794 73.7502C171.571 86.9211 165.873 95.2339 160.097 93.3524C158.773 92.9205 157.433 91.9489 156.232 90.0828C147.346 96.807 137.212 95.311 131.652 93.6917C131.668 94.9409 131.714 96.221 131.822 97.5319C132.16 101.295 132.746 107.896 136.781 113.448C145.497 125.431 166.997 128.084 189.944 120.249C188.496 123.396 176.776 149.938 190.591 174.614C204.836 200.108 236.038 205.228 256.552 201.727C289.987 196.021 316.722 163.664 312.148 144.417C311.363 141.101 307.913 136.32 301.014 126.881C292.867 115.715 285.49 107.017 280.284 101.172C285.875 100.832 305.218 98.9662 322.082 83.4202C323.606 82.0013 325.023 80.567 326.332 79.1019C316.738 75.894 312.533 65.9926 310.762 59.3301Z" fill="#7ED957"/>
<path d="M189.943 119.571C190.128 119.571 190.328 119.648 190.451 119.787C190.636 119.987 190.682 120.28 190.559 120.542C188.342 125.354 177.931 150.601 191.175 174.275C204.481 198.056 234.328 204.827 256.428 201.048C275.124 197.856 294.083 185.363 304.755 169.216C310.715 160.178 313.118 151.434 311.486 144.571C310.715 141.332 307.065 136.335 300.459 127.282C293.959 118.383 286.998 109.746 279.76 101.634C279.591 101.434 279.544 101.156 279.652 100.909C279.745 100.678 279.976 100.508 280.237 100.493C289.17 99.9376 306.403 96.9302 321.604 82.911C322.805 81.8006 323.991 80.6285 325.13 79.3947C316.475 75.9863 312.286 67.2879 310.284 60.1935C308.821 60.6716 307.358 61.088 305.926 61.4273C299.242 63.0621 295.654 62.7228 287.815 61.998C282.548 61.5199 275.325 60.8567 263.867 60.4557C228.26 59.2065 216.894 62.7845 209.04 66.2238C204.374 68.275 200.739 70.4187 194.148 74.3361C185.092 79.7031 178.732 84.2991 174.096 87.6612C167.135 92.689 163.639 95.2183 159.881 93.9999C158.433 93.5372 157.155 92.5502 156.077 91.0542C147.484 97.177 137.889 96.0665 132.36 94.6014C132.375 95.573 132.422 96.5292 132.514 97.47C132.853 101.279 133.407 107.649 137.334 113.047C145.866 124.753 166.904 127.39 189.728 119.601C189.789 119.571 189.866 119.571 189.943 119.571ZM244.6 203.392C236.561 203.392 228.368 202.143 221.006 199.691C207.207 195.111 196.473 186.566 189.989 174.953C177.422 152.482 185.616 128.701 188.696 121.39C180.364 124.074 172.263 125.4 164.933 125.4C152.196 125.4 141.739 121.437 136.226 113.864C132.067 108.142 131.467 101.279 131.143 97.5934C131.036 96.3287 130.974 95.0178 130.974 93.6915C130.974 93.4755 131.066 93.275 131.251 93.1362C131.421 93.0129 131.636 92.9666 131.852 93.0283C137.057 94.5551 147.083 96.1282 155.815 89.5428C155.969 89.4194 156.17 89.3731 156.354 89.4194C156.539 89.4502 156.709 89.5582 156.816 89.7124C157.817 91.2701 158.988 92.2726 160.297 92.689C163.392 93.6914 166.704 91.3009 173.295 86.5354C177.946 83.1732 184.337 78.5619 193.455 73.1485C200.092 69.2158 203.742 67.0566 208.501 64.9745C216.479 61.4582 228.014 57.8339 263.913 59.0831C275.417 59.4841 282.655 60.1473 287.938 60.6408C295.854 61.3657 299.134 61.6741 305.602 60.101C307.235 59.7 308.883 59.2219 310.546 58.6667C310.715 58.605 310.916 58.6359 311.085 58.713C311.254 58.8055 311.378 58.9597 311.424 59.1448C313.334 66.2855 317.492 75.4157 326.547 78.4539C326.763 78.531 326.932 78.7161 326.994 78.932C327.056 79.1634 326.994 79.3947 326.84 79.5643C325.454 81.0912 324.022 82.5563 322.543 83.9135C307.789 97.5317 291.141 100.971 281.716 101.757C288.646 109.608 295.315 117.92 301.567 126.48C308.79 136.366 312.025 140.885 312.825 144.262C314.535 151.48 312.071 160.61 305.895 169.972C295.038 186.428 275.71 199.151 256.659 202.405C252.763 203.069 248.697 203.392 244.6 203.392Z" fill="black"/>
<path d="M353.514 35.3943L350.526 37.3067L355.1 29.0556C355.331 28.6546 355.347 28.1765 355.146 27.7601C354.7 26.8039 353.422 26.6496 352.759 27.467L346.676 34.9316L350.865 24.3979C351.204 23.5188 350.88 22.5318 350.08 22.0383C349.079 21.4214 347.77 21.8532 347.307 22.9328L343.303 32.4485L344.689 24.1512C344.859 23.1641 344.12 22.2079 343.118 22.2079C342.502 22.2233 341.902 22.5781 341.655 23.7965C341.101 26.7267 338.129 38.4325 338.129 38.4325C338.129 38.4325 336.85 37.9698 335.187 35.7181C333.524 33.4664 332.846 34.7157 332.846 34.7157C331.83 38.1395 334.294 41.9026 336.08 44.0618C330.013 49.5985 321.589 55.7058 310.762 59.3301C312.533 65.9926 316.738 75.894 326.332 79.1019C336.836 67.4886 340.701 54.9655 342.148 48.6577C346.383 46.9149 353.545 39.0803 355.131 37.2912C355.347 37.0753 355.454 36.7669 355.454 36.4584C355.454 35.4559 354.361 34.8545 353.514 35.3943Z" fill="white"/>
<path d="M311.594 59.7621C313.534 66.6868 317.615 75.2309 326.132 78.3155C335.588 67.6893 339.7 56.2611 341.486 48.5036C341.533 48.2876 341.687 48.1026 341.887 48.0255C346.014 46.329 353.222 38.4172 354.623 36.8441C354.716 36.7361 354.777 36.5973 354.777 36.4585C354.777 36.15 354.562 36.0112 354.469 35.9496C354.377 35.9033 354.146 35.8108 353.884 35.9804L350.896 37.8928C350.619 38.0625 350.28 38.0316 350.049 37.8157C349.818 37.5998 349.772 37.2605 349.926 36.9829L354.5 28.7318C354.623 28.5159 354.623 28.2691 354.531 28.0532C354.408 27.8218 354.207 27.6676 353.946 27.6368C353.699 27.6059 353.453 27.6985 353.283 27.899L347.2 35.3789C346.984 35.6411 346.615 35.7028 346.322 35.5331C346.03 35.3635 345.906 34.9934 346.03 34.6849L350.219 24.1358C350.45 23.5806 350.234 22.9483 349.726 22.6244C349.418 22.4393 349.048 22.3931 348.694 22.501C348.355 22.609 348.078 22.8712 347.939 23.2105L343.935 32.7108C343.797 33.0347 343.442 33.2043 343.119 33.1118C342.78 33.0193 342.564 32.68 342.626 32.3407L344.012 24.0433C344.058 23.7503 343.981 23.4418 343.781 23.2105C343.689 23.0871 343.458 22.902 343.134 22.902C342.95 22.902 342.534 22.902 342.333 23.9353C341.764 26.8348 338.915 38.1241 338.791 38.6022C338.745 38.7873 338.622 38.9415 338.453 39.0341C338.283 39.1266 338.083 39.142 337.898 39.0803C337.744 39.0187 336.373 38.4789 334.633 36.1192C333.971 35.2401 333.571 35.055 333.463 35.055C332.631 38.2013 335.064 41.7639 336.604 43.6146C336.851 43.9076 336.82 44.324 336.543 44.5708C328.827 51.6035 320.434 56.7084 311.594 59.7621ZM326.332 79.796C326.255 79.796 326.194 79.7806 326.117 79.7652C316.476 76.5264 312.087 66.9644 310.1 59.4999C310.007 59.1452 310.192 58.7901 310.546 58.6667C319.247 55.7673 327.518 50.8324 335.141 43.9847C333.139 41.44 331.183 37.8928 332.184 34.5153C332.2 34.469 332.215 34.4227 332.246 34.3764C332.4 34.0834 332.8 33.7133 333.355 33.6824C334.11 33.6207 334.895 34.1605 335.742 35.3018C336.527 36.3814 337.22 37.0137 337.698 37.3684C338.391 34.5769 340.516 26.0637 340.994 23.6732C341.348 21.8224 342.472 21.5294 343.119 21.5294C343.781 21.514 344.397 21.807 344.828 22.316C345.29 22.8558 345.491 23.5652 345.367 24.2746L344.952 26.7731L346.676 22.6707C346.969 21.9612 347.554 21.4215 348.278 21.1901C349.017 20.9588 349.803 21.0667 350.45 21.4523C351.528 22.1309 351.974 23.4727 351.497 24.6448L348.956 31.0452L352.221 27.0353C352.683 26.4647 353.391 26.187 354.115 26.2642C354.839 26.3567 355.455 26.804 355.763 27.4671C356.056 28.084 356.04 28.7935 355.701 29.3949L352.436 35.271L353.145 34.8237C353.745 34.4381 354.515 34.4073 355.131 34.7466C355.763 35.0859 356.148 35.7491 356.148 36.4585C356.148 36.9366 355.963 37.3993 355.655 37.754C353.684 39.9594 347.046 47.1464 342.734 49.1513C340.855 57.1402 336.573 68.7994 326.84 79.5643C326.717 79.7186 326.517 79.796 326.332 79.796Z" fill="black"/>
<path d="M151.612 63.5558C153.583 60.3324 153.013 52.6057 150.811 48.8426C148.578 45.0332 140.924 34.1603 140.924 34.1603C137.135 37.1214 142.772 45.866 142.772 45.866C136.226 50.061 139.907 54.5181 139.907 54.5181C137.258 60.024 140.631 61.8901 142.633 62.507C138.259 68.383 131.621 79.5183 131.652 93.6917C137.212 95.311 147.346 96.807 156.232 90.0828C153.737 86.2117 151.796 78.454 151.612 63.5558Z" fill="white"/>
<path d="M132.345 93.1673C137.566 94.617 146.975 95.8817 155.323 89.9131C152.566 85.1475 151.087 76.295 150.918 63.5713C150.918 63.4325 150.949 63.3091 151.026 63.2012C152.781 60.3017 152.366 52.8526 150.225 49.182C148.346 46.005 142.54 37.6768 140.831 35.2246C139.106 37.7384 141.986 43.3677 143.356 45.496C143.449 45.6502 143.479 45.8353 143.449 46.005C143.402 46.19 143.295 46.3443 143.141 46.4368C141.062 47.7786 139.86 49.2591 139.614 50.8477C139.321 52.6829 140.415 54.071 140.43 54.0864C140.6 54.2869 140.63 54.5799 140.523 54.8113C139.583 56.7699 139.367 58.3893 139.907 59.5923C140.476 60.8878 141.816 61.5355 142.833 61.8594C143.048 61.9211 143.218 62.0753 143.295 62.2912C143.356 62.5071 143.325 62.7385 143.187 62.9236C138.289 69.509 132.468 80.0735 132.345 93.1673ZM140.938 95.7429C137.165 95.7429 133.839 95.0489 131.467 94.3548C131.174 94.2623 130.974 93.9999 130.974 93.6915C130.943 80.4589 136.58 69.7249 141.539 62.8464C140.43 62.3529 139.26 61.5355 138.644 60.1475C137.981 58.6361 138.135 56.7699 139.106 54.5954C138.69 53.9322 137.966 52.4825 138.259 50.6472C138.536 48.8119 139.753 47.1462 141.847 45.6657C140.615 43.5682 136.826 36.4892 140.492 33.6052C140.646 33.4972 140.831 33.451 141.015 33.4818C141.2 33.4972 141.37 33.6052 141.477 33.7594C141.801 34.2067 149.178 44.7095 151.395 48.488C153.567 52.2048 154.399 60.0241 152.289 63.741C152.473 76.6034 153.998 85.3478 156.816 89.7124C157.001 90.0209 156.94 90.4221 156.647 90.638C151.442 94.5708 145.82 95.7429 140.938 95.7429Z" fill="black"/>
<path d="M146.867 60.9184C146.698 60.9184 146.544 60.8567 146.405 60.7488C146.282 60.6254 143.079 57.803 144.572 54.6106C145.65 52.2972 145.512 52.0658 144.588 50.5544L144.449 50.3385C143.156 48.2102 144.418 46.2978 144.48 46.2207C144.588 46.051 144.773 45.9431 144.957 45.9276C145.158 45.8968 145.358 45.9739 145.512 46.0973L149.932 50.1997C150.209 50.4619 150.225 50.8937 149.963 51.1713C149.701 51.4489 149.27 51.4643 148.992 51.2022L145.296 47.7783C145.204 48.2719 145.204 48.935 145.635 49.6291L145.758 49.8295C146.852 51.634 147.144 52.3434 145.82 55.1966C144.757 57.4637 147.283 59.6846 147.314 59.7154C147.591 59.9622 147.622 60.394 147.375 60.6716C147.237 60.8413 147.052 60.9184 146.867 60.9184Z" fill="black"/>
<path d="M142.571 57.2941C141.986 57.2941 141.416 57.0782 140.985 56.6309L139.414 54.9961C139.137 54.7185 139.152 54.2867 139.429 54.0245C139.691 53.7623 140.122 53.7623 140.4 54.0399L141.971 55.6901C142.279 55.9832 142.756 56.014 143.079 55.7518C143.372 55.5051 143.803 55.5513 144.05 55.8444C144.296 56.1374 144.25 56.5692 143.957 56.816C143.557 57.1399 143.064 57.2941 142.571 57.2941Z" fill="black"/>
<path d="M262.342 136.752L293.405 200.678L215.339 204.75C211.058 191.039 210.149 173.411 212.505 152.005L262.342 136.752Z" fill="black"/>
<path d="M198.799 80.4127C199.585 97.0691 201.941 138.633 206.284 155.32C206.838 157.464 209.21 158.575 211.228 157.665C221.161 153.177 249.36 141.209 270.813 139.574C273.878 139.342 275.895 136.304 274.94 133.389C270.828 120.805 261.65 91.2702 259.062 71.0974C258.323 65.3602 253.78 60.9339 248.112 60.4867C237.671 59.6847 220.807 60.2708 204.913 69.2159C200.94 71.4367 198.584 75.8013 198.799 80.4127Z" fill="white"/>
<path d="M233.867 38.1086C234.837 43.2906 237.855 47.0845 240.612 46.5602C243.369 46.0512 247.435 40.9926 246.464 35.8106C245.494 30.6286 239.857 27.2511 237.101 27.7754C234.344 28.2844 232.896 32.9112 233.867 38.1086Z" fill="#7ED957"/>
<path d="M237.701 28.4077C237.532 28.4077 237.378 28.4231 237.224 28.454C236.161 28.6545 235.268 29.6878 234.744 31.3843C234.159 33.235 234.097 35.5792 234.544 37.9697C235.422 42.7045 238.148 46.3288 240.489 45.8815C242.799 45.4497 246.711 40.8537 245.787 35.9339C244.94 31.4305 240.212 28.4077 237.701 28.4077ZM240.104 47.3004C237.131 47.3004 234.174 43.5064 233.189 38.2319C232.696 35.6101 232.788 33.0345 233.435 30.9833C234.128 28.7778 235.376 27.3898 236.977 27.0968C240.165 26.4953 246.11 30.1813 247.142 35.6872C248.143 41.1159 243.923 46.6372 240.735 47.2387C240.52 47.2696 240.304 47.3004 240.104 47.3004Z" fill="black"/>
<path d="M217.726 39.08C217.726 39.08 214.492 32.4792 213.352 31.3225C212.197 30.1658 211.319 28.9319 214.677 26.6803C218.034 24.4285 226.812 18.4137 232.203 18.46C237.577 18.5063 241.351 21.8992 239.687 24.3514C238.039 26.8036 237.269 27.8369 238.548 28.0066C239.826 28.1608 240.534 29.5797 236.915 31.6772C233.296 33.7746 220.698 42.8894 217.726 39.08Z" fill="black"/>
<path d="M236.146 61.9982L234.267 52.0044C239.919 49.1512 237.64 45.203 236.793 42.0568C235.884 38.6793 233.081 31.3227 233.081 31.3227C228.445 34.0525 219.344 33.2351 219.344 33.2351C219.344 33.2351 220.653 35.3171 219.898 36.335C219.159 37.3683 219.621 41.3011 219.621 41.3011C219.621 41.3011 217.988 39.7743 216.264 40.9464C215.278 41.6096 216.402 44.4165 217.203 45.9896C218.004 47.5627 219.729 47.8711 219.729 47.8711C219.729 47.8711 220.006 47.7015 220.591 49.0895L217.496 65.3912L211.443 67.9051L224.919 69.725C229.185 70.2956 233.481 69.1543 236.9 66.5479L241.736 62.8311L236.146 61.9982Z" fill="white"/>
<path d="M214.046 67.5658L225.011 69.0464C229.061 69.5861 233.235 68.4757 236.484 65.9927L240.027 63.2783L236.038 62.6768C235.761 62.6305 235.53 62.4146 235.468 62.1216L233.589 52.1278C233.543 51.8193 233.681 51.5263 233.959 51.3875C238.332 49.182 237.455 46.4677 236.546 43.5836C236.392 43.1209 236.253 42.6737 236.13 42.2419C235.406 39.5429 233.45 34.2221 232.727 32.2943C228.861 34.145 222.993 34.1141 220.483 33.9908C220.806 34.8236 221.037 35.9494 220.452 36.7514C220.098 37.2449 220.098 39.4658 220.298 41.224C220.329 41.517 220.19 41.7946 219.929 41.918C219.667 42.0568 219.359 42.0105 219.143 41.81C219.097 41.7638 217.896 40.6688 216.633 41.517C216.402 41.6712 216.602 43.2906 217.803 45.6811C218.358 46.7607 219.482 47.1 219.775 47.1771C219.852 47.1925 219.929 47.1925 220.021 47.2234C220.452 47.3622 220.806 47.8557 221.222 48.8273C221.268 48.9507 221.284 49.0895 221.253 49.2283L218.173 65.5146C218.127 65.7459 217.973 65.931 217.757 66.0235L214.046 67.5658ZM227.044 70.5578C226.304 70.5578 225.565 70.5115 224.826 70.4035L211.35 68.5837C211.042 68.5374 210.796 68.3061 210.765 67.9976C210.719 67.6892 210.888 67.3807 211.181 67.2728L216.895 64.8977L219.867 49.182C219.713 48.8119 219.59 48.6268 219.528 48.5343C219.159 48.4572 217.449 47.9791 216.587 46.298C215.678 44.5244 214.384 41.3782 215.878 40.3757C216.925 39.6663 217.988 39.7434 218.82 40.0364C218.727 38.6484 218.758 36.7514 219.343 35.934C219.651 35.5176 219.205 34.2992 218.758 33.6052C218.62 33.3739 218.62 33.0963 218.758 32.8803C218.897 32.649 219.143 32.5256 219.405 32.5565C219.497 32.5565 228.337 33.3122 232.742 30.7212C232.911 30.6286 233.127 30.5978 233.312 30.6749C233.497 30.7366 233.651 30.8754 233.728 31.0759C233.835 31.3689 236.546 38.4942 237.455 41.8871C237.578 42.2881 237.701 42.72 237.855 43.1672C238.733 45.9124 239.919 49.6601 235.037 52.3591L236.731 61.3967L241.828 62.1524C242.106 62.1987 242.321 62.3992 242.398 62.6614C242.46 62.939 242.367 63.2166 242.152 63.3863L237.316 67.0877C234.374 69.3394 230.724 70.5578 227.044 70.5578Z" fill="black"/>
<path d="M229.061 53.8704C223.763 53.8704 221.776 49.7526 221.745 49.6909C221.591 49.3516 221.745 48.9352 222.084 48.781C222.423 48.6267 222.839 48.7655 222.993 49.1203C223.116 49.3516 225.796 54.8112 234.004 51.3565C234.343 51.2177 234.759 51.3874 234.898 51.7267C235.052 52.0814 234.882 52.4824 234.528 52.6366C232.403 53.5157 230.585 53.8704 229.061 53.8704Z" fill="black"/>
<path d="M221.545 40.8385C222.516 46.0205 221.053 50.6473 218.296 51.1562C215.539 51.6652 209.933 48.4264 208.978 43.2444C208.008 38.047 212.059 32.8804 214.815 32.3561C217.572 31.8471 220.591 35.6411 221.545 40.8385Z" fill="#7ED957"/>
<path d="M215.325 33.0035C215.186 33.0035 215.063 33.0189 214.939 33.0344C212.599 33.4662 208.764 38.3089 209.642 43.1053C210.196 46.0356 212.214 47.9172 213.369 48.7808C215.032 50.0301 216.957 50.7087 218.174 50.4773C220.515 50.0455 221.747 45.6809 220.869 40.9616C220.422 38.5557 219.514 36.3965 218.312 34.8851C217.342 33.6513 216.295 33.0035 215.325 33.0035ZM217.681 51.8962C216.156 51.8962 214.262 51.1713 212.552 49.8913C210.273 48.1794 208.764 45.866 208.302 43.3675C207.285 37.8616 211.505 32.2786 214.693 31.6926C216.279 31.3841 217.958 32.217 219.39 34.0368C220.73 35.7179 221.731 38.093 222.224 40.6994C223.271 46.3595 221.608 51.2485 218.42 51.8345C218.189 51.8808 217.943 51.8962 217.681 51.8962Z" fill="black"/>
<path d="M211.443 42.4424C211.182 42.4424 210.92 42.3036 210.812 42.0414C210.658 41.7021 207.07 33.451 210.365 25.9864C212.26 21.6835 216.048 18.5682 221.623 16.702C221.993 16.5787 222.378 16.7791 222.501 17.1339C222.609 17.504 222.424 17.8896 222.07 18.013C216.864 19.7403 213.353 22.6089 211.613 26.5417C208.579 33.4356 212.029 41.4091 212.059 41.4862C212.213 41.8255 212.059 42.2419 211.721 42.3961C211.628 42.427 211.536 42.4424 211.443 42.4424Z" fill="#7ED957"/>
<path d="M102.607 194.324L102.838 390.731H123.906L124.445 272.069C124.46 267.412 128.249 263.633 132.946 263.587L328.874 263.772C333.278 263.726 336.882 267.242 336.897 271.607L337.036 388.633L357.041 388.572L358.489 194.324H102.607Z" fill="white"/>
<path d="M341.779 214.327H116.144C115.759 214.327 115.451 214.019 115.451 213.633C115.451 213.263 115.759 212.955 116.144 212.955H341.779C342.164 212.955 342.472 213.263 342.472 213.633C342.472 214.019 342.164 214.327 341.779 214.327Z" fill="#C1FF72"/>
<path d="M357.688 389.266C357.318 389.266 357.01 388.957 357.01 388.572L357.734 195.249H103.299L103.176 309.423C103.176 309.809 102.883 310.117 102.498 310.117C102.113 310.117 101.805 309.809 101.805 309.423L101.929 194.555C101.929 194.185 102.237 193.877 102.606 193.877H358.412C358.597 193.877 358.781 193.939 358.905 194.077C359.028 194.201 359.105 194.386 359.105 194.555L358.381 388.572C358.381 388.957 358.073 389.266 357.688 389.266Z" fill="#7ED957"/>
<path d="M212.505 193.075C212.505 201.758 190.929 209.269 164.317 209.269C137.704 209.269 116.143 201.758 116.143 193.075C116.143 184.407 137.704 177.853 164.317 177.853C190.929 177.853 212.505 184.407 212.505 193.075Z" fill="black"/>
<path d="M209.318 189.327C209.318 197.424 189.174 204.457 164.317 204.457C139.476 204.457 119.332 197.424 119.332 189.327C119.332 181.215 139.476 175.107 164.317 175.107C189.174 175.107 209.318 181.215 209.318 189.327Z" fill="#7ED957"/>
<path d="M164.318 175.802C139.892 175.802 120.01 181.863 120.01 189.327C120.01 197.023 140.724 203.763 164.318 203.763C187.927 203.763 208.625 197.023 208.625 189.327C208.625 181.863 188.758 175.802 164.318 175.802ZM164.318 205.135C139.137 205.135 118.639 198.041 118.639 189.327C118.639 180.829 138.275 174.429 164.318 174.429C190.36 174.429 209.996 180.829 209.996 189.327C209.996 198.041 189.513 205.135 164.318 205.135Z" fill="black"/>
<path d="M186.016 186.628C186.016 189.528 176.298 191.887 164.316 191.887C152.335 191.887 142.632 189.528 142.632 186.628C142.632 183.713 152.335 181.369 164.316 181.369C176.298 181.369 186.016 183.713 186.016 186.628Z" fill="#C1FF72"/>
<path d="M166.01 185.78C166.01 186.381 165.256 186.859 164.316 186.859C163.392 186.859 162.622 186.381 162.622 185.78C162.622 185.194 163.392 184.716 164.316 184.716C165.256 184.716 166.01 185.194 166.01 185.78Z" fill="black"/>
<path d="M344.968 193.075C344.968 201.758 323.391 209.269 296.779 209.269C270.166 209.269 248.605 201.758 248.605 193.075C248.605 184.407 270.166 177.853 296.779 177.853C323.391 177.853 344.968 184.407 344.968 193.075Z" fill="black"/>
<path d="M341.779 189.327C341.779 197.424 321.635 204.457 296.778 204.457C271.937 204.457 251.793 197.424 251.793 189.327C251.793 181.215 271.937 175.107 296.778 175.107C321.635 175.107 341.779 181.215 341.779 189.327Z" fill="#7ED957"/>
<path d="M296.778 175.802C272.353 175.802 252.471 181.863 252.471 189.327C252.471 197.023 273.185 203.763 296.778 203.763C320.388 203.763 341.086 197.023 341.086 189.327C341.086 181.863 321.219 175.802 296.778 175.802ZM296.778 205.135C271.598 205.135 251.1 198.041 251.1 189.327C251.1 180.829 270.736 174.429 296.778 174.429C322.821 174.429 342.472 180.829 342.472 189.327C342.472 198.041 321.974 205.135 296.778 205.135Z" fill="black"/>
<path d="M318.478 186.628C318.478 189.528 308.76 191.887 296.779 191.887C284.797 191.887 275.095 189.528 275.095 186.628C275.095 183.713 284.797 181.369 296.779 181.369C308.76 181.369 318.478 183.713 318.478 186.628Z" fill="#C1FF72"/>
<path d="M298.472 185.78C298.472 186.381 297.717 186.859 296.777 186.859C295.853 186.859 295.083 186.381 295.083 185.78C295.083 185.194 295.853 184.716 296.777 184.716C297.717 184.716 298.472 185.194 298.472 185.78Z" fill="black"/>
<path d="M223.086 200.431H216.341V181.369H223.086V200.431Z" fill="#7ED957"/>
<path d="M233.928 200.431H227.182V181.369H233.928V200.431Z" fill="#7ED957"/>
<path d="M244.754 200.431H238.009V181.369H244.754V200.431Z" fill="#7ED957"/>
<path d="M231.911 247.455L144.311 247.208C143.926 247.208 143.618 246.9 143.618 246.53C143.618 246.144 143.926 245.836 144.311 245.836L231.911 246.083C232.296 246.083 232.588 246.391 232.588 246.761C232.588 247.147 232.28 247.455 231.911 247.455Z" fill="#C1FF72"/>
<path d="M144.743 294.679C139.122 296.792 137.89 303.563 133.932 307.464C128.988 312.323 121.904 311.444 116.021 309.053C109.445 306.385 103.362 301.141 96.1078 304.503C90.1632 307.264 88.4075 312.832 88.0841 318.939C87.9762 321.021 87.776 323.18 87.083 325.154C86.5132 326.789 85.5429 328.316 84.1261 329.257C81.8622 330.768 78.9206 330.568 76.2101 330.568C61.6719 330.583 84.2185 361.66 90.3788 364.389C96.1694 366.965 103.069 366.934 108.844 364.312C112.402 362.708 115.482 360.194 118.978 358.467C128.742 353.64 137.058 355.537 144.836 346.746C150.888 339.898 154.492 331.292 160.036 324.075C164.487 318.276 169.923 311.891 172.049 304.75C173.512 299.815 172.095 284.67 163.378 288.294C161.776 288.973 160.483 290.237 159.066 291.255C154.338 294.648 149.656 292.828 144.743 294.679Z" fill="black"/>
<path d="M236.993 267.365C236.993 267.365 234.822 273.056 235.484 286.366C236.208 300.925 223.194 283.081 226.259 271.946C227.491 267.473 229.632 264.373 229.832 263.001C229.924 262.276 230.417 261.104 231.357 259.87C233.467 257.14 238.857 250.509 238.857 250.509L260.218 244.447C260.218 244.447 260.341 248.272 256.983 249.815L262.451 250.323C262.451 250.323 261.711 254.364 257.445 254.827L259.571 257.942C259.571 257.942 258.832 259.963 255.32 259.037C251.809 258.112 249.822 259.916 246.434 262.692C243.061 265.453 236.978 267.165 236.978 267.165L236.993 267.365Z" fill="white"/>
<path d="M239.257 251.11C238.395 252.159 233.79 257.834 231.911 260.286C230.987 261.474 230.586 262.538 230.509 263.093C230.417 263.772 229.986 264.651 229.401 265.869C228.661 267.427 227.63 269.571 226.921 272.131C225.011 279.04 229.462 288.109 232.419 290.53C233.051 291.055 233.605 291.255 233.928 291.101C234.452 290.839 234.945 289.466 234.806 286.397C234.19 274.059 235.961 268.229 236.3 267.258V267.196C236.285 266.872 236.485 266.594 236.793 266.502C236.855 266.486 242.784 264.805 246.003 262.153L246.434 261.813C249.545 259.238 251.793 257.387 255.505 258.374C257.538 258.914 258.416 258.328 258.754 257.958L256.891 255.212C256.752 255.012 256.721 254.765 256.829 254.534C256.922 254.318 257.137 254.164 257.384 254.148C260.048 253.855 261.141 251.989 261.557 250.925L256.922 250.493C256.614 250.478 256.367 250.231 256.306 249.922C256.259 249.629 256.413 249.321 256.706 249.182C258.677 248.288 259.278 246.468 259.463 245.373L239.257 251.11ZM233.682 292.535C233.112 292.535 232.404 292.304 231.541 291.594C227.891 288.587 223.687 278.716 225.597 271.761C226.336 269.077 227.399 266.872 228.169 265.268C228.661 264.25 229.093 263.371 229.154 262.893C229.277 261.937 229.909 260.641 230.817 259.454C232.897 256.739 238.271 250.138 238.333 250.061C238.41 249.953 238.533 249.876 238.672 249.845L260.033 243.784C260.233 243.723 260.448 243.769 260.618 243.892C260.787 244.016 260.895 244.216 260.91 244.417C260.91 244.571 260.972 247.362 258.955 249.306L262.512 249.629C262.712 249.645 262.882 249.753 263.005 249.907C263.113 250.061 263.159 250.262 263.128 250.447C262.866 251.866 261.603 254.488 258.616 255.305L260.14 257.541C260.264 257.726 260.294 257.958 260.217 258.174C260.171 258.282 259.216 260.78 255.151 259.7C252.132 258.898 250.407 260.317 247.296 262.862L246.88 263.217C243.923 265.638 239.072 267.242 237.594 267.705C237.332 268.491 235.576 274.275 236.162 286.32C236.346 289.728 235.807 291.687 234.544 292.319C234.313 292.443 234.021 292.535 233.682 292.535Z" fill="black"/>
<path d="M247.805 247.316L265.053 229.148L230.248 229.457L247.805 247.316Z" fill="white"/>
<path d="M231.865 230.12L247.789 246.314L263.436 229.842L231.865 230.12ZM247.804 247.995C247.62 247.995 247.435 247.918 247.311 247.794L229.755 229.935C229.555 229.735 229.508 229.441 229.601 229.195C229.709 228.933 229.955 228.763 230.232 228.763L265.038 228.454C265.33 228.454 265.561 228.624 265.669 228.871C265.792 229.118 265.731 229.411 265.546 229.611L248.297 247.779C248.174 247.918 247.989 247.995 247.804 247.995Z" fill="black"/>
<path d="M247.758 242.705L257.307 232.665L238.041 232.834L247.758 242.705Z" fill="#7ED957"/>
<path d="M247.988 269.077C247.603 269.077 247.295 268.769 247.295 268.399L247.11 247.316C247.11 246.931 247.418 246.622 247.803 246.622C248.173 246.622 248.481 246.931 248.481 247.301L248.666 268.383C248.681 268.754 248.373 269.077 247.988 269.077Z" fill="black"/>
<path d="M239.826 273.75C239.457 273.75 239.149 273.442 239.149 273.056C239.133 272.686 239.441 272.378 239.826 272.362L256.213 272.224H256.228C256.598 272.224 256.906 272.532 256.906 272.902C256.921 273.288 256.613 273.596 256.228 273.596L239.842 273.75C239.826 273.75 239.826 273.75 239.826 273.75Z" fill="black"/>
<path d="M241.243 254.117L254.226 252.082C254.226 252.082 253.394 256.446 245.031 259.022C236.653 261.613 241.243 254.117 241.243 254.117Z" fill="white"/>
<path d="M245.031 259.716C244.723 259.716 244.462 259.516 244.369 259.222C244.261 258.868 244.462 258.482 244.816 258.374C250.206 256.709 252.316 254.303 253.117 252.945L241.351 254.796C240.981 254.842 240.627 254.596 240.565 254.226C240.519 253.84 240.765 253.485 241.15 253.439L254.133 251.403C254.349 251.372 254.564 251.434 254.718 251.604C254.888 251.758 254.949 251.989 254.903 252.205C254.872 252.406 253.902 257.002 245.232 259.685C245.155 259.701 245.093 259.716 245.031 259.716Z" fill="black"/>
<path d="M116.143 333.498H185.569V390.793H116.143V333.498Z" fill="black"/>
<path d="M176.806 422.918C178.732 422.209 180.087 420.451 180.364 418.399C181.288 411.336 181.997 403.393 182.012 399.461C182.058 390.577 182.628 377.56 185.123 361.274C187.772 344.062 172.402 335.009 172.402 335.009C146.744 329.272 118.884 343.153 118.884 343.153C125.199 375.71 119.162 393.554 117.329 404.843C117.129 406.138 116.297 410.858 116.22 415.176C116.143 418.77 118.715 421.87 122.242 422.44C142.34 425.648 162.114 428.362 176.806 422.918Z" fill="#7ED957"/>
<path d="M161.022 349.059L168.06 339.806C172.295 332.819 181.689 330.213 189.267 327.221C220.699 314.821 223.472 281.385 225.997 268.013L236.516 271.73C236.516 271.73 250.916 345.898 179.626 367.505L161.022 349.059Z" fill="#7ED957"/>
<path d="M81.6154 262.477C92.4883 299.537 120.256 339.744 129.789 338.88C129.789 338.88 134.332 368.954 125.338 369.957C119.609 370.589 105.887 359.439 86.6822 331.4C69.649 306.539 74.0382 264.944 74.0382 264.944L81.6154 262.477Z" fill="#7ED957"/>
<path d="M178.947 348.859H213.352V390.793H178.947V348.859Z" fill="black"/>
<path d="M179.825 420.852C179.733 420.852 179.625 420.836 179.532 420.774C179.194 420.62 179.055 420.204 179.209 419.864C179.455 419.371 179.609 418.847 179.686 418.307C180.61 411.212 181.303 403.285 181.319 399.445C181.38 388.603 182.212 377.298 183.768 365.824C183.814 365.561 183.983 365.361 184.23 365.268C195.056 361.413 204.404 355.984 212.012 349.136C212.29 348.89 212.721 348.905 212.983 349.198C213.229 349.476 213.214 349.907 212.921 350.17C205.282 357.048 195.919 362.508 185.077 366.425C183.552 377.684 182.751 388.803 182.705 399.46C182.674 403.393 181.996 411.228 181.042 418.492C180.949 419.17 180.749 419.849 180.441 420.466C180.333 420.713 180.087 420.852 179.825 420.852Z" fill="black"/>
<path d="M72.822 261.69H238.01V390.793H72.822V261.69Z" fill="black"/>
<path d="M116.221 415.87H116.206C115.821 415.854 115.528 415.546 115.528 415.176C115.605 411.104 116.329 406.724 116.606 405.074L116.652 404.735C116.945 402.93 117.361 400.925 117.777 398.797C119.27 391.456 121.103 382.341 120.995 369.664C112.725 365.87 100.05 352.128 86.1282 331.786C69.1412 307.002 73.3148 265.283 73.361 264.867C73.3764 264.605 73.5612 264.373 73.823 264.296L81.4002 261.829C81.585 261.767 81.7698 261.782 81.9392 261.875C82.0932 261.952 82.2164 262.106 82.278 262.291C93.3511 300.061 120.441 338.109 129.45 338.201C140.431 334.515 156.74 330.876 172.326 334.284C176.191 331.416 181.027 329.596 185.709 327.837C186.833 327.421 187.942 327.005 189.02 326.573C217.311 315.422 222.07 287.106 224.627 271.884C224.873 270.435 225.104 269.077 225.32 267.89C225.35 267.689 225.474 267.52 225.658 267.427C225.828 267.319 226.028 267.304 226.228 267.365L236.747 271.082C236.993 271.175 237.163 271.391 237.194 271.638C237.255 271.992 242.168 308.143 227.152 332.68C226.952 333.004 226.521 333.097 226.213 332.912C225.889 332.711 225.782 332.279 225.982 331.955C239.873 309.253 236.393 276.295 235.9 272.239L226.521 268.939C226.351 269.91 226.167 270.99 225.982 272.116C223.379 287.6 218.543 316.409 189.513 327.853C188.435 328.285 187.311 328.701 186.186 329.133C181.489 330.891 176.623 332.711 172.88 335.58C172.665 335.749 172.387 335.765 172.156 335.657C156.787 332.248 140.631 335.888 129.774 339.543C129.712 339.559 129.651 339.574 129.574 339.574C129.543 339.574 129.512 339.574 129.497 339.574C119.024 339.574 92.0113 299.722 81.1538 263.356L74.6701 265.453C74.2851 269.987 71.4975 308.004 87.2524 331.015C107.166 360.071 118.146 366.965 121.95 368.584C122.197 368.692 122.366 368.939 122.366 369.201C122.52 382.248 120.564 391.98 119.132 399.075C118.701 401.187 118.3 403.177 118.008 404.951L117.961 405.29C117.684 406.925 116.976 411.243 116.899 415.191C116.899 415.577 116.591 415.87 116.221 415.87Z" fill="black"/>
<path d="M81.431 264.698C82.0162 264.327 82.586 263.865 83.1251 263.325C85.8356 260.549 90.2556 253.732 86.1744 250.339C83.1097 247.779 77.627 249.167 74.5315 250.91C70.6659 253.069 71.59 258.883 73.2224 262.276C75.0243 266.024 78.4587 266.564 81.431 264.698Z" fill="white"/>
<path d="M81.7232 249.63C79.2437 249.63 76.5486 250.57 74.8699 251.511C71.3893 253.454 72.3904 258.96 73.8381 261.983C74.5773 263.51 75.6399 264.528 76.9182 264.898C78.1964 265.268 79.6749 264.99 81.0764 264.111C81.6154 263.772 82.139 263.34 82.6318 262.847C84.5415 260.903 87.2983 256.878 87.1442 253.732C87.0826 252.544 86.6206 251.604 85.7274 250.863C84.6647 249.969 83.2325 249.63 81.7232 249.63ZM78.0732 266.425C77.5496 266.425 77.0414 266.363 76.5332 266.209C74.8699 265.731 73.5146 264.466 72.606 262.569C70.8657 258.976 69.8647 252.729 74.2077 250.308C77.334 248.55 83.2171 246.977 86.6052 249.815C87.7911 250.786 88.4225 252.082 88.5149 253.655C88.6997 257.541 85.3886 261.983 83.6175 263.803C83.0477 264.389 82.4316 264.883 81.8002 265.284C80.5836 266.039 79.3053 266.425 78.0732 266.425Z" fill="black"/>
<path d="M136.611 338.819L162.607 346.345L165.703 334.346L157.355 333.097L157.463 329.904C162.099 329.981 165.117 328.1 166.411 327.067C166.858 326.712 167.089 326.141 167.027 325.571L166.211 318.291C167.12 317.751 168.382 316.086 166.827 314.698C165.256 313.325 162.469 305.614 162.469 305.614C158.541 299.229 155.908 306.94 152.212 307.033C149.64 307.094 148.053 308.405 148.485 311.814C148.901 315.237 147.376 313.31 145.697 312.091C144.003 310.873 142.648 311.397 143.187 314.528C143.726 317.659 147.099 320.034 147.099 320.034L147.437 321.052C146.329 325.324 143.695 336.443 143.695 336.443L136.611 338.819Z" fill="white"/>
<path d="M138.921 338.772L162.13 345.481L164.856 334.917L157.248 333.775C156.909 333.729 156.663 333.421 156.663 333.081L156.786 329.874C156.801 329.503 157.109 329.21 157.464 329.21C157.479 329.21 157.479 329.21 157.479 329.21C161.868 329.303 164.686 327.56 165.98 326.527C166.242 326.311 166.381 325.987 166.35 325.632L165.534 318.368C165.503 318.091 165.626 317.828 165.872 317.69C166.319 317.427 166.812 316.841 166.873 316.271C166.904 315.901 166.75 315.546 166.365 315.222C164.763 313.788 162.238 306.986 161.853 305.922C161.037 304.627 160.266 303.917 159.527 303.794C158.526 303.64 157.464 304.55 156.339 305.506C155.092 306.57 153.798 307.68 152.227 307.711C151.057 307.742 150.225 308.051 149.732 308.637C149.178 309.269 148.978 310.318 149.163 311.737C149.317 313.017 149.286 313.942 148.608 314.312C147.869 314.729 147.114 314.112 146.144 313.325C145.867 313.094 145.574 312.862 145.297 312.646C144.666 312.199 144.204 312.107 144.034 312.215C143.849 312.323 143.603 312.924 143.865 314.42C144.342 317.212 147.468 319.448 147.499 319.463C147.623 319.556 147.715 319.679 147.761 319.818L148.085 320.836C148.131 320.959 148.131 321.098 148.1 321.221C147.006 325.432 144.388 336.49 144.358 336.598C144.296 336.829 144.127 337.014 143.911 337.091L138.921 338.772ZM162.607 347.023C162.546 347.023 162.484 347.023 162.423 346.993L136.426 339.482C136.134 339.389 135.933 339.127 135.933 338.834C135.918 338.541 136.118 338.263 136.395 338.171L143.11 335.904C143.572 333.976 145.728 324.969 146.729 321.067L146.529 320.45C145.759 319.864 143.018 317.613 142.509 314.651C142.186 312.785 142.463 311.582 143.31 311.043C143.742 310.78 144.666 310.503 146.098 311.536C146.421 311.767 146.714 312.014 147.006 312.261C147.268 312.461 147.607 312.739 147.869 312.909C147.869 312.708 147.869 312.4 147.807 311.906C147.576 310.086 147.869 308.683 148.685 307.727C149.455 306.848 150.626 306.385 152.181 306.339C153.275 306.323 154.383 305.382 155.446 304.472C156.771 303.347 158.126 302.19 159.743 302.437C160.913 302.622 162.007 303.547 163.054 305.259C163.085 305.305 163.1 305.336 163.116 305.382C164.178 308.297 166.242 313.263 167.274 314.189C168.167 314.991 168.29 315.839 168.244 316.41C168.152 317.32 167.566 318.121 166.935 318.615L167.705 325.493C167.797 326.295 167.474 327.097 166.843 327.606C165.457 328.701 162.561 330.49 158.126 330.583L158.064 332.511L165.811 333.667C165.996 333.698 166.18 333.806 166.273 333.961C166.381 334.13 166.427 334.331 166.381 334.516L163.285 346.515C163.239 346.684 163.116 346.838 162.962 346.931C162.854 346.993 162.731 347.023 162.607 347.023Z" fill="black"/>
<path d="M157.016 330.614C153.104 330.614 151.056 325.956 150.979 325.74C150.825 325.401 150.979 325 151.333 324.846C151.688 324.691 152.088 324.861 152.227 325.2C152.257 325.247 154.152 329.565 157.401 329.226C157.771 329.179 158.11 329.457 158.156 329.827C158.187 330.213 157.925 330.552 157.54 330.583C157.355 330.598 157.186 330.614 157.016 330.614Z" fill="black"/>
<path d="M301.676 333.004C299.658 330.984 300.09 329.719 300.444 329.627C300.798 329.549 302.831 328.532 303.462 327.976C304.987 326.635 305.48 324.707 304.556 323.658C304.078 323.103 303.277 322.918 302.415 323.072C302.661 320.28 301.861 318.939 301.198 317.026C298.904 310.41 293.144 311.783 291.065 314.158C289.247 316.24 289.386 318.013 285.443 320.018C285.074 320.203 285.089 320.774 285.289 321.144L286.321 323.257C286.552 323.658 286.46 324.676 286.321 325.139C285.859 326.542 284.797 329.503 285.089 330.074C285.69 331.184 290.295 332.865 290.295 332.865L298.472 345.25C298.134 347.856 296.655 349.321 295.531 350.077C294.853 350.54 294.838 351.542 295.546 351.989C296.871 352.822 299.535 354.118 304.879 356.015C311.948 358.513 319.633 349.198 319.633 349.198C319.633 349.198 317.477 348.874 301.676 333.004Z" fill="white"/>
<path d="M285.72 329.796C286.105 330.336 288.477 331.477 290.525 332.218C290.664 332.264 290.787 332.356 290.864 332.48L299.042 344.864C299.134 345.003 299.18 345.173 299.149 345.342C298.78 348.165 297.194 349.784 295.915 350.648C295.73 350.771 295.7 350.972 295.7 351.049C295.715 351.126 295.73 351.295 295.915 351.403C297.07 352.128 299.596 353.408 305.109 355.367C310.608 357.31 316.691 351.388 318.539 349.398C316.306 347.964 310.916 343.26 301.182 333.482C299.288 331.57 299.396 330.259 299.519 329.781C299.642 329.364 299.919 329.041 300.289 328.963C300.582 328.871 302.476 327.93 303.015 327.452C304.216 326.388 304.694 324.861 304.047 324.121C303.739 323.766 303.184 323.627 302.538 323.735C302.322 323.781 302.106 323.72 301.952 323.566C301.798 323.427 301.721 323.226 301.737 323.01C301.922 320.882 301.459 319.679 300.92 318.276C300.797 317.952 300.659 317.612 300.535 317.242C299.688 314.806 298.272 313.325 296.439 312.97C294.529 312.6 292.543 313.51 291.588 314.62C291.064 315.207 290.71 315.777 290.34 316.379C289.524 317.736 288.662 319.139 285.828 320.589C285.828 320.651 285.843 320.743 285.889 320.805L286.937 322.949C287.291 323.581 287.137 324.83 286.967 325.339C286.89 325.571 286.813 325.817 286.721 326.11C286.413 327.051 285.674 329.241 285.72 329.796ZM307.42 357.125C306.496 357.125 305.571 356.986 304.647 356.663C300.135 355.059 296.947 353.686 295.176 352.576C294.668 352.236 294.344 351.681 294.329 351.064C294.329 350.432 294.637 349.846 295.161 349.506C296.146 348.828 297.394 347.579 297.748 345.404L289.847 333.421C288.508 332.927 285.119 331.585 284.488 330.398C284.149 329.75 284.488 328.485 285.412 325.678C285.504 325.401 285.597 325.139 285.658 324.923C285.797 324.522 285.812 323.766 285.72 323.581L284.673 321.453C284.457 321.083 284.396 320.558 284.519 320.157C284.627 319.818 284.842 319.556 285.135 319.401C287.676 318.106 288.369 316.98 289.17 315.669C289.555 315.037 289.955 314.405 290.556 313.711C291.742 312.353 294.16 311.135 296.701 311.628C298.333 311.937 300.551 313.094 301.845 316.795C301.952 317.15 302.076 317.474 302.199 317.782C302.707 319.108 303.184 320.373 303.138 322.332C303.924 322.378 304.617 322.671 305.079 323.211C306.249 324.553 305.741 326.881 303.924 328.485C303.308 329.025 301.552 329.935 300.828 330.228C300.797 330.49 300.951 331.292 302.153 332.511C316.121 346.561 319.34 348.319 319.756 348.519C320.033 348.504 320.187 348.643 320.31 348.889C320.433 349.121 320.325 349.414 320.156 349.63C319.863 349.985 313.903 357.125 307.42 357.125Z" fill="black"/>
<path d="M293.374 316.009C293.374 316.009 286.136 310.225 288.153 305.567C288.338 305.166 288.877 303.886 290.125 303.316C292.681 302.159 295.977 304.951 296.716 305.583C303.123 310.935 307.404 311.474 310.13 314.281C311.116 315.299 312.209 317.181 312.086 320.959C311.547 323.643 310.453 325.062 309.545 325.864C307.666 327.514 306.049 327.036 304.724 328.763C303.23 330.706 304.17 332.758 303.123 333.359C302.322 333.837 300.566 333.313 296.439 329.21C298.903 326.434 300.135 323.689 299.257 322.316C299.011 321.931 298.318 321.268 297.578 321.283C296.608 321.283 295.961 322.316 295.961 322.316L293.374 316.009Z" fill="black"/>
<path d="M282.779 380.614H321.958V390.793H282.779V380.614Z" fill="black"/>
<path d="M282.871 380.83L288.416 423.119C288.416 423.119 307.127 423.89 321.897 422.641C321.897 422.641 298.934 379.581 282.871 380.83Z" fill="white"/>
<path d="M282.163 379.997H321.542V390.793H282.163V379.997Z" fill="black"/>
<path d="M288.215 422.209C287.876 422.209 287.568 421.962 287.522 421.607L282.178 380.922C282.163 380.737 282.209 380.537 282.332 380.398C282.455 380.244 282.625 380.151 282.81 380.151C296.994 379.041 315.89 410.534 321.342 420.219C321.527 420.543 321.419 420.959 321.08 421.145C320.757 421.345 320.341 421.222 320.156 420.882C309.36 401.758 294.252 381.616 283.641 381.493L288.893 421.438C288.939 421.808 288.677 422.162 288.292 422.209C288.277 422.209 288.231 422.209 288.215 422.209Z" fill="black"/>
<path d="M212.937 247.146H369.978V390.793H212.937V247.146Z" fill="black"/>
<path d="M290.495 388.479C302.878 397.147 298.519 410.441 307.467 424.044C334.295 426.079 359.213 426.866 379.773 424.768C383.331 424.398 385.887 421.16 385.41 417.597C385.41 417.582 385.41 417.566 385.41 417.535C384.548 411.197 381.606 406.508 370.656 392.859C362.679 382.896 361.585 382.125 359.136 378.871C353.839 371.823 347.786 360.518 345.63 342.427C349.234 335.595 356.38 319.725 354.917 298.843C352.899 270.311 336.159 252.128 331.323 247.208C328.72 249.12 326.133 251.033 323.545 252.945C326.425 257.88 334.726 273.519 332.201 294.37C329.752 314.666 318.556 327.375 314.998 331.323C310.116 336.705 291.219 355.814 262.759 354.148C241.075 352.868 226.767 340.283 222.394 336.104C219.298 338.309 216.187 340.499 213.092 342.705C224.765 369.879 238.641 379.272 248.975 382.896C266.748 389.127 277.775 379.58 290.495 388.479Z" fill="black"/>
<path d="M214.878 336.336L205.868 330.953C205.037 330.444 204.344 329.719 203.897 328.856L201.648 324.522C201.31 323.874 202.095 323.242 202.65 323.689L207.655 327.776C208.363 328.362 209.195 328.763 210.073 328.964L217.311 330.753L218.959 327.375C219.452 326.373 220.484 325.756 221.592 325.817L219.713 333.991L221.916 341.656L216.341 343.461L214.878 336.336Z" fill="white"/>
<path d="M202.311 324.306L204.498 328.532C204.898 329.288 205.483 329.92 206.222 330.367L215.232 335.734C215.401 335.842 215.509 335.996 215.555 336.197L216.849 342.582L221.084 341.209L219.051 334.192C219.02 334.069 219.02 333.961 219.051 333.837L220.699 326.65C220.222 326.835 219.821 327.19 219.575 327.668L217.927 331.061C217.788 331.354 217.465 331.508 217.142 331.431L209.919 329.642C208.933 329.411 208.009 328.948 207.224 328.316L202.311 324.306ZM216.341 344.155C216.218 344.155 216.094 344.124 215.987 344.062C215.817 343.954 215.694 343.8 215.663 343.6L214.262 336.767L205.514 331.539C204.575 330.969 203.789 330.151 203.281 329.164L201.032 324.83C200.74 324.26 200.878 323.566 201.387 323.165C201.879 322.748 202.588 322.748 203.081 323.165L208.086 327.252C208.717 327.745 209.457 328.115 210.227 328.3L216.941 329.951L218.343 327.067C218.959 325.817 220.237 325.062 221.623 325.123C221.823 325.139 222.024 325.231 222.131 325.401C222.27 325.555 222.301 325.771 222.255 325.972L220.422 333.976L222.578 341.471C222.686 341.826 222.486 342.196 222.131 342.32L216.541 344.124C216.479 344.139 216.402 344.155 216.341 344.155Z" fill="black"/>
<path d="M326.085 252.945C326.085 252.945 323.452 249.784 320.587 250.077C317.738 250.354 315.351 250.2 315.351 250.2C315.351 250.2 315.505 247.887 317.076 247.964C318.647 248.056 318.647 248.056 318.647 248.056L320.172 247.501L314.196 235.302L318.123 235.98C318.909 236.104 319.617 236.536 320.11 237.168L330.028 250.108L326.085 252.945Z" fill="white"/>
<path d="M320.957 249.367C323.267 249.367 325.315 251.157 326.178 252.036L329.058 249.954L319.571 237.6C319.186 237.091 318.632 236.752 318 236.644L315.397 236.212L320.788 247.193C320.88 247.363 320.88 247.563 320.803 247.748C320.741 247.933 320.587 248.072 320.403 248.134L318.878 248.704C318.786 248.735 318.693 248.751 318.601 248.735L317.03 248.658C316.568 248.612 316.321 249.105 316.183 249.553C317.092 249.568 318.724 249.568 320.526 249.383C320.664 249.367 320.818 249.367 320.957 249.367ZM326.085 253.64C325.885 253.64 325.685 253.547 325.562 253.393C325.531 253.362 323.113 250.509 320.664 250.756C317.785 251.033 315.413 250.894 315.32 250.894C315.136 250.879 314.966 250.802 314.843 250.663C314.72 250.524 314.658 250.339 314.674 250.169C314.735 249.121 315.336 247.193 317.107 247.285L318.539 247.363L319.217 247.116L313.58 235.611C313.472 235.379 313.488 235.102 313.642 234.901C313.796 234.685 314.058 234.577 314.304 234.623L318.231 235.302C319.201 235.456 320.064 235.981 320.649 236.752L330.567 249.691C330.69 249.83 330.736 250.015 330.706 250.2C330.675 250.385 330.583 250.555 330.428 250.663L326.486 253.501C326.363 253.593 326.224 253.64 326.085 253.64Z" fill="black"/>
<path d="M284.828 351.141C284.828 351.141 282.733 346.792 284.828 345.913C286.937 345.049 310.285 333.313 314.043 328.146C317.8 322.98 335.45 325.046 339.084 328.146C342.734 331.246 337.637 344.062 329.505 349.167C321.373 354.272 304.078 344.787 284.828 351.141Z" fill="white"/>
<path d="M324.684 325.678C323.452 325.678 322.251 325.74 321.111 325.879C317.831 326.28 315.582 327.19 314.597 328.547C310.685 333.93 287.322 345.635 285.089 346.561C284.889 346.638 284.765 346.777 284.688 346.992C284.365 347.825 284.842 349.368 285.212 350.293C295.623 347.023 305.495 348.257 313.457 349.26C320.264 350.108 325.639 350.786 329.135 348.581C334.926 344.941 339.207 337.153 339.577 332.156C339.654 330.999 339.561 329.457 338.637 328.67C336.804 327.113 330.536 325.678 324.684 325.678ZM284.827 351.82C284.581 351.82 284.334 351.681 284.211 351.434C284.057 351.126 282.733 348.273 283.41 346.499C283.626 345.928 284.026 345.512 284.565 345.281C286.598 344.448 309.884 332.696 313.488 327.745C314.72 326.049 317.23 324.954 320.942 324.522C327.564 323.735 336.758 325.262 339.53 327.622C340.608 328.547 341.101 330.151 340.947 332.264C340.562 337.569 336.219 345.759 329.859 349.753C325.947 352.205 320.356 351.511 313.288 350.617C305.31 349.63 295.377 348.38 285.043 351.789C284.981 351.82 284.904 351.82 284.827 351.82Z" fill="black"/>
<path d="M396.174 290.962C396.543 290.761 396.728 290.33 396.589 289.913C395.912 287.831 393.525 281.677 389.12 279.873C383.776 277.698 377.677 270.789 375.336 272.362C372.996 273.935 380.835 279.179 380.419 280.151C380.018 281.122 377.831 278.886 375.614 276.742C373.396 274.583 374.474 273.611 372.472 274.429C369.715 275.539 367.96 276.557 374.305 283.821C380.342 290.731 388.304 289.451 390.876 294.478C391.091 294.91 392.293 294.71 392.724 294.478L396.174 290.962Z" fill="white"/>
<path d="M391.415 294.047C391.631 294.077 392.078 294 392.324 293.908L395.697 290.469C395.743 290.422 395.789 290.376 395.851 290.345C395.943 290.314 395.974 290.222 395.943 290.129C395.343 288.309 393.032 282.217 388.859 280.506C386.518 279.565 384.054 277.745 381.882 276.141C379.434 274.337 376.677 272.285 375.722 272.933C375.599 273.01 375.583 273.072 375.583 273.118C375.506 273.966 377.601 275.987 378.848 277.19C380.542 278.809 381.39 279.611 381.051 280.413C380.912 280.752 380.65 280.984 380.311 281.045C379.326 281.261 378.032 280.058 375.645 277.73L375.137 277.236C374.182 276.311 373.766 275.555 373.535 275.092C373.489 275.015 373.427 274.907 373.381 274.845C373.289 274.861 373.104 274.907 372.719 275.061C371.487 275.57 370.825 275.925 370.686 276.511C370.424 277.622 371.81 279.92 374.829 283.359C377.817 286.798 381.328 288.14 384.423 289.327C387.427 290.469 390.029 291.471 391.415 294.047ZM391.554 295.419C391.338 295.419 391.123 295.404 390.938 295.342C390.538 295.219 390.353 294.972 390.26 294.802C389.136 292.597 386.841 291.718 383.931 290.607C380.696 289.374 377.016 287.955 373.782 284.269C370.286 280.259 368.961 277.853 369.362 276.187C369.685 274.799 371.086 274.244 372.211 273.781C373.304 273.35 373.859 273.334 374.321 273.843C374.228 273.55 374.197 273.272 374.213 272.995C374.259 272.501 374.505 272.085 374.952 271.792C376.708 270.604 379.357 272.563 382.699 275.031C384.808 276.588 387.196 278.346 389.367 279.241C393.972 281.107 396.405 287.184 397.252 289.697C397.468 290.391 397.206 291.116 396.605 291.502L393.217 294.957C393.156 295.018 393.109 295.049 393.048 295.095C392.724 295.265 392.124 295.419 391.554 295.419Z" fill="black"/>
<path d="M396.975 285.641L388.443 294.047C388.443 294.047 401.195 324.414 423.772 338.047C426.174 339.513 435.23 350.494 440.02 352.653C444.517 354.673 448.413 351.65 448.952 347.162C449.414 343.276 449.322 334.022 447.72 330.506C446.457 327.745 444.856 326.018 442.099 324.738C439.881 323.72 437.971 322.008 437.201 321.561C427.391 315.854 417.766 302.529 408.279 295.697C404.09 292.674 400.502 289.405 396.975 285.641Z" fill="#7ED957"/>
<path d="M370.979 261.104L372.011 265.176C372.473 267.042 372.473 269.001 371.965 270.851C371.41 272.856 370.825 277.036 370.979 280.907C371.148 285.241 372.889 288.325 375.615 289.698C378.556 291.163 382.206 291.348 385.225 289.944C387.658 288.819 389.491 286.906 390.353 284.439C390.769 283.266 390.923 282.033 390.923 280.799C390.923 277.761 390.338 273.566 389.845 271.468C389.414 269.648 389.429 267.767 389.922 265.962L391.2 261.15L370.979 261.104Z" fill="white"/>
<path d="M380.774 291.579C378.911 291.579 377.016 291.147 375.307 290.314C372.288 288.803 370.471 285.379 370.286 280.922C370.148 277.128 370.687 272.902 371.303 270.666C371.78 268.954 371.78 267.103 371.349 265.345L370.317 261.274C370.225 260.903 370.44 260.533 370.81 260.441C371.179 260.333 371.549 260.564 371.641 260.934L372.673 265.006C373.182 266.995 373.151 269.077 372.627 271.036C372.057 273.103 371.518 277.267 371.672 280.876C371.826 284.87 373.336 287.785 375.923 289.081C378.757 290.499 382.206 290.592 384.932 289.327C387.258 288.232 388.906 286.474 389.706 284.207C390.061 283.205 390.23 282.094 390.23 280.799C390.23 277.899 389.676 273.766 389.183 271.622C388.721 269.694 388.752 267.674 389.26 265.777L390.538 260.981C390.631 260.61 391.016 260.394 391.385 260.487C391.739 260.58 391.955 260.965 391.863 261.335L390.584 266.132C390.138 267.813 390.107 269.602 390.507 271.298C391.031 273.535 391.601 277.791 391.601 280.799C391.601 282.264 391.401 283.513 391 284.67C390.092 287.245 388.136 289.343 385.502 290.577C384.054 291.24 382.422 291.579 380.774 291.579Z" fill="black"/>
<path d="M376.292 287.616C378.864 288.911 382.067 289.081 384.701 287.847C386.841 286.844 387.642 285.564 388.412 283.39C388.767 282.372 389.028 280.567 389.028 279.488C389.028 276.82 388.228 273.997 387.889 272.131C387.658 270.805 387.534 269.278 387.766 267.89L373.936 267.921C374.198 268.985 373.874 270.651 373.689 271.484C373.32 273.257 372.627 276.65 372.765 280.043C372.904 283.837 373.889 286.428 376.292 287.616Z" fill="#C1FF72"/>
<path d="M382.114 308.636C381.729 308.636 381.421 308.328 381.421 307.958V290.947C381.421 290.561 381.729 290.253 382.114 290.253C382.499 290.253 382.807 290.561 382.807 290.947V307.958C382.807 308.328 382.499 308.636 382.114 308.636Z" fill="black"/>
<path d="M380.234 307.85C379.865 307.85 379.557 307.541 379.557 307.156V291.008C379.557 290.638 379.865 290.33 380.234 290.33C380.619 290.33 380.927 290.638 380.927 291.008V307.156C380.927 307.541 380.619 307.85 380.234 307.85Z" fill="black"/>
<path d="M381.174 305.799C381.174 305.799 386.04 309.639 386.687 310.21C383.191 310.256 379.033 310.256 375.367 310.225C375.86 309.763 381.174 305.799 381.174 305.799Z" fill="white"/>
<path d="M377.339 309.546C380.019 309.562 382.575 309.562 384.793 309.546C383.699 308.667 382.221 307.51 381.158 306.662C379.926 307.588 378.432 308.713 377.339 309.546ZM380.219 310.934C378.663 310.934 377.031 310.934 375.368 310.919C375.075 310.919 374.829 310.749 374.721 310.472C374.628 310.209 374.69 309.916 374.906 309.731C375.414 309.253 380.219 305.66 380.758 305.243C381.004 305.074 381.343 305.074 381.589 305.259C381.79 305.413 386.487 309.114 387.149 309.7C387.349 309.886 387.426 310.194 387.334 310.456C387.226 310.718 386.98 310.888 386.687 310.903C384.824 310.919 382.606 310.934 380.219 310.934Z" fill="black"/>
<path d="M370.963 260.996C370.963 261.906 375.475 262.631 381.05 262.631C386.625 262.631 391.153 261.906 391.153 260.996C391.153 260.102 386.625 259.361 381.05 259.361C375.475 259.361 370.963 260.102 370.963 260.996Z" fill="white"/>
<path d="M371.98 260.996C373.073 261.413 376.107 261.952 381.051 261.952C385.994 261.952 389.028 261.413 390.122 260.996C389.028 260.58 385.994 260.055 381.051 260.055C376.107 260.055 373.073 260.58 371.98 260.996ZM381.051 263.325C377.801 263.325 370.27 263.094 370.27 260.996C370.27 258.899 377.801 258.683 381.051 258.683C384.285 258.683 391.831 258.899 391.831 260.996C391.831 263.094 384.285 263.325 381.051 263.325Z" fill="black"/>
<path d="M373.92 267.828C373.92 268.661 377.015 269.339 380.85 269.339C384.67 269.339 387.781 268.661 387.781 267.828C387.781 266.995 384.67 266.317 380.85 266.317C377.015 266.317 373.92 266.995 373.92 267.828Z" fill="#C1FF72"/>
<path d="M380.851 270.034C378.279 270.034 376.062 269.741 374.614 269.201C374.26 269.077 374.075 268.676 374.198 268.322C374.337 267.967 374.722 267.782 375.076 267.921C376.385 268.383 378.433 268.646 380.851 268.646C382.992 268.646 385.225 268.414 386.657 268.013C387.027 267.905 387.397 268.121 387.504 268.491C387.597 268.861 387.381 269.232 387.012 269.34C385.471 269.756 383.115 270.034 380.851 270.034Z" fill="#C1FF72"/>
<path d="M376.276 267.011C375.968 267.011 375.691 266.795 375.614 266.471L370.085 241.903C369.993 241.533 370.224 241.163 370.593 241.085C370.963 240.993 371.333 241.224 371.425 241.594L376.954 266.178C377.031 266.548 376.8 266.918 376.43 266.995C376.384 267.011 376.338 267.011 376.276 267.011Z" fill="black"/>
<path d="M371.302 244.216L385.902 249.475L382.037 250.462L379.757 252.606L376.308 251.835L373.335 254.488L369.962 253.115L367.575 255.706L364.973 254.303L360.645 255.845L371.302 244.216Z" fill="white"/>
<path d="M365.127 254.596C364.988 254.596 364.865 254.565 364.742 254.472C364.434 254.272 364.341 253.84 364.557 253.516L370.81 244.201C371.025 243.893 371.457 243.8 371.765 244.016C372.088 244.232 372.165 244.664 371.965 244.972L365.697 254.287C365.558 254.488 365.342 254.596 365.127 254.596Z" fill="#C1FF72"/>
<path d="M370.085 253.377C370.039 253.377 369.993 253.377 369.947 253.362C369.577 253.285 369.331 252.93 369.408 252.56L370.886 245.219C370.963 244.848 371.318 244.602 371.703 244.679C372.072 244.756 372.303 245.111 372.226 245.496L370.748 252.822C370.686 253.146 370.393 253.377 370.085 253.377Z" fill="#C1FF72"/>
<path d="M376.015 252.128C375.799 252.128 375.599 252.02 375.461 251.835L371.01 245.759C370.779 245.45 370.856 245.018 371.148 244.802C371.456 244.571 371.888 244.648 372.119 244.941L376.569 251.033C376.8 251.326 376.723 251.758 376.415 251.989C376.308 252.082 376.154 252.128 376.015 252.128Z" fill="#C1FF72"/>
<path d="M381.789 250.802C381.682 250.802 381.574 250.786 381.466 250.724L371.071 245.203C370.732 245.018 370.609 244.602 370.778 244.262C370.963 243.939 371.379 243.8 371.702 243.985L382.113 249.521C382.452 249.691 382.575 250.108 382.406 250.447C382.282 250.678 382.036 250.802 381.789 250.802Z" fill="#C1FF72"/>
<path d="M371.656 286.721C366.389 277.73 367.729 273.735 371.225 271.406C371.425 271.268 371.703 271.298 371.903 271.453C378.017 276.372 379.295 281.539 374.274 287.029C373.535 287.831 372.211 287.677 371.656 286.721Z" fill="white"/>
<path d="M372.257 286.382C372.411 286.644 372.672 286.813 372.98 286.86C373.273 286.891 373.566 286.783 373.766 286.551C375.86 284.269 376.831 281.986 376.677 279.781C376.476 277.236 374.752 274.63 371.533 272.039C368.961 273.781 366.774 277.02 372.257 286.382ZM373.088 288.232C373.011 288.232 372.919 288.232 372.842 288.217C372.087 288.14 371.456 287.723 371.071 287.076C366.358 279.025 366.297 273.874 370.84 270.836C371.286 270.543 371.902 270.573 372.334 270.913C375.891 273.766 377.816 276.727 378.032 279.688C378.232 282.279 377.139 284.901 374.782 287.492C374.336 287.97 373.735 288.232 373.088 288.232Z" fill="black"/>
<path d="M358.674 135.903C358.489 135.903 358.289 135.826 358.15 135.672L330.952 103.84C330.706 103.547 330.737 103.115 331.029 102.868C331.322 102.621 331.753 102.652 332 102.945L359.197 134.777C359.444 135.07 359.413 135.502 359.12 135.749C358.997 135.857 358.828 135.903 358.674 135.903Z" fill="black"/>
<path d="M350.45 143.152C350.327 143.152 350.188 143.121 350.081 143.028L326.656 127.174C326.348 126.958 326.271 126.542 326.471 126.218C326.687 125.909 327.118 125.832 327.426 126.048L350.835 141.903C351.159 142.103 351.236 142.535 351.02 142.859C350.897 143.044 350.681 143.152 350.45 143.152Z" fill="black"/>
<path d="M430.949 47.254C430.841 47.254 430.718 47.2231 430.61 47.1614C430.271 46.9609 430.163 46.5445 430.363 46.2207L432.581 42.4113C432.781 42.0874 433.197 41.9794 433.52 42.1645C433.844 42.3496 433.952 42.7814 433.767 43.1053L431.549 46.9147C431.411 47.1306 431.18 47.254 430.949 47.254Z" fill="black"/>
<path d="M425.774 56.1219C425.651 56.1219 425.527 56.091 425.42 56.0139C425.096 55.8289 424.988 55.4124 425.173 55.0732L427.406 51.2792C427.591 50.9553 428.022 50.8319 428.346 51.0324C428.669 51.2175 428.777 51.6339 428.592 51.9732L426.359 55.7826C426.236 55.9985 426.005 56.1219 425.774 56.1219Z" fill="black"/>
<path d="M426.945 48.3027C426.837 48.3027 426.714 48.2719 426.606 48.2102L422.802 45.9739C422.478 45.7888 422.355 45.357 422.555 45.0331C422.74 44.7092 423.171 44.6013 423.495 44.7863L427.299 47.0226C427.622 47.2077 427.73 47.6241 427.545 47.9634C427.407 48.1793 427.176 48.3027 426.945 48.3027Z" fill="black"/>
<path d="M435.8 53.4848C435.677 53.4848 435.569 53.4539 435.462 53.3922L431.658 51.1714C431.334 50.9709 431.211 50.5545 431.411 50.2306C431.596 49.8913 432.027 49.7833 432.351 49.9838L436.139 52.2047C436.478 52.4052 436.586 52.8216 436.401 53.1455C436.262 53.3614 436.031 53.4848 435.8 53.4848Z" fill="black"/>
<path d="M119.593 38.9106C119.47 38.9106 119.362 38.8798 119.239 38.8181C118.915 38.6176 118.807 38.2012 119.008 37.8773L121.225 34.0679C121.41 33.7441 121.841 33.6361 122.165 33.8212C122.488 34.0062 122.596 34.4381 122.411 34.7619L120.178 38.5713C120.055 38.7872 119.824 38.9106 119.593 38.9106Z" fill="black"/>
<path d="M114.419 47.7786C114.296 47.7786 114.173 47.7477 114.065 47.6706C113.741 47.4855 113.634 47.0691 113.818 46.7298L116.051 42.9359C116.236 42.612 116.652 42.504 116.991 42.6891C117.314 42.8742 117.422 43.306 117.222 43.6299L115.004 47.4393C114.881 47.6552 114.65 47.7786 114.419 47.7786Z" fill="black"/>
<path d="M115.589 39.9593C115.466 39.9593 115.358 39.9285 115.235 39.8668L111.446 37.6305C111.107 37.4455 111 37.029 111.2 36.6897C111.385 36.3659 111.8 36.2579 112.139 36.443L115.928 38.6793C116.267 38.8643 116.374 39.2962 116.174 39.62C116.051 39.836 115.82 39.9593 115.589 39.9593Z" fill="black"/>
<path d="M124.445 45.1412C124.321 45.1412 124.198 45.1104 124.09 45.0487L120.302 42.8278C119.963 42.6273 119.855 42.2109 120.055 41.887C120.24 41.5632 120.656 41.4398 120.995 41.6403L124.783 43.8611C125.122 44.0616 125.23 44.478 125.03 44.8019C124.907 45.0178 124.676 45.1412 124.445 45.1412Z" fill="black"/>
<path d="M105.301 153.069C105.255 153.069 105.224 153.069 105.178 153.069C104.485 153.099 103.854 153.392 103.392 153.901C102.437 154.966 102.514 156.6 103.561 157.572C104.069 158.035 104.732 158.266 105.425 158.235C106.102 158.204 106.749 157.911 107.211 157.402C108.166 156.338 108.089 154.703 107.042 153.747C106.564 153.3 105.948 153.069 105.301 153.069ZM105.301 159.608C104.316 159.608 103.376 159.253 102.637 158.574C101.02 157.109 100.912 154.595 102.375 152.992C103.084 152.205 104.069 151.742 105.117 151.696C106.179 151.65 107.18 152.004 107.966 152.729C109.583 154.194 109.691 156.708 108.228 158.328C107.519 159.099 106.534 159.562 105.486 159.608C105.425 159.608 105.363 159.608 105.301 159.608Z" fill="black"/>
<path d="M115.896 135.842C117.76 133.79 120.917 133.652 122.965 135.518C125.014 137.384 125.152 140.546 123.289 142.597C121.425 144.648 118.268 144.787 116.22 142.921C114.187 141.054 114.033 137.893 115.896 135.842Z" fill="white"/>
<path d="M91.0552 109.284L86.2655 125.308L101.82 119.355L91.0552 109.284ZM85.2029 127.128C85.0335 127.128 84.8795 127.066 84.7409 126.943C84.5561 126.773 84.4791 126.496 84.5561 126.249L90.0541 107.819C90.1157 107.587 90.3005 107.418 90.5315 107.356C90.7626 107.294 91.009 107.356 91.1784 107.51L103.561 119.108C103.73 119.262 103.807 119.509 103.761 119.74C103.715 119.972 103.545 120.172 103.33 120.249L85.4493 127.082C85.3723 127.112 85.2953 127.128 85.2029 127.128Z" fill="black"/>
</svg>
