<svg width="578" height="367"  viewBox="0 0 361 383" fill="none" xmlns="http://www.w3.org/2000/svg">
    <g clip-path="url(#clip0_884_472)">
    <path d="M358.478 213.404C357.199 219.407 355.323 225.024 352.837 230.111C350.89 234.137 348.545 237.848 345.817 241.173C335.4 253.911 322.426 257.292 305.387 270.604C289.543 282.998 287.766 286.15 286.615 288.314C275.346 309.578 299.05 328.248 294.289 346.489C286.743 375.304 211.37 390.693 148.346 380.935C131.35 378.298 45.2201 363.01 13.5305 299.447C11.3563 295.077 -7.20269 257.063 4.02367 230.111C5.43052 226.744 7.2921 223.548 9.72211 220.611C12.749 216.943 15.5342 214.951 18.2485 213.404C22.3553 211.054 26.3059 209.707 30.7254 205.179C58.2939 176.88 6.35421 124.15 19.2716 86.0644C20.4227 82.6255 22.1422 79.2296 24.359 75.9054C29.5032 68.1822 37.3333 60.7886 47.2238 54.0684C60.397 45.0986 77.2366 37.3182 96.2361 31.5294C101.338 29.9819 106.581 28.5633 111.953 27.3167C140.161 20.7542 171.865 18.5332 202.958 22.9178C209.622 23.8492 216.244 25.0958 222.81 26.6576C240.374 30.8559 257.455 37.3611 273.257 46.6318C288.022 55.3007 300.996 65.9612 312.138 77.8684C313.146 78.9574 314.155 80.0607 315.136 81.164C316.742 82.9694 318.305 84.8035 319.825 86.6519C320.28 87.1964 320.721 87.7409 321.161 88.2854C321.886 89.2024 322.611 90.1194 323.335 91.0508C323.35 91.0795 323.378 91.1081 323.392 91.1368C326.76 95.507 329.915 99.9919 332.842 104.563C334.207 106.698 335.528 108.847 336.793 111.011C338.839 114.507 340.743 118.032 342.534 121.585C342.548 121.614 342.562 121.643 342.562 121.671C343.159 122.846 343.742 124.035 344.31 125.225C345.476 127.675 346.57 130.125 347.607 132.575C359.629 161.046 363.452 190.205 358.478 213.404Z" fill="#C1FF72"/>
    <path d="M111.951 27.3169L156.658 114.894L182.45 165.446L159.386 170.819L141.182 175.046V175.06L109.294 182.482L103.482 115.381L96.2344 31.5295L111.951 27.3169Z" fill="white"/>
    <path d="M315.418 68.5546L250.689 227.618L169.206 165.359L179.707 157.865L227.597 123.691L306.181 58.5962C309.336 61.9634 312.562 65.0011 315.418 68.5546Z" fill="white"/>
    <path d="M228.663 177.367L179.267 172.696L159.387 170.819L148.359 169.773L129.914 168.024L137.644 152.664L156.658 114.894L202.956 22.9177C209.621 23.8491 216.243 25.0957 222.808 26.6575L227.157 138.522L228.663 177.367Z" fill="white"/>
    <path d="M151.315 167.595L148.359 169.773L141.183 175.06L75.7002 223.247L24.3574 75.9053C29.5016 68.1821 37.3317 60.7885 47.2222 54.0684C65.2271 73.6557 85.5766 95.8508 103.482 115.381C116.939 130.053 129.004 143.222 137.644 152.664C146.128 161.92 151.315 167.595 151.315 167.595Z" fill="white"/>
    <path d="M358.477 213.404C357.198 219.407 355.322 225.024 352.835 230.111H4.02246C5.42931 226.744 7.29089 223.548 9.7209 220.611C12.7478 216.943 15.533 214.951 18.2473 213.404H358.477Z" fill="white"/>
    <path d="M222.069 310.222C222.069 310.222 223.646 321.069 220.676 324.68L219.767 325.812L234.091 325.11C234.091 325.11 229.998 316.799 230.496 312.386L222.069 310.222Z" fill="white"/>
    <path d="M222.837 311.097C223.15 313.891 223.789 321.9 221.203 325.081L233.083 324.494C232.074 322.302 229.686 316.642 229.814 312.888L222.837 311.097ZM219.768 326.471C219.526 326.471 219.299 326.328 219.185 326.113C219.071 325.869 219.1 325.597 219.256 325.397L220.18 324.265C222.468 321.485 221.856 313.26 221.43 310.323C221.402 310.094 221.473 309.879 221.629 309.735C221.8 309.592 222.027 309.535 222.226 309.578L230.667 311.741C230.98 311.827 231.179 312.128 231.15 312.458C230.681 316.627 234.632 324.737 234.674 324.809C234.774 325.01 234.76 325.253 234.646 325.44C234.532 325.626 234.333 325.755 234.12 325.769L219.796 326.471C219.782 326.471 219.782 326.471 219.768 326.471Z" fill="black"/>
    <path d="M221.032 321.227C220.037 322.517 219.255 323.978 218.744 325.526C217.849 328.234 218.133 331.429 218.545 334.008C218.843 335.9 220.449 337.29 222.353 337.304L231.917 337.361C233.722 337.376 235.285 336.143 235.711 334.381C236.138 332.633 236.521 330.326 236.337 327.933C236.109 324.738 235.569 323.735 233.253 321.084C232.983 320.797 232.542 320.783 232.272 321.07L231.704 322.03C231.462 322.445 230.865 322.431 230.638 322.015L229.714 320.267C229.487 319.866 229.075 319.622 228.62 319.651L225.878 319.751C225.366 319.766 224.925 320.095 224.783 320.582L224.314 322.073C224.172 322.545 223.575 322.66 223.263 322.287L222.296 321.112C221.927 320.769 221.33 320.812 221.032 321.227Z" fill="white"/>
    <path d="M221.715 321.542C221.7 321.542 221.7 321.542 221.7 321.542C221.658 321.542 221.601 321.557 221.544 321.628C220.578 322.889 219.839 324.279 219.37 325.741C218.475 328.42 218.844 331.687 219.185 333.908C219.441 335.484 220.777 336.63 222.354 336.645L231.918 336.702C231.932 336.702 231.946 336.702 231.946 336.702C233.438 336.716 234.731 335.685 235.087 334.223C235.627 332.031 235.826 329.882 235.698 327.976C235.485 325.053 235.072 324.15 232.77 321.528L232.273 322.373C232.031 322.775 231.634 323.004 231.15 322.989C230.696 322.989 230.283 322.732 230.07 322.316L229.132 320.582C229.033 320.396 228.848 320.296 228.649 320.296L225.892 320.396C225.665 320.41 225.466 320.568 225.395 320.783L224.94 322.273C224.812 322.717 224.429 323.047 223.974 323.147C223.519 323.233 223.05 323.061 222.752 322.703L221.828 321.571C221.786 321.542 221.743 321.542 221.715 321.542ZM231.946 338.02C231.932 338.02 231.932 338.02 231.918 338.02L222.34 337.963C220.123 337.949 218.247 336.33 217.906 334.109C217.522 331.759 217.139 328.277 218.133 325.311C218.659 323.72 219.455 322.216 220.507 320.826C220.762 320.482 221.16 320.267 221.587 320.224C221.999 320.195 222.425 320.339 222.738 320.625C222.766 320.654 222.78 320.668 222.795 320.697L223.718 321.815L224.159 320.396C224.386 319.637 225.068 319.121 225.85 319.092L228.592 318.992C229.303 318.963 229.942 319.336 230.283 319.966L231.179 321.643L231.719 320.74C231.733 320.697 231.761 320.668 231.79 320.64C232.046 320.353 232.401 320.224 232.756 320.21C233.126 320.21 233.481 320.367 233.737 320.654C236.124 323.362 236.749 324.494 236.991 327.876C237.147 329.939 236.92 332.189 236.351 334.538C235.84 336.587 234.035 338.02 231.946 338.02Z" fill="black"/>
    <path d="M227.981 333.85C226.404 333.85 224.897 333.679 224.187 333.593C222.283 333.349 220.407 330.24 220.194 329.881C220.009 329.566 220.123 329.165 220.421 328.979C220.734 328.792 221.132 328.907 221.316 329.208C222.027 330.426 223.448 332.174 224.343 332.289C227.342 332.676 230.866 332.633 231.79 331.83C233.054 330.741 233.736 328.649 233.736 328.62C233.85 328.277 234.22 328.09 234.561 328.205C234.902 328.305 235.086 328.678 234.973 329.022C234.944 329.122 234.191 331.486 232.642 332.833C231.719 333.636 229.8 333.85 227.981 333.85Z" fill="black"/>
    <path d="M169.845 307.887C169.845 307.887 168.566 317.888 164.587 321.356L163.265 322.903L180.176 323.548L179.423 321.786C178.215 318.505 177.462 313.876 178.641 309.936L169.845 307.887Z" fill="white"/>
    <path d="M164.644 322.301L179.167 322.846L178.826 322.058C177.376 318.074 177.021 313.804 177.845 310.423L170.385 308.689C170.015 311.082 168.552 318.719 165.056 321.814L164.644 322.301ZM180.176 324.193C180.162 324.193 180.148 324.193 180.148 324.193L163.237 323.562C162.981 323.548 162.768 323.405 162.669 323.161C162.569 322.932 162.597 322.66 162.768 322.473L164.104 320.926C164.118 320.897 164.146 320.883 164.161 320.854C167.898 317.587 169.191 307.901 169.205 307.801C169.22 307.614 169.333 307.457 169.475 307.357C169.632 307.242 169.816 307.213 170.001 307.256L178.798 309.305C178.968 309.348 179.124 309.449 179.21 309.621C179.309 309.764 179.323 309.964 179.266 310.136C178.3 313.332 178.584 317.602 180.034 321.571L180.773 323.276C180.858 323.491 180.83 323.734 180.702 323.906C180.588 324.093 180.389 324.193 180.176 324.193Z" fill="black"/>
    <path d="M165.325 317L163.89 318.734C161.048 322.173 157.424 324.866 153.318 326.571L150.177 327.875C149.864 328.004 149.651 328.277 149.58 328.592L149.552 328.764C149.168 330.569 151.356 334.61 157.893 335.813C161.943 336.559 171.351 336.802 182.563 332.059C183.259 331.758 183.7 331.028 183.629 330.254C183.344 327.431 182.435 320.725 179.82 317.473C179.522 317.115 178.996 317.072 178.669 317.401L175.529 320.582C174.122 322.015 171.834 322.015 170.427 320.582L166.832 316.928C166.42 316.498 165.709 316.527 165.325 317Z" fill="white"/>
    <path d="M166.108 317.287H166.093C166.037 317.287 165.923 317.315 165.823 317.416L164.388 319.149C161.489 322.66 157.752 325.44 153.574 327.173L150.419 328.492C150.32 328.535 150.249 328.621 150.22 328.735L150.192 328.893C150.092 329.351 150.234 330.197 150.888 331.185C151.655 332.332 153.588 334.352 158.008 335.169C159.826 335.498 169.504 336.874 182.308 331.443C182.748 331.257 183.018 330.799 182.976 330.311C182.72 327.618 181.824 321.012 179.309 317.888C179.281 317.845 179.238 317.831 179.21 317.831C179.167 317.831 179.139 317.86 179.124 317.86L175.998 321.055C175.188 321.872 174.122 322.316 172.985 322.316C171.834 322.316 170.769 321.857 169.973 321.041L166.378 317.387C166.278 317.301 166.179 317.287 166.108 317.287ZM163.18 336.874C160.381 336.874 158.491 336.587 157.78 336.458C152.892 335.57 150.689 333.234 149.808 331.916C149.041 330.77 148.714 329.566 148.913 328.621L148.941 328.463C149.055 327.933 149.424 327.489 149.922 327.274L153.076 325.97C157.055 324.308 160.622 321.657 163.393 318.318L164.829 316.57C165.127 316.212 165.568 315.997 166.037 315.968C166.52 315.954 166.974 316.126 167.301 316.47L170.897 320.124C171.451 320.683 172.19 320.998 172.985 320.998C173.767 320.998 174.506 320.683 175.06 320.124L178.201 316.943C178.485 316.656 178.883 316.499 179.267 316.527C179.679 316.542 180.062 316.742 180.318 317.057C183.061 320.453 183.999 327.374 184.269 330.182C184.382 331.257 183.786 332.246 182.805 332.661C174.662 336.115 167.728 336.874 163.18 336.874Z" fill="black"/>
    <path d="M166.663 330.942C166.151 330.942 165.668 330.698 165.355 330.283C165.043 329.853 164.943 329.308 165.099 328.807L165.512 327.503C165.54 327.403 165.497 327.345 165.455 327.302C165.412 327.274 165.341 327.231 165.256 327.274L164.019 327.876C160.225 329.695 155.792 329.882 151.855 328.348L151.145 328.076C150.804 327.947 150.633 327.575 150.761 327.231C150.889 326.887 151.273 326.715 151.614 326.844L152.324 327.13C155.919 328.52 159.984 328.363 163.465 326.686L164.687 326.099C165.227 325.827 165.853 325.913 166.307 326.314C166.762 326.715 166.933 327.317 166.748 327.904L166.35 329.194C166.307 329.337 166.364 329.437 166.407 329.495C166.435 329.538 166.535 329.624 166.663 329.624C171.352 329.538 175.871 328.477 180.134 326.5L182.593 325.339C182.919 325.196 183.303 325.339 183.459 325.655C183.602 325.984 183.459 326.385 183.133 326.529L180.674 327.689C176.255 329.753 171.551 330.842 166.691 330.942C166.677 330.942 166.663 330.942 166.663 330.942Z" fill="black"/>
    <path d="M172.02 180.92C172.02 180.92 166.961 238.006 167.473 251.518C167.984 265.03 167.586 310.022 167.586 310.022C167.586 310.022 174.606 311.182 180.063 310.796C180.063 310.796 201.294 232.074 201.791 209.778C202.289 187.483 194.785 172.423 194.785 172.423L172.02 180.92Z" fill="#7ED957"/>
    <path d="M180.262 176.865C180.262 176.865 216.769 276.006 219.582 312.787C219.582 312.787 223.021 314.507 232.216 312.358C232.216 312.358 233.423 199.82 214.467 172.624L180.262 176.865Z" fill="#7ED957"/>
    <path d="M224.031 314.091C220.791 314.091 219.384 313.418 219.298 313.375C219.085 313.274 218.957 313.074 218.929 312.845C217.579 295.091 209.919 265.359 195.51 221.958C193.876 217.014 191.645 213.776 187.31 210.007C187.026 209.764 186.998 209.348 187.239 209.076C187.467 208.804 187.879 208.775 188.149 209.004C192.696 212.945 195.027 216.341 196.746 221.542C211.07 264.714 218.744 294.418 220.194 312.314C221.217 312.63 224.656 313.375 231.562 311.842C231.619 303.717 231.889 204.176 215.291 175.146C215.106 174.83 215.206 174.429 215.518 174.243C215.831 174.071 216.229 174.171 216.414 174.487C223.732 187.282 228.72 214.378 231.249 255.028C233.139 285.262 232.869 312.099 232.869 312.372C232.869 312.673 232.656 312.93 232.358 313.002C228.791 313.833 226.063 314.091 224.031 314.091Z" fill="black"/>
    <path d="M219.796 200.809C212.449 200.809 210.346 198.172 208.313 195.622L207.987 195.235C207.759 194.948 207.802 194.533 208.086 194.304C208.356 194.074 208.768 194.117 208.996 194.404L209.322 194.805C211.255 197.212 213.074 199.49 219.796 199.49C220.165 199.49 220.449 199.777 220.449 200.15C220.449 200.508 220.165 200.809 219.796 200.809Z" fill="black"/>
    <path d="M176.723 198.86C176.439 198.86 176.197 198.688 176.098 198.401C175.984 198.058 176.169 197.685 176.51 197.57C178.982 196.739 179.778 195.622 180.801 194.189C180.972 193.945 181.156 193.687 181.341 193.429C181.554 193.143 181.966 193.086 182.251 193.3C182.549 193.53 182.606 193.931 182.379 194.232C182.194 194.475 182.023 194.719 181.853 194.948C180.801 196.438 179.792 197.857 176.922 198.817C176.851 198.846 176.78 198.86 176.723 198.86Z" fill="black"/>
    <path d="M217.067 114.263C217.067 114.263 195.368 104.462 176.169 108.79C176.169 108.79 161.802 114.765 163.792 127.732C169.547 137.318 168.95 150.715 168.978 157.393C169.007 163.167 170.954 180.247 172.346 182.253C175.331 186.566 180.944 184.588 195.055 183.342C211.639 181.895 213.628 178.671 217.039 174.96C219.312 172.481 217.65 163.167 217.38 161.462C216.015 152.951 212.335 138.794 217.067 114.263Z" fill="white"/>
    <path d="M184.695 119.364L183.416 112.128C180.247 106.87 169.219 105.165 163.549 102.901C140.031 93.5583 138.482 70.7183 136.592 60.6453L128.194 61.0895C128.194 61.0895 119.653 118.949 172.985 135.24L184.695 119.364Z" fill="white"/>
    <path d="M244.095 54.1113C235.967 82.038 210.516 110.094 203.567 110.652C203.567 110.652 196.746 166.764 240.301 106.053C253.517 87.6548 249.765 55.9741 249.765 55.9741L244.095 54.1113Z" fill="white"/>
    <path d="M128.748 61.7198C128.365 64.1556 126.873 75.1601 129.445 87.8983C132.102 101.109 139.819 118.977 161.447 129.007C165.44 130.87 168.197 134.724 168.638 139.095C169.263 145.313 169.604 151.475 169.632 157.392C169.661 163.74 171.707 180.189 172.887 181.88C174.99 184.904 178.67 184.488 186.756 183.557C189.143 183.284 191.843 182.969 194.998 182.697C210.403 181.336 212.989 178.456 216.001 175.131C216.186 174.931 216.371 174.716 216.556 174.515C217.28 173.727 218.289 171.019 216.783 161.863L216.726 161.576C216.513 160.23 216.215 158.739 215.902 157.149C214.978 152.578 213.841 146.89 213.543 139.467C213.401 135.942 215.206 132.561 218.247 130.669C223.434 127.446 230.681 119.049 239.762 105.68C251.428 88.5288 249.482 60.2582 249.155 56.4611L244.536 54.9566C237.673 78.0258 225.764 91.982 212.065 106.54C208.91 109.893 204.079 111.082 199.773 109.578C195.908 108.216 185.577 108.646 181.299 108.89C179.594 108.99 177.832 108.618 176.212 107.801C174.009 106.698 171.196 105.909 168.467 105.136C166.563 104.606 164.772 104.09 163.309 103.517C141.609 94.8907 138.27 74.6872 136.479 63.8261C136.337 62.9377 136.195 62.1066 136.067 61.3329L128.748 61.7198ZM178.756 185.548C175.487 185.548 173.356 184.846 171.821 182.625C170.272 180.404 168.353 163.153 168.325 157.407C168.297 151.518 167.97 145.414 167.344 139.238C166.947 135.326 164.474 131.873 160.907 130.211C138.767 119.937 130.88 101.64 128.152 88.1132C125.224 73.4836 127.541 61.0893 127.555 60.9603C127.612 60.6738 127.867 60.4445 128.166 60.4302L136.564 59.986C136.877 59.9717 137.175 60.2009 137.232 60.5305C137.417 61.4475 137.587 62.5078 137.772 63.6111C139.634 74.9595 142.774 93.945 163.792 102.299C165.184 102.843 166.947 103.345 168.822 103.875C171.593 104.663 174.478 105.465 176.794 106.626C178.216 107.328 179.75 107.672 181.228 107.586C186.628 107.271 196.263 106.955 200.199 108.331C204.022 109.678 208.314 108.618 211.113 105.637C224.826 91.0649 236.72 77.1231 243.471 53.9393C243.527 53.7673 243.641 53.624 243.797 53.5381C243.954 53.4521 244.138 53.4378 244.295 53.4951L249.965 55.3435C250.221 55.4295 250.391 55.6444 250.419 55.9023C250.448 56.2175 253.574 87.712 240.842 106.425C231.647 119.937 224.286 128.477 218.929 131.801C216.286 133.435 214.723 136.358 214.836 139.41C215.149 146.732 216.271 152.363 217.181 156.891C217.494 158.496 217.792 160 218.019 161.362L218.062 161.648C219.298 169.156 219.114 173.656 217.522 175.404C217.323 175.619 217.153 175.819 216.968 176.02C213.77 179.545 211.028 182.597 195.112 184.001C191.971 184.273 189.286 184.588 186.898 184.861C183.587 185.247 180.93 185.548 178.756 185.548Z" fill="black"/>
    <path d="M244.238 55.7878C243.797 55.5155 243.371 55.1573 242.973 54.7561C240.941 52.6641 237.63 47.5344 240.685 44.9696C242.987 43.0496 247.08 44.0955 249.396 45.3995C252.295 47.0186 251.599 51.4175 250.376 53.968C249.026 56.7908 246.469 57.192 244.238 55.7878Z" fill="white"/>
    <path d="M244.579 55.2292C245.588 55.874 246.653 56.0746 247.577 55.8023C248.487 55.5301 249.254 54.7993 249.794 53.6817C250.86 51.4464 251.599 47.3914 249.083 45.9728C247.094 44.8552 243.186 43.7376 241.111 45.4713C240.472 46.0015 240.145 46.6749 240.102 47.5347C239.989 49.8559 242.035 52.8506 243.428 54.2978C243.797 54.656 244.181 54.9856 244.579 55.2292ZM246.739 57.2352C245.801 57.2352 244.82 56.9343 243.882 56.3468C243.399 56.0459 242.93 55.659 242.504 55.2148C241.154 53.825 238.653 50.4291 238.809 47.463C238.866 46.2308 239.363 45.2277 240.273 44.4683C242.873 42.2904 247.336 43.4796 249.709 44.8265C253.034 46.6893 252.281 51.4894 250.974 54.2548C250.277 55.7163 249.226 56.6907 247.932 57.0632C247.549 57.1779 247.151 57.2352 246.739 57.2352Z" fill="black"/>
    <path d="M131.207 61.5912C130.724 61.5339 130.212 61.4049 129.686 61.2043C127.143 60.2729 123.42 56.4902 124.13 53.4668C125.139 49.1252 134.433 48.3515 136.777 51.6184C139.605 55.5731 136.095 62.2216 131.207 61.5912Z" fill="white"/>
    <path d="M131.391 50.2569C130.667 50.2569 129.928 50.3286 129.189 50.4719C126.759 50.959 125.11 52.134 124.755 53.6099C124.173 56.146 127.498 59.6995 129.914 60.5879C130.383 60.7599 130.837 60.8745 131.292 60.9318C133.537 61.2327 135.299 59.7139 136.195 58.2094C137.431 56.1174 137.445 53.6815 136.237 52.005C135.456 50.9017 133.551 50.2569 131.391 50.2569ZM131.832 62.293C131.605 62.293 131.363 62.2787 131.121 62.2357C130.581 62.1641 130.027 62.0351 129.459 61.8202C126.887 60.8745 122.652 56.9198 123.49 53.3089C123.959 51.3173 125.991 49.7698 128.933 49.1823C131.931 48.5805 135.768 49.0963 137.303 51.2313C138.809 53.3376 138.809 56.3466 137.317 58.8828C136.053 61.0321 133.992 62.293 131.832 62.293Z" fill="black"/>
    <path d="M192.27 99.7053C193.719 101.067 196.561 102.714 198.792 101.582C200.441 100.751 201.379 98.559 201.322 96.0515C202.089 96.1231 203.098 96.0658 203.823 95.4354C204.931 94.4467 204.718 92.6269 204.69 91.4376C204.491 85.9211 207.66 85.09 206.907 81.3359C206.296 78.3985 204.022 76.6361 203.596 76.3065C201.436 74.6587 199.986 75.1889 196.362 74.2146C190.266 72.5811 190.081 69.9159 186.06 69.9016C185.832 69.9016 180.361 69.9446 178.5 73.756C176.979 76.8654 178.727 80.6481 180.546 82.6398C182.905 85.219 184.596 83.9437 186.969 86.1074C191.105 89.9045 187.95 95.6933 192.27 99.7053Z" fill="black"/>
    <path d="M180.333 88.6435C181.598 87.5402 182.99 85.3049 183.473 83.7001C185.221 77.7966 190.635 76.9799 190.877 82.826C190.948 84.3735 196.561 84.3162 195.893 85.9497C194.145 90.191 194.117 89.0447 196.561 90.6208C196.831 90.6352 197.116 90.6925 197.371 90.8214C198.622 91.4232 199.062 93.1427 198.352 94.6758C197.926 95.6072 197.158 96.252 196.348 96.4813L196.334 103.201C196.334 105.723 197.826 108.002 200.142 108.962L202.373 109.893C202.373 109.893 191.9 116.771 181.299 109.162L182.72 108.517C185.207 107.4 186.855 104.921 186.955 102.155L186.969 100.852C186.259 100.909 185.562 100.866 184.923 100.665C181.953 99.7912 180.972 96.3237 181.484 92.025L180.248 90.7498C179.665 90.148 179.708 89.188 180.333 88.6435Z" fill="white"/>
    <path d="M182.635 109.277C190.522 114.306 198.082 111.412 200.881 109.979L199.886 109.563C197.328 108.503 195.68 106.01 195.68 103.201L195.708 96.4813C195.708 96.1947 195.893 95.9368 196.177 95.8508C196.831 95.6646 197.428 95.1201 197.769 94.4036C198.323 93.2 198.025 91.8531 197.087 91.4233C196.916 91.3373 196.732 91.2943 196.533 91.28C196.419 91.28 196.305 91.237 196.206 91.1797C195.794 90.9074 195.453 90.7211 195.168 90.5779C193.577 89.7038 193.818 89.1307 194.643 87.2106C194.827 86.8094 195.041 86.3079 195.282 85.7061C195.069 85.4339 193.932 85.1186 193.321 84.9324C191.829 84.5168 190.28 84.0726 190.237 82.8547C190.152 80.906 189.427 79.6451 188.291 79.5161C186.926 79.3298 185.008 80.82 184.098 83.8864C183.558 85.6631 182.095 87.97 180.759 89.1307C180.588 89.2739 180.503 89.4746 180.489 89.7038C180.475 89.9187 180.56 90.1337 180.716 90.2913L181.953 91.5522C182.095 91.6955 182.166 91.8961 182.137 92.0967C181.896 94.1457 181.683 99.0175 185.107 100.035C185.647 100.192 186.244 100.25 186.912 100.192C187.097 100.178 187.267 100.235 187.409 100.364C187.552 100.493 187.623 100.665 187.623 100.852L187.608 102.17C187.495 105.179 185.69 107.901 182.976 109.119L182.635 109.277ZM192.071 113.375C188.674 113.375 184.795 112.486 180.915 109.692C180.731 109.563 180.617 109.334 180.645 109.091C180.674 108.861 180.816 108.661 181.029 108.56L182.45 107.93C184.709 106.913 186.216 104.634 186.301 102.141V101.525C185.747 101.525 185.221 101.439 184.738 101.296C181.725 100.407 180.304 97.1117 180.802 92.2543L179.778 91.2083C179.381 90.7928 179.167 90.2196 179.182 89.6465C179.21 89.0733 179.466 88.5145 179.906 88.142C181.043 87.1533 182.393 85.0327 182.848 83.5138C183.971 79.7024 186.528 77.9543 188.461 78.1979C190.266 78.4271 191.417 80.1466 191.531 82.7974C191.644 83.0983 193.008 83.4852 193.676 83.6714C194.97 84.044 196.106 84.3735 196.476 85.1616C196.632 85.4768 196.646 85.8494 196.49 86.1933C196.234 86.8237 196.021 87.3252 195.836 87.7408C195.581 88.3426 195.339 88.9157 195.296 89.1307C195.396 89.2023 195.609 89.3169 195.794 89.4172C196.05 89.5605 196.376 89.7325 196.774 89.9904C197.073 90.019 197.371 90.105 197.655 90.234C199.218 90.9791 199.801 93.0997 198.948 94.9624C198.522 95.8652 197.826 96.5673 197.002 96.9398L196.987 103.201C196.987 105.48 198.309 107.486 200.384 108.345L202.629 109.291C202.856 109.377 202.999 109.592 203.027 109.836C203.055 110.079 202.942 110.308 202.728 110.452C202.657 110.495 198.153 113.375 192.071 113.375Z" fill="black"/>
    <path d="M186.969 101.496C186.642 101.496 186.372 101.267 186.315 100.938C186.272 100.594 186.514 100.25 186.869 100.192C190.621 99.6336 192.369 96.6676 192.383 96.6389C192.568 96.3237 192.965 96.2234 193.278 96.3954C193.591 96.5816 193.69 96.9828 193.52 97.2981C193.434 97.4414 191.445 100.823 187.068 101.496C187.025 101.496 186.997 101.496 186.969 101.496Z" fill="black"/>
    <path d="M72.8584 238.694L88.0495 242.677C101.777 246.273 116.869 241.774 130.838 239.324L140.373 237.662L139.279 220.926L82.9337 223.133L72.8584 238.694Z" fill="#7ED957"/>
    <path d="M73.9094 238.293L88.2053 242.047C99.2043 244.927 111.141 242.534 122.694 240.227C125.352 239.697 128.08 239.152 130.723 238.68L139.69 237.118L138.667 221.614L83.3026 223.778L73.9094 238.293ZM99.2895 244.683C95.4242 244.683 91.6158 244.282 87.8784 243.308L72.7015 239.324C72.5026 239.281 72.3321 239.124 72.261 238.937C72.1757 238.737 72.2042 238.508 72.3178 238.336L82.3931 222.775C82.5068 222.588 82.7058 222.488 82.9189 222.474L139.264 220.267C139.605 220.253 139.903 220.525 139.932 220.883L141.026 237.619C141.04 237.949 140.813 238.25 140.486 238.307L130.951 239.983C128.322 240.442 125.593 240.986 122.95 241.517C115.12 243.078 107.12 244.683 99.2895 244.683Z" fill="black"/>
    <path d="M93.8193 351.647L95.3541 362.723L102.815 363.339L102.36 350.157L93.8193 351.647Z" fill="white"/>
    <path d="M95.9219 362.107L102.146 362.623L101.734 350.93L94.5435 352.191L95.9219 362.107ZM102.814 363.998C102.8 363.998 102.786 363.998 102.757 363.998L95.2966 363.382C94.9982 363.353 94.7566 363.124 94.714 362.809L93.165 351.733C93.1224 351.389 93.364 351.059 93.705 351.002L102.246 349.512C102.43 349.483 102.629 349.526 102.771 349.655C102.913 349.77 102.999 349.956 103.013 350.142L103.468 363.325C103.468 363.511 103.397 363.683 103.269 363.812C103.141 363.941 102.985 363.998 102.814 363.998Z" fill="black"/>
    <path d="M103.141 383.127C100.029 383.485 94.9418 383.729 89.016 382.726C87.0549 382.396 85.8044 380.448 86.3302 378.528C87.7938 373.154 90.3375 362.981 94.3591 358.338L95.2402 360.946L96.647 358.553C96.8318 358.224 97.1728 358.009 97.5423 357.98L99.6313 357.88C100.242 357.823 100.797 358.252 100.896 358.854L101.308 361.104L103.653 358.009L104.25 366.678C104.449 369.443 104.775 372.18 105.259 374.902L106.054 379.445C106.253 381.264 104.946 382.912 103.141 383.127Z" fill="#7ED957"/>
    <path d="M94.131 359.685C90.8768 364.185 88.6457 372.452 87.2815 377.525L86.9689 378.7C86.7557 379.445 86.8694 380.204 87.2815 380.863C87.6936 381.508 88.3615 381.952 89.1147 382.081C94.9268 383.056 99.9147 382.826 103.069 382.468C104.505 382.31 105.556 380.992 105.414 379.531L104.618 375.017C104.135 372.295 103.794 369.501 103.595 366.735L103.112 359.8L101.819 361.505C101.663 361.706 101.407 361.806 101.151 361.734C100.895 361.677 100.711 361.477 100.668 361.219L100.256 358.969C100.213 358.697 99.9573 358.51 99.6873 358.539L97.57 358.639C97.4421 358.654 97.2858 358.74 97.2005 358.897L95.8079 361.276C95.68 361.491 95.4384 361.62 95.1826 361.591C94.9268 361.577 94.7136 361.405 94.6284 361.161L94.131 359.685ZM97.5558 384.087C95.0121 384.087 92.0705 383.901 88.9015 383.371C87.7931 383.185 86.7983 382.525 86.1873 381.565C85.5904 380.62 85.4057 379.445 85.7041 378.341L86.0168 377.181C87.5231 371.636 90.0241 362.351 93.861 357.909C94.0173 357.737 94.2447 357.651 94.4721 357.694C94.6994 357.737 94.8842 357.909 94.9694 358.124L95.3957 359.385L96.0779 358.224C96.3763 357.722 96.9021 357.379 97.4847 357.321L99.6021 357.221C100.497 357.135 101.378 357.794 101.549 358.74L101.677 359.528L103.126 357.608C103.297 357.393 103.581 357.307 103.837 357.379C104.093 357.464 104.277 357.694 104.292 357.966L104.903 366.635C105.087 369.357 105.428 372.108 105.897 374.788L106.693 379.33C106.707 379.344 106.707 379.359 106.707 379.373C106.935 381.551 105.357 383.528 103.212 383.772C101.705 383.944 99.7726 384.087 97.5558 384.087Z" fill="black"/>
    <path d="M95.5522 380.462C93.2927 380.462 90.7916 380.247 88.3048 379.602C87.9495 379.502 87.7505 379.144 87.8358 378.8C87.9211 378.441 88.2763 378.241 88.6316 378.327C95.8079 380.19 103.439 378.255 103.51 378.241C103.865 378.155 104.221 378.37 104.306 378.714C104.391 379.072 104.178 379.43 103.837 379.516C103.624 379.573 100.1 380.462 95.5522 380.462Z" fill="black"/>
    <path d="M93.0653 372.137C92.71 372.137 92.4116 371.836 92.4116 371.478C92.4116 371.12 92.71 370.819 93.0653 370.819L100.043 370.776C100.398 370.79 100.696 371.077 100.696 371.435C100.696 371.793 100.398 372.094 100.043 372.094L93.0653 372.137Z" fill="black"/>
    <path d="M128.421 344.497L130.084 360.674L139.036 360.359L138.88 344.124L128.421 344.497Z" fill="white"/>
    <path d="M129.132 345.127L130.681 360.001L138.369 359.728L138.241 344.812L129.132 345.127ZM130.084 361.333C129.757 361.333 129.473 361.09 129.445 360.746L127.768 344.569C127.754 344.382 127.81 344.21 127.924 344.067C128.038 343.924 128.208 343.852 128.393 343.838L138.866 343.465C139.037 343.465 139.207 343.523 139.335 343.652C139.463 343.781 139.534 343.938 139.534 344.124L139.676 360.359C139.69 360.717 139.406 361.004 139.051 361.018L130.113 361.333C130.098 361.333 130.098 361.333 130.084 361.333Z" fill="black"/>
    <path d="M128.066 369.916C128.095 371.463 129.189 372.767 130.681 373.068C135.854 374.085 147.535 376.378 150.846 376.751C155.152 377.252 160.381 375.733 162.555 373.125C164.73 370.503 157.184 364.7 153.631 362.622C148.345 359.542 143.158 353.237 141.055 353.022C138.966 352.807 135.285 359.055 135.285 359.055L128.834 356.576C128.834 356.576 127.91 362.135 128.066 369.916Z" fill="#7ED957"/>
    <path d="M129.359 357.493C129.117 359.284 128.605 363.955 128.719 369.902C128.748 371.134 129.614 372.18 130.794 372.423C135.739 373.398 147.605 375.719 150.916 376.106C155.094 376.579 160.096 375.06 162.057 372.696C162.27 372.438 162.341 372.137 162.27 371.75C161.844 369.343 156.785 365.23 153.303 363.196C150.603 361.62 148.017 359.298 145.729 357.249C143.811 355.544 141.836 353.768 140.983 353.682C139.96 353.581 137.516 356.562 135.839 359.399C135.682 359.671 135.341 359.786 135.057 359.671L129.359 357.493ZM152.522 377.51C151.925 377.51 151.342 377.482 150.774 377.41C147.42 377.023 135.512 374.687 130.552 373.713C128.776 373.355 127.454 371.764 127.426 369.93C127.27 362.178 128.179 356.533 128.193 356.476C128.222 356.275 128.335 356.117 128.506 356.017C128.677 355.917 128.875 355.903 129.06 355.974L135.014 358.252C136.066 356.547 138.993 352.148 141.125 352.363C142.319 352.492 143.91 353.868 146.596 356.275C148.841 358.281 151.371 360.545 153.957 362.05C156.842 363.74 162.981 368.283 163.549 371.521C163.677 372.295 163.507 372.997 163.052 373.541C161.091 375.905 156.7 377.51 152.522 377.51Z" fill="black"/>
    <path d="M152.352 374.143C143.115 374.143 130.894 370.16 130.183 369.916C129.842 369.801 129.658 369.429 129.771 369.085C129.885 368.741 130.24 368.555 130.596 368.669C130.823 368.741 153.958 376.292 160.04 370.919C160.31 370.69 160.722 370.704 160.964 370.991C161.205 371.263 161.177 371.678 160.907 371.908C159.059 373.541 155.933 374.143 152.352 374.143Z" fill="black"/>
    <path d="M142.661 365.044C142.49 365.044 142.32 364.987 142.192 364.844C141.936 364.586 141.95 364.17 142.206 363.912L146.597 359.614C146.867 359.356 147.279 359.356 147.521 359.628C147.776 359.886 147.776 360.301 147.506 360.545L143.101 364.858C142.988 364.987 142.817 365.044 142.661 365.044Z" fill="black"/>
    <path d="M88.4606 224.379C88.4606 224.379 86.4001 290.879 85.5616 308.431C84.8795 322.56 88.5032 343.408 89.9527 351.031C90.2653 352.693 91.7717 353.853 93.4485 353.696L101.307 353.008C102.998 352.85 104.291 351.418 104.291 349.698C104.249 343.05 104.22 326.973 104.462 316.413C104.561 312.057 105.329 307.729 106.735 303.603C108.412 298.731 110.672 291.237 111.468 284.316C112.803 272.767 118.061 254.412 118.061 254.412C118.061 254.412 124.925 332.833 126.445 349.326C126.573 350.816 127.838 351.919 129.302 351.862C132.201 351.733 136.18 352.234 139.15 351.045C140.045 350.687 140.699 349.884 140.855 348.91C141.907 342.462 146.852 313.977 145.445 298.201C143.825 280.276 142.617 220.697 142.617 220.697L88.4606 224.379Z" fill="black"/>
    <path d="M83.8572 228.277C83.8572 228.277 100.356 232.776 119.242 233.592C130.397 234.065 137.872 231.601 137.872 231.601L127.228 144.339C127.228 144.339 126.645 137.49 114.808 134.309C108.456 132.604 103.638 140.026 103.638 140.026L83.8572 228.277Z" fill="white"/>
    <path d="M84.6245 227.804C87.7651 228.606 102.686 232.217 119.27 232.934C128.535 233.335 135.299 231.658 137.161 231.128L126.588 144.411C126.574 144.325 125.835 137.963 114.637 134.954C109.195 133.492 104.818 139.468 104.235 140.299L84.6245 227.804ZM122.155 234.309C121.217 234.309 120.236 234.281 119.213 234.238C100.469 233.435 83.8572 228.965 83.6866 228.907C83.3456 228.821 83.1466 228.477 83.2177 228.134L102.999 139.883C103.013 139.811 103.041 139.74 103.084 139.668C103.297 139.353 108.243 131.873 114.978 133.679C127.114 136.946 127.853 143.981 127.882 144.282L138.511 231.529C138.554 231.845 138.369 232.131 138.071 232.232C137.786 232.318 131.647 234.309 122.155 234.309Z" fill="black"/>
    <path d="M65.1126 125.669C65.1694 129.007 81.6253 132.031 86.2721 131.902C94.159 131.687 97.2711 134.381 97.2711 134.381C97.2711 134.381 101.506 129.81 112.15 129.967C122.097 130.111 127.341 137.476 132.655 145.17C132.655 145.17 145.914 146.603 148.912 161.261C151.925 175.934 160.309 165.746 159.67 183.127C159.343 192.369 155.435 202.041 148.188 199.175C140.94 196.309 138.738 193.1 138.738 193.1C138.738 193.1 142.191 204.72 142.731 211.698C142.944 214.607 143.015 217.1 143.015 219.035C143.029 222.216 143.427 225.382 144.223 228.449L145.232 232.375C145.942 235.126 145.147 238.078 143.1 240.026C140.002 242.949 135.64 245.342 128.733 245.027C128.733 245.027 129.302 230.899 127.739 222.932C127 219.149 124.868 202.929 124.342 187.368C123.987 176.88 126.389 154.842 126.033 144.726C125.948 142.462 103.964 137.003 104.49 139.238C105.201 142.233 106.806 149.197 106.991 152.091C108.029 168.856 104.263 183.628 98.8911 193.1C89.2848 210.008 86.2721 212.143 82.8474 246.66C82.8474 246.66 75.9126 241.23 72.3742 238.722C72.3742 238.722 76.9642 191.667 79.6074 183.442C82.2647 175.218 83.6858 164.127 80.8579 160.015C78.0158 155.902 69.3615 151.074 62.6399 145.887C55.9183 140.7 41.7362 135.369 48.1451 120.64C54.0852 106.999 64.9705 116.169 65.1126 125.669Z" fill="#7ED957"/>
    <path d="M73.0574 238.407C75.8426 240.399 80.3758 243.909 82.3226 245.414C85.3779 215.151 88.2342 210.222 95.709 197.298C96.519 195.908 97.3859 194.404 98.3238 192.77C104.278 182.281 107.276 167.093 106.339 152.134C106.211 150.156 105.386 145.858 103.866 139.381C103.781 139.023 103.894 138.679 104.179 138.436C105.969 136.945 119.483 140.427 124.173 142.562C125.935 143.35 126.66 143.981 126.688 144.697C126.859 149.755 126.347 157.908 125.85 165.803C125.338 173.813 124.812 182.109 124.997 187.354C125.523 202.829 127.626 218.992 128.379 222.817C129.758 229.867 129.502 241.473 129.416 244.382C134.745 244.511 139.08 242.92 142.647 239.553C144.508 237.791 145.261 235.097 144.608 232.532L143.599 228.62C142.789 225.482 142.377 222.259 142.362 219.035C142.362 216.685 142.263 214.22 142.078 211.741C141.552 204.921 138.142 193.401 138.113 193.286C138.028 192.985 138.17 192.655 138.454 192.512C138.739 192.369 139.094 192.455 139.279 192.727C139.293 192.756 141.495 195.822 148.43 198.559C150.263 199.29 151.94 199.161 153.418 198.186C156.559 196.109 158.761 190.191 159.031 183.098C159.358 174.114 157.326 172.91 154.754 171.392C152.395 170.002 149.723 168.426 148.274 161.39C145.403 147.362 132.713 145.829 132.585 145.815C132.401 145.801 132.23 145.7 132.117 145.543C127.1 138.278 121.928 130.77 112.136 130.626C101.962 130.469 97.7838 134.782 97.7553 134.825C97.5138 135.083 97.1159 135.111 96.8459 134.882C96.8316 134.853 93.7622 132.36 86.3016 132.561C82.0527 132.675 68.3679 130.254 65.2557 127.245C64.7442 126.743 64.4742 126.228 64.4742 125.683C64.3889 120.525 60.8505 115.295 56.8999 114.492C53.7168 113.848 50.8178 116.126 48.7431 120.912C43.6557 132.59 52.182 138.149 59.0173 142.605C60.481 143.551 61.8736 144.454 63.0389 145.356C65.3126 147.119 67.8136 148.824 70.2294 150.486C74.9758 153.753 79.4521 156.819 81.3848 159.642C84.3263 163.912 83.0332 174.959 80.2337 183.643C77.7611 191.323 73.4979 233.922 73.0574 238.407ZM82.8484 247.319C82.7063 247.319 82.5642 247.262 82.4505 247.176C82.3795 247.119 75.4874 241.731 72.0058 239.267C71.8068 239.123 71.7073 238.894 71.7216 238.665C71.9063 236.73 76.3542 191.437 78.9974 183.241C81.6263 175.06 82.9905 164.27 80.319 160.387C78.5142 157.765 74.1374 154.756 69.4905 151.575C67.0605 149.899 64.5452 148.179 62.2431 146.402C61.1205 145.528 59.7563 144.64 58.321 143.709C51.4431 139.224 42.0215 133.091 47.5494 120.381C50.7183 113.088 54.9389 112.759 57.1557 113.203C61.7457 114.134 65.6821 119.837 65.7673 125.669C65.7673 125.826 65.9094 126.056 66.151 126.285C68.851 128.907 81.8111 131.372 86.259 131.257C92.6822 131.071 96.0501 132.776 97.2153 133.535C98.5511 132.389 103.084 129.179 112.151 129.308C122.51 129.466 127.882 137.103 133.026 144.554C135.072 144.898 146.739 147.42 149.553 161.132C150.874 167.595 153.177 168.941 155.408 170.26C158.122 171.864 160.694 173.369 160.325 183.155C160.126 188.844 158.378 196.481 154.129 199.29C152.281 200.508 150.207 200.679 147.961 199.791C144.025 198.229 141.538 196.567 140.06 195.349C141.098 199.146 142.988 206.554 143.385 211.641C143.57 214.163 143.67 216.642 143.67 219.035C143.684 222.144 144.082 225.253 144.863 228.291L145.858 232.203C146.64 235.24 145.759 238.421 143.542 240.513C139.563 244.267 134.703 245.958 128.706 245.672C128.351 245.657 128.081 245.356 128.095 244.998C128.095 244.855 128.635 230.856 127.1 223.061C126.347 219.221 124.215 202.958 123.69 187.397C123.505 182.081 124.031 173.77 124.542 165.717C125.04 157.894 125.551 149.813 125.381 144.812C125.153 144.454 123.519 143.451 118.844 142.032C112.804 140.184 106.637 139.109 105.202 139.396C106.708 145.858 107.504 149.999 107.632 152.048C108.584 167.251 105.529 182.726 99.4464 193.429C98.5227 195.063 97.6559 196.567 96.8459 197.971C89.3711 210.867 86.5858 215.696 83.5021 246.718C83.4737 246.961 83.3174 247.162 83.1042 247.262C83.019 247.291 82.9337 247.319 82.8484 247.319Z" fill="black"/>
    <path d="M91.4169 146.259C91.4027 146.259 91.3742 146.259 91.36 146.245C91.0048 146.216 90.7348 145.887 90.7774 145.529C90.7916 145.256 91.5021 138.622 97.3569 133.421C97.6269 133.177 98.039 133.206 98.2664 133.478C98.5079 133.75 98.4795 134.166 98.2095 134.395C92.7527 139.253 92.0705 145.6 92.0705 145.657C92.0279 146.001 91.7579 146.259 91.4169 146.259Z" fill="black"/>
    <path d="M105.102 142.433C104.846 142.433 104.59 142.276 104.491 142.018C103.425 139.353 103.354 137.089 104.278 135.283C105.5 132.876 108.015 132.217 108.115 132.188C108.47 132.102 108.825 132.317 108.91 132.676C108.996 133.019 108.783 133.378 108.442 133.464C108.413 133.478 106.367 134.022 105.429 135.885C104.704 137.347 104.789 139.238 105.699 141.531C105.841 141.86 105.67 142.247 105.344 142.376C105.258 142.419 105.173 142.433 105.102 142.433Z" fill="black"/>
    <path d="M138.979 194.002C138.809 194.002 138.638 193.931 138.511 193.787C130.823 185.649 130.979 171.993 130.993 171.406C131.007 171.048 131.306 170.776 131.661 170.761C132.016 170.776 132.3 171.076 132.3 171.435C132.3 171.564 132.144 185.133 139.448 192.885C139.69 193.143 139.69 193.558 139.42 193.816C139.306 193.931 139.136 194.002 138.979 194.002Z" fill="black"/>
    <path d="M55.0947 66.2476C55.0947 66.2476 53.6168 65.6171 53.3326 66.8351C53.0483 68.053 54.6968 69.8871 51.2152 74.6156C47.7478 79.3297 57.1694 71.8501 57.1694 71.8501C57.1694 71.8501 57.7663 67.9957 55.0947 66.2476Z" fill="white"/>
    <path d="M54.2984 66.735C54.2131 66.735 54.1421 66.7493 54.0853 66.778C54.071 66.7923 54 66.8209 53.9716 66.9786C53.9289 67.1648 53.9574 67.4657 54.0142 67.8096C54.1989 69.0849 54.4974 71.2199 51.7974 74.931C53.0195 74.1716 54.8953 72.8103 56.5437 71.5064C56.6147 70.704 56.6574 68.1105 54.7816 66.8353C54.6395 66.778 54.4547 66.735 54.2984 66.735ZM50.5752 76.8367C50.2768 76.8367 50.1489 76.7077 50.0352 76.5931C49.4526 76.02 50.021 75.1459 50.7031 74.2145C53.1331 70.9046 52.8916 69.1565 52.721 67.9959C52.6642 67.5374 52.5931 67.1075 52.6926 66.6777C52.8489 66.0472 53.2184 65.7463 53.5026 65.603C54.2842 65.2018 55.2363 65.5887 55.35 65.646C55.3784 65.6603 55.4068 65.6746 55.4495 65.689C58.4337 67.6663 57.8368 71.7787 57.8084 71.9506C57.78 72.1226 57.6947 72.2658 57.5668 72.3661C52.92 76.063 51.2716 76.8367 50.5752 76.8367Z" fill="black"/>
    <path d="M50.2059 85.4196L59.9259 64.9439C60.1533 64.471 60.6364 64.1558 61.1622 64.1701L70.1291 64.2991C71.0954 64.3134 71.7349 65.3451 71.337 66.2478L62.228 86.5086C62.0007 86.9958 61.5317 87.311 61.0059 87.311L51.4422 87.3826C50.4475 87.397 49.7796 86.3366 50.2059 85.4196Z" fill="white"/>
    <path d="M50.803 85.7061C50.6894 85.9354 50.7036 86.179 50.8457 86.3939C50.9736 86.6089 51.1867 86.7092 51.4425 86.7235L61.0062 86.6518C61.2762 86.6518 61.5178 86.4942 61.6315 86.2363L70.7405 65.9755C70.84 65.7463 70.8257 65.5027 70.6979 65.2877C70.57 65.0871 70.3568 64.9725 70.1152 64.9582L61.1626 64.8292C60.9068 64.8149 60.6368 64.9868 60.5089 65.2304L50.803 85.7061ZM51.4283 88.0417C50.7462 88.0417 50.1067 87.6835 49.7372 87.096C49.3678 86.5086 49.3251 85.7778 49.6236 85.133L59.3436 64.6573C59.6704 63.9552 60.4094 63.511 61.1768 63.511L70.1294 63.6543C70.8115 63.6543 71.4368 64.0125 71.7921 64.5856C72.1615 65.1731 72.2042 65.8895 71.9342 66.5057L62.8252 86.7808C62.4983 87.4972 61.7878 87.9701 61.0062 87.9701L51.4425 88.0417C51.4425 88.0417 51.4425 88.0417 51.4283 88.0417Z" fill="black"/>
    <path d="M50.1637 90.019C50.1637 90.019 52.5795 100.379 57.0132 111.326C60.7648 120.611 61.39 123.233 60.0116 126.557C58.6474 129.867 55.1516 132.647 49.2116 129.566C43.1863 126.457 43.0015 89.1307 42.4189 86.0213C41.5663 81.5794 42.9447 77.3525 45.9858 74.5727C48.5437 72.2371 52.6079 70.4174 55.4216 70.6896C56.6437 70.8043 63.6353 71.9649 63.8769 74.673C64.0901 77.1089 62.0011 79.1436 54.5832 80.3328C54.5832 80.3328 61.4327 81.1352 61.3474 82.783C61.2479 84.5025 59.429 84.1299 56.7006 84.0296C53.7021 83.9293 49.3821 85.4339 50.1637 90.019Z" fill="white"/>
    <path d="M54.8679 71.3199C52.381 71.3199 48.8 72.8961 46.4268 75.0597C43.5278 77.6962 42.2631 81.7512 43.0589 85.8922C43.1868 86.6087 43.3005 88.7866 43.4568 92.0679C43.9541 102.442 45.1194 126.715 49.5105 128.979C51.9831 130.268 54.1431 130.569 55.9479 129.91C57.4542 129.351 58.6905 128.062 59.4153 126.299C60.6658 123.261 60.1826 120.926 56.4026 111.569C52.0115 100.708 49.5531 90.2625 49.5389 90.1622C49.5247 90.1479 49.5247 90.1335 49.5247 90.1192C49.2263 88.3568 49.5957 86.8093 50.6189 85.6486C52.1537 83.8719 54.7684 83.3131 56.7152 83.3847C57.0989 83.3847 57.4684 83.4134 57.8237 83.4277C60.2253 83.5566 60.6516 83.442 60.6942 82.7399C60.4953 82.1954 57.5537 81.35 54.5126 80.9918C54.1858 80.9488 53.9442 80.6766 53.93 80.347C53.93 80.0175 54.1573 79.7452 54.4842 79.6879C62.5984 78.3697 63.3516 76.2347 63.2237 74.7445C63.0532 72.8674 57.5395 71.5635 55.3652 71.3486C55.2089 71.3343 55.0384 71.3199 54.8679 71.3199ZM53.9726 131.558C52.4237 131.558 50.7326 131.099 48.9136 130.154C44.4657 127.861 43.0305 110.523 42.1494 92.1395C42.0073 89.1305 41.8936 86.7663 41.7799 86.1358C40.8989 81.5506 42.3199 77.0371 45.5457 74.0854C48.3736 71.5062 52.651 69.7724 55.4931 70.0447C55.5784 70.0447 64.2042 71.0334 64.5169 74.6155C64.7584 77.252 62.7121 79.0718 58.1363 80.2754C60.2111 80.7769 62.0584 81.565 61.9874 82.8116C61.8737 84.9465 59.87 84.8462 57.7526 84.7459C57.4116 84.7173 57.0563 84.7029 56.6726 84.6886C55.0952 84.6456 52.8358 85.0755 51.5994 86.5084C50.8463 87.3824 50.5763 88.5144 50.8036 89.8899C50.9315 90.3914 53.3473 100.536 57.6105 111.082C61.3621 120.367 62.1153 123.19 60.6232 126.801C59.7563 128.907 58.25 130.454 56.3884 131.142C55.621 131.415 54.8252 131.558 53.9726 131.558Z" fill="black"/>
    <path d="M112.974 126.113L109.962 134.868C109.308 136.846 107.347 137.39 105.585 137.619C104.647 137.734 104.121 138.766 104.548 139.611L104.69 139.869C108.811 147.105 116.001 148.71 124.471 146.016L125.323 145.643C126.048 145.328 126.162 144.325 125.508 143.852L122.95 141.99C121.799 141.158 121.273 139.482 121.629 137.763L125.323 122.288L112.974 126.113Z" fill="white"/>
    <path d="M113.486 126.643L110.573 135.083C109.792 137.461 107.39 138.049 105.656 138.264C105.429 138.292 105.244 138.436 105.131 138.636C105.017 138.851 105.017 139.095 105.131 139.31L105.259 139.568C109.991 147.849 118.19 147.319 124.23 145.399L125.068 145.041C125.239 144.969 125.281 144.797 125.281 144.74C125.295 144.669 125.295 144.497 125.139 144.382L122.567 142.534C121.203 141.531 120.592 139.61 121.004 137.619L124.414 123.247L113.486 126.643ZM117.309 147.892C111.568 147.892 107.006 145.27 104.122 140.198L103.98 139.911C103.667 139.324 103.667 138.622 103.98 138.034C104.278 137.447 104.846 137.046 105.5 136.96C107.76 136.673 108.911 135.985 109.337 134.667L112.364 125.898C112.435 125.697 112.591 125.54 112.79 125.482L125.125 121.657C125.352 121.585 125.594 121.642 125.764 121.814C125.935 121.972 126.006 122.215 125.949 122.445L122.269 137.905C121.97 139.367 122.382 140.771 123.334 141.459L125.892 143.322C126.39 143.68 126.645 144.267 126.589 144.883C126.518 145.485 126.134 146.001 125.58 146.245L124.727 146.617C124.699 146.632 124.684 146.632 124.656 146.646C122.041 147.477 119.583 147.892 117.309 147.892Z" fill="black"/>
    <path d="M126.702 115.338C126.702 115.338 132.528 113.747 130.126 118.16C128.137 121.829 126.901 121.915 125.48 121.786C124.044 121.657 126.702 115.338 126.702 115.338Z" fill="white"/>
    <path d="M125.707 121.141C126.745 121.227 127.754 121.141 129.558 117.845C130.013 116.986 130.169 116.312 129.956 116.04C129.615 115.596 128.208 115.667 127.171 115.897C126.247 118.175 125.608 120.468 125.707 121.141ZM126.091 122.474C125.864 122.474 125.65 122.459 125.423 122.445C125.082 122.416 124.798 122.23 124.613 121.929C123.888 120.697 125.409 116.728 126.091 115.08C126.176 114.894 126.333 114.75 126.532 114.707C127.086 114.55 129.914 113.862 130.979 115.223C131.562 115.968 131.463 117.057 130.695 118.476C128.848 121.872 127.512 122.474 126.091 122.474Z" fill="black"/>
    <path d="M110.331 114.421C110.331 114.421 108.952 123.735 111.496 127.604C113.954 131.343 122.182 133.865 127.582 116.828C132.968 99.7915 111.624 100.551 110.331 114.421Z" fill="white"/>
    <path d="M121.06 104.677C119.98 104.677 118.843 104.892 117.734 105.308C113.912 106.755 111.382 110.179 110.984 114.478C110.984 114.492 110.984 114.507 110.984 114.521C110.97 114.607 109.663 123.62 112.036 127.245C112.903 128.549 114.779 129.967 117.209 129.623C119.411 129.322 123.603 127.216 126.957 116.627C128.378 112.128 127.98 108.503 125.82 106.439C124.612 105.279 122.907 104.677 121.06 104.677ZM116.47 130.999C113.883 130.999 111.908 129.423 110.942 127.961C108.327 123.978 109.606 114.936 109.691 114.335C110.146 109.535 112.974 105.694 117.28 104.075C120.747 102.771 124.456 103.316 126.715 105.479C129.259 107.915 129.785 112.013 128.193 117.028C124.811 127.732 120.449 130.497 117.393 130.927C117.081 130.97 116.768 130.999 116.47 130.999Z" fill="black"/>
    <path d="M126.432 109.291C125.721 107.543 123.305 106.641 120.492 107.572C117.678 108.489 107.29 111.67 104.96 100.737C102.629 89.79 108.029 97.4558 109.876 97.9573C111.738 98.4588 108.328 95.2492 108.896 92.5554C109.464 89.8473 110.36 93.0283 113.358 94.0169C116.371 95.0056 113.202 92.928 113.33 90.9936C113.443 89.0735 114.282 89.575 116.897 92.3978C119.511 95.2349 125.465 100.078 130.24 99.3329C135.001 98.5878 136.464 103.775 134.361 108.403C132.272 113.031 132.23 112.773 131.377 114.063C129.459 116.957 128.237 118.018 127.029 117.702C124.925 117.158 127.54 112.057 126.432 109.291Z" fill="black"/>
    <path d="M128.677 210.337C127.839 215.295 122.624 231.142 120.577 239.238C119.526 243.365 120.279 247.749 122.084 251.589L123.618 254.899C127.484 250.243 128.549 243.866 126.929 237.175C133.921 227.059 137.261 198.502 139.932 187.067L132.045 183.858C132.045 183.858 129.786 203.746 128.677 210.337Z" fill="white"/>
    <path d="M129.316 210.437C128.833 213.303 126.971 219.536 125.01 226.142C123.561 230.956 122.083 235.928 121.202 239.396C120.278 243.064 120.804 247.305 122.665 251.317L123.76 253.653C126.9 249.326 127.81 243.58 126.303 237.318C126.261 237.146 126.289 236.946 126.403 236.788C131.504 229.394 134.716 211.541 137.047 198.516C137.842 194.16 138.524 190.349 139.164 187.454L132.599 184.789C132.144 188.672 130.282 204.706 129.316 210.437ZM123.618 255.559C123.589 255.559 123.561 255.559 123.532 255.544C123.319 255.516 123.12 255.387 123.035 255.172L121.486 251.876C119.497 247.577 118.942 243.035 119.937 239.066C120.832 235.57 122.31 230.584 123.76 225.769C125.621 219.493 127.568 213.002 128.037 210.222C129.117 203.732 131.377 183.972 131.405 183.772C131.419 183.571 131.533 183.399 131.718 183.285C131.888 183.184 132.101 183.17 132.286 183.242L140.173 186.451C140.471 186.58 140.642 186.895 140.557 187.211C139.874 190.134 139.164 194.117 138.34 198.745C135.995 211.756 132.812 229.523 127.639 237.304C129.231 244.267 127.994 250.658 124.115 255.315C124.001 255.473 123.817 255.559 123.618 255.559Z" fill="black"/>
    <path d="M208.157 185.133C206.934 180.892 205.4 175.776 204.05 172.08C199.46 159.413 189.939 156.59 186.23 155.688C185.647 155.544 179.053 154.67 179.053 154.67C171.635 152.721 161.361 151.833 149.367 155.702C148.984 155.816 148.614 155.96 148.245 156.117C139.761 158.152 132.059 176.464 129.942 181.923C129.6 182.797 129.956 183.786 130.752 184.245L136.635 187.655L129.032 231.945C128.478 236.659 129.6 249.096 133.992 250.787C138.582 252.535 150.632 246.36 160.452 246.36C170.996 246.36 183.714 246.302 187.978 244.397C188.105 244.354 187.523 251.532 187.665 251.475C193.15 248.881 197.101 235.771 196.561 229.652L194.287 220.109C192.468 212.415 193.292 204.663 192.909 196.782L199.985 200.422L204.107 198C207.915 194.948 209.521 189.861 208.157 185.133Z" fill="white"/>
    <path d="M148.33 156.776C140.201 158.811 132.67 176.708 130.552 182.153C130.325 182.74 130.552 183.371 131.078 183.686L136.961 187.082C137.189 187.225 137.317 187.497 137.274 187.769L129.671 232.045C129.131 236.673 130.311 248.666 134.219 250.171C136.379 251.002 140.812 249.77 145.488 248.48C150.234 247.176 155.591 245.7 160.451 245.7C169.603 245.7 183.444 245.7 187.721 243.809C187.935 243.709 188.176 243.737 188.361 243.866C188.716 244.11 188.716 244.11 188.475 247.95C188.418 248.695 188.361 249.612 188.332 250.314C192.908 246.918 196.39 235.441 195.921 229.767L193.661 220.267C192.383 214.908 192.383 209.449 192.383 204.176C192.383 201.769 192.383 199.275 192.269 196.811C192.255 196.567 192.368 196.352 192.567 196.223C192.752 196.094 193.008 196.08 193.207 196.195L199.957 199.677L203.723 197.456C207.332 194.547 208.824 189.79 207.531 185.319C205.925 179.745 204.547 175.361 203.438 172.294C200.326 163.74 194.486 158.367 186.073 156.332C185.689 156.232 181.597 155.673 179.053 155.329C178.996 155.329 178.939 155.329 178.882 155.315C169.319 152.793 159.457 153.137 149.552 156.318C149.225 156.433 148.898 156.547 148.5 156.719C148.443 156.748 148.387 156.762 148.33 156.776ZM187.665 252.134C187.522 252.134 187.395 252.091 187.281 252.019C186.926 251.776 186.926 251.776 187.167 247.864C187.224 247.047 187.281 246.044 187.324 245.356C182.549 246.875 171.905 247.019 160.451 247.019C155.776 247.019 150.49 248.466 145.829 249.755C140.727 251.16 136.322 252.378 133.764 251.389C128.634 249.426 127.909 235.885 128.378 231.859L135.91 187.999L130.424 184.818C129.33 184.187 128.875 182.869 129.33 181.68C131.519 176.077 139.306 157.622 148.06 155.487C148.472 155.315 148.813 155.186 149.168 155.071C159.272 151.819 169.347 151.461 179.124 154.011H179.138C179.82 154.111 185.789 154.914 186.386 155.057C195.253 157.192 201.392 162.852 204.66 171.85C205.783 174.945 207.176 179.344 208.782 184.961C210.217 189.962 208.54 195.278 204.504 198.502C204.476 198.53 204.461 198.545 204.433 198.559L200.312 200.995C200.113 201.095 199.886 201.109 199.687 201.009L193.619 197.871C193.69 199.992 193.69 202.112 193.69 204.176C193.69 209.621 193.69 214.765 194.926 219.966L197.2 229.509C197.2 229.538 197.214 229.566 197.214 229.595C197.797 236.143 193.69 249.354 187.935 252.077C187.849 252.105 187.75 252.134 187.665 252.134Z" fill="black"/>
    <path d="M158.022 338.378L164.53 358.023C164.53 358.023 157.439 357.407 156.771 357.55C156.089 357.679 147.804 339.639 147.804 339.639L158.022 338.378Z" fill="white"/>
    <path d="M157.141 356.877C158.448 356.877 161.688 357.135 163.607 357.292L157.581 339.095L148.771 340.184C151.613 346.36 155.961 355.473 156.999 356.877C157.041 356.877 157.084 356.877 157.141 356.877ZM164.53 358.682C164.516 358.682 164.502 358.682 164.473 358.682C161.105 358.381 157.354 358.123 156.885 358.195C156.26 358.31 155.975 358.381 151.442 348.924C149.311 344.483 147.222 339.955 147.208 339.912C147.122 339.725 147.122 339.496 147.222 339.31C147.335 339.138 147.506 339.009 147.719 338.98L157.951 337.734C158.249 337.691 158.548 337.877 158.647 338.178L165.156 357.823C165.212 358.023 165.184 358.252 165.042 358.439C164.914 358.596 164.729 358.682 164.53 358.682Z" fill="black"/>
    <path d="M163.039 353.71C163.039 353.71 153.262 349.655 151.443 354.742C149.141 361.218 145.545 371.105 145.545 371.105C144.934 372.825 146.114 374.659 147.904 374.816C151.485 375.103 156.814 375.332 159.301 374.458C163.223 373.068 169.732 360.502 169.732 360.502L167.728 349.813C167.728 349.813 164.175 349.311 163.039 353.71Z" fill="white"/>
    <path d="M156.076 352.822C155.195 352.822 154.342 352.951 153.646 353.266C152.864 353.624 152.338 354.169 152.054 354.971C149.781 361.376 146.2 371.234 146.157 371.334C145.944 371.951 146.015 372.638 146.37 373.197C146.725 373.756 147.308 374.1 147.962 374.157C153.319 374.587 157.27 374.472 159.088 373.828C162.059 372.782 167.189 363.969 169.05 360.402L167.189 350.458C166.322 350.501 164.432 350.973 163.679 353.868C163.622 354.054 163.508 354.212 163.337 354.298C163.167 354.384 162.968 354.384 162.797 354.312C162.755 354.298 159.16 352.822 156.076 352.822ZM153.674 375.733C151.713 375.733 149.653 375.604 147.862 375.461C146.796 375.375 145.858 374.816 145.276 373.914C144.693 372.997 144.58 371.908 144.935 370.89C144.977 370.776 148.558 360.917 150.832 354.527C151.23 353.395 151.997 352.564 153.106 352.062C156.118 350.715 160.865 352.206 162.627 352.85C164.076 348.681 167.785 349.154 167.828 349.154C168.098 349.197 168.325 349.412 168.368 349.684L170.386 360.373C170.4 360.516 170.386 360.674 170.315 360.803C169.633 362.107 163.565 373.641 159.529 375.074C158.151 375.561 155.976 375.733 153.674 375.733Z" fill="black"/>
    <path d="M158.107 371.191H148.046C147.691 371.191 147.407 370.89 147.407 370.532C147.407 370.174 147.691 369.873 148.046 369.873H158.107C158.463 369.873 158.761 370.174 158.761 370.532C158.761 370.89 158.463 371.191 158.107 371.191Z" fill="black"/>
    <path d="M176.482 343.207L174.265 362.967L165.369 360.502L166.051 342.691L176.482 343.207Z" fill="white"/>
    <path d="M166.037 360L173.711 362.135L175.757 343.838L166.677 343.379L166.037 360ZM174.265 363.626C174.208 363.626 174.151 363.611 174.095 363.597L165.199 361.132C164.9 361.046 164.716 360.774 164.716 360.473L165.412 342.677C165.412 342.491 165.483 342.333 165.611 342.219C165.739 342.09 165.923 342.032 166.094 342.047L176.51 342.548C176.695 342.562 176.851 342.648 176.979 342.777C177.093 342.921 177.15 343.107 177.121 343.279L174.919 363.038C174.89 363.239 174.791 363.411 174.635 363.511C174.521 363.583 174.393 363.626 174.265 363.626Z" fill="black"/>
    <path d="M175.103 377.525H161.035C159.131 377.525 157.667 375.819 157.951 373.914C158.42 370.69 159.941 365.36 164.531 358.023C165.028 357.221 165.909 356.734 166.847 356.734H171.124C171.863 356.734 172.489 357.307 172.56 358.052L172.886 361.176L174.18 359.814C174.691 359.298 175.572 359.499 175.8 360.201C176.624 362.723 178.116 368.139 178.23 374.315C178.258 376.077 176.851 377.525 175.103 377.525Z" fill="white"/>
    <path d="M166.847 357.392C166.136 357.392 165.468 357.765 165.085 358.381C160.537 365.631 159.045 370.876 158.591 373.999C158.477 374.73 158.69 375.461 159.159 376.005C159.628 376.55 160.31 376.865 161.035 376.865H175.103C175.771 376.865 176.396 376.607 176.865 376.12C177.334 375.633 177.59 375.002 177.576 374.315C177.462 368.282 176.027 363.009 175.189 360.401C175.132 360.244 175.018 360.201 174.947 360.187C174.904 360.172 174.762 360.158 174.649 360.273L173.355 361.619C173.171 361.806 172.915 361.877 172.673 361.791C172.432 361.705 172.261 361.49 172.233 361.233L171.906 358.109C171.863 357.708 171.536 357.392 171.124 357.392H166.847ZM175.103 378.183H161.035C159.941 378.183 158.889 377.696 158.178 376.865C157.454 376.02 157.141 374.916 157.297 373.813C157.781 370.561 159.315 365.13 163.976 357.679C164.602 356.676 165.682 356.074 166.847 356.074H171.124C172.204 356.074 173.1 356.891 173.213 357.98L173.384 359.699L173.711 359.37C174.109 358.954 174.691 358.782 175.245 358.911C175.8 359.04 176.24 359.441 176.425 359.986C177.292 362.68 178.77 368.096 178.883 374.3C178.897 375.332 178.514 376.306 177.789 377.037C177.079 377.782 176.126 378.183 175.103 378.183Z" fill="black"/>
    <path d="M175.274 374.773H161.021C160.665 374.773 160.367 374.487 160.367 374.129C160.367 373.756 160.665 373.469 161.021 373.469H175.274C175.629 373.469 175.928 373.756 175.928 374.129C175.928 374.487 175.629 374.773 175.274 374.773Z" fill="black"/>
    <path d="M143.072 224.551C143.442 223.634 144.181 222.932 145.119 222.646C150.263 221.012 168.197 216.714 186.67 228.692C187.551 229.251 188.106 230.197 188.177 231.243C188.844 240.743 191.331 290.377 175.813 349.154L165.354 348.394L163.223 247.907C163.223 247.907 147.733 284.746 160.324 343.379L149.453 345.414C149.453 345.414 133.537 324.236 130.695 291.896C128.165 263.268 140.244 231.501 143.072 224.551Z" fill="black"/>
    <path d="M173.142 302.686C172.801 302.686 172.517 302.413 172.503 302.055C172.489 301.697 172.759 301.396 173.114 301.382C181.839 300.995 182.862 288.615 182.877 288.486C182.905 288.128 183.218 287.855 183.573 287.884C183.928 287.913 184.198 288.214 184.17 288.586C184.17 288.715 183.047 302.256 173.171 302.686C173.171 302.686 173.157 302.686 173.142 302.686Z" fill="#C1FF72"/>
    <path d="M162.314 257.779H162.299C161.93 257.765 161.66 257.464 161.66 257.106L161.944 247.563C161.987 245.887 161.219 244.311 159.855 243.35L155.791 240.456C155.492 240.241 155.421 239.84 155.635 239.539C155.848 239.238 156.246 239.166 156.544 239.381L160.608 242.276C162.328 243.494 163.308 245.485 163.251 247.592L162.967 257.149C162.953 257.493 162.669 257.779 162.314 257.779Z" fill="#C1FF72"/>
    <path d="M143.329 335.899C143.101 335.899 142.874 335.77 142.76 335.541C137.886 326.156 131.719 310.967 130.042 291.953C128.962 279.745 130.383 265.617 134.234 249.97C134.319 249.612 134.674 249.397 135.03 249.483C135.371 249.569 135.584 249.927 135.499 250.285C131.676 265.789 130.283 279.774 131.335 291.839C132.997 310.638 139.094 325.654 143.911 334.939C144.082 335.255 143.954 335.656 143.627 335.828C143.542 335.871 143.442 335.899 143.329 335.899Z" fill="#C1FF72"/>
    <path d="M191.943 190.148C191.943 190.148 196.831 211.799 188.561 235.355C188.561 235.355 180.56 238.952 177.803 241.115C175.047 243.279 174.706 248.681 174.706 248.681C174.706 248.681 178.67 245.414 181.91 245.485C185.15 245.571 189.982 243.737 190.081 240.041C190.081 240.041 204.349 223.548 204.69 210.882C205.074 196.725 204.121 186.967 202.97 183.27C202.771 182.625 202.132 182.224 201.464 182.353C195.425 183.456 193.023 184.961 191.943 190.148Z" fill="white"/>
    <path d="M192.596 190.148C193.008 192.111 197.072 213.117 189.186 235.57C189.114 235.742 189.001 235.871 188.83 235.943C188.759 235.986 180.858 239.539 178.201 241.631C176.552 242.921 175.842 245.586 175.543 247.248C177.035 246.245 179.622 244.783 181.924 244.826C183.544 244.869 185.434 244.411 186.855 243.608C188.006 242.964 189.37 241.817 189.427 240.026C189.427 239.869 189.484 239.725 189.583 239.611C189.726 239.453 203.709 223.147 204.036 210.867C204.433 195.98 203.382 186.795 202.359 183.471C202.245 183.141 201.918 182.941 201.577 182.998C195.467 184.116 193.591 185.592 192.596 190.148ZM174.705 249.34C174.605 249.34 174.506 249.311 174.407 249.268C174.179 249.154 174.037 248.896 174.051 248.638C174.065 248.409 174.449 242.921 177.405 240.599C179.934 238.608 186.628 235.513 188.049 234.868C196.021 211.885 191.346 190.506 191.303 190.291C191.274 190.205 191.274 190.105 191.303 190.019C192.497 184.288 195.495 182.769 201.35 181.708C202.33 181.522 203.297 182.11 203.595 183.07C204.661 186.509 205.741 195.851 205.343 210.896C205.016 223.118 192.326 238.407 190.706 240.298C190.578 242.09 189.441 243.666 187.494 244.755C185.846 245.672 183.757 246.188 181.896 246.145C178.911 246.087 175.16 249.168 175.117 249.197C175.003 249.297 174.847 249.34 174.705 249.34Z" fill="black"/>
    <path d="M154.895 148.638H177.107C181.654 148.638 184.837 144.096 183.331 139.754L177.931 124.293L150.035 128.621V143.709C150.035 146.431 152.21 148.638 154.895 148.638Z" fill="black"/>
    <path d="M150.035 128.621C150.035 136.588 156.416 143.05 164.303 143.05C172.19 143.05 178.584 136.588 178.584 128.621C178.584 120.64 172.19 114.177 164.303 114.177C156.416 114.177 150.035 120.64 150.035 128.621Z" fill="black"/>
    <path d="M158.179 144.325C153.39 143.365 151.386 128.277 151.329 128.076C151.315 128.062 151.315 128.062 151.315 128.047L166.89 127.03C166.592 127.861 166.293 128.621 166.208 129.136C165.924 130.913 168.865 128.692 170.13 129.265C170.968 129.652 171.281 130.798 170.471 132.389C169.959 133.378 169.093 134.338 168.325 134.796C168.212 135.728 167.97 136.659 167.629 137.547L167.657 137.533L172.617 153.008L180.617 154.871C159.969 164.141 152.822 154.828 152.822 154.828L161.149 152.292L160.154 144.368C159.5 144.468 158.847 144.454 158.179 144.325Z" fill="white"/>
    <path d="M154.057 155.129C156.232 156.963 163.436 161.262 178.528 155.057L172.474 153.639C172.247 153.596 172.076 153.424 172.005 153.209L167.089 137.906C166.975 137.72 166.932 137.505 167.018 137.304C167.344 136.444 167.572 135.57 167.685 134.711C167.714 134.51 167.828 134.338 167.998 134.238C168.666 133.836 169.448 132.948 169.888 132.074C170.258 131.372 170.385 130.727 170.229 130.297C170.158 130.097 170.03 129.953 169.86 129.867C169.533 129.724 168.694 129.996 168.14 130.168C167.231 130.455 166.449 130.713 165.895 130.24C165.596 129.968 165.483 129.567 165.568 129.036C165.625 128.664 165.767 128.234 165.938 127.761L152.082 128.664C153.532 137.576 155.848 143.179 158.306 143.68C158.875 143.795 159.472 143.809 160.069 143.723C160.239 143.695 160.424 143.752 160.552 143.852C160.694 143.967 160.779 144.11 160.807 144.296L161.802 152.22C161.845 152.535 161.646 152.836 161.347 152.922L154.057 155.129ZM164.218 159.671C155.848 159.671 152.509 155.487 152.295 155.229C152.167 155.057 152.139 154.828 152.196 154.627C152.267 154.413 152.423 154.255 152.622 154.198L160.438 151.833L159.585 145.085C159.074 145.099 158.548 145.07 158.051 144.97C153.816 144.11 151.642 134.266 150.732 128.478C150.704 128.349 150.69 128.263 150.69 128.22C150.69 128.22 150.69 128.22 150.69 128.205C150.633 128.019 150.661 127.833 150.775 127.661C150.889 127.503 151.073 127.403 151.272 127.389L166.847 126.386C167.074 126.371 167.288 126.457 167.415 126.643C167.543 126.815 167.586 127.045 167.501 127.26L167.359 127.661C167.145 128.234 166.946 128.793 166.875 129.165C167.117 129.122 167.486 129.008 167.742 128.922C168.623 128.635 169.618 128.32 170.4 128.664C170.897 128.893 171.281 129.323 171.465 129.867C171.65 130.412 171.735 131.358 171.039 132.69C170.542 133.665 169.732 134.61 168.936 135.183C168.808 135.957 168.609 136.731 168.339 137.505L173.128 152.449L180.759 154.241C181.043 154.298 181.242 154.527 181.271 154.814C181.299 155.1 181.143 155.358 180.887 155.473C173.91 158.611 168.424 159.671 164.218 159.671Z" fill="black"/>
    <path d="M164.871 140.585C164.871 140.585 163.905 144.067 160.154 144.368L164.871 140.585Z" fill="white"/>
    <path d="M160.153 145.027C159.827 145.027 159.542 144.769 159.514 144.425C159.485 144.067 159.741 143.752 160.111 143.723C163.365 143.451 164.232 140.442 164.246 140.413C164.345 140.055 164.701 139.854 165.042 139.954C165.397 140.055 165.596 140.413 165.497 140.757C165.113 142.118 163.535 144.755 160.21 145.027C160.196 145.027 160.182 145.027 160.153 145.027Z" fill="black"/>
    <path d="M200.767 237.59C200.767 237.59 199.133 257.035 202.089 276.98C203.339 285.448 206.878 295.708 207.389 299.763C208.299 306.927 206.295 315.925 209.393 329.509C212.477 343.093 214.537 357.292 214.907 364.271C215.262 371.249 225.096 369.658 225.096 369.658C225.096 369.658 222.708 336.817 223.802 323.405C224.371 316.355 224.016 302.958 224.2 291.166C224.371 280.548 225.962 243.15 225.28 240.714C223.831 235.57 200.767 237.59 200.767 237.59Z" fill="white"/>
    <path d="M201.378 238.192C201.151 241.502 200.099 259.098 202.728 276.88C203.438 281.68 204.916 287.168 206.11 291.581C207.019 294.963 207.815 297.9 208.043 299.677C208.37 302.299 208.327 305.079 208.27 308.288C208.171 313.833 208.057 320.711 210.018 329.366C213.187 343.322 215.205 357.464 215.56 364.242C215.631 365.703 216.157 366.807 217.152 367.623C219.283 369.372 222.964 369.214 224.399 369.085C224.072 364.457 222.154 335.627 223.149 323.348C223.504 318.92 223.504 311.885 223.49 304.434C223.49 300.049 223.49 295.493 223.546 291.151C223.603 287.669 223.802 281.465 224.044 274.272C224.484 260.832 225.081 242.434 224.655 240.886C223.717 237.59 210.117 237.476 201.378 238.192ZM222.793 370.475C220.875 370.475 218.189 370.16 216.342 368.655C215.048 367.609 214.352 366.148 214.253 364.299C213.912 357.593 211.908 343.537 208.753 329.652C206.749 320.855 206.863 313.876 206.963 308.274C207.019 305.107 207.062 302.356 206.749 299.849C206.536 298.158 205.755 295.263 204.845 291.925C203.652 287.483 202.159 281.952 201.449 277.066C198.507 257.278 200.113 237.719 200.127 237.533C200.156 237.218 200.397 236.96 200.71 236.931C200.781 236.931 206.579 236.43 212.491 236.559C220.818 236.759 225.209 238.049 225.905 240.528C226.36 242.147 225.962 255.544 225.351 274.315C225.11 281.494 224.911 287.712 224.854 291.18C224.783 295.507 224.783 300.049 224.797 304.434C224.797 311.913 224.811 318.977 224.442 323.462C223.376 336.659 225.721 369.286 225.735 369.615C225.763 369.959 225.522 370.26 225.195 370.317C225.095 370.332 224.129 370.475 222.793 370.475Z" fill="black"/>
    <path d="M212.633 233.736C212.633 233.736 216.086 247.42 217.01 262.852C217.778 275.662 217.593 301.941 217.365 305.165C216.882 311.899 219.326 316.742 222.595 318.992C225.878 321.241 244.834 338.679 248.245 345.113C251.641 351.547 254.1 364.084 254.1 364.084C254.1 364.084 260.793 361.233 260.892 354.799C260.992 348.351 250.945 321.113 241.708 314.636C236.578 311.039 234.319 310.309 233.835 307.744C233.409 305.509 239.15 281.924 239.704 266.406C239.79 264.099 240.486 253.409 237.658 246.216C233.935 236.745 212.633 233.736 212.633 233.736Z" fill="white"/>
    <path d="M213.5 234.553C214.296 237.949 216.882 249.827 217.664 262.809C218.417 275.461 218.261 301.683 218.019 305.207C217.593 311.082 219.44 316.026 222.964 318.447C226.133 320.625 245.332 338.221 248.814 344.798C251.755 350.343 253.944 360.158 254.569 363.11C256.217 362.178 260.168 359.485 260.239 354.785C260.338 348.437 250.377 321.514 241.339 315.18C240.074 314.292 239.008 313.59 238.056 312.974C235.186 311.111 233.608 310.065 233.196 307.858C233.026 306.941 233.566 303.889 234.731 297.628C236.308 289.016 238.71 276.02 239.051 266.377C239.065 266.219 239.065 266.018 239.079 265.775C239.221 262.623 239.633 253.022 237.061 246.474C233.949 238.579 217.636 235.269 213.5 234.553ZM254.1 364.729C254 364.729 253.887 364.715 253.801 364.657C253.617 364.571 253.503 364.399 253.46 364.199C253.432 364.084 250.988 351.69 247.662 345.414C244.266 338.98 225.352 321.685 222.24 319.536C218.332 316.842 216.257 311.455 216.712 305.121C216.925 302.155 217.152 276.063 216.371 262.895C215.461 247.706 212.037 234.037 212.008 233.908C211.951 233.693 212.008 233.464 212.15 233.306C212.292 233.134 212.52 233.062 212.733 233.091C213.614 233.22 234.447 236.258 238.269 245.973C240.955 252.807 240.529 262.608 240.387 265.832C240.372 266.076 240.358 266.262 240.358 266.42C240.003 276.163 237.601 289.231 236.01 297.857C235.143 302.514 234.333 306.898 234.475 307.615C234.788 309.277 236.038 310.094 238.767 311.87C239.719 312.501 240.799 313.203 242.078 314.106C251.613 320.783 261.646 348.108 261.546 354.799C261.433 361.591 254.64 364.557 254.356 364.686C254.27 364.715 254.185 364.729 254.1 364.729Z" fill="black"/>
    <path d="M219.866 366.42C219.653 365.689 219.226 364.844 218.388 364.213C217.109 363.253 215.347 363.253 213.983 364.113C210.629 366.248 203.424 371.32 197.839 377.625C195.864 379.846 196.432 382.855 200.355 383.414C206.266 384.245 216.199 382.883 225.507 376.206C226.573 375.432 226.985 374.172 227.113 372.853C227.284 371.277 226.744 367.408 226.388 366.09C226.388 366.09 226.388 366.076 226.388 366.061C225.905 364.371 223.589 364.184 222.793 365.746L222.353 366.592C221.798 367.652 220.235 367.566 219.88 366.434C219.88 366.434 219.88 366.42 219.866 366.42Z" fill="white"/>
    <path d="M216.158 364.141C215.533 364.141 214.893 364.313 214.339 364.671C212.108 366.076 204.377 371.234 198.324 378.054C197.499 378.986 197.187 380.075 197.514 380.949C197.855 381.895 198.892 382.539 200.441 382.754C206.424 383.6 216.058 382.181 225.125 375.662C225.892 375.117 226.333 374.171 226.475 372.782C226.631 371.306 226.091 367.509 225.764 366.262C225.622 365.732 225.21 365.388 224.684 365.331C224.244 365.288 223.675 365.46 223.363 366.047L222.922 366.907C222.553 367.638 221.771 368.067 220.947 367.981C220.151 367.924 219.497 367.394 219.256 366.635V366.606C219.014 365.803 218.588 365.173 218.005 364.743C217.465 364.342 216.812 364.141 216.158 364.141ZM203.738 384.287C202.487 384.287 201.322 384.216 200.271 384.058C198.21 383.772 196.803 382.826 196.277 381.393C195.794 380.061 196.192 378.484 197.343 377.18C203.511 370.231 211.383 364.987 213.643 363.554C215.248 362.537 217.309 362.579 218.787 363.683C219.583 364.285 220.18 365.159 220.492 366.219L220.506 366.248C220.62 366.606 220.933 366.663 221.061 366.678C221.302 366.706 221.615 366.606 221.771 366.291L222.212 365.445C222.709 364.471 223.732 363.912 224.812 364.027C225.878 364.141 226.731 364.858 227.015 365.875C227.015 365.889 227.029 365.932 227.029 365.947C227.37 367.251 227.939 371.22 227.768 372.925C227.583 374.716 226.972 375.963 225.878 376.736C218.091 382.339 209.877 384.287 203.738 384.287Z" fill="black"/>
    <path d="M204.22 381.68C200.17 381.68 198.778 380.018 198.678 379.874C198.451 379.602 198.494 379.187 198.778 378.957C199.048 378.728 199.46 378.771 199.687 379.058C199.758 379.144 204.448 384.187 222.566 373.799C222.879 373.627 223.277 373.727 223.447 374.043C223.632 374.358 223.518 374.759 223.206 374.945C213.926 380.261 207.944 381.68 204.22 381.68Z" fill="black"/>
    <path d="M208.043 375.748C207.829 375.748 207.63 375.647 207.503 375.461L204.717 371.463C204.504 371.177 204.575 370.761 204.874 370.561C205.172 370.346 205.57 370.417 205.783 370.718L208.568 374.716C208.782 375.003 208.71 375.418 208.412 375.633C208.298 375.705 208.17 375.748 208.043 375.748Z" fill="black"/>
    <path d="M211.241 373.742C211.042 373.742 210.843 373.656 210.715 373.484L207.617 369.328C207.404 369.042 207.461 368.626 207.745 368.411C208.03 368.196 208.442 368.254 208.655 368.54L211.767 372.681C211.98 372.982 211.923 373.383 211.639 373.613C211.511 373.699 211.383 373.742 211.241 373.742Z" fill="black"/>
    <path d="M249.637 356.347C248.799 361.663 247.25 372.352 249.41 380.72C249.993 382.969 254.1 383.8 256.217 381.436C260.636 376.507 266.847 367.824 267.244 355.63C267.273 354.685 266.847 353.768 266.108 353.18C265.241 352.492 263.834 351.547 261.731 350.615C260.693 350.157 259.471 350.673 259.073 351.762L257.624 355.745L257.269 354.942C256.729 353.739 255.45 353.051 254.156 353.295C253.46 353.424 252.693 353.567 252.011 353.696C250.703 353.925 249.851 355.043 249.637 356.347Z" fill="white"/>
    <path d="M254.682 353.896C254.54 353.896 254.412 353.911 254.27 353.939L252.125 354.341C251.158 354.512 250.462 355.329 250.277 356.461C249.609 360.702 247.819 371.95 250.036 380.562C250.22 381.25 250.945 381.837 251.926 382.081C253.006 382.339 254.64 382.224 255.734 380.992C262.64 373.297 266.292 364.757 266.591 355.616C266.619 354.871 266.278 354.154 265.71 353.696C264.928 353.08 263.564 352.148 261.475 351.217C261.134 351.074 260.765 351.059 260.423 351.217C260.082 351.36 259.812 351.632 259.685 351.991L258.235 355.974C258.15 356.218 257.908 356.39 257.652 356.404C257.382 356.404 257.141 356.261 257.027 356.017L256.672 355.215C256.317 354.398 255.521 353.896 254.682 353.896ZM252.906 383.514C252.48 383.514 252.039 383.456 251.613 383.356C250.149 382.998 249.083 382.067 248.785 380.892C246.724 372.939 247.918 363.024 248.984 356.246C249.254 354.584 250.391 353.323 251.883 353.037L254.043 352.65C255.407 352.392 256.757 352.965 257.539 354.083L258.462 351.532C258.718 350.844 259.244 350.285 259.912 349.999C260.58 349.712 261.333 349.727 262.001 350.013C264.218 350.988 265.681 351.991 266.52 352.664C267.415 353.38 267.927 354.498 267.884 355.659C267.586 365.116 263.82 373.942 256.7 381.866C255.762 382.926 254.356 383.514 252.906 383.514Z" fill="black"/>
    <path d="M253.261 380.276C253.09 380.276 252.92 380.218 252.792 380.089C252.536 379.817 252.55 379.402 252.806 379.158C262.384 369.73 263.833 356.161 263.848 356.017C263.876 355.659 264.203 355.387 264.558 355.43C264.913 355.473 265.183 355.788 265.141 356.146C265.084 356.719 263.634 370.346 253.716 380.089C253.588 380.218 253.417 380.276 253.261 380.276Z" fill="black"/>
    <path d="M249.239 364.457C248.884 364.457 248.6 364.184 248.586 363.84C248.572 363.468 248.842 363.167 249.197 363.153L254.355 362.895C254.711 362.866 255.023 363.153 255.037 363.525C255.052 363.883 254.782 364.184 254.412 364.213L249.268 364.457C249.254 364.457 249.239 364.457 249.239 364.457Z" fill="black"/>
    <path d="M249.169 368.927C248.842 368.927 248.558 368.684 248.515 368.354C248.473 367.996 248.729 367.666 249.084 367.609L254.043 366.978C254.413 366.921 254.725 367.179 254.768 367.537C254.825 367.895 254.569 368.225 254.214 368.268L249.254 368.913C249.226 368.927 249.197 368.927 249.169 368.927Z" fill="black"/>
    <path d="M205.983 127.216C202.06 126.457 197.385 129.695 197.513 135.67C197.613 140.556 202.544 142.29 204.732 145.013C211.78 153.825 204.093 162.537 209.507 171.234C214.665 179.516 210.956 179.244 221.913 187.469C230.666 194.045 247.705 194.475 257.922 183.843C267.642 173.742 270.598 157.937 261.645 149.727C253.588 142.362 247.207 150.099 238.582 143.121C230.07 136.243 232.841 130.182 227.455 127.216C220.079 123.147 217.067 129.409 205.983 127.216Z" fill="black"/>
    <path d="M241.083 164.8C245.815 167.279 247.89 173.34 246.313 178.484C242.788 190.062 236.877 210.351 237.09 215.725C237.388 223.39 248.53 261.061 249.439 273.827C250.334 286.594 250.292 286.379 250.292 286.379C250.292 286.379 227.711 292.125 216.286 285.104C204.846 278.083 191.304 278.714 191.304 278.714C191.304 278.714 189.371 247.076 194.956 236.473C208.655 210.466 204.562 192.971 202.871 187.483C201.294 182.382 200.967 179.559 202.203 175.504C203.141 172.423 208.683 166.964 212.293 163.282C220.066 155.343 233.409 160.788 241.083 164.8Z" fill="#7ED957"/>
    <path d="M190.948 188.142L190.72 188.185C190.081 188.314 189.157 188.472 188.049 188.543C186.159 188.658 185.676 188.386 184.88 187.856C183.97 187.239 183.459 185.907 183.302 184.116C183.047 181.436 182.99 180.419 183.032 179.258C183.146 175.318 187.992 176.436 188.29 176.564C187.921 175.848 187.395 174.773 187.082 174.086C186.812 173.484 186.073 171.163 186.642 169.83C186.898 169.214 187.622 168.526 188.333 168.755C189.683 169.214 188.475 171.764 190.749 174.659C191.815 176.034 192.355 176.163 193.562 177.768C194.699 179.301 195.339 182.296 195.339 182.296C195.836 184.703 211.24 198.229 212.619 199.232C213.315 199.734 220.989 189.79 224.769 180.218C228.563 170.647 230.823 167.394 234.233 166.047C237.644 164.715 250.518 168.927 241.623 184.245C233.707 197.857 225.167 207.357 217.749 213.604C216.257 214.865 214.182 214.707 212.59 213.561C204.746 207.93 190.948 188.142 190.948 188.142Z" fill="white"/>
    <path d="M190.948 187.483C191.161 187.483 191.36 187.583 191.474 187.755C191.616 187.956 205.315 207.529 212.96 213.017C214.424 214.077 216.143 214.106 217.337 213.103C223.391 207.987 232.414 198.788 241.054 183.915C245.545 176.177 244.166 171.822 242.22 169.529C239.79 166.663 235.825 166.133 234.475 166.663C231.206 167.938 229.004 171.306 225.38 180.462C221.87 189.331 214.623 199.361 212.932 199.863C212.591 199.963 212.349 199.848 212.235 199.762C211.511 199.232 195.282 185.276 194.699 182.439C194.699 182.41 194.074 179.559 193.037 178.169C192.426 177.352 191.999 176.951 191.559 176.521C191.175 176.134 190.763 175.748 190.237 175.074C188.887 173.355 188.66 171.707 188.518 170.604C188.39 169.73 188.319 169.457 188.12 169.386C187.85 169.3 187.409 169.701 187.239 170.088C186.813 171.105 187.367 173.125 187.679 173.813C187.992 174.472 188.504 175.561 188.873 176.263C188.987 176.507 188.958 176.808 188.759 177.009C188.575 177.209 188.29 177.281 188.035 177.166C187.779 177.08 185.69 176.65 184.51 177.467C183.97 177.854 183.7 178.441 183.672 179.287C183.644 180.39 183.7 181.321 183.942 184.044C184.098 185.72 184.553 186.838 185.249 187.311C185.917 187.769 186.258 187.984 188.006 187.884C188.873 187.827 189.74 187.712 190.593 187.54L190.82 187.497C190.863 187.483 190.905 187.483 190.948 187.483ZM215.319 215.137C214.267 215.137 213.173 214.793 212.207 214.091C204.86 208.818 192.61 191.624 190.664 188.858C189.811 189.03 188.958 189.145 188.091 189.202C186.116 189.317 185.491 189.045 184.525 188.4C183.473 187.698 182.848 186.279 182.649 184.173C182.407 181.565 182.336 180.49 182.379 179.244C182.421 177.596 183.217 176.751 183.871 176.321C184.866 175.676 186.159 175.619 187.125 175.69C186.898 175.217 186.67 174.73 186.5 174.358C186.216 173.756 185.349 171.191 186.045 169.572C186.457 168.598 187.509 167.795 188.532 168.139C189.541 168.469 189.669 169.472 189.811 170.432C189.953 171.492 190.138 172.825 191.26 174.257C191.729 174.859 192.085 175.203 192.468 175.576C192.923 176.006 193.392 176.478 194.074 177.381C195.296 179 195.95 182.038 195.978 182.167C196.376 184.087 210.018 196.338 212.733 198.487C214.253 197.255 220.733 188.658 224.172 179.975C227.952 170.417 230.34 166.878 234.006 165.445C236.024 164.643 240.514 165.488 243.214 168.684C245.431 171.291 247.051 176.177 242.177 184.574C233.452 199.605 224.3 208.933 218.175 214.106C217.365 214.793 216.356 215.137 215.319 215.137Z" fill="black"/>
    <path d="M224.002 140.256C223.646 140.413 223.263 140.227 223.163 139.854C222.694 138.121 221.017 135.312 218.9 134.524C216.172 133.507 212.846 133.994 211.866 136.072C211.027 137.891 211.482 139.109 209.123 141.316C208.896 141.517 209.024 141.918 209.237 142.133L210.402 143.394C210.644 143.637 210.786 144.368 210.772 144.726C210.743 145.801 210.601 148.093 210.928 148.423C211.567 149.082 215.148 149.311 215.148 149.311L216.768 159.571C216.825 159.958 216.555 160.316 216.172 160.373L213.102 163.01C213.102 163.01 214.893 165.302 223.447 165.804C228.933 166.105 235.924 162.508 235.924 162.508C235.924 162.508 223.007 159.9 223.149 147.09C223.149 146.818 223.305 146.56 223.547 146.417C224.456 145.887 226.957 144.282 226.801 142.319C226.631 140.241 225.167 139.74 224.002 140.256Z" fill="white"/>
    <path d="M214.111 162.995C215.092 163.626 217.664 164.801 223.49 165.145C227.213 165.36 231.732 163.654 234.077 162.651C230.453 161.376 222.382 157.364 222.495 147.09C222.495 146.575 222.779 146.102 223.22 145.844C223.931 145.428 226.275 143.938 226.147 142.376C226.091 141.646 225.849 141.115 225.437 140.886C225.11 140.686 224.684 140.671 224.257 140.857C223.916 141.015 223.533 141.001 223.206 140.843C222.879 140.686 222.637 140.385 222.538 140.026C222.112 138.422 220.534 135.828 218.673 135.14C216.342 134.281 213.301 134.567 212.463 136.358C212.221 136.86 212.093 137.333 211.965 137.82C211.653 138.937 211.34 140.084 209.706 141.674L210.871 142.949C211.312 143.379 211.439 144.368 211.425 144.741C211.425 144.912 211.411 145.099 211.411 145.314C211.383 146.001 211.326 147.563 211.439 148.007C211.837 148.251 213.543 148.552 215.191 148.652C215.489 148.681 215.731 148.91 215.788 149.211L217.408 159.47C217.465 159.829 217.379 160.201 217.152 160.502C216.982 160.731 216.74 160.903 216.47 160.975L214.111 162.995ZM224.158 166.477C223.902 166.477 223.66 166.463 223.419 166.449C214.807 165.961 212.789 163.669 212.576 163.411C212.363 163.139 212.406 162.737 212.676 162.508L215.759 159.872C215.845 159.786 215.973 159.743 216.1 159.714L216.768 159.571L216.129 159.671L214.58 149.928C213.273 149.827 211.098 149.555 210.459 148.882C210.061 148.466 210.018 147.578 210.104 145.271C210.118 145.056 210.118 144.869 210.132 144.712C210.132 144.44 210.004 143.967 209.933 143.852L208.768 142.577C208.512 142.333 208.356 141.961 208.356 141.588C208.356 141.302 208.469 141.029 208.683 140.829C210.16 139.439 210.416 138.522 210.7 137.462C210.843 136.946 210.999 136.416 211.283 135.799C212.463 133.263 216.271 132.848 219.127 133.908C221.5 134.782 223.263 137.777 223.774 139.64C224.584 139.296 225.423 139.339 226.105 139.754C226.645 140.084 227.327 140.786 227.455 142.262C227.625 144.454 225.281 146.159 223.859 146.99C223.831 147.004 223.803 147.062 223.803 147.105C223.675 159.198 235.541 161.763 236.052 161.863C236.322 161.921 236.535 162.15 236.564 162.422C236.606 162.694 236.464 162.967 236.223 163.096C235.938 163.239 229.586 166.477 224.158 166.477Z" fill="black"/>
    <path d="M311.454 213.146H342.618V184.001H311.454V213.146ZM343.272 214.464H310.801C310.431 214.464 310.147 214.163 310.147 213.805V183.342C310.147 182.984 310.431 182.683 310.801 182.683H343.272C343.627 182.683 343.911 182.984 343.911 183.342V213.805C343.911 214.163 343.627 214.464 343.272 214.464Z" fill="white"/>
    <path d="M311.454 182.883H342.618V153.739H311.454V182.883ZM343.272 184.202H310.801C310.431 184.202 310.147 183.901 310.147 183.543V153.08C310.147 152.722 310.431 152.421 310.801 152.421H343.272C343.627 152.421 343.911 152.722 343.911 153.08V183.543C343.911 183.901 343.627 184.202 343.272 184.202Z" fill="white"/>
    <path d="M311.454 152.349H342.618V123.204H311.454V152.349ZM343.272 153.653H310.801C310.431 153.653 310.147 153.366 310.147 153.008V122.545C310.147 122.187 310.431 121.886 310.801 121.886H343.272C343.627 121.886 343.911 122.187 343.911 122.545V153.008C343.911 153.366 343.627 153.653 343.272 153.653Z" fill="white"/>
    <path d="M343.272 123.119H310.801C310.431 123.119 310.147 122.832 310.147 122.459V92.011C310.147 91.6384 310.431 91.3518 310.801 91.3518H311.255L323.32 91.2659C323.661 91.2802 323.974 91.5668 323.988 91.925C323.988 92.2832 323.69 92.5841 323.334 92.5841L311.454 92.6701V121.8H342.661C342.746 121.557 342.988 121.385 343.272 121.385C343.627 121.385 343.911 121.671 343.911 122.044V122.459C343.911 122.832 343.627 123.119 343.272 123.119Z" fill="white"/>
    <path d="M310.807 92.6698C310.434 92.6698 310.147 92.3689 310.147 92.0107V76.4641C310.147 76.1058 310.434 75.8049 310.807 75.8049C311.165 75.8049 311.466 76.1058 311.466 76.4641V92.0107C311.466 92.3689 311.165 92.6698 310.807 92.6698Z" fill="white"/>
    <path d="M310.8 92.584C310.629 92.584 310.445 92.5123 310.317 92.369C310.075 92.1111 310.089 91.6956 310.359 91.452L310.544 91.2657L317.152 84.4453C317.408 84.173 317.82 84.173 318.076 84.4309C318.331 84.6889 318.346 85.0901 318.09 85.3623L311.24 92.412C311.112 92.5267 310.956 92.584 310.8 92.584Z" fill="white"/>
    <path d="M343.271 122.689C343.1 122.689 342.944 122.631 342.816 122.517L310.359 92.0539C310.089 91.8104 310.075 91.3948 310.317 91.1369C310.572 90.8647 310.97 90.8503 311.24 91.0939L343.711 121.557C343.967 121.8 343.981 122.216 343.74 122.488C343.612 122.631 343.441 122.689 343.271 122.689Z" fill="white"/>
    <path d="M310.8 122.688C310.629 122.688 310.445 122.617 310.317 122.488C310.075 122.216 310.089 121.8 310.359 121.556L330.751 102.428C331.007 102.184 331.419 102.198 331.675 102.471C331.917 102.729 331.902 103.144 331.632 103.388L311.24 122.517C311.112 122.631 310.956 122.688 310.8 122.688Z" fill="white"/>
    <path d="M343.271 154.126C343.1 154.126 342.944 154.068 342.816 153.954L310.359 123.491C310.089 123.233 310.075 122.832 310.317 122.559C310.572 122.287 310.97 122.273 311.24 122.531L343.711 152.979C343.967 153.237 343.981 153.653 343.74 153.911C343.612 154.054 343.441 154.126 343.271 154.126Z" fill="white"/>
    <path d="M310.8 154.126C310.629 154.126 310.445 154.054 310.317 153.911C310.075 153.653 310.089 153.237 310.359 152.979L342.816 122.531C343.086 122.273 343.498 122.287 343.74 122.559C343.981 122.832 343.967 123.233 343.711 123.491L311.24 153.954C311.112 154.068 310.956 154.126 310.8 154.126Z" fill="white"/>
    <path d="M343.271 184.201C343.1 184.201 342.944 184.144 342.816 184.03L310.359 153.567C310.089 153.309 310.075 152.893 310.317 152.635C310.572 152.363 310.97 152.349 311.24 152.607L343.711 183.055C343.967 183.313 343.981 183.729 343.74 183.987C343.612 184.13 343.441 184.201 343.271 184.201Z" fill="white"/>
    <path d="M310.8 184.201C310.629 184.201 310.445 184.13 310.317 183.987C310.075 183.729 310.089 183.313 310.359 183.055L342.816 152.607C343.086 152.349 343.498 152.363 343.74 152.635C343.981 152.893 343.967 153.309 343.711 153.567L311.24 184.03C311.112 184.144 310.956 184.201 310.8 184.201Z" fill="white"/>
    <path d="M343.271 213.934C343.1 213.934 342.944 213.876 342.816 213.762L310.359 183.299C310.089 183.055 310.075 182.64 310.317 182.382C310.572 182.11 310.97 182.095 311.24 182.339L343.711 212.802C343.967 213.045 343.981 213.461 343.74 213.733C343.612 213.876 343.441 213.934 343.271 213.934Z" fill="white"/>
    <path d="M310.8 213.934C310.629 213.934 310.445 213.876 310.317 213.733C310.075 213.461 310.089 213.045 310.359 212.802L342.816 182.339C343.086 182.095 343.498 182.11 343.74 182.382C343.981 182.64 343.967 183.055 343.711 183.299L311.24 213.762C311.112 213.876 310.956 213.934 310.8 213.934Z" fill="white"/>
    <path d="M49.6518 346.703C49.6518 346.703 50.6608 311.168 30.567 286.767C29.8991 285.95 26.8154 288.701 26.0907 287.913C25.1812 286.895 26.6023 282.353 25.6075 281.393C21.8844 277.825 17.5786 274.63 12.6191 271.994C12.6191 271.994 10.8712 283.184 14.0828 297.771C14.3386 298.874 19.2838 299.877 19.5823 301.024C19.8665 302.084 15.5038 303.288 15.8449 304.391C20.2928 318.605 29.8139 334.739 49.6518 346.703Z" fill="white"/>
    <path d="M46.3696 306.912C46.5828 305.78 51.4144 307.142 51.656 306.053C51.8833 304.992 47.6202 300.135 47.876 299.103C53.006 278.9 62.5839 266.147 62.5839 266.147C67.2592 273.125 70.5134 280.376 72.6734 287.698C73.0287 288.858 69.0071 293.028 69.3055 294.188C69.6182 295.478 74.2792 295.034 74.535 296.309C78.3292 315.28 74.6345 341.659 64.1329 351.575C57.5676 349.655 54.8391 347.663 49.2544 345.743C45.3749 330.254 44.096 319.049 46.3696 306.912Z" fill="white"/>
    <path d="M58.3353 342.319C58.3069 342.319 58.2643 342.305 58.2358 342.305C57.8806 342.247 57.639 341.918 57.6816 341.559C58.6195 335.226 59.4011 328.793 60.0122 322.416C60.0548 322.058 60.3674 321.8 60.7227 321.829C61.078 321.857 61.348 322.187 61.3053 322.545C60.6943 328.936 59.9127 335.398 58.9748 341.746C58.9322 342.075 58.6479 342.319 58.3353 342.319Z" fill="#C1FF72"/>
    <path d="M61.4184 314.005C61.4042 314.005 61.39 314.005 61.3758 314.005C61.0205 313.991 60.7505 313.676 60.7647 313.303C61.5321 302.542 61.8305 291.61 61.66 280.82L61.5889 275.862C61.5747 275.504 61.8731 275.203 62.2284 275.203C62.5837 275.189 62.8821 275.475 62.8963 275.848L62.9673 280.791C63.1379 291.624 62.8394 302.6 62.0721 313.403C62.0437 313.747 61.7594 314.005 61.4184 314.005Z" fill="#C1FF72"/>
    <path d="M58.3355 349.526C58.3355 349.526 46.2849 317.172 12.1511 323.62C12.1511 323.62 25.168 350.429 58.3355 349.526Z" fill="white"/>
    <path d="M47.8755 345.242C47.7192 345.242 47.5629 345.185 47.4492 345.084C38.937 337.705 20.6622 329.151 20.4775 329.065C20.1507 328.921 20.0086 328.52 20.1507 328.191C20.307 327.861 20.6907 327.718 21.0175 327.875C21.2022 327.961 39.6476 336.587 48.2876 344.081C48.5718 344.325 48.6002 344.74 48.3587 345.013C48.2308 345.156 48.046 345.242 47.8755 345.242Z" fill="#C1FF72"/>
    <path d="M299.261 301.425C299.246 301.425 299.232 301.425 299.218 301.425L296.888 301.281C296.518 301.267 296.248 300.952 296.262 300.594C296.291 300.235 296.589 299.949 296.959 299.978L299.303 300.107C299.659 300.135 299.929 300.45 299.914 300.809C299.9 301.153 299.602 301.425 299.261 301.425Z" fill="black"/>
    <path d="M307.461 301.912C307.447 301.912 307.447 301.912 307.432 301.912L305.088 301.768C304.718 301.754 304.448 301.439 304.477 301.081C304.491 300.708 304.789 300.436 305.159 300.45L307.504 300.594C307.859 300.622 308.143 300.923 308.115 301.296C308.1 301.64 307.802 301.912 307.461 301.912Z" fill="black"/>
    <path d="M302.359 298.631C302.344 298.631 302.33 298.631 302.33 298.631C301.961 298.616 301.691 298.301 301.705 297.943L301.847 295.564C301.861 295.206 302.16 294.934 302.529 294.948C302.899 294.977 303.169 295.278 303.14 295.65L303.012 298.015C302.998 298.359 302.7 298.631 302.359 298.631Z" fill="black"/>
    <path d="M301.89 306.927C301.876 306.927 301.862 306.927 301.848 306.927C301.492 306.913 301.222 306.597 301.237 306.239L301.379 303.861C301.393 303.502 301.706 303.23 302.061 303.244C302.416 303.273 302.7 303.574 302.672 303.947L302.544 306.311C302.516 306.669 302.231 306.927 301.89 306.927Z" fill="black"/>
    <path d="M309.621 276.693C308.924 276.693 308.257 276.951 307.731 277.424C306.551 278.485 306.452 280.319 307.503 281.508C308.001 282.081 308.711 282.425 309.464 282.468C310.232 282.511 310.957 282.253 311.525 281.737C312.704 280.677 312.804 278.857 311.767 277.653C311.255 277.08 310.559 276.736 309.791 276.693C309.734 276.693 309.678 276.693 309.621 276.693ZM309.635 283.786C309.564 283.786 309.479 283.786 309.393 283.786C308.285 283.715 307.262 283.213 306.523 282.382C305.002 280.648 305.159 277.983 306.864 276.436C307.688 275.69 308.754 275.318 309.862 275.39C310.971 275.447 311.994 275.948 312.733 276.794C314.268 278.513 314.111 281.178 312.392 282.726C311.639 283.414 310.658 283.786 309.635 283.786Z" fill="black"/>
    <path d="M325.82 264.7C325.423 264.7 325.025 264.858 324.726 265.13C324.044 265.746 323.987 266.807 324.584 267.494C324.883 267.838 325.295 268.039 325.735 268.053C326.176 268.082 326.602 267.939 326.929 267.638C327.611 267.022 327.668 265.961 327.071 265.259C326.773 264.93 326.36 264.729 325.92 264.7C325.892 264.7 325.863 264.7 325.82 264.7ZM325.835 269.372C325.778 269.372 325.721 269.372 325.664 269.372C324.868 269.329 324.144 268.97 323.618 268.369C322.538 267.136 322.637 265.245 323.859 264.142C324.442 263.611 325.209 263.353 325.991 263.396C326.787 263.439 327.512 263.798 328.037 264.399C329.117 265.617 329.018 267.523 327.796 268.612C327.256 269.114 326.559 269.372 325.835 269.372Z" fill="black"/>
    <path d="M266.733 58.7108C266.633 58.7108 266.534 58.6821 266.448 58.6391C266.121 58.4815 265.994 58.0946 266.15 57.7651L275.898 37.4326C275.998 37.2464 276.168 37.1174 276.367 37.0744C276.566 37.0314 276.779 37.1031 276.936 37.232L283.06 42.9062L299.943 25.067C300.198 24.809 300.611 24.7947 300.866 25.0526C301.122 25.2962 301.136 25.7118 300.881 25.984L283.558 44.2818C283.316 44.5397 282.904 44.554 282.648 44.3104L276.694 38.8082L267.315 58.3382C267.201 58.5675 266.974 58.7108 266.733 58.7108Z" fill="black"/>
    <path d="M271.906 64.5142C271.75 64.5142 271.608 64.4712 271.48 64.3566C271.21 64.1273 271.167 63.7118 271.395 63.4395L280.489 52.5354C280.631 52.3491 280.859 52.2632 281.086 52.3061C281.299 52.3348 281.498 52.4924 281.583 52.693L285.136 61.1756L300.086 52.3778C300.398 52.2058 300.796 52.3061 300.981 52.6214C301.166 52.9366 301.052 53.3378 300.739 53.5241L285.15 62.6801C284.98 62.7804 284.795 62.7947 284.61 62.7374C284.44 62.6801 284.284 62.5512 284.212 62.3649L280.802 54.1975L272.403 64.2849C272.276 64.4282 272.091 64.5142 271.906 64.5142Z" fill="black"/>
    <path d="M280.887 23.5627C279.778 23.5627 278.869 24.4941 278.869 25.626C278.869 26.758 279.778 27.675 280.887 27.675C282.009 27.675 282.919 26.758 282.919 25.626C282.919 24.4941 282.009 23.5627 280.887 23.5627ZM280.887 28.9933C279.054 28.9933 277.562 27.4888 277.562 25.626C277.562 23.7633 279.054 22.2588 280.887 22.2588C282.734 22.2588 284.226 23.7633 284.226 25.626C284.226 27.4888 282.734 28.9933 280.887 28.9933Z" fill="black"/>
    <path d="M307.708 48.0073C307.35 48.0073 307.049 47.7207 307.049 47.3482V45.0986C307.049 44.7404 307.35 44.4395 307.708 44.4395C308.081 44.4395 308.368 44.7404 308.368 45.0986V47.3482C308.368 47.7207 308.081 48.0073 307.708 48.0073Z" fill="black"/>
    <path d="M307.708 53.2515C307.35 53.2515 307.049 52.9649 307.049 52.6067V50.3428C307.049 49.9846 307.35 49.698 307.708 49.698C308.081 49.698 308.368 49.9846 308.368 50.3428V52.6067C308.368 52.9649 308.081 53.2515 307.708 53.2515Z" fill="black"/>
    <path d="M306.225 49.5118H303.993C303.638 49.5118 303.354 49.2109 303.354 48.8527C303.354 48.4945 303.638 48.1936 303.993 48.1936H306.225C306.58 48.1936 306.878 48.4945 306.878 48.8527C306.878 49.2109 306.58 49.5118 306.225 49.5118Z" fill="black"/>
    <path d="M311.411 49.5118H309.194C308.824 49.5118 308.54 49.2109 308.54 48.8527C308.54 48.4945 308.824 48.1936 309.194 48.1936H311.411C311.78 48.1936 312.064 48.4945 312.064 48.8527C312.064 49.2109 311.78 49.5118 311.411 49.5118Z" fill="black"/>
    <path d="M32.8549 253.452C32.7413 253.452 32.6276 253.424 32.5139 253.366L26.0196 249.34C23.9733 248.079 22.5665 245.973 22.1544 243.58C21.7423 241.187 22.3817 238.737 23.9023 236.845C25.3944 234.983 25.8491 232.59 25.167 230.297C24.4849 228.004 22.7938 226.285 20.5344 225.569L20.2217 225.468C15.9159 224.107 13.4717 219.594 14.6654 215.209L17.7065 203.975C17.8059 203.617 18.1612 203.416 18.5023 203.517C18.8575 203.603 19.0565 203.961 18.9712 204.319L15.9301 215.553C14.9212 219.264 16.9817 223.075 20.6054 224.222L20.9181 224.322C23.5612 225.153 25.6075 227.245 26.4175 229.91C27.2133 232.59 26.6591 235.498 24.9112 237.676C23.6323 239.267 23.0923 241.345 23.4333 243.365C23.7886 245.385 24.9681 247.148 26.7018 248.222L33.196 252.234C33.5086 252.435 33.5939 252.836 33.4092 253.151C33.2813 253.352 33.0681 253.452 32.8549 253.452Z" fill="black"/>
    <path d="M40.7139 244.354C40.5292 244.354 40.3586 244.282 40.2307 244.139L35.1291 238.407C33.5233 236.602 32.756 234.18 33.0402 231.773C33.3244 229.366 34.6176 227.188 36.607 225.812C38.5539 224.465 39.6765 222.316 39.6623 219.909C39.6481 217.516 38.5113 215.381 36.5502 214.048L36.266 213.862C32.5286 211.312 31.4628 206.297 33.836 202.413L39.9039 192.527C40.0886 192.211 40.5007 192.125 40.7992 192.312C41.1118 192.498 41.1971 192.899 41.0123 193.214L34.9444 203.116C32.9407 206.383 33.836 210.624 37.0049 212.773L37.2749 212.959C39.5771 214.507 40.9555 217.115 40.9697 219.909C40.9839 222.703 39.6197 225.325 37.346 226.901C35.6691 228.062 34.5749 229.896 34.3333 231.931C34.0918 233.965 34.7312 236 36.0955 237.533L41.1971 243.25C41.4386 243.523 41.4102 243.938 41.1544 244.182C41.0265 244.296 40.8702 244.354 40.7139 244.354Z" fill="black"/>
    <path d="M100.824 69.5002C100.753 70.9904 99.3036 72.1224 97.5841 72.0364C95.8646 71.9504 94.5288 70.6752 94.5999 69.1707C94.6851 67.6805 96.1346 66.5485 97.8541 66.6345C99.5736 66.7204 100.909 67.9957 100.824 69.5002Z" fill="#7ED957"/>
    <path d="M103.894 54.0256C102.146 52.779 102.09 51.5324 100.725 51.2458C99.3753 50.9449 99.5743 53.4238 99.5743 53.4238L98.8069 68.7841C98.7785 69.3429 99.2474 69.8301 99.8016 69.8444C100.356 69.8731 100.782 70.0594 100.811 69.5006L101.578 54.8996C105.315 55.7593 107.049 60.5881 107.049 60.5881C107.504 57.9516 105.457 55.1432 103.894 54.0256Z" fill="#7ED957"/>
    <path d="M162.796 46.2737C163.109 44.5972 164.743 31.988 164.317 31.8877C164.146 31.8447 164.018 31.7587 163.89 31.773L155.605 31.6441C154.497 31.4148 154.412 33.5641 154.412 33.5641L152.294 45.9871C151.996 45.8295 151.683 45.7149 151.328 45.6575C149.736 45.371 148.259 46.2737 148.031 47.6492C147.79 49.0391 148.884 50.386 150.475 50.6583C152.067 50.9448 153.559 50.0421 153.787 48.6522C153.801 48.5663 153.815 48.4803 153.815 48.3943C154.128 46.7752 155.762 37.9917 155.989 33.822L163.038 33.6644L161.304 43.8521C161.005 43.6945 160.679 43.5799 160.338 43.5226C158.746 43.2503 157.268 44.1387 157.027 45.5286C156.799 46.9041 157.893 48.251 159.485 48.5376C161.077 48.8099 162.796 46.3596 162.796 46.2737Z" fill="#7ED957"/>
    </g>
    <defs>
    <clipPath id="clip0_884_472">
    <rect width="360.714" height="383" fill="white" transform="translate(0.27832)"/>
    </clipPath>
    </defs>
    </svg>
    