<svg xmlns="http://www.w3.org/2000/svg" height="1200" width="1600" version="1.1" xmlnsXlink="http://www.w3.org/1999/xlink" xmlnsSvgjs="http://svgjs.com/svgjs"><rect fill="#fff" width="1600" height="1200"></rect><g><path d="M897.25 511.85H703.07C668.23 511.85 640.03 540.05 640.03 574.89V703.18C640.03 738.02 668.23 766.21 703.07 766.21H712.26V802.85C712.26 806.44 715.11 809.29 718.7 809.29 719.96 809.29 721.23 808.87 722.29 808.13L783.63 766.21H897.14C931.98 766.21 960.18 738.02 960.28 703.18V574.89C960.28 540.05 932.09 511.85 897.25 511.85Z" fill="#61ccff" opacity="1" stroke-width="4" stroke="none"></path><path d="M712.26 784.48L773.92 772.87 783.63 766.21H712.26V784.48Z" fill="#181818" opacity="0.2" stroke-width="4" stroke="none"></path><path d="M862.09 658.83C872.99 658.83 881.83 649.99 881.83 639.09 881.83 628.18 872.99 619.34 862.09 619.34 851.18 619.34 842.34 628.18 842.34 639.09 842.34 649.99 851.18 658.83 862.09 658.83Z" fill="#ffffff" opacity="1" stroke-width="4" stroke="none"></path><path d="M800.11 658.83C811.01 658.83 819.85 649.99 819.85 639.09 819.85 628.18 811.01 619.34 800.11 619.34 789.2 619.34 780.36 628.18 780.36 639.09 780.36 649.99 789.2 658.83 800.11 658.83Z" fill="#ffffff" opacity="1" stroke-width="4" stroke="none"></path><path d="M738.23 658.83C749.14 658.83 757.98 649.99 757.98 639.09 757.98 628.18 749.14 619.34 738.23 619.34 727.32 619.34 718.49 628.18 718.49 639.09 718.49 649.99 727.32 658.83 738.23 658.83Z" fill="#ffffff" opacity="1" stroke-width="4" stroke="none"></path></g></svg>