<svg xmlns="http://www.w3.org/2000/svg" viewBox="0 0 500 500" width="500" height="500" class="illustration"><title>38. Profile</title><g id="Layer_9" data-name="Layer 9"><path d="M176.11,207.91c1.95-.89,4.24-1.67,6.18-.76,2.5,1.17,3.12,4.44,5.07,6.39,2.78,2.78,7.71,2.11,10.75-.39s4.65-6.29,6.15-9.93c7.82,3.73,15.77,7.54,22.15,13.39s11.07,14.18,10.5,22.82c-28.13-1.26-59.3.91-86.78-4.73C151.62,223.2,165.68,212.66,176.11,207.91Z" fill="#3fe2fd"></path><polygon points="108.65 59.57 108.65 415.46 405.97 440.24 88.38 440.24 88.38 61.83 108.65 59.57" fill="#3fe2fd"></polygon></g><g id="Layer_3" data-name="Layer 3"><path d="M413.24,129.86l-70-79a7,7,0,0,0-6.58-2.22,6.72,6.72,0,0,0-1.35-.14H95a10,10,0,0,0-10,10v383a10,10,0,0,0,10,10H405a10,10,0,0,0,10-10V134.77c0-.06,0-.13,0-.19A7,7,0,0,0,413.24,129.86ZM99,437.5V62.5H331v69a10,10,0,0,0,10,10h60v296Zm246-310V74l47.45,53.54Z" fill="#251ac7"></path><path d="M186,169.41l.23.85a7,7,0,0,0,6.12,10h.27a8.2,8.2,0,0,0,8-6.68,10.32,10.32,0,0,0-.3-4.93l-.8-2.9a16.45,16.45,0,0,0-2.38-5.48,7,7,0,0,0-11.48,8C185.71,168.47,185.87,169.05,186,169.41Z" fill="#251ac7"></path><path d="M130.16,249.67H253.48a7,7,0,0,0,7-7V92.1a7,7,0,0,0-7-7H130.16a7,7,0,0,0-7,7V242.67A7,7,0,0,0,130.16,249.67Zm37.23-109.43a6.77,6.77,0,0,0-1.7.22c-.14-3-.13-6.42.62-7.65,1.09-.19,3-.38,4.09-.5a33.81,33.81,0,0,0,4.83-.71,48.44,48.44,0,0,0,8.71-3.51,28.06,28.06,0,0,1,7.61-2.87A35.83,35.83,0,0,1,209,126.48c2.5.89,5.91,2.54,8,5.39a16.12,16.12,0,0,1,2.75,7.1,17.16,17.16,0,0,1,.25,3,7,7,0,0,0-4.6-1.73Zm21.46,63.06c.84.07,1.69.11,2.54.11a32.22,32.22,0,0,0,3.42-.19v1.72a3,3,0,1,1-6,0Zm-14.46-49.06h34v6.39a6.91,6.91,0,0,0,0,1.76v10a17,17,0,0,1-34,0Zm1.8,57.32a17,17,0,0,0,31.28,0c6.26.22,11.07,2,14.26,5.39,5.5,5.81,5.18,14.67,5.13,15.66a6.58,6.58,0,0,0,0,1.33l.24,1.74H153.09A24.7,24.7,0,0,1,176.19,211.56Zm-39-112.46H246.48V235.67h-5.2l-.41-3c.25-7.54-2-17.94-9-25.35-5.54-5.85-13.1-9.1-22.49-9.69a31,31,0,0,0,13-25.21v-8.7l1-1.5a25.59,25.59,0,0,1,2.87-3.79l.33-.31c2.37-2.23,5.05-4.76,6.44-9.47a26.88,26.88,0,0,0,.5-11.92,29.86,29.86,0,0,0-5.35-13.23,30.85,30.85,0,0,0-14.56-10.2,49.88,49.88,0,0,0-24.26-1.9,40,40,0,0,0-11.57,4.11,37,37,0,0,1-6.14,2.55c-.46.09-1.84.24-2.77.34-4.42.46-7.24.81-9.39,2-9.15,5.24-8.14,17.64-7.54,25.05l.08,1c.42,5.26,3,8.87,5.06,11.77a28,28,0,0,1,2.31,3.6,6.6,6.6,0,0,0,.95,1.45v9.13a31,31,0,0,0,13.16,25.33,38.72,38.72,0,0,0-34.46,37.93h-1.93Z" fill="#251ac7"></path><path d="M344.6,290.3H131.74a7,7,0,0,0,0,14H344.6a7,7,0,0,0,0-14Z" fill="#251ac7"></path><path d="M228,344.85a7,7,0,0,0,0-14h-96.3a7,7,0,0,0,0,14Z" fill="#251ac7"></path><path d="M339.54,330.85H258.45a7,7,0,1,0,0,14h81.09a7,7,0,1,0,0-14Z" fill="#251ac7"></path><path d="M251.69,373.08H135.12a7,7,0,0,0,0,14H251.69a7,7,0,0,0,0-14Z" fill="#251ac7"></path></g></svg>