<svg xmlns="http://www.w3.org/2000/svg" height="1227" width="1627" version="1.1" xmlnsXlink="http://www.w3.org/1999/xlink" xmlnsSvgjs="http://svgjs.com/svgjs"><rect fill="#fff" width="1627" height="1227"></rect><g><path d="M1055.15 396.36C1157.71 365.39 1290.56 385.35 1324.28 452.11 1357.32 518.88 1291.93 633.14 1242.37 726.06 1192.82 819.67 1159.09 891.95 1099.89 918.1 1040.7 943.57 955.35 923.61 886.52 929.12 817.68 934.62 766.06 966.29 708.93 970.42 651.8 975.23 588.48 952.52 554.06 907.78 519.64 863.04 514.14 796.27 459.07 709.54 404.01 622.13 300.07 515.44 298.69 428.71 296.63 341.98 397.81 275.91 499.68 306.19 601.55 336.48 703.42 463.13 791.53 485.84 878.94 509.24 951.91 427.33 1055.15 396.36Z" fill="#d7e4ef" opacity="1" stroke-width="4" stroke="none"></path></g><g><path d="M805.17 911.22L765.27 1045.48" stroke="#1f1f1f" stroke-width="4" stroke-linecap="round" stroke-linejoin="round" opacity="1" fill="none"></path><path d="M766.93 889.96L718.02 954.7" stroke="#1f1f1f" stroke-width="4" stroke-linecap="round" stroke-linejoin="round" opacity="1" fill="none"></path></g><g><path d="M874.11 322.87C900.87 304.05 929.09 294.66 959.39 289.13" stroke="#1f1f1f" stroke-width="4" stroke-linecap="round" stroke-linejoin="round" opacity="1" fill="none"></path><path d="M902.67 211.31C894.16 230.82 875.38 276.35 875.38 276.35" stroke="#1f1f1f" stroke-width="4" stroke-linecap="round" stroke-linejoin="round" opacity="1" fill="none"></path><path d="M813.41 217.76C822.04 234.17 832.99 269.52 834.65 285.04" stroke="#1f1f1f" stroke-width="4" stroke-linecap="round" stroke-linejoin="round" opacity="1" fill="none"></path></g><g><path d="M325.64 447.93H809.06C822.87 447.93 834.19 459.12 834.19 473.06V843.33C834.19 857.14 822.99 868.46 809.06 868.46H325.64C311.83 868.46 300.51 857.26 300.51 843.33V473.06C300.51 459.12 311.71 447.93 325.64 447.93Z" fill="#9ed7ff" opacity="1" stroke-width="4" stroke="none"></path><path d="M300.51 550.35H832.88" stroke="#d8e0e5" stroke-width="4" stroke-linecap="round" stroke-linejoin="round" opacity="1" fill="none"></path></g><g><path d="M802.88 347.07L1304.98 347.07C1319.33 347.07 1331.09 358.69 1331.09 373.17V757.76C1331.09 772.11 1319.46 783.86 1304.98 783.86H802.88C788.53 783.86 776.78 772.23 776.78 757.76V373.17C776.78 358.69 788.4 347.07 802.88 347.07Z" fill="#3097ff" opacity="1" stroke-width="4" stroke="none"></path><path d="M776.78 453.45L1329.73 453.45" stroke="#96a7b9" stroke-width="4" stroke-linecap="round" stroke-linejoin="round" opacity="1" fill="none"></path></g><g><path d="M574.19 579.46C573.59 572.34 574.78 563.55 573.23 555 571.45 545.38 566.58 536.11 560.53 528.28 549.13 513.31 515.04 508.8 486.18 521.39 460.41 532.43 461.95 555.59 461.95 579.46L458.75 627.33V650.13 654.64L461.24 689.56C461.24 689.56 461.24 689.68 461.36 689.68L533.8 700.96C533.92 700.96 533.92 700.96 533.92 700.84V647.63 637.06C533.92 636.95 534.04 636.95 534.04 636.95 535.94 637.42 556.49 642.29 567.65 631.96 582.97 618.3 575.49 594.55 574.19 579.46Z" fill="#a66241" opacity="1" stroke-width="4" stroke="none"></path><path d="M513.02 628.63L533.8 647.52C533.92 647.63 534.04 647.52 534.04 647.4V637.06C534.04 637.06 534.04 636.95 533.92 636.95 532.85 636.71 523.83 634.33 513.26 628.39 513.02 628.39 512.9 628.51 513.02 628.63Z" fill="#171717" opacity="0.2" stroke-width="4" stroke="none"></path><path d="M564.09 523.88C552.81 508.8 513.97 498.7 485.11 511.29 459.34 522.34 458.75 555.12 458.75 578.99V627.33C458.75 627.44 458.86 627.44 458.86 627.44 468.84 626.73 478.22 621.74 484.99 614.38V614.26C483.69 612.6 462.55 584.93 479.05 571.15 493.42 559.15 510.88 581.13 512.43 583.26 512.43 583.38 512.55 583.26 512.66 583.26L522.64 560.46C522.64 560.46 522.64 560.34 522.76 560.34L573 555C573.12 555 573.12 554.88 573.12 554.88 572.4 543.72 570.38 532.31 564.09 523.88Z" fill="#17151c" opacity="1" stroke-width="4" stroke="none"></path><path d="M632.14 730.3V730.18C620.62 715.57 602.21 693.95 586.89 678.51 564.21 655.83 538.56 650.84 534.04 650.13 533.92 650.13 533.92 650.13 533.92 650.25 533.8 652.39 532.26 679.7 503.88 679.7 476.32 679.7 459.7 651.91 458.75 650.25 458.75 650.25 458.63 650.13 458.63 650.25 441.88 654.76 426.44 662.36 412.66 672.58 398.29 683.03 371.22 712.01 349.48 750.13V750.25L399.72 788.13C399.72 788.13 399.72 788.13 399.72 788.25L405.54 869.37C405.54 869.49 405.54 869.49 405.66 869.49H581.55C581.67 869.49 581.67 869.37 581.67 869.37L574.9 805.95C574.9 805.83 575.02 805.83 575.14 805.83 578.1 809.99 581.67 813.67 585.35 817.59H585.47L596.75 806.3 632.14 730.3Z" fill="#3097ff" opacity="1" stroke-width="4" stroke="none"></path><path d="M432.26 790.03L419.79 814.86 405.78 869.25C405.78 869.37 405.78 869.37 405.89 869.37H444.61C444.73 869.37 444.73 869.37 444.73 869.25L441.05 774.83C441.05 774.71 440.93 774.71 440.81 774.83L432.26 790.03Z" fill="#161616" opacity="0.2" stroke-width="4" stroke="none"></path><path d="M795.44 634.57C795.44 621.98 741.41 644.67 737.61 646.33 737.49 646.33 737.37 646.33 737.49 646.21 737.96 644.43 740.58 633.26 736.3 632.2 731.55 631.01 718.48 640.51 700.79 662.96 684.04 684.1 646.04 741.46 644.02 744.67 644.02 744.78 643.9 744.78 643.78 744.67 643.19 743.95 640.34 740.39 636.06 734.93 634.87 733.5 633.69 731.96 632.38 730.3 632.38 730.18 632.26 730.3 632.14 730.3L585.59 817.47V817.59C590.1 822.22 596.16 827.45 603.52 832.2 615.75 840.03 631.67 846.69 651.03 846.69 703.88 846.69 734.4 730.18 735.23 727.09 735.23 727.09 735.23 726.97 735.35 726.97 743.19 725.78 748.89 719.37 749.48 718.78H749.6C754.71 720.08 760.17 719.73 764.92 717.59 777.15 712.36 774.66 704.17 774.42 703.34V703.22C784.4 692.05 773.47 684.21 772.17 683.26 772.05 683.26 772.05 683.15 772.17 683.03 773.12 682.31 778.82 677.56 775.61 668.89 773.35 662.72 762.31 657.85 760.41 657.14 760.29 657.14 760.29 657.02 760.41 656.9 763.73 655.59 795.44 642.41 795.44 634.57Z" fill="#a66241" opacity="1" stroke-width="4" stroke="none"></path><path d="M633.92 759.63L643.66 744.9V744.78C643.31 744.31 640.34 740.63 636.06 735.28 635.94 735.16 635.82 735.28 635.82 735.28L633.69 759.51C633.69 759.63 633.92 759.75 633.92 759.63Z" fill="#171717" opacity="0.2" stroke-width="4" stroke="none"></path><path d="M570.38 759.87L575.02 805.35C578.1 809.75 581.79 813.67 585.59 817.59 585.59 817.59 595.09 827.33 603.52 832.2L570.5 759.75C570.5 759.75 570.38 759.75 570.38 759.87Z" fill="#161616" opacity="0.2" stroke-width="4" stroke="none"></path><path d="M643.66 744.67L633.92 759.63" stroke="#171717" stroke-width="4" stroke-linecap="round" stroke-linejoin="round" opacity="1" fill="none"></path><path d="M570.38 759.87L575.02 805.35" stroke="#161616" stroke-width="4" stroke-linecap="round" stroke-linejoin="round" opacity="1" fill="none"></path><path d="M489.74 586.23L498.65 595.02" stroke="#171717" stroke-width="4" stroke-linecap="round" stroke-linejoin="round" opacity="1" fill="none"></path><path d="M533.92 637.18C523.47 634.21 513.02 628.63 513.02 628.63" stroke="#171717" stroke-width="4" stroke-linecap="round" stroke-linejoin="round" opacity="1" fill="none"></path><path d="M545.56 606.42C547.46 609.15 550.55 610.94 553.88 611.17" stroke="#171717" stroke-width="4" stroke-linecap="round" stroke-linejoin="round" opacity="1" fill="none"></path><path d="M576.2 853.93C576.8 849.06 543.07 837.3 512.19 830.3 480.84 823.05 423.47 815.33 419.91 814.86 419.79 814.86 419.79 814.74 419.79 814.74 420.5 813.43 425.97 803.34 432.14 790.15V790.03L349.6 750.25H349.48C338.91 768.78 325.97 793.24 320.03 814.86 302.21 881.25 349.6 884.81 373.35 886 396.99 887.18 458.98 882.55 459.93 882.43 460.76 882.67 512.19 897.87 527.51 897.87 541.64 897.87 541.88 891.82 541.76 890.87 541.76 890.75 541.76 890.75 541.88 890.75 543.42 890.87 558.15 891.34 557.2 881.36 557.2 881.25 557.2 881.25 557.32 881.25 558.86 881.01 577.04 877.68 566.7 869.37 561.12 864.86 533.45 854.05 528.34 851.91 528.22 851.91 528.22 851.67 528.34 851.67 541.88 853.1 575.02 863.31 576.2 853.93Z" fill="#a66241" opacity="1" stroke-width="4" stroke="none"></path><path d="M419.79 814.86L442.71 818.06" stroke="#171717" stroke-width="4" stroke-linecap="round" stroke-linejoin="round" opacity="1" fill="none"></path><path d="M419.79 814.86L441.05 774.83" stroke="#171717" stroke-width="4" stroke-linecap="round" stroke-linejoin="round" opacity="1" fill="none"></path><path d="M541.88 890.63L503.88 877.68" stroke="#171717" stroke-width="4" stroke-linecap="round" stroke-linejoin="round" opacity="1" fill="none"></path><path d="M557.32 881.25L511 861.06" stroke="#171717" stroke-width="4" stroke-linecap="round" stroke-linejoin="round" opacity="1" fill="none"></path><path d="M528.34 851.67L516.82 847.64" stroke="#171717" stroke-width="4" stroke-linecap="round" stroke-linejoin="round" opacity="1" fill="none"></path><path d="M737.37 646.45L730.72 662.6C730.72 662.6 732.62 686.71 723.12 699.77" stroke="#171717" stroke-width="4" stroke-linecap="round" stroke-linejoin="round" opacity="1" fill="none"></path><path d="M772.17 683.26C759.1 691.58 746.99 690.63 744.49 688.01 740.93 684.45 742.12 676.14 754 671.39" stroke="#171717" stroke-width="4" stroke-linecap="round" stroke-linejoin="round" opacity="1" fill="none"></path><path d="M774.42 703.22C767.3 706.78 751.62 710.46 746.87 704.52 742.12 698.58 749.24 691.46 749.24 691.46" stroke="#171717" stroke-width="4" stroke-linecap="round" stroke-linejoin="round" opacity="1" fill="none"></path><path d="M749.48 718.66C745.56 715.69 742.12 711.41 745.09 707.49 745.56 706.78 746.16 706.19 746.87 705.71" stroke="#171717" stroke-width="4" stroke-linecap="round" stroke-linejoin="round" opacity="1" fill="none"></path><path d="M556.96 589.91C557.68 591.7 558.63 594.55 558.15 596.09 557.68 597.04 556.85 597.87 555.78 598.23" stroke="#171717" stroke-width="4" stroke-linecap="round" stroke-linejoin="round" opacity="1" fill="none"></path><path d="M539.98 585.64C541.94 585.64 543.54 584.05 543.54 582.08 543.54 580.1 541.94 578.51 539.98 578.51 538.01 578.51 536.42 580.1 536.42 582.08 536.42 584.05 538.01 585.64 539.98 585.64Z" fill="#17151c" opacity="1" stroke-width="4" stroke="none"></path><path d="M565.52 583.86C567.47 583.86 569.08 582.27 569.08 580.29 569.08 578.32 567.47 576.73 565.52 576.73 563.54 576.73 561.95 578.32 561.95 580.29 561.95 582.27 563.54 583.86 565.52 583.86Z" fill="#17151c" opacity="1" stroke-width="4" stroke="none"></path><path d="M743.31 710.82C743.9 707.49 745.68 706.3 746.99 705 746.99 705 746.99 704.88 746.99 704.76 746.04 704.17 742.36 698.94 748.65 690.98 748.65 690.87 748.65 690.87 748.65 690.75 747.34 690.15 737.01 684.81 746.39 676.02V675.9C745.21 674.83 732.26 663.91 730.72 662.6 730.6 662.6 730.6 662.6 730.48 662.72 730.48 667.82 732.5 687.18 723.12 699.77V699.89C730.48 713.79 742.24 711.17 743.31 710.82 743.31 710.94 743.31 710.94 743.31 710.82Z" fill="#171717" opacity="0.2" stroke-width="4" stroke="none"></path></g><g><path d="M901.22 636.53C887.04 611.35 876.32 605.5 851.05 595.93 841.83 592.38 835.19 589.73 835.19 586.53 835.19 584.5 837.76 583.43 842.9 583.43 849.28 583.43 857.52 585.12 857.88 585.2 857.43 585.12 842.37 579.18 833.24 572.71 827.12 568.63 827.92 563.4 831.91 560.65 828.98 556.84 827.83 550.46 836.69 548.68 833.86 544.43 836.69 539.2 841.83 539.38 845.38 539.46 846.89 540.71 851.14 542.04 860.98 545.67 879.33 552.32 886.42 552.32 897.5 552.41 875.07 533.88 883.94 528.65 893.51 527.14 905.66 535.56 958.31 596.64 958.31 596.64 944.93 607.9 930.65 617.83 916.29 627.75 901.22 636.53 901.22 636.53Z" fill="#f7ae7e" opacity="1" stroke-width="4" stroke="none"></path><path d="M1105.19 548.51C1061.76 555.07 1056.17 527.76 1068.76 495.68 1068.76 495.59 1068.76 495.5 1068.67 495.41 1067.78 494.61 1062.29 489.2 1063.62 484.77 1064.86 480.69 1074.88 480.61 1074.7 480.16 1076.38 473.34 1086.22 438.86 1110.24 430.35 1115.03 428.4 1120.62 432.03 1127.09 432.03 1134.53 432.03 1144.73 430.97 1156.52 437.53 1185.06 453.3 1180.54 482.73 1178.68 503.83 1178.06 511.45 1182.31 540.35 1180.27 558.43 1180.27 558.52 1180.18 558.61 1180.01 558.7L1121.86 564.37H1121.77L1104.66 558.79C1104.57 558.79 1104.48 558.61 1104.48 558.52L1105.37 548.86C1105.55 548.6 1105.37 548.42 1105.19 548.51Z" fill="#f7ae7e" opacity="1" stroke-width="4" stroke="none"></path><path d="M1198.44 784.03L1081.7 783.59C1081.61 783.59 1081.7 783.68 1081.7 783.59L1062.55 692.91C1062.55 692.73 1062.29 692.64 1062.11 692.73 1058.39 696.1 1021.96 727.74 988.18 727.74 945.99 728.19 920.02 666.31 901.31 636.62 901.22 636.53 901.22 636.35 901.4 636.26 904.86 633.87 954.68 599.03 958.13 596.64 958.22 596.55 958.4 596.55 958.49 596.73 976.57 618.53 991.91 638.39 993.68 640.78 993.77 640.87 993.94 640.87 994.03 640.78 1023.64 608.07 1051.3 567.21 1103.24 570.49 1103.42 570.49 1103.51 570.4 1103.51 570.31 1103.68 568.81 1104.39 560.21 1104.57 558.7 1104.57 558.61 1104.66 558.43 1104.84 558.43L1180.09 558.35C1180.27 558.35 1180.36 558.43 1180.36 558.61 1179.74 564.2 1179.12 570.05 1178.76 571.46 1178.76 571.55 1178.76 571.73 1178.94 571.73 1193.92 577.94 1215.73 593.18 1228.49 616.05 1249.32 653.55 1299.58 779.42 1212.27 784.12L1198.44 784.03C1198.53 784.03 1198.35 783.94 1198.44 784.03Z" fill="#32aefe" opacity="1" stroke-width="4" stroke="none"></path><path d="M1081.7 783.59L1062.55 692.64C1062.55 692.55 1062.55 692.46 1062.64 692.37 1064.15 690.96 1081.7 675.35 1086.84 669.95 1087.02 669.77 1087.29 669.86 1087.29 670.12L1097.48 783.59H1081.7C1081.7 783.76 1081.52 783.59 1081.7 783.59Z" fill="#282f34" opacity="0.2" stroke-width="4" stroke="none"></path><path d="M1196.32 763.2L1206.78 708.24C1206.86 707.97 1207.22 707.97 1207.31 708.24 1208.64 723.93 1213.16 745.38 1226.54 761.69 1234.34 771.18 1239.4 773.93 1242.14 774.9 1242.32 774.99 1242.32 775.08 1242.14 775.17 1229.47 783.94 1213.87 784.21 1212.36 784.3L1191.71 783.94C1191.62 783.85 1196.32 763.29 1196.32 763.2Z" fill="#282f34" opacity="0.2" stroke-width="4" stroke="none"></path><path d="M1105.72 548.42C1106.79 548.15 1112.81 546.73 1119.2 544.96 1119.46 544.87 1119.64 545.23 1119.37 545.4L1105.1 556.48C1104.93 556.66 1104.66 556.48 1104.66 556.22L1105.37 548.6C1105.55 548.51 1105.63 548.42 1105.72 548.42Z" fill="#000000" opacity="0.2" stroke-width="4" stroke="none"></path><path d="M969.66 610.38C980.91 624.12 987.47 632.98 993.86 640.96 993.94 641.05 993.94 641.23 993.86 641.32L985.26 651.42C984.73 652.04 984.55 651.95 984.46 651.78L969.3 610.65C969.12 610.38 969.48 610.2 969.66 610.38Z" fill="#282f34" opacity="0.2" stroke-width="4" stroke="none"></path><path d="M1256.15 668C1237 668.44 1217.24 650.27 1219.54 630.5L1218.92 630.59C1199.86 632.27 1179.47 628.46 1167.06 598.59 1167.06 598.5 1166.98 598.5 1166.89 598.41 1121.32 588.31 1122.83 544.69 1130.72 523.15 1130.72 523.07 1130.81 523.07 1130.9 522.98 1132.32 522.45 1148.45 515.8 1153.15 504.27 1157.14 494.52 1151.37 481.32 1138.79 482.11 1129.12 482.11 1118.13 487.52 1116.63 488.32 1116.54 488.41 1116.36 488.32 1116.36 488.23 1115.56 487.34 1111.31 483.27 1108.21 480.43 1108.12 480.34 1108.12 480.25 1108.12 480.16L1116.8 460.4C1116.89 460.13 1116.63 459.95 1116.45 460.04L1098.28 471.12C1098.19 471.21 1098.1 471.21 1098.01 471.12 1090.92 464.83 1084.27 458.8 1083.21 457.91 1083.12 457.82 1083.12 457.74 1083.12 457.65 1088.17 447.54 1097.04 434.69 1110.42 429.9 1125.31 425.03 1140.83 425.91 1158.55 434.96 1188.07 451.53 1187.9 481.67 1185.86 503.92 1185.68 505.78 1185.5 508.26 1185.24 511.19 1185.24 511.37 1185.41 511.54 1185.59 511.45 1207.13 502.06 1239.04 511.01 1252.43 528.92 1279.37 562.87 1258.81 599.56 1256.59 603.29 1256.5 603.47 1256.59 603.64 1256.77 603.64 1284.96 608.87 1297.99 637.59 1279.02 658.16 1272.73 664.72 1264.84 668 1256.15 668Z" fill="#231f20" opacity="1" stroke-width="4" stroke="none"></path><path d="M1205 728.27L1211.12 730.31" stroke="#282f34" stroke-width="4" stroke-linecap="round" stroke-linejoin="round" opacity="1" fill="none"></path><path d="M1062.47 692.55L1086.84 670.04" stroke="#282f34" stroke-width="4" stroke-linecap="round" stroke-linejoin="round" opacity="1" fill="none"></path><path d="M1076.38 513.23C1079.93 513.58 1083.47 512.07 1085.69 509.24" stroke="#000000" stroke-width="4" stroke-linecap="round" stroke-linejoin="round" opacity="1" fill="none"></path><path d="M1105.72 548.42C1110.07 547.62 1114.85 546.47 1119.2 544.96" stroke="#000000" stroke-width="4" stroke-linecap="round" stroke-linejoin="round" opacity="1" fill="none"></path><path d="M1103.51 570.67C1103.51 570.67 1099.07 570.49 1095.88 570.49" stroke="#282f34" stroke-width="4" stroke-linecap="round" stroke-linejoin="round" opacity="1" fill="none"></path><path d="M1126.73 504.01L1135.77 499.84" stroke="#000000" stroke-width="4" stroke-linecap="round" stroke-linejoin="round" opacity="1" fill="none"></path><path d="M1088.35 487.25C1090.21 487.25 1091.72 485.75 1091.72 483.89 1091.72 482.02 1090.21 480.52 1088.35 480.52 1086.49 480.52 1084.98 482.02 1084.98 483.89 1084.98 485.75 1086.49 487.25 1088.35 487.25Z" fill="#231f20" opacity="1" stroke-width="4" stroke="none"></path><path d="M916.91 663.39L977.55 620.13" stroke="#282f34" stroke-width="4" stroke-linecap="round" stroke-linejoin="round" opacity="1" fill="none"></path><path d="M993.86 641.14C989.87 645.84 984.9 651.86 984.9 651.86" stroke="#282f34" stroke-width="4" stroke-linecap="round" stroke-linejoin="round" opacity="1" fill="none"></path><path d="M836.69 548.68C846 553.38 872.24 565.08 872.24 565.08" stroke="#000000" stroke-width="4" stroke-linecap="round" stroke-linejoin="round" opacity="1" fill="none"></path><path d="M831.91 560.65L868.25 576.34" stroke="#000000" stroke-width="4" stroke-linecap="round" stroke-linejoin="round" opacity="1" fill="none"></path><path d="M857.88 585.2L867.36 589.37" stroke="#000000" stroke-width="4" stroke-linecap="round" stroke-linejoin="round" opacity="1" fill="none"></path><path d="M1191.88 782.79L1206.78 708.24" stroke="#282f34" stroke-width="4" stroke-linecap="round" stroke-linejoin="round" opacity="1" fill="none"></path><path d="M1131.25 533.79C1136.54 533.79 1140.83 529.5 1140.83 524.22 1140.83 518.93 1136.54 514.64 1131.25 514.64 1125.96 514.64 1121.68 518.93 1121.68 524.22 1121.68 529.5 1125.96 533.79 1131.25 533.79Z" fill="#9ed7ff" opacity="1" stroke-width="4" stroke="none"></path></g><g><path d="M788.95 428.29C785.71 430.57 781.37 430.57 778.07 428.33 773.81 425.35 772.69 419.42 775.72 415.12L819.24 352.48 834.82 363.25 791.33 425.94C790.64 426.87 789.85 427.65 788.95 428.29Z" fill="#1f1f1f" opacity="1" stroke-width="4" stroke="none"></path><path d="M778.2 428.09C762.98 449.65 734.38 484.14 703.08 475.03 663.9 463.55 676.51 409.32 715.98 433.21 764.9 469.66 727.07 537.63 761.08 555.15 796.99 574.09 830.61 506.09 871.42 494.75 905.31 485.38 929.23 517.84 929.23 517.84" stroke="#202020" stroke-width="4" stroke-linecap="round" opacity="1" fill="none"></path><path d="M844.05 370.42C854.56 363.02 857.08 348.49 849.68 337.99 842.27 327.48 827.75 324.96 817.25 332.36 806.74 339.77 804.22 354.29 811.62 364.79 819.02 375.3 833.55 377.82 844.05 370.42Z" fill="#616161" opacity="1" stroke-width="4" stroke="none"></path></g><g><path d="M971.36 945.19C952.95 944.28 937.29 958.46 936.37 976.86 935.46 995.27 949.64 1010.93 968.04 1011.85 986.45 1012.76 1002.11 998.58 1003.02 980.18 1003.94 961.77 989.76 946.11 971.36 945.19Z" fill="#616161" opacity="1" stroke-width="4" stroke="none"></path><path d="M896.86 873.1C883.22 872.42 871.61 882.93 870.93 896.57 870.25 910.21 880.76 921.82 894.4 922.5 908.04 923.18 919.65 912.67 920.33 899.03 921.01 885.39 910.5 873.78 896.86 873.1Z" fill="#9ed7ff" opacity="1" stroke-width="4" stroke="none"></path></g><g><path d="M635.44 309.38L651.13 337.67 648.04 306.08 680.64 311.33 653.3 293.7 677.6 276.83 647.09 281.1 646.73 253.08 633.13 276.92 606.29 262.37 621.97 286.49 596.59 294.83 622.29 301.86 611.05 329.33 635.44 309.38Z" fill="#3097ff" opacity="1" stroke-width="4" stroke="none"></path></g><g><path d="M222.68 694.24L211.04 677.1 190.3 676.88 203 660.59 196.86 640.9 216.34 647.89 233.06 635.82 232.42 656.57 249.14 668.84 229.25 674.56 222.68 694.24Z" fill="#616161" opacity="1" stroke-width="4" stroke="none"></path></g><g><path d="M1391.22 521.5L1372.95 547.24 1400.99 532.19 1414.36 563 1417.24 530.66 1444.15 542.62 1423.98 518.71 1452.92 499.03 1419.69 504.3 1420.24 467.09 1404.67 501.85 1381.56 481.62 1392.1 509.21 1359.4 515.12 1391.22 521.5Z" fill="#9ed7ff" opacity="1" stroke-width="4" stroke="none"></path></g><g><path d="M1303.32 682.92C1307.39 660.63 1311.35 622.36 1286.95 608.64 1256.36 591.52 1230.68 631.85 1269.07 641.69 1320.82 649.77 1339.76 585.73 1370.94 596.05 1404.14 606.68 1382.65 668.17 1400.23 700.01 1414.85 726.43 1449.14 721.58 1449.14 721.58" stroke="#1f1f1f" stroke-width="4" stroke-linecap="round" opacity="1" fill="none"></path></g><g><path d="M138.89 498.3C158.27 499.22 179.13 499.41 221.96 476.15 296.72 435.54 333.91 429.63 339.18 448.46 343.79 465.07 304.1 490.92 287.49 507.53 252.32 542.7 261.09 566.69 301.33 560.14 341.02 553.68 365.02 530.61 398.24 563.83" stroke="#1f1f1f" stroke-width="4" stroke-linecap="round" stroke-linejoin="round" opacity="1" fill="none"></path></g></svg>