<svg width="415" height="411" viewBox="0 0 415 411" fill="none" xmlns="http://www.w3.org/2000/svg">
<path d="M28.7079 84.0711C58.4896 33.528 115.178 21.1764 136.562 16.5151C209.322 0.658094 316.992 19.7094 368.938 105.853C414.531 181.461 389.148 262.207 385.467 273.283C379.297 291.845 363.848 336.38 320.051 366.545C251.868 413.5 147.943 402.971 112.372 354.492C95.6724 331.726 109.186 321.222 89.7313 280.973C63.6818 227.058 31.3421 228.353 16.2735 185.189C-0.737417 136.456 25.9532 88.7451 28.7079 84.0711Z" fill="#C1FF72"/>
<path d="M139.323 177.747C137.267 196.01 135.502 211.016 134.48 222.295C130.158 269.974 127.993 293.82 128.984 305.162C130.196 319.037 132.697 328.042 128.552 338.813C128.069 340.07 125.391 346.827 125.296 355.826C125.251 360.468 125.258 364.532 127.778 366.323C131.281 368.831 136.156 364.43 144.496 363.357C151.859 362.411 158.321 364.519 162.916 366.678C164.941 346.668 169.295 328.246 171.124 308.204C173.593 281.202 173.459 252.586 175.573 225.553C179.477 237.999 181.679 248.319 182.942 255.209C190.356 295.554 194.444 317.818 189.677 342.077C188.782 346.636 186.541 356.518 191.486 360.893C193.955 363.071 197.433 363.192 206.904 362.074C213.689 361.281 222.645 359.953 233.175 357.623C229.468 319.66 223.254 278.077 213.289 233.77C208.3 211.569 202.765 190.479 196.913 170.551C177.623 172.844 158.613 175.454 139.323 177.747Z" fill="#7ED957"/>
<path d="M175.998 233.935C175.611 233.935 175.3 233.624 175.3 233.237C175.3 233.186 175.287 232.887 175.275 232.424C175.186 229.89 174.919 222.174 175.014 219.088C175.173 213.83 178.62 209.149 183.583 207.435C183.945 207.308 184.339 207.498 184.466 207.86C184.593 208.229 184.396 208.622 184.034 208.749C179.616 210.28 176.544 214.452 176.404 219.126C176.316 222.168 176.582 229.852 176.665 232.373C176.684 232.881 176.69 233.199 176.69 233.237C176.69 233.624 176.379 233.935 175.998 233.935Z" fill="#C1FF72"/>
<path d="M239.706 89.85L230.56 107.257C230.56 107.257 214.038 115.95 226.954 144.407C227.284 145.137 226.878 145.982 226.104 146.172C221.896 147.233 210.153 149.989 208.903 148.211C207.379 146.039 201.641 95.9465 239.706 89.85Z" fill="white"/>
<path d="M238.424 90.7835C227.043 92.9934 218.716 99.5471 213.663 110.267C206.04 126.473 208.674 146.458 209.474 147.823C209.988 148.407 214.806 148.293 225.933 145.499C226.161 145.442 226.269 145.283 226.314 145.194C226.358 145.099 226.415 144.915 226.32 144.699C219.541 129.762 220.925 120.243 223.279 114.883C225.577 109.644 229.151 107.276 230.039 106.755L238.424 90.7835ZM211.334 149.481C208.947 149.481 208.535 148.903 208.331 148.611C207.297 147.137 204.771 127.673 211.638 111.403C216.97 98.766 226.377 91.2788 239.592 89.1641C239.852 89.1197 240.119 89.234 240.271 89.4435C240.424 89.6595 240.443 89.9452 240.322 90.1738L231.176 107.58C231.112 107.707 231.011 107.809 230.884 107.873C230.846 107.892 226.885 110.051 224.511 115.531C221.35 122.834 222.41 132.715 227.589 144.121C227.831 144.654 227.824 145.27 227.57 145.797C227.316 146.324 226.84 146.712 226.275 146.852C218.113 148.896 213.733 149.481 211.334 149.481Z" fill="black"/>
<path d="M200.537 182.865C196.106 157.628 201.882 132.919 197.452 107.682C191.009 105.008 180.79 101.693 167.886 101.166C158.041 100.766 149.555 102.113 142.954 103.802C136.867 105.358 131.541 109.117 128.145 114.413C127.085 116.058 126.095 117.887 125.289 119.888C123.867 123.393 122.636 126.448 121.9 129.051C121.316 131.09 122.09 133.287 123.861 134.449C128.336 137.396 133.382 142.889 137.558 144.502C132.449 159.864 140.738 168.741 138.282 184.675C140.986 186.116 170.4 191.355 200.537 182.865Z" fill="black"/>
<path d="M203.609 88.5038C204.155 87.9322 230.662 108.184 230.662 108.184C230.662 108.184 210.192 136.735 209.931 156.79C209.931 156.79 190.87 153.507 186.097 146.312C186.097 146.312 181.127 111.981 203.609 88.5038Z" fill="white"/>
<path d="M186.769 146.058C190.902 152.021 205.665 155.247 209.258 155.958C209.982 137.294 226.821 112.445 229.703 108.323C220.544 101.338 206.326 90.6946 203.799 89.3102C182.91 111.467 186.452 143.543 186.769 146.058ZM209.931 157.489C209.893 157.489 209.855 157.482 209.817 157.476C209.023 157.342 190.4 154.059 185.519 146.699C185.462 146.61 185.424 146.515 185.411 146.413C185.392 146.324 184.173 137.599 185.728 126.117C187.176 115.506 191.359 100.284 203.101 88.021C203.679 87.4241 203.869 87.2209 217.751 97.5721C224.377 102.506 231.017 107.574 231.08 107.625C231.379 107.853 231.442 108.279 231.226 108.584C231.023 108.87 210.883 137.199 210.629 156.803C210.629 157.006 210.534 157.196 210.375 157.33C210.248 157.431 210.096 157.489 209.931 157.489Z" fill="black"/>
<path d="M199.547 124.727C197.09 122.885 189.086 117.538 186.256 119.208C184.999 119.945 182.65 120.796 180.778 122.72C177.661 125.933 174.132 128.721 170.127 130.709L145.474 142.965C142.249 144.419 138.492 144.064 135.597 142.025L124.299 133.128C124.299 133.128 118.409 162.601 135.42 166.894C150.241 170.634 175.535 141.409 181.774 133.852C182.695 132.741 184.053 132.093 185.494 132.08C188.268 132.055 192.717 131.998 193.898 131.877C201.165 131.147 201.191 125.959 199.547 124.727Z" fill="white"/>
<path d="M124.788 134.398C123.943 139.784 121.271 162.607 135.584 166.22C150.196 169.897 176.176 139.536 181.234 133.414C182.288 132.138 183.837 131.401 185.487 131.388C190 131.344 192.964 131.274 193.828 131.185C198.302 130.741 199.362 128.594 199.616 127.692C199.908 126.632 199.597 125.635 199.128 125.285C195.142 122.294 188.623 118.618 186.604 119.805C186.268 120.002 185.868 120.205 185.443 120.421C184.18 121.056 182.599 121.844 181.279 123.209C177.864 126.727 174.214 129.458 170.431 131.337L145.778 143.587C142.325 145.15 138.276 144.762 135.197 142.597L124.788 134.398ZM138.161 167.916C137.152 167.916 136.181 167.808 135.248 167.567C127.974 165.738 123.664 159.127 122.788 148.458C122.128 140.546 123.556 133.3 123.613 132.995C123.664 132.754 123.829 132.557 124.058 132.474C124.286 132.392 124.54 132.436 124.73 132.582L136.029 141.479C138.676 143.34 142.198 143.676 145.188 142.33L169.816 130.086C173.453 128.283 176.975 125.641 180.276 122.237C181.768 120.707 183.532 119.824 184.821 119.176C185.24 118.96 185.608 118.776 185.9 118.605C189.511 116.477 198.905 123.374 199.965 124.168C200.975 124.93 201.381 126.53 200.956 128.067C200.632 129.242 199.293 132.036 193.967 132.576C192.806 132.69 188.724 132.747 185.5 132.779C184.262 132.792 183.101 133.344 182.307 134.297C175.522 142.514 153.3 167.916 138.161 167.916Z" fill="black"/>
<path d="M221.064 109.181C220.925 109.181 220.791 109.143 220.671 109.066L204.257 97.9087C203.933 97.6928 203.85 97.261 204.066 96.9435C204.282 96.626 204.72 96.5434 205.037 96.7593L221.452 107.911C221.775 108.127 221.851 108.558 221.642 108.876C221.509 109.073 221.287 109.181 221.064 109.181Z" fill="black"/>
<path d="M217.948 113.925C217.815 113.925 217.681 113.886 217.561 113.804L201.191 102.837C200.867 102.621 200.785 102.189 200.994 101.871C201.21 101.547 201.641 101.465 201.959 101.681L218.341 112.648C218.659 112.858 218.741 113.296 218.532 113.613C218.392 113.817 218.176 113.925 217.948 113.925Z" fill="black"/>
<path d="M215.447 118.795C215.32 118.795 215.193 118.764 215.079 118.694L208.515 114.629C208.192 114.433 208.09 114.001 208.293 113.67C208.49 113.347 208.922 113.245 209.245 113.448L215.815 117.506C216.139 117.709 216.24 118.141 216.037 118.465C215.904 118.681 215.675 118.795 215.447 118.795Z" fill="black"/>
<path d="M188.274 71.1289C188.35 70.8178 182.422 64.4991 182.422 64.4991L171.606 65.3564C165.144 65.0643 164.484 77.5175 164.484 77.5175C164.484 77.5175 164.941 78.8638 165.163 80.445C162.916 85.9826 156.239 101.186 149.949 103.529C146.191 104.926 156.01 117.405 164.421 117.582C172.831 117.76 181.914 114.585 182.047 111.403C182.174 108.216 171.796 101.071 171.796 101.071L173.764 96.2259C174.818 96.8609 175.909 97.4198 176.944 97.8135C178.296 98.3215 179.8 97.6039 180.257 96.2322L182.72 89.2531L184.167 89.6151C184.967 89.8119 185.906 89.2341 185.786 88.4212C184.783 81.5881 187.69 73.485 188.274 71.1289Z" fill="white"/>
<path d="M165.182 77.4286C165.309 77.816 165.658 78.9908 165.855 80.3498C165.874 80.4704 165.855 80.5911 165.811 80.7054C163.265 86.9669 156.651 101.776 150.19 104.183C150.05 104.234 149.714 104.354 149.853 105.205C150.456 108.768 157.895 116.744 164.433 116.884C172.862 117.074 181.247 113.88 181.349 111.372C181.425 109.441 175.579 104.52 171.403 101.643C171.13 101.459 171.028 101.109 171.149 100.811L173.116 95.9592C173.199 95.775 173.351 95.6289 173.542 95.5654C173.738 95.4956 173.948 95.521 174.126 95.6226C175.243 96.3021 176.277 96.8165 177.191 97.1594C177.661 97.3372 178.175 97.3182 178.639 97.1022C179.096 96.88 179.438 96.4926 179.597 96.01L182.066 89.0181C182.187 88.6816 182.542 88.4847 182.891 88.5736L184.338 88.9356C184.554 88.9864 184.821 88.9229 184.986 88.7768C185.119 88.6562 185.107 88.5546 185.1 88.5228C184.224 82.5978 186.23 75.7203 187.195 72.4117C187.328 71.9482 187.442 71.5481 187.531 71.2242C186.954 70.4494 184.484 67.7188 182.142 65.223L171.663 66.0486C171.631 66.0486 171.606 66.0486 171.574 66.0486C166.185 65.8136 165.277 76.1648 165.182 77.4286ZM165.087 118.287C164.858 118.287 164.63 118.281 164.408 118.275C157.134 118.122 149.162 109.46 148.482 105.434C148.178 103.65 149.238 103.046 149.707 102.875C155.744 100.627 162.427 85.3095 164.446 80.3625C164.224 78.9463 163.824 77.7525 163.824 77.7398C163.792 77.6572 163.786 77.5683 163.786 77.4794C163.818 76.9523 164.547 64.6515 171.377 64.6515C171.447 64.6515 171.523 64.6515 171.593 64.6578L182.364 63.8069C182.58 63.7878 182.783 63.864 182.929 64.0228C189.118 70.6146 189.061 70.8432 188.953 71.2941C188.858 71.6751 188.712 72.1704 188.528 72.8055C187.595 76.0124 185.646 82.6931 186.478 88.3196C186.56 88.8721 186.357 89.4119 185.919 89.8056C185.418 90.2628 184.662 90.4533 184.002 90.2882L183.171 90.0787L180.917 96.4609C180.638 97.2991 180.041 97.9723 179.235 98.3596C178.429 98.7407 177.528 98.7788 176.696 98.4612C175.903 98.1628 175.033 97.75 174.107 97.2293L172.653 100.817C175.148 102.576 182.872 108.266 182.739 111.429C182.58 115.328 173.123 118.287 165.087 118.287Z" fill="black"/>
<path d="M174.1 97.134C173.96 97.134 173.814 97.0896 173.694 97.0006L170.965 95.032C168.121 92.9745 166.559 90.2565 166.445 87.1702C166.433 86.7828 166.731 86.4653 167.112 86.4462C167.499 86.4208 167.823 86.732 167.835 87.1194C167.93 89.7929 169.263 92.0791 171.783 93.9016L174.506 95.8703C174.817 96.0989 174.887 96.5307 174.665 96.8482C174.525 97.0324 174.316 97.134 174.1 97.134Z" fill="black"/>
<path d="M172.355 78.2541C172.748 78.216 173.066 77.9048 173.116 77.5047C173.148 77.2824 173.174 77.0221 173.186 76.7363C173.37 73.5547 172.069 71.9608 172.888 70.6526C173.339 69.9413 174.164 69.7191 174.633 69.5921C176.976 68.9697 178.124 72.2973 182.568 75.2439C188.09 78.9018 188.502 79.5877 189.797 79.7083C194.672 80.1846 197.255 74.8756 198.525 71.8973C198.88 71.059 200.651 66.5692 197.871 62.7145C196.424 60.7141 194.164 59.4568 191.682 59.1583C190.242 58.9868 188.947 58.0978 188.42 56.7451C188.287 56.3958 188.096 56.0593 187.836 55.7544C185.684 53.1889 180.448 54.7511 178.613 55.2972C177.344 55.6782 175.255 56.4593 172.983 58.1549C171.72 59.1011 169.993 59.171 168.648 58.3581C167.981 57.9517 167.163 57.6278 166.23 57.5643C162.592 57.2976 160.238 61.1015 160.022 61.4635C157.496 65.6929 159.571 71.167 161.145 75.3011C162.275 78.2731 163.627 80.5339 164.598 81.9881L164.624 81.9818C165.855 81.8167 166.667 80.6037 166.325 79.4035C166.122 78.7049 165.988 77.8984 166.014 77.0094C166.033 76.3108 165.938 74.0945 167.651 73.415C168.711 72.9959 171.161 73.7198 171.39 77.3777C171.422 77.8984 171.815 78.3112 172.336 78.2541H172.355Z" fill="black"/>
<path d="M194.456 322.289C199.013 312.903 199.445 303.447 194.456 293.89L198.042 289.59L296.039 292.816L292.662 323.965L197.795 325.058L194.456 322.289Z" fill="white"/>
<path d="M195.319 322.098L198.042 324.359L292.034 323.273L295.265 293.49L198.353 290.302L195.281 293.985C199.845 302.99 199.851 312.446 195.319 322.098ZM197.795 325.756C197.636 325.756 197.477 325.699 197.357 325.597L194.012 322.829C193.764 322.619 193.688 322.276 193.828 321.984C198.537 312.293 198.537 303.212 193.84 294.214C193.707 293.966 193.739 293.661 193.917 293.445L197.503 289.146C197.636 288.981 197.846 288.879 198.061 288.898L296.064 292.124C296.255 292.131 296.439 292.213 296.566 292.359C296.693 292.505 296.75 292.702 296.731 292.893L293.354 324.042C293.316 324.391 293.024 324.658 292.668 324.664L197.801 325.756C197.801 325.756 197.801 325.756 197.795 325.756Z" fill="black"/>
<path d="M374.537 286.161H192.635C190.508 286.161 188.788 287.889 188.788 290.016C188.788 292.143 190.508 293.864 192.635 293.864H276.261C282.386 293.864 287.35 298.83 287.35 304.958V311.195C287.35 317.323 282.386 322.289 276.261 322.289H192.635C190.508 322.289 188.788 324.01 188.788 326.144C188.788 328.271 190.508 329.992 192.635 329.992H374.537C385.822 329.992 394.982 320.835 394.982 309.537V306.616C394.982 295.319 385.822 286.161 374.537 286.161Z" fill="#7ED957"/>
<path d="M249.64 302.825H242.474C242.093 302.825 241.782 302.507 241.782 302.126C241.782 301.739 242.093 301.428 242.474 301.428H249.64C250.021 301.428 250.332 301.739 250.332 302.126C250.332 302.507 250.021 302.825 249.64 302.825Z" fill="#C1FF72"/>
<path d="M237.993 302.825H200.074C199.693 302.825 199.382 302.507 199.382 302.126C199.382 301.739 199.693 301.428 200.074 301.428H237.993C238.38 301.428 238.691 301.739 238.691 302.126C238.691 302.507 238.38 302.825 237.993 302.825Z" fill="#C1FF72"/>
<path d="M245.286 307.461H200.423C200.042 307.461 199.731 307.149 199.731 306.768C199.731 306.381 200.042 306.07 200.423 306.07H245.286C245.673 306.07 245.984 306.381 245.984 306.768C245.984 307.149 245.673 307.461 245.286 307.461Z" fill="#C1FF72"/>
<path d="M256.571 315.78H248.415C248.034 315.78 247.723 315.468 247.723 315.081C247.723 314.7 248.034 314.389 248.415 314.389H256.571C256.952 314.389 257.27 314.7 257.27 315.081C257.27 315.468 256.952 315.78 256.571 315.78Z" fill="#C1FF72"/>
<path d="M244.937 315.78H200.074C199.693 315.78 199.382 315.468 199.382 315.081C199.382 314.7 199.693 314.389 200.074 314.389H244.937C245.324 314.389 245.635 314.7 245.635 315.081C245.635 315.468 245.324 315.78 244.937 315.78Z" fill="#C1FF72"/>
<path d="M185.449 375.975H354.187V334.615H185.449C190.432 348.586 190.572 362.373 185.449 375.975Z" fill="white"/>
<path d="M186.446 375.277H353.489V335.314H186.433C191.073 348.916 191.079 362.354 186.446 375.277ZM354.187 376.668H185.449C185.221 376.668 185.011 376.56 184.878 376.369C184.751 376.179 184.719 375.944 184.802 375.728C189.765 362.538 189.765 348.783 184.795 334.85C184.719 334.634 184.751 334.399 184.884 334.215C185.011 334.031 185.221 333.917 185.449 333.917H354.187C354.568 333.917 354.885 334.234 354.885 334.615V375.975C354.885 376.356 354.568 376.668 354.187 376.668Z" fill="black"/>
<path d="M333.876 336.653H184.288C182.492 336.653 181.032 335.193 181.032 333.396C181.032 331.599 182.492 330.138 184.288 330.138H378.396C386.305 330.138 392.716 336.552 392.716 344.458V366.97C392.716 374.877 386.305 381.291 378.396 381.291H184.288C182.492 381.291 181.032 379.836 181.032 378.033C181.032 376.236 182.492 374.775 184.288 374.775H333.876C339.455 374.775 343.981 370.247 343.981 364.659V346.77C343.981 341.188 339.455 336.653 333.876 336.653Z" fill="#7ED957"/>
<path d="M215.796 345.131H190.883C190.496 345.131 190.185 344.82 190.185 344.439C190.185 344.052 190.496 343.741 190.883 343.741H215.796C216.183 343.741 216.494 344.052 216.494 344.439C216.494 344.82 216.183 345.131 215.796 345.131Z" fill="#C1FF72"/>
<path d="M265.356 345.131H220.068C219.681 345.131 219.37 344.82 219.37 344.439C219.37 344.052 219.681 343.741 220.068 343.741H265.356C265.743 343.741 266.054 344.052 266.054 344.439C266.054 344.82 265.743 345.131 265.356 345.131Z" fill="#C1FF72"/>
<path d="M253.671 350.65H191.403C191.022 350.65 190.711 350.339 190.711 349.958C190.711 349.57 191.022 349.259 191.403 349.259H253.671C254.052 349.259 254.363 349.57 254.363 349.958C254.363 350.339 254.052 350.65 253.671 350.65Z" fill="#C1FF72"/>
<path d="M271.608 350.65H258.939C258.552 350.65 258.241 350.339 258.241 349.958C258.241 349.57 258.552 349.259 258.939 349.259H271.608C271.995 349.259 272.306 349.57 272.306 349.958C272.306 350.339 271.995 350.65 271.608 350.65Z" fill="#C1FF72"/>
<path d="M257.428 362.176H191.403C191.022 362.176 190.711 361.865 190.711 361.477C190.711 361.09 191.022 360.779 191.403 360.779H257.428C257.816 360.779 258.127 361.09 258.127 361.477C258.127 361.865 257.816 362.176 257.428 362.176Z" fill="#C1FF72"/>
<path d="M265.356 362.176H259.624C259.237 362.176 258.926 361.865 258.926 361.477C258.926 361.09 259.237 360.779 259.624 360.779H265.356C265.743 360.779 266.054 361.09 266.054 361.477C266.054 361.865 265.743 362.176 265.356 362.176Z" fill="#C1FF72"/>
<path d="M184.288 375.467C182.879 375.467 181.73 376.617 181.73 378.033C181.73 379.443 182.879 380.592 184.288 380.592H378.396C385.911 380.592 392.017 374.483 392.017 366.97V344.458C392.017 336.946 385.911 330.83 378.396 330.83H184.288C182.879 330.83 181.73 331.986 181.73 333.396C181.73 334.806 182.879 335.961 184.288 335.961H333.876C339.836 335.961 344.685 340.807 344.685 346.77V364.659C344.685 370.622 339.836 375.467 333.876 375.467H184.288ZM378.396 381.989H184.288C182.111 381.989 180.34 380.211 180.34 378.033C180.34 375.855 182.111 374.077 184.288 374.077H333.876C339.062 374.077 343.289 369.854 343.289 364.659V346.77C343.289 341.575 339.062 337.352 333.876 337.352H184.288C182.111 337.352 180.34 335.574 180.34 333.396C180.34 331.218 182.111 329.439 184.288 329.439H378.396C386.679 329.439 393.414 336.177 393.414 344.458V366.97C393.414 375.251 386.679 381.989 378.396 381.989Z" fill="#7ED957"/>
<path d="M284.462 313.424C280.78 311.353 276.419 311.671 272.973 314.205C270.529 316.015 266.657 317.964 260.589 319.418C256.451 320.409 253.632 321.781 251.728 323.235C248.504 325.699 250.072 331.389 253.963 331.389H285.972L287.356 313.411L284.462 313.424Z" fill="#7ED957"/>
<path d="M279.352 312.769C277.27 312.769 275.188 313.443 273.385 314.77C270.313 317.031 266.06 318.828 260.754 320.098C257.104 320.968 254.216 322.213 252.153 323.788C250.643 324.943 250.446 326.88 250.922 328.296C251.316 329.452 252.325 330.697 253.962 330.697H285.331L286.607 314.109L284.284 314.116L284.125 314.027C282.627 313.189 280.989 312.769 279.352 312.769ZM286.62 332.088H253.962C251.976 332.088 250.306 330.805 249.608 328.741C248.967 326.855 249.246 324.251 251.303 322.683C253.524 320.987 256.597 319.66 260.424 318.745C265.559 317.513 269.64 315.799 272.567 313.646C276.178 310.985 280.786 310.642 284.639 312.725L288.111 312.712L286.62 332.088Z" fill="black"/>
<path d="M261.516 328.373H254.381C254 328.373 253.683 328.061 253.683 327.674C253.683 327.293 254 326.982 254.381 326.982H261.516C261.903 326.982 262.214 327.293 262.214 327.674C262.214 328.061 261.903 328.373 261.516 328.373Z" fill="#7ED957"/>
<path d="M300.165 313.417C296.483 311.353 292.123 311.671 288.676 314.205C286.226 316.008 282.361 317.964 276.292 319.418C268.263 321.343 265.223 324.67 264.118 327.331C263.331 329.223 264.55 331.389 266.397 331.389H299.93C302.501 331.389 304.418 328.703 303.865 325.864L301.625 314.236L300.165 313.417Z" fill="#7ED957"/>
<path d="M295.055 312.769C292.973 312.769 290.891 313.443 289.089 314.77C286.01 317.031 281.758 318.828 276.451 320.098C268.574 321.984 265.75 325.223 264.759 327.598C264.448 328.347 264.525 329.223 264.969 329.878C265.312 330.398 265.832 330.697 266.397 330.697H299.924C300.85 330.697 301.707 330.271 302.342 329.503C303.11 328.563 303.427 327.255 303.186 325.997L300.996 314.687L299.822 314.027C298.324 313.189 296.687 312.769 295.055 312.769ZM299.924 332.088H266.397C265.362 332.088 264.417 331.567 263.807 330.652C263.115 329.611 262.988 328.239 263.471 327.064C264.582 324.384 267.679 320.765 276.127 318.745C281.256 317.513 285.337 315.799 288.264 313.646C291.926 310.953 296.617 310.629 300.501 312.814L302.247 313.792L304.551 325.737C304.875 327.395 304.449 329.135 303.415 330.386C302.507 331.484 301.269 332.088 299.924 332.088Z" fill="black"/>
<path d="M298.121 328.373H269.355C268.974 328.373 268.663 328.061 268.663 327.674C268.663 327.293 268.974 326.982 269.355 326.982H298.121C298.502 326.982 298.813 327.293 298.813 327.674C298.813 328.061 298.502 328.373 298.121 328.373Z" fill="#7ED957"/>
<path d="M386.87 261.229C386.87 261.229 383.125 256.511 364.724 243.493C346.323 230.468 311.806 221.831 301.206 222.327C286.728 223 287.064 240.914 287.064 251.628C287.064 267.288 272.027 314.897 272.027 314.897C274.528 316.694 281.777 318.218 291.52 319.076C291.52 319.076 319.379 287.495 315.843 257.184C315.843 257.184 329.039 279.442 346.177 285.488C349.122 286.53 358.776 286.326 367.238 285.952C376.251 285.545 383.804 279.017 385.556 270.152C386.057 267.593 386.514 264.633 386.87 261.229Z" fill="black"/>
<path d="M311.812 246.071C311.812 246.071 321.683 289.362 304.976 319.076H290.124L311.812 246.071Z" fill="black"/>
<path d="M295.113 316.878C295.037 316.878 294.954 316.866 294.878 316.84C294.516 316.707 294.332 316.307 294.465 315.945C297.702 307.003 303.663 289.178 307.103 270.298C307.173 269.917 307.534 269.669 307.915 269.739C308.29 269.809 308.544 270.171 308.467 270.545C305.015 289.527 299.029 307.435 295.773 316.421C295.665 316.707 295.398 316.878 295.113 316.878Z" fill="#7ED957"/>
<path d="M372.772 129.648C377.329 133.179 374.835 136.405 380.789 144.654C385.168 150.706 388.774 152.097 388.786 156.155C388.799 159.813 385.886 162.543 383.962 164.341C375.228 172.514 362.807 172.082 355.177 171.821C349.014 171.612 340.547 171.32 339.264 167.497C338.001 163.725 345.193 160.861 345.586 153.323C345.904 147.258 341.429 145.708 342.235 140.323C343.289 133.344 351.75 129.521 353.108 128.911C358.548 126.454 367.161 125.304 372.772 129.648Z" fill="black"/>
<path d="M364.159 128.061C364.159 128.061 363.873 116.198 373.585 117.582C383.296 118.967 376.244 130.105 369.491 132.138C362.737 134.176 364.159 128.061 364.159 128.061Z" fill="black"/>
<path d="M374.587 163.718C376.187 163.845 377.723 164.442 378.967 165.458C382.185 168.081 387.891 173.758 390.246 182.439C394.632 198.658 397.254 243.054 388.621 265.128C388.018 266.659 386.184 267.269 384.8 266.386L384.794 266.38C371.566 257.324 381.855 251.818 347.668 234.577C349.991 215.538 337.982 197.23 343.028 184.433C344.952 179.55 348.043 172.971 352.308 168.875C358.871 162.588 369.979 163.369 374.587 163.718Z" fill="#7ED957"/>
<path d="M327.249 181.417L322.838 169.821L317.569 169.637L307.052 183.106L306.633 184.789L319.842 209.454L336.167 211.391L335.748 200.113L331.375 181.334L327.249 181.417Z" fill="#7ED957"/>
<path d="M322.838 169.827L315.125 180.915L327.331 181.169L322.838 169.827Z" fill="white"/>
<path d="M332.047 184.389C331.743 184.389 331.464 184.192 331.375 183.887L330.848 182.027L313.018 181.868C312.637 181.862 312.326 181.544 312.333 181.163C312.333 180.776 312.644 180.471 313.024 180.471C313.031 180.471 313.031 180.471 313.031 180.471L331.381 180.636C331.686 180.642 331.959 180.852 332.041 181.144L332.714 183.506C332.822 183.875 332.606 184.256 332.238 184.364C332.168 184.383 332.105 184.389 332.047 184.389Z" fill="black"/>
<path d="M336.929 212.09C336.903 212.09 336.872 212.09 336.846 212.083L319.766 210.146C319.531 210.121 319.334 209.981 319.226 209.778L306.468 185.373C305.966 184.408 306.068 183.233 306.734 182.376L318.198 167.605C318.433 167.3 318.871 167.249 319.175 167.484C319.48 167.719 319.531 168.157 319.296 168.462L307.833 183.227C307.502 183.659 307.445 184.249 307.699 184.726L320.286 208.806L337.005 210.699C337.386 210.743 337.659 211.093 337.614 211.474C337.576 211.829 337.278 212.09 336.929 212.09Z" fill="black"/>
<path d="M328.239 186.015C328.087 186.015 327.934 185.964 327.807 185.869C327.509 185.627 327.452 185.189 327.693 184.891L330.829 180.903C331.064 180.604 331.502 180.547 331.8 180.788C332.105 181.03 332.155 181.461 331.921 181.766L328.785 185.748C328.645 185.926 328.442 186.015 328.239 186.015Z" fill="black"/>
<path d="M383.829 200.475C383.829 200.475 375.146 202.901 367.39 198.849L367.225 211.982C367.225 211.982 347.827 205.968 342.781 202.431C337.735 198.893 341.493 186.555 332.041 183.697C332.041 183.697 334.066 189.419 333.222 190.092C332.384 190.771 329.858 191.101 326.995 189.253C324.133 187.399 318.915 184.872 315.38 185.716C311.844 186.555 317.322 200.164 325.815 203.059C336.599 206.736 355.615 231.008 371.046 235.205C374.822 236.234 378.764 234.45 380.44 230.906C381.36 228.975 382.173 226.334 382.534 222.758C383.493 213.442 383.829 200.475 383.829 200.475Z" fill="white"/>
<path d="M316.922 186.237C316.439 186.237 315.976 186.288 315.544 186.389C315.214 186.472 315.024 186.853 314.992 187.532C314.821 191.178 319.48 200.157 326.043 202.399C330.924 204.063 337.424 209.816 344.31 215.906C352.956 223.558 362.756 232.227 371.23 234.532C374.682 235.472 378.294 233.821 379.817 230.607C380.846 228.429 381.531 225.768 381.849 222.688C382.642 214.909 383.01 204.463 383.105 201.357C380.763 201.846 374.295 202.774 368.075 199.954L367.916 211.994C367.916 212.21 367.808 212.413 367.631 212.547C367.453 212.674 367.224 212.712 367.015 212.648C366.221 212.401 347.465 206.558 342.381 203.002C340.077 201.383 339.461 198.284 338.807 194.994C338.001 190.949 337.17 186.777 333.177 184.872C334.739 189.768 333.939 190.409 333.66 190.631C332.657 191.438 329.858 191.927 326.62 189.831C323.891 188.066 319.949 186.237 316.922 186.237ZM373.178 236.183C372.41 236.183 371.636 236.088 370.861 235.872C362.07 233.484 352.149 224.702 343.39 216.954C336.611 210.959 330.213 205.295 325.598 203.713C318.337 201.243 313.412 191.565 313.602 187.469C313.691 185.665 314.656 185.17 315.221 185.037C319.778 183.951 326.144 187.869 327.376 188.663C329.832 190.257 332.009 190.066 332.72 189.596C332.885 188.93 332.181 186.173 331.387 183.919C331.305 183.678 331.362 183.405 331.546 183.208C331.724 183.024 331.997 182.947 332.244 183.024C338.204 184.827 339.252 190.085 340.172 194.721C340.769 197.725 341.334 200.564 343.181 201.859C347.471 204.863 362.686 209.81 366.539 211.035L366.698 198.836C366.698 198.595 366.824 198.373 367.034 198.252C367.243 198.125 367.497 198.119 367.713 198.233C375.14 202.113 383.556 199.827 383.639 199.801C383.854 199.744 384.083 199.789 384.261 199.929C384.432 200.062 384.534 200.271 384.527 200.494C384.521 200.621 384.178 213.595 383.232 222.828C382.902 226.067 382.172 228.887 381.074 231.204C379.602 234.303 376.491 236.183 373.178 236.183Z" fill="black"/>
<path d="M347.732 153.177C347.37 152.611 349.065 149.563 349.122 148.445C349.179 147.334 348.309 146.401 347.948 145.238C347.579 144.07 347.986 141.987 347.986 141.987C348.487 128.054 363.657 131.363 363.657 131.363C367.142 132.417 369.198 136.329 369.865 138.932C371.166 143.975 368.773 150.071 368.773 150.071C368.875 150.3 371.363 166.62 371.471 166.83C373.045 169.859 362.483 171.84 359.157 168.792C358.033 167.757 359.468 160.181 359.157 160.168C357.913 160.137 356.39 161.477 354.822 161.057C352.505 160.441 350.766 154.65 350.436 154.218C350.277 154.015 349.738 153.894 349.179 153.767C348.563 153.627 347.916 153.475 347.732 153.177Z" fill="white"/>
<path d="M359.113 159.476C359.132 159.476 359.151 159.476 359.176 159.476C359.367 159.483 359.57 159.572 359.697 159.724C359.976 160.041 359.944 160.34 359.735 162.283C359.576 163.757 359.157 167.681 359.64 168.291C361.906 170.374 368.348 169.758 370.417 168.176C371.109 167.643 370.938 167.313 370.855 167.148C370.76 166.976 370.741 166.938 369.357 158.111C368.812 154.625 368.189 150.675 368.101 150.268C368.056 150.122 368.063 149.963 368.12 149.817C368.145 149.76 370.417 143.867 369.192 139.11C368.64 136.964 366.812 133.065 363.486 132.036C363.023 131.941 356.396 130.683 352.207 133.948C349.998 135.662 348.817 138.38 348.684 142.013C348.684 142.051 348.678 142.089 348.671 142.121C348.57 142.654 348.354 144.21 348.608 145.029C348.729 145.416 348.919 145.778 349.122 146.166C349.484 146.877 349.865 147.607 349.814 148.484C349.782 149.1 349.42 150.008 349.033 150.973C348.798 151.57 348.456 152.427 348.386 152.821C348.614 152.929 349.09 153.037 349.338 153.094C350.106 153.266 350.684 153.399 350.988 153.799C351.109 153.958 351.21 154.205 351.483 154.898C352.042 156.288 353.527 159.991 354.993 160.384C355.692 160.569 356.434 160.276 357.221 159.965C357.837 159.724 358.472 159.476 359.113 159.476ZM364.502 171.028C362.242 171.028 360.014 170.526 358.688 169.307C357.831 168.519 357.9 166.367 358.351 162.137C358.396 161.743 358.44 161.331 358.472 160.988C358.237 161.064 357.989 161.166 357.729 161.267C356.815 161.623 355.774 162.036 354.638 161.731C352.492 161.159 350.995 157.419 350.195 155.412C350.081 155.139 349.96 154.834 349.896 154.682C349.725 154.612 349.338 154.517 349.065 154.459C348.265 154.275 347.484 154.097 347.142 153.551C346.774 152.967 347.091 152.091 347.745 150.459C348.037 149.716 348.405 148.795 348.424 148.407C348.449 147.912 348.189 147.398 347.884 146.807C347.669 146.382 347.44 145.944 347.281 145.442C346.9 144.216 347.218 142.311 347.294 141.911C347.453 137.866 348.817 134.818 351.356 132.843C356.199 129.077 363.499 130.614 363.803 130.683C363.823 130.683 363.842 130.69 363.861 130.696C367.796 131.884 369.91 136.329 370.538 138.761C371.763 143.511 369.903 149.011 369.491 150.128C369.599 150.713 369.878 152.408 370.735 157.895C371.3 161.508 371.998 165.973 372.125 166.589C372.575 167.535 372.264 168.513 371.262 169.281C369.897 170.329 367.174 171.028 364.502 171.028Z" fill="black"/>
<path d="M346.126 134.284C347.65 132.741 349.655 130.804 355.717 129.953C360.763 129.242 358.211 128.823 362.026 129.451C363.099 129.629 365.016 129.947 366.907 131.331C369.707 133.389 370.754 136.265 371.306 138.412C372.385 142.603 371.033 147.493 370.424 149.347C370.271 149.798 369.827 150.084 369.351 150.046C368.082 149.944 366.958 149.773 365.949 149.557C365.473 149.455 365.206 148.954 365.39 148.503C365.435 148.376 365.479 148.249 365.517 148.115C366.025 146.35 365.175 144.559 363.626 144.115C362.077 143.676 360.42 144.75 359.913 146.521C359.881 146.642 359.855 146.769 359.83 146.89C357.602 145.2 356.46 143.295 354.403 142.267C354.156 142.146 353.076 141.651 351.426 141.593C347.846 141.46 346.653 143.581 344.965 143.175C342.007 142.457 343.384 137.066 346.126 134.284Z" fill="black"/>
<path d="M358.789 160.867C358.497 160.867 358.224 160.676 358.129 160.378C358.015 160.016 358.218 159.622 358.586 159.508C363.321 158.016 364.057 155.069 364.083 154.942C364.172 154.567 364.54 154.339 364.914 154.415C365.289 154.504 365.524 154.872 365.447 155.241C365.409 155.399 364.552 159.089 359.005 160.835C358.935 160.854 358.859 160.867 358.789 160.867Z" fill="black"/>
<path d="M27.0195 388.245H105.682C111.255 388.245 115.774 383.723 115.774 378.141V322.124C115.774 316.548 111.255 312.027 105.682 312.027H27.0195C21.4466 312.027 16.9272 316.548 16.9272 322.124V378.141C16.9272 383.723 21.4466 388.245 27.0195 388.245Z" fill="#7ED957"/>
<path d="M18.6981 324.689H113.94C115.692 324.689 117.114 323.267 117.114 321.52V315.176C117.114 313.43 115.692 312.008 113.94 312.008H18.6981C16.9462 312.008 15.5308 313.43 15.5308 315.176V321.52C15.5308 323.267 16.9462 324.689 18.6981 324.689Z" fill="#7ED957"/>
<path d="M114.728 325.388H17.9115C16.2167 325.388 14.833 323.908 14.833 322.092V314.605C14.833 312.789 16.2167 311.309 17.9115 311.309H77.4813C77.8621 311.309 78.1732 311.62 78.1732 312.007C78.1732 312.388 77.8621 312.706 77.4813 312.706H17.9115C16.9848 312.706 16.2231 313.557 16.2231 314.605V322.092C16.2231 323.14 16.9848 323.991 17.9115 323.991H114.728C115.115 323.991 115.426 324.308 115.426 324.689C115.426 325.077 115.115 325.388 114.728 325.388Z" fill="white"/>
<path d="M52.1426 386.784C52.1363 386.784 52.1363 386.784 52.1299 386.784C51.7491 386.778 51.4381 386.46 51.4444 386.073L52.3775 326.963C52.3838 326.582 52.6885 326.277 53.0694 326.277C53.0757 326.277 53.0757 326.277 53.082 326.277C53.4692 326.283 53.7739 326.601 53.7676 326.988L52.8408 386.098C52.8282 386.479 52.5235 386.784 52.1426 386.784Z" fill="white"/>
<path d="M109.897 376.16C110.849 375.201 116.352 358.067 116.352 358.067L127.232 365.834L115.305 381.862L109.897 376.16Z" fill="white"/>
<path d="M110.76 376.058L115.241 380.783L126.248 365.986L116.727 359.191C115.324 363.535 112.074 373.423 110.76 376.058ZM115.305 382.561C115.114 382.561 114.937 382.478 114.803 382.345L109.395 376.642C109.142 376.376 109.142 375.956 109.395 375.683C110.03 374.858 113.109 365.891 115.692 357.858C115.762 357.648 115.927 357.477 116.136 357.407C116.346 357.337 116.581 357.375 116.758 357.502L127.638 365.269C127.784 365.377 127.885 365.542 127.917 365.726C127.949 365.91 127.898 366.101 127.79 366.247L115.863 382.281C115.743 382.44 115.552 382.548 115.349 382.561C115.337 382.561 115.324 382.561 115.305 382.561Z" fill="black"/>
<path d="M129.497 397.821L122.261 397.776C117.482 397.745 113.032 395.319 110.417 391.305L103.27 379.976C101.29 376.845 102.401 372.699 105.663 370.959C108.653 369.371 111.776 367.828 112.512 367.898C113.997 368.037 114.6 375.08 114.6 375.08L121.043 375.328C121.043 375.328 124.223 388.568 127.028 390.08C129.066 391.172 130.494 392.785 131.452 394.252C132.455 395.795 131.332 397.827 129.497 397.821Z" fill="black"/>
<path d="M128.768 395.687C128.736 395.687 128.698 395.687 128.666 395.681L118.771 394.189C116.34 393.827 114.22 392.404 112.957 390.289L104.216 375.683C104.019 375.353 104.127 374.921 104.451 374.724C104.781 374.528 105.213 374.636 105.41 374.966L114.15 389.578C115.197 391.331 116.962 392.512 118.98 392.817L128.876 394.309C129.25 394.36 129.517 394.716 129.46 395.097C129.402 395.44 129.11 395.687 128.768 395.687Z" fill="white"/>
<path d="M116.562 384.701C116.251 384.701 115.971 384.498 115.889 384.193C115.787 383.818 116.003 383.437 116.378 383.336L121.887 381.831C122.262 381.729 122.642 381.951 122.744 382.32C122.846 382.694 122.623 383.075 122.255 383.177L116.739 384.676C116.682 384.695 116.619 384.701 116.562 384.701Z" fill="white"/>
<path d="M119.431 387.533C119.113 387.533 118.834 387.324 118.752 387C118.663 386.631 118.891 386.257 119.266 386.162L122.96 385.26C123.334 385.165 123.709 385.393 123.804 385.768C123.893 386.142 123.664 386.517 123.29 386.612L119.596 387.514C119.539 387.527 119.482 387.533 119.431 387.533Z" fill="white"/>
<path d="M80.1725 284.078C80.1725 284.078 137.876 277.359 155.033 292.219C172.196 307.08 127.949 370.984 127.949 370.984L113.959 360.601L127.232 315.437L73.8887 300.278L80.1725 284.078Z" fill="#7ED957"/>
<path d="M155.388 199.636L140.351 207.759C140.351 207.759 131.141 231.801 117.945 233.249C104.755 234.697 91.7115 216.44 91.7115 216.44L82.9521 235.186C82.9521 235.186 95.8119 255.076 116.2 251.869C136.587 248.662 142.147 218.021 142.147 218.021C142.135 218.04 146.971 218.497 148.793 213.785C150.342 209.778 149.694 207.416 149.694 207.416C149.694 207.416 156.943 203.548 155.388 199.636Z" fill="white"/>
<path d="M83.7521 235.116C85.5039 237.618 97.7924 254.06 116.092 251.183C135.762 248.09 141.405 218.199 141.462 217.894C141.513 217.608 141.741 217.38 142.033 217.335C142.11 217.322 142.192 217.322 142.268 217.335C142.535 217.354 146.572 217.602 148.146 213.538C149.58 209.829 149.028 207.619 149.022 207.6C148.946 207.282 149.085 206.952 149.371 206.8C151.053 205.904 154.969 203.212 154.906 200.691L140.91 208.248C139.844 210.94 130.913 232.525 118.021 233.942C117.488 233.999 116.955 234.024 116.428 234.024C105.181 234.03 94.6505 221.418 91.8513 217.792L83.7521 235.116ZM111.814 252.91C93.8063 252.91 82.4889 235.751 82.3683 235.561C82.2414 235.364 82.2224 235.11 82.3239 234.888L91.0769 216.148C91.1848 215.925 91.4006 215.773 91.6482 215.748C91.8894 215.722 92.1306 215.836 92.2765 216.04C92.4035 216.217 105.244 233.942 117.875 232.557C130.494 231.173 139.615 207.74 139.704 207.505C139.761 207.352 139.875 207.219 140.021 207.143L155.052 199.027C155.229 198.932 155.439 198.912 155.623 198.982C155.807 199.052 155.959 199.198 156.036 199.382C157.572 203.25 152.107 206.812 150.469 207.784C150.59 208.749 150.64 210.94 149.441 214.039C148.082 217.557 145.188 218.446 143.576 218.662C143.227 218.713 142.941 218.739 142.706 218.745C142.294 220.72 140.745 227.286 137.444 234.049C132.189 244.807 124.877 251.208 116.308 252.555C114.765 252.802 113.267 252.91 111.814 252.91Z" fill="black"/>
<path d="M141.716 216.16C141.418 216.16 141.145 215.963 141.049 215.665C140.941 215.297 141.145 214.909 141.513 214.795C141.532 214.789 143.899 214.027 144.16 212.16C144.356 210.699 145.194 209.6 145.867 208.934C146.305 208.495 146.591 207.936 146.679 207.327L142.604 208.959C142.243 209.099 141.836 208.927 141.697 208.565C141.557 208.21 141.729 207.803 142.084 207.663L147.156 205.644C147.371 205.555 147.613 205.58 147.803 205.714C147.993 205.841 148.108 206.057 148.108 206.285V206.87C148.108 208.025 147.663 209.111 146.845 209.924C146.33 210.432 145.683 211.27 145.537 212.344C145.156 215.1 142.052 216.084 141.919 216.129C141.856 216.148 141.786 216.16 141.716 216.16Z" fill="black"/>
<path d="M22.583 247.97C22.583 247.97 23.7382 236.952 24.4745 229.655C26.0994 213.461 44.4813 208.114 44.4813 208.114L44.5004 208.222C44.5956 208.197 44.6845 208.171 44.7797 208.146C51.3936 206.59 54.1483 206.571 78.1794 207.441C78.6999 207.46 79.233 207.536 79.7662 207.663C90.8931 208.933 103.518 224.841 103.518 224.841C115.616 229.776 126.165 226.086 135.82 217.424L141.183 222.587C135.191 252.529 116.797 259.546 87.5925 246.585C87.7067 255.92 89.7887 266.392 96.2947 275.734C98.4274 278.801 101.328 282.16 105.314 285.386C103.074 287.196 92.7529 286.168 88.0812 287.552C80.3311 289.857 81.6196 288.162 75.3739 288.352C58.8454 288.841 54.434 309.855 43.7577 307.537C40.9078 306.921 37.1311 304.698 33.5893 297.236C31.5772 291.051 29.7936 283.786 28.7971 275.575C27.5784 265.478 27.8196 256.155 28.8098 247.893L22.583 247.97Z" fill="black"/>
<path d="M47.0583 252.39C43.2816 278.414 29.6158 283.303 18.6603 278.414C8.9298 269.675 15.5437 241.86 23.4271 230.538C24.2015 233.091 31.2344 241.46 30.9741 247.951C30.5933 257.152 32.561 261.064 37.1945 251.793L47.0583 252.39Z" fill="black"/>
<path d="M114.493 245.779C117.946 247.233 120.91 249.341 123.315 251.907C125.08 253.793 127.803 254.422 130.228 253.406C138.797 249.811 148.635 249.697 157.483 253.92C174.38 261.979 178.125 281.697 169.74 299.3C161.355 316.897 144.014 325.718 127.117 317.659C120.351 314.433 115.191 309.163 111.973 302.876C110.614 300.227 107.853 298.697 104.908 298.938C100.478 299.3 95.9393 298.538 91.6929 296.512C78.1921 290.079 70.7149 276.191 79.817 259.343C91.2359 238.196 101.62 240.368 114.493 245.779Z" fill="black"/>
<path d="M114.384 242.324C117.837 243.778 120.795 245.887 123.201 248.452C124.972 250.338 127.695 250.967 130.119 249.951C138.682 246.363 148.52 246.242 157.375 250.465C174.272 258.524 178.01 278.242 169.625 295.846C161.24 313.449 143.906 322.263 127.009 314.205C120.243 310.979 115.076 305.714 111.858 299.421C110.5 296.773 107.745 295.249 104.793 295.484C100.369 295.846 95.831 295.09 91.5783 293.064C78.0839 286.625 70.6067 272.743 79.7088 255.889C91.1277 234.742 101.506 236.914 114.384 242.324Z" fill="white"/>
<path d="M98.9287 269.745L103.289 260.404L33.094 227.642L28.7334 236.99L98.9287 269.745Z" fill="#7ED957"/>
<path d="M36.7499 229.471L31.9513 224.219L14.4136 219.196C10.4973 221.012 9.2088 224.365 9.74832 228.798L25.4707 238.78L32.3829 238.292L36.7499 229.471Z" fill="#7ED957"/>
<path d="M12.1797 232.97C12.5479 232.532 12.4908 231.884 12.0528 231.522L11.9385 231.427C11.5069 231.058 10.8595 231.115 10.4977 231.554C10.1296 231.985 10.1867 232.633 10.6183 232.995L10.7326 233.097C11.1705 233.459 11.8179 233.402 12.1797 232.97Z" fill="#7ED957"/>
<path d="M11.0371 231.884L11.6401 232.398L14.0331 229.56L13.4237 229.045L11.0371 231.884Z" fill="#7ED957"/>
<path d="M16.0893 235.923C16.4575 235.491 16.4004 234.843 15.9624 234.475L15.8482 234.386C15.4165 234.018 14.7691 234.075 14.4073 234.513C14.0392 234.945 14.0963 235.593 14.5342 235.955L14.6485 236.05C15.0801 236.412 15.7276 236.361 16.0893 235.923Z" fill="#7ED957"/>
<path d="M14.9468 234.843L15.5498 235.351L17.9427 232.519L17.3334 232.005L14.9468 234.843Z" fill="#7ED957"/>
<path d="M20.3994 239.441C20.7612 239.009 20.7041 238.361 20.2725 237.993L20.1519 237.898C19.7202 237.536 19.0728 237.593 18.711 238.025C18.3429 238.457 18.4 239.111 18.838 239.473L18.9522 239.568C19.3838 239.93 20.0313 239.873 20.3994 239.441Z" fill="#7ED957"/>
<path d="M19.2505 238.355L19.8535 238.869L22.2464 236.031L21.6371 235.523L19.2505 238.355Z" fill="#7ED957"/>
<path d="M19.587 217.481C19.3839 218.015 18.7936 218.281 18.2604 218.078L18.1271 218.021C17.594 217.818 17.3274 217.227 17.5305 216.694C17.7336 216.167 18.3303 215.9 18.8571 216.103L18.9967 216.16C19.5236 216.357 19.7901 216.954 19.587 217.481Z" fill="#7ED957"/>
<path d="M18.0825 217.005L18.8251 217.291L17.5112 220.758L16.7686 220.472L18.0825 217.005Z" fill="#7ED957"/>
<path d="M24.6203 219.094C24.4172 219.621 23.8269 219.888 23.2937 219.685L23.1541 219.628C22.6272 219.431 22.3607 218.834 22.5638 218.307C22.7669 217.773 23.3572 217.513 23.8904 217.71L24.03 217.767C24.5568 217.97 24.8234 218.561 24.6203 219.094Z" fill="#7ED957"/>
<path d="M23.1161 218.618L23.8588 218.897L22.5449 222.365L21.8022 222.085L23.1161 218.618Z" fill="#7ED957"/>
<path d="M30.6569 220.86C30.4538 221.387 29.8635 221.647 29.3303 221.45L29.1907 221.393C28.6639 221.19 28.3973 220.599 28.6004 220.072C28.8035 219.539 29.3938 219.272 29.927 219.475L30.0666 219.532C30.5935 219.729 30.86 220.326 30.6569 220.86Z" fill="#7ED957"/>
<path d="M29.1523 220.377L29.8949 220.663L28.581 224.13L27.8384 223.844L29.1523 220.377Z" fill="#7ED957"/>
<path d="M91.9336 266.862C91.648 273.257 96.5989 278.668 102.991 278.953C109.382 279.239 114.79 274.286 115.076 267.891C115.362 261.496 110.411 256.086 104.019 255.8C97.6272 255.514 92.2193 260.467 91.9336 266.862Z" fill="#7ED957"/>
<path d="M93.2479 267.046C93.0004 272.641 97.3292 277.372 102.921 277.62C108.507 277.874 113.242 273.536 113.49 267.948C113.737 262.36 109.408 257.622 103.823 257.375C98.2306 257.127 93.5018 261.458 93.2479 267.046Z" fill="#7ED957"/>
<path d="M145.556 282.078C145.455 282.078 145.353 282.059 145.258 282.008L27.2924 225.978C26.9433 225.813 26.7973 225.4 26.9624 225.051C27.1274 224.702 27.5463 224.556 27.8891 224.721L145.854 280.751C146.204 280.916 146.35 281.335 146.185 281.678C146.07 281.932 145.816 282.078 145.556 282.078Z" fill="#7ED957"/>
<path d="M145.436 284.853C145.334 284.853 145.233 284.834 145.137 284.789L21.8593 225.934C21.5165 225.768 21.3642 225.356 21.5292 225.006C21.7006 224.657 22.1131 224.511 22.4622 224.676L145.734 283.532C146.083 283.697 146.229 284.116 146.064 284.459C145.943 284.707 145.696 284.853 145.436 284.853Z" fill="#7ED957"/>
<path d="M144.554 286.803C144.452 286.803 144.351 286.784 144.255 286.739L15.144 225.038C14.7949 224.873 14.6489 224.46 14.8139 224.111C14.979 223.762 15.3979 223.616 15.7407 223.781L144.852 285.482C145.201 285.647 145.347 286.06 145.182 286.409C145.061 286.663 144.814 286.803 144.554 286.803Z" fill="#7ED957"/>
<path d="M144.033 289.565C143.931 289.565 143.83 289.546 143.735 289.502L19.4155 230.271C19.0664 230.1 18.9204 229.687 19.0854 229.344C19.2505 228.995 19.6694 228.848 20.0121 229.007L144.331 288.238C144.68 288.409 144.826 288.822 144.661 289.171C144.541 289.419 144.293 289.565 144.033 289.565Z" fill="#7ED957"/>
<path d="M141.945 291.864C141.843 291.864 141.735 291.839 141.64 291.788L23.5222 234.691C23.1731 234.526 23.0334 234.107 23.1985 233.764C23.3635 233.414 23.7824 233.268 24.1252 233.44L142.243 290.537C142.592 290.702 142.738 291.121 142.567 291.464C142.452 291.718 142.198 291.864 141.945 291.864Z" fill="#7ED957"/>
<path d="M135.134 301.987L138.314 303.307L143.22 297.668L152.595 277.29L152.576 269.079L149.396 267.758L135.134 301.987Z" fill="#7ED957"/>
<path d="M31.0947 238.577L32.707 239.339L37.4548 229.287L35.8362 228.525L31.0947 238.577Z" fill="#C1FF72"/>
<path d="M46.855 253.914L54.3893 244.147C54.1862 242.572 53.7419 241.251 52.0281 242.14L49.2733 243.048V234.31C49.2733 232.837 48.3212 232.608 47.1724 233.249L42.4499 240.8C41.3645 239.981 40.3617 239.886 39.4223 240.933L37.1816 251.793L46.855 253.914Z" fill="white"/>
<path d="M38.0069 251.259L46.5758 253.139L53.6595 243.95C53.4944 242.915 53.2659 242.648 53.139 242.578C52.9993 242.502 52.7137 242.572 52.3456 242.756C52.3138 242.775 52.2821 242.788 52.244 242.8L49.4893 243.709C49.2798 243.778 49.045 243.747 48.8672 243.613C48.6832 243.486 48.5753 243.277 48.5753 243.048V234.31C48.5753 233.891 48.48 233.688 48.3975 233.637C48.3214 233.592 48.0802 233.573 47.6612 233.776L43.0404 241.168C42.9325 241.333 42.7674 241.448 42.5707 241.486C42.3802 241.524 42.1835 241.473 42.0248 241.353C41.0917 240.641 40.5649 240.775 40.0635 241.264L38.0069 251.259ZM46.8551 254.606C46.8107 254.606 46.7599 254.606 46.7091 254.593L37.0358 252.472C36.6613 252.39 36.4264 252.028 36.5026 251.653L38.7432 240.794C38.7686 240.667 38.8257 240.559 38.9082 240.463C39.6001 239.695 40.7109 239.016 42.2343 239.828L46.5822 232.881C46.6457 232.779 46.7282 232.697 46.8297 232.64C47.6993 232.157 48.5054 232.081 49.1021 232.436C49.4956 232.665 49.9653 233.179 49.9653 234.31V242.089L51.7616 241.499C52.5423 241.105 53.2215 241.054 53.7864 241.346C54.675 241.81 54.9353 242.972 55.0749 244.051C55.1003 244.236 55.0495 244.42 54.9353 244.566L47.4073 254.339C47.274 254.511 47.0709 254.606 46.8551 254.606Z" fill="black"/>
<path d="M57.7092 193.642C55.9827 194.512 54.6815 194.632 53.7485 194.582C50.3653 194.385 48.1946 191.654 47.7566 191.108C45.516 188.288 44.4306 183.652 46.3348 180.934C47.7058 178.972 49.4259 179.715 51.0064 177.524C52.7964 175.035 50.962 173.003 52.6123 170.825C54.5102 168.322 58.6994 168.513 59.4547 168.545C62.0381 168.665 62.3491 169.948 64.7929 169.885C67.2874 169.815 67.6174 168.557 69.9088 168.545C71.7305 168.538 74.3773 169.313 75.5706 171.415C77.0559 174.057 75.5326 177.537 73.7617 179.372C71.6416 181.582 70.1437 180.401 67.1668 182.192C62.0064 185.304 63.2378 190.847 57.7092 193.642Z" fill="black"/>
<path d="M67.3125 205.384L65.916 196.696C66.2271 196.658 68.7977 196.207 69.0897 196.067C71.47 194.874 70.8098 188.898 70.8098 188.898L72.1364 187.317L68.1884 178.47C63.9928 181.969 62.4948 178.534 58.3437 180.255C54.1925 181.976 56.4458 186.599 56.4458 186.599C56.4458 186.599 53.05 185.107 53.7799 188.39C54.3258 190.866 56.1284 191.019 57.3217 190.924L55.1065 205.828C55.1065 205.828 47.9848 207.854 46.6074 208.216C48.3974 208.133 60.7937 213.525 74.8468 207.632L67.3125 205.384Z" fill="white"/>
<path d="M49.521 208.133C53.8752 209.219 62.7806 211.201 72.6951 207.714L67.1158 206.05C66.8556 205.974 66.6715 205.758 66.6271 205.498L65.2306 196.804C65.1989 196.614 65.2497 196.423 65.3639 196.271C65.4782 196.118 65.6496 196.023 65.84 196.004C66.1637 195.966 68.4741 195.553 68.8105 195.426C70.372 194.651 70.2768 190.397 70.1181 188.974C70.0991 188.784 70.1562 188.593 70.2768 188.447L71.3241 187.202L67.9092 179.563C65.6686 181.144 64.0881 180.884 62.5457 180.623C61.3461 180.426 60.2162 180.236 58.6104 180.896C57.6583 181.296 57.0426 181.868 56.7442 182.662C56.1222 184.287 57.0616 186.275 57.0743 186.294C57.1949 186.561 57.1505 186.872 56.9474 187.082C56.7442 187.291 56.4332 187.355 56.1666 187.24C55.6652 187.018 54.7893 186.834 54.5163 187.056C54.383 187.164 54.3005 187.533 54.4592 188.237C54.7893 189.749 55.6589 190.365 57.2584 190.225C57.4742 190.212 57.6837 190.289 57.8296 190.447C57.9693 190.6 58.0391 190.816 58.0074 191.025L55.7921 205.93C55.7541 206.203 55.5573 206.425 55.2971 206.495C55.1003 206.552 51.9774 207.441 49.521 208.133ZM60.9335 211.08C55.5065 211.08 51.1015 209.969 48.5879 209.334C47.712 209.111 46.8868 208.902 46.6393 208.914C46.2902 208.921 45.9728 208.673 45.922 208.324C45.8649 207.968 46.0871 207.632 46.4298 207.543C47.5914 207.238 52.9168 205.727 54.4846 205.276L56.5094 191.629C54.2497 191.489 53.3992 189.914 53.1009 188.536C52.8343 187.348 53.012 186.485 53.634 185.983C54.1228 185.577 54.7766 185.526 55.3605 185.589C55.1257 184.668 54.9797 183.386 55.4367 182.173C55.8747 181.017 56.7633 180.16 58.0772 179.614C60.0512 178.794 61.4984 179.036 62.7806 179.252C64.3547 179.512 65.5988 179.721 67.7378 177.937C67.9092 177.797 68.1314 177.74 68.3408 177.797C68.5567 177.842 68.7344 177.988 68.8232 178.185L72.7713 187.031C72.8792 187.272 72.8411 187.558 72.6697 187.761L71.5336 189.12C71.6478 190.505 71.889 195.445 69.4009 196.69C69.0835 196.849 67.6172 197.115 66.7159 197.268L67.9346 204.844L75.05 206.965C75.3293 207.047 75.526 207.301 75.5451 207.594C75.5578 207.886 75.3864 208.159 75.1198 208.273C70.0419 210.4 65.1735 211.08 60.9335 211.08Z" fill="black"/>
<path d="M64.945 197.458C61.2127 197.458 59.499 194.62 59.4228 194.486C59.226 194.15 59.3403 193.724 59.6703 193.534C60.0004 193.337 60.4257 193.445 60.6224 193.775C60.6923 193.896 62.2981 196.487 65.8209 196.004C66.2081 195.947 66.5572 196.22 66.608 196.601C66.6588 196.982 66.3922 197.331 66.0113 197.382C65.6432 197.433 65.2877 197.458 64.945 197.458Z" fill="black"/>
<path d="M147.003 372.895L159.628 385.584L166.325 383.126L154.684 366.888L147.003 372.895Z" fill="white"/>
<path d="M148.051 372.959L159.812 384.777L165.227 382.789L154.544 367.885L148.051 372.959ZM159.628 386.282C159.45 386.282 159.273 386.212 159.139 386.079L146.515 373.384C146.375 373.245 146.299 373.048 146.311 372.851C146.324 372.648 146.419 372.47 146.578 372.343L154.258 366.342C154.404 366.221 154.595 366.17 154.785 366.202C154.976 366.228 155.141 366.329 155.248 366.482L166.89 382.72C167.016 382.897 167.055 383.126 166.991 383.329C166.928 383.539 166.769 383.704 166.566 383.78L159.869 386.238C159.793 386.27 159.711 386.282 159.628 386.282Z" fill="black"/>
<path d="M155.642 383.602C155.642 383.602 155.033 389 156.067 393.769C156.62 396.316 158.911 398.1 161.507 398.1H192.495C194.71 398.1 195.719 395.338 194.018 393.915C188.509 389.292 178.372 382.243 165.912 380.173L162.434 385.038L155.642 383.602Z" fill="black"/>
<path d="M191.022 394.538H158.911C158.524 394.538 158.213 394.227 158.213 393.839C158.213 393.458 158.524 393.141 158.911 393.141H191.022C191.409 393.141 191.721 393.458 191.721 393.839C191.721 394.227 191.409 394.538 191.022 394.538Z" fill="white"/>
<path d="M173.104 388.829C173.015 388.829 172.926 388.81 172.837 388.778C172.488 388.632 172.317 388.225 172.463 387.864L174.164 383.742C174.31 383.386 174.716 383.215 175.072 383.361C175.427 383.507 175.598 383.914 175.446 384.276L173.751 388.397C173.637 388.664 173.377 388.829 173.104 388.829Z" fill="white"/>
<path d="M178.696 389.915C178.619 389.915 178.55 389.902 178.48 389.877C178.112 389.756 177.915 389.362 178.035 389L179.26 385.279C179.381 384.91 179.781 384.714 180.143 384.834C180.511 384.955 180.708 385.349 180.587 385.711L179.356 389.438C179.26 389.724 178.988 389.915 178.696 389.915Z" fill="white"/>
<path d="M48.6958 312.465C57.0806 315.126 72.0731 318.568 93.0383 318.282C98.9921 318.199 104.495 321.495 107.199 326.804C113.407 338.984 126.844 360.919 148.736 375.137L159.19 369.498L132.506 309.404C130.069 303.917 125.511 299.65 119.881 297.586L66.9952 278.179C66.9952 278.179 54.2053 275.181 45.2873 289.311C42.1073 294.341 41.4979 310.179 48.6958 312.465Z" fill="#7ED957"/>
<path d="M93.2604 317.583C99.4491 317.583 105.009 320.981 107.815 326.486C113.832 338.286 127.123 360.131 148.768 374.324L158.295 369.193L131.871 309.683C129.523 304.4 125.067 300.227 119.64 298.24L66.7983 278.852C65.9034 278.655 54.2496 276.407 45.8711 289.679C43.7448 293.051 42.8117 301.618 44.8492 307.187C45.7569 309.683 47.1216 311.233 48.9052 311.804C57.7026 314.592 72.4982 317.869 93.0256 317.583C93.1081 317.583 93.1842 317.583 93.2604 317.583ZM148.736 375.829C148.603 375.829 148.47 375.791 148.355 375.721C126.235 361.35 112.69 339.105 106.577 327.121C104.013 322.079 98.9222 318.974 93.2604 318.974C93.1906 318.974 93.1208 318.98 93.0446 318.98C72.3332 319.26 57.3789 315.951 48.4862 313.131C46.3028 312.433 44.589 310.547 43.5353 307.67C41.3391 301.637 42.3547 292.645 44.6969 288.936C53.7736 274.559 67.0205 277.474 67.1538 277.505C67.1792 277.512 67.2109 277.518 67.2363 277.531L120.122 296.931C125.898 299.053 130.646 303.491 133.141 309.118L159.825 369.219C159.971 369.549 159.838 369.942 159.52 370.114L149.066 375.747C148.965 375.804 148.85 375.829 148.736 375.829Z" fill="black"/>
<path d="M251.163 44.2792L264.08 37.8398C274.591 32.6007 284.334 26.0153 293.068 18.2487L296.344 15.3339C298.051 13.8161 300.692 13.8987 302.418 15.5244C312.599 25.0882 324.081 33.1659 336.491 39.491L345.269 43.968C347.313 45.0095 348.316 47.3655 347.617 49.4738L338.204 96.8354C333.818 110.082 314.579 127.984 303.833 137.212C299.676 140.787 293.335 140.463 289.254 136.488C278.888 126.39 260.633 106.945 256.495 91.6344L248.967 49.3024C248.421 47.2766 249.329 45.1936 251.163 44.2792Z" fill="white"/>
<path d="M259.472 49.9058L270.167 44.5714C278.863 40.234 286.931 34.7854 294.16 28.3524L296.877 25.9392C298.292 24.6818 300.476 24.7517 301.91 26.0916C310.333 34.0106 319.842 40.704 330.118 45.9367L337.386 49.6454C339.074 50.5027 339.912 52.4586 339.328 54.205L331.533 93.419C327.909 104.386 311.977 119.208 303.078 126.848C299.638 129.807 294.389 129.547 291.012 126.251C282.424 117.887 267.311 101.789 263.883 89.107L257.65 54.0589C257.193 52.3824 257.955 50.6615 259.472 49.9058Z" fill="#7ED957"/>
<path d="M297.061 140.368C294.084 140.368 291.069 139.231 288.771 136.989C278.254 126.746 259.999 107.257 255.822 91.8123C255.816 91.7933 255.816 91.7742 255.81 91.7552L253.861 80.8134C253.798 80.4323 254.045 80.0704 254.426 80.0069C254.807 79.937 255.169 80.191 255.232 80.5657L257.174 91.4821C261.281 106.596 279.339 125.857 289.743 135.992C293.538 139.688 299.53 139.993 303.377 136.685C314.275 127.324 333.19 109.689 337.525 96.6577L346.932 49.3406C346.938 49.3152 346.945 49.2834 346.957 49.258C347.541 47.4735 346.685 45.4668 344.952 44.5841L336.173 40.1134C323.694 33.7502 312.18 25.6471 301.942 16.0325C300.489 14.6672 298.235 14.5846 296.807 15.8547L293.532 18.7696C284.754 26.5742 274.953 33.1978 264.391 38.4686L251.474 44.908C249.932 45.6764 249.177 47.41 249.634 49.1183C249.64 49.1374 249.646 49.1564 249.653 49.1818L252.884 67.3441C252.947 67.7251 252.693 68.0871 252.319 68.1506C251.938 68.2204 251.576 67.9664 251.512 67.5917L248.288 49.4549C247.666 47.1052 248.72 44.7238 250.852 43.6569L263.769 37.2176C274.217 32.0102 283.922 25.4502 292.605 17.7281L295.887 14.8132C297.873 13.0415 300.888 13.1304 302.894 15.0164C313.031 24.5421 324.443 32.5691 336.808 38.8687L345.586 43.3458C347.91 44.5333 349.065 47.2322 348.29 49.6517L338.884 96.9689C338.877 97.0006 338.871 97.026 338.865 97.0578C334.447 110.413 315.303 128.277 304.291 137.739C302.24 139.498 299.663 140.368 297.061 140.368Z" fill="black"/>
<path d="M276.8 65.331V84.5411C276.8 90.3263 286.442 95.013 298.33 95.013C310.225 95.013 319.867 90.3263 319.867 84.5411V65.331H276.8Z" fill="white"/>
<path d="M321.067 61.0444L298.978 51.6902C298.559 51.5441 298.102 51.5441 297.689 51.6902L275.601 61.0444H266.803V63.1781C266.803 63.4448 266.956 63.7052 267.254 63.8132L297.689 74.6661C298.102 74.8121 298.559 74.8121 298.978 74.6661L329.407 63.8132C329.705 63.7052 329.858 63.4448 329.858 63.1781V61.0444H321.067Z" fill="#7ED957"/>
<path d="M329.414 60.4031L298.978 49.5565C298.559 49.4104 298.109 49.4104 297.69 49.5565L267.254 60.4031C266.657 60.619 266.657 61.4699 267.254 61.6795L297.69 72.526C298.109 72.6785 298.559 72.6785 298.978 72.526L329.414 61.6795C330.01 61.4699 330.01 60.619 329.414 60.4031Z" fill="white"/>
<path d="M315.608 76.6347C315.005 76.6347 314.503 77.1046 314.465 77.7079L313.297 94.6509H317.918L316.75 77.7079C316.712 77.1046 316.211 76.6347 315.608 76.6347Z" fill="#C1FF72"/>
<path d="M314.04 93.9588H317.169L316.059 77.7524C316.04 77.5175 315.843 77.3333 315.608 77.3333C315.373 77.3333 315.176 77.5175 315.157 77.7524L314.04 93.9588ZM317.918 95.3495H313.297C313.101 95.3495 312.917 95.267 312.783 95.1272C312.65 94.9875 312.587 94.797 312.599 94.6065L313.767 77.6572C313.831 76.6983 314.643 75.9426 315.608 75.9426C316.573 75.9426 317.379 76.6983 317.442 77.6572L318.617 94.6065C318.623 94.797 318.559 94.9875 318.426 95.1272C318.299 95.267 318.109 95.3495 317.918 95.3495Z" fill="black"/>
<path d="M315.608 77.1174C315.221 77.1174 314.91 76.8062 314.91 76.4252V67.9537L298.089 61.6985C297.727 61.5588 297.543 61.1587 297.677 60.7968C297.816 60.4411 298.216 60.257 298.572 60.3903L315.849 66.8106C316.122 66.9122 316.3 67.1726 316.3 67.4647V76.4252C316.3 76.8062 315.995 77.1174 315.608 77.1174Z" fill="black"/>
<path d="M239.357 140.304C239.249 140.304 239.135 140.279 239.034 140.228C237.447 139.396 235.771 138.609 234.045 137.885C233.696 137.739 233.524 137.332 233.67 136.977C233.823 136.621 234.235 136.456 234.584 136.602C236.349 137.339 238.063 138.145 239.681 138.996C240.018 139.174 240.151 139.593 239.973 139.936C239.846 140.171 239.605 140.304 239.357 140.304ZM248.618 146.464C248.459 146.464 248.301 146.407 248.168 146.299C246.777 145.143 245.292 144.038 243.762 143.022C243.445 142.813 243.356 142.381 243.572 142.057C243.781 141.739 244.213 141.651 244.53 141.867C246.105 142.908 247.628 144.038 249.062 145.226C249.354 145.474 249.399 145.912 249.151 146.21C249.012 146.375 248.815 146.464 248.618 146.464ZM256.317 154.478C256.108 154.478 255.892 154.383 255.759 154.205C254.674 152.764 253.48 151.367 252.198 150.033C251.931 149.76 251.938 149.316 252.211 149.049C252.49 148.782 252.934 148.788 253.201 149.068C254.521 150.44 255.753 151.887 256.87 153.367C257.105 153.672 257.041 154.11 256.73 154.339C256.609 154.434 256.463 154.478 256.317 154.478ZM261.776 164.15C261.503 164.15 261.237 163.985 261.129 163.706C260.469 162.035 259.675 160.378 258.768 158.778C258.577 158.441 258.698 158.016 259.028 157.832C259.364 157.641 259.789 157.755 259.98 158.086C260.919 159.749 261.744 161.47 262.424 163.198C262.563 163.553 262.392 163.96 262.03 164.099C261.948 164.137 261.865 164.15 261.776 164.15ZM261.979 168.354C261.96 168.354 261.929 168.348 261.903 168.348C261.611 168.31 261.319 168.278 261.021 168.246C259.294 168.056 257.784 167.929 256.4 167.853C256.019 167.833 255.721 167.503 255.74 167.122C255.765 166.735 256.089 166.449 256.47 166.462C257.885 166.544 259.421 166.671 261.173 166.862C261.472 166.894 261.77 166.925 262.062 166.963C262.443 167.008 262.716 167.351 262.671 167.738C262.633 168.087 262.335 168.354 261.979 168.354ZM245.368 168.665C245.057 168.665 244.772 168.456 244.696 168.138C244.6 167.764 244.829 167.389 245.203 167.294C246.962 166.862 248.796 166.589 250.827 166.462C251.214 166.443 251.544 166.728 251.563 167.116C251.589 167.497 251.297 167.827 250.916 167.853C248.974 167.973 247.209 168.234 245.54 168.646C245.476 168.659 245.425 168.665 245.368 168.665ZM272.954 170.253C272.897 170.253 272.84 170.247 272.783 170.234C271.088 169.821 269.266 169.446 267.381 169.123C267 169.059 266.746 168.697 266.81 168.316C266.873 167.941 267.235 167.687 267.616 167.751C269.533 168.075 271.386 168.456 273.119 168.881C273.487 168.97 273.716 169.351 273.627 169.726C273.551 170.043 273.265 170.253 272.954 170.253ZM235.67 173.866C235.486 173.866 235.301 173.797 235.168 173.65C234.902 173.377 234.908 172.939 235.187 172.672C236.584 171.333 238.145 170.196 239.84 169.3C240.183 169.116 240.601 169.25 240.779 169.586C240.957 169.929 240.83 170.348 240.494 170.532C238.913 171.364 237.453 172.425 236.152 173.676C236.012 173.803 235.841 173.866 235.67 173.866ZM283.446 173.917C283.344 173.917 283.243 173.898 283.148 173.847C281.548 173.092 279.841 172.393 278.063 171.783C277.702 171.656 277.511 171.256 277.638 170.894C277.759 170.532 278.152 170.336 278.521 170.463C280.342 171.091 282.1 171.809 283.744 172.59C284.093 172.761 284.239 173.174 284.074 173.523C283.954 173.771 283.706 173.917 283.446 173.917ZM264.182 174.978C263.814 174.978 263.503 174.686 263.484 174.311C263.401 172.552 263.166 170.812 262.798 169.142L262.747 168.926C262.665 168.545 262.893 168.176 263.268 168.087C263.642 167.999 264.017 168.234 264.106 168.615L264.156 168.837C264.544 170.583 264.785 172.406 264.874 174.247C264.893 174.635 264.601 174.959 264.214 174.978C264.201 174.978 264.195 174.978 264.182 174.978ZM292.72 180.014C292.554 180.014 292.389 179.956 292.256 179.836C291.133 178.826 289.939 177.886 288.714 177.042C288.454 176.87 288.188 176.692 287.927 176.521C287.604 176.311 287.508 175.879 287.724 175.556C287.934 175.238 288.365 175.143 288.683 175.352C288.956 175.53 289.228 175.714 289.501 175.899C290.777 176.775 292.021 177.753 293.189 178.801C293.475 179.055 293.494 179.499 293.24 179.785C293.1 179.937 292.91 180.014 292.72 180.014ZM230.389 183.462C230.351 183.462 230.312 183.462 230.274 183.456C229.894 183.392 229.64 183.03 229.703 182.649C230.014 180.782 230.668 178.953 231.645 177.207C231.836 176.87 232.261 176.749 232.591 176.94C232.928 177.13 233.048 177.556 232.858 177.893C231.963 179.493 231.36 181.169 231.074 182.884C231.017 183.221 230.725 183.462 230.389 183.462ZM262.811 185.983C262.741 185.983 262.671 185.97 262.601 185.951C262.24 185.837 262.03 185.443 262.151 185.075C262.678 183.373 263.058 181.589 263.287 179.76C263.331 179.372 263.674 179.112 264.061 179.15C264.442 179.194 264.715 179.544 264.671 179.925C264.436 181.843 264.03 183.71 263.477 185.494C263.382 185.792 263.109 185.983 262.811 185.983ZM299.708 188.631C299.467 188.631 299.232 188.504 299.105 188.282C298.216 186.726 297.175 185.215 296.02 183.786C295.773 183.487 295.817 183.049 296.122 182.808C296.42 182.566 296.858 182.611 297.099 182.909C298.305 184.395 299.384 185.964 300.311 187.59C300.508 187.926 300.387 188.352 300.057 188.542C299.943 188.606 299.829 188.631 299.708 188.631ZM232.959 193.978C232.75 193.978 232.54 193.883 232.401 193.699C231.195 192.098 230.351 190.339 229.887 188.46C229.798 188.085 230.027 187.71 230.401 187.621C230.776 187.533 231.15 187.755 231.239 188.129C231.658 189.819 232.42 191.406 233.518 192.861C233.746 193.172 233.689 193.604 233.385 193.839C233.258 193.934 233.105 193.978 232.959 193.978ZM257.333 195.572C257.155 195.572 256.984 195.509 256.844 195.375C256.571 195.109 256.565 194.67 256.832 194.391C258.038 193.146 259.11 191.686 260.018 190.06C260.208 189.723 260.634 189.603 260.97 189.793C261.3 189.984 261.421 190.409 261.237 190.739C260.266 192.473 259.117 194.023 257.835 195.356C257.695 195.496 257.511 195.572 257.333 195.572ZM303.389 199.084C303.047 199.084 302.748 198.83 302.698 198.487C302.444 196.728 301.999 194.956 301.384 193.223C301.257 192.861 301.441 192.46 301.803 192.333C302.171 192.2 302.564 192.391 302.698 192.753C303.345 194.575 303.808 196.436 304.075 198.284C304.132 198.665 303.872 199.02 303.491 199.071C303.453 199.078 303.421 199.084 303.389 199.084ZM242.099 199.992C242.042 199.992 241.979 199.986 241.922 199.967C240.049 199.471 238.272 198.684 236.647 197.63C236.33 197.414 236.234 196.988 236.444 196.664C236.66 196.347 237.091 196.252 237.409 196.461C238.907 197.439 240.551 198.163 242.277 198.62C242.652 198.722 242.874 199.103 242.772 199.471C242.69 199.789 242.41 199.992 242.099 199.992ZM247.615 200.494C247.26 200.494 246.955 200.221 246.923 199.852C246.892 199.471 247.177 199.135 247.558 199.103C249.373 198.944 251.068 198.449 252.598 197.63C252.941 197.446 253.36 197.573 253.537 197.915C253.721 198.252 253.594 198.678 253.258 198.855C251.557 199.77 249.678 200.316 247.679 200.487C247.66 200.494 247.634 200.494 247.615 200.494Z" fill="#7ED957"/>
<path d="M105.301 148.592C105.117 148.592 104.933 148.522 104.8 148.382C104.533 148.103 104.54 147.658 104.819 147.391C106.158 146.115 107.58 144.864 109.04 143.676C109.338 143.429 109.776 143.479 110.017 143.778C110.259 144.07 110.214 144.508 109.916 144.756C108.488 145.918 107.098 147.15 105.784 148.401C105.644 148.528 105.473 148.592 105.301 148.592ZM97.9193 156.923C97.7733 156.923 97.6273 156.879 97.5004 156.784C97.1957 156.555 97.1322 156.117 97.3607 155.812C97.5765 155.52 97.7987 155.228 98.0145 154.948C98.9349 153.754 99.9123 152.58 100.915 151.443C101.169 151.157 101.613 151.132 101.899 151.386C102.185 151.646 102.21 152.084 101.956 152.37C100.972 153.481 100.02 154.631 99.1189 155.799C98.9031 156.079 98.6873 156.358 98.4778 156.644C98.3382 156.828 98.1287 156.923 97.9193 156.923ZM92.1305 166.424C92.0289 166.424 91.921 166.405 91.8195 166.354C91.4767 166.182 91.3371 165.77 91.5021 165.42C92.3336 163.737 93.2476 162.074 94.2124 160.486C94.4155 160.156 94.8408 160.054 95.1709 160.251C95.5009 160.448 95.6025 160.88 95.4057 161.21C94.46 162.759 93.565 164.385 92.7525 166.036C92.6319 166.284 92.3844 166.424 92.1305 166.424ZM88.0936 176.8C88.0301 176.8 87.9666 176.788 87.8968 176.768C87.5287 176.661 87.3192 176.273 87.4271 175.905C87.954 174.114 88.5633 172.323 89.2425 170.577C89.3758 170.215 89.782 170.037 90.1438 170.177C90.4992 170.316 90.677 170.723 90.5373 171.078C89.8708 172.787 89.2742 174.546 88.7601 176.299C88.6712 176.603 88.3983 176.8 88.0936 176.8ZM85.9101 187.71C85.8847 187.71 85.8593 187.71 85.8339 187.704C85.4531 187.666 85.1802 187.323 85.2182 186.942C85.4214 185.088 85.707 183.214 86.0815 181.373C86.1577 180.998 86.5195 180.757 86.9003 180.826C87.2748 180.903 87.5223 181.271 87.4462 181.646C87.0844 183.449 86.7987 185.284 86.602 187.088C86.5639 187.45 86.2656 187.71 85.9101 187.71ZM85.7641 198.836C85.4023 198.836 85.0976 198.563 85.0659 198.195C84.9326 196.626 84.8691 195.007 84.8691 193.4C84.8691 193.121 84.8691 192.841 84.8755 192.562C84.8755 192.181 85.2055 191.883 85.58 191.876C85.9609 191.883 86.2719 192.2 86.2656 192.581C86.2592 192.854 86.2592 193.127 86.2592 193.4C86.2592 194.969 86.3227 196.544 86.456 198.081C86.4877 198.462 86.2021 198.798 85.8212 198.83C85.8022 198.836 85.7832 198.836 85.7641 198.836Z" fill="#7ED957"/>
<path d="M42.05 118.325C41.9675 118.325 41.885 118.313 41.8025 118.281C41.4407 118.141 41.2629 117.741 41.4026 117.379C51.1077 92.1107 67.9218 70.4049 90.0359 54.6114C99.2459 48.0323 109.199 42.609 119.615 38.4876C119.976 38.3479 120.376 38.5257 120.522 38.8813C120.662 39.2369 120.484 39.6434 120.129 39.7831C109.814 43.8664 99.9632 49.2325 90.8484 55.7417C68.9564 71.3829 52.3073 92.8664 42.6974 117.881C42.5959 118.16 42.3293 118.325 42.05 118.325Z" fill="black"/>
<path d="M25.6424 125.165C25.5726 125.165 25.4964 125.158 25.4202 125.133C25.0584 125.012 24.8617 124.612 24.9823 124.25C30.4981 107.822 38.6925 92.5109 49.3307 78.7304C60.337 64.4737 73.6918 52.23 89.0206 42.3424C89.3443 42.1392 89.7759 42.2281 89.9854 42.552C90.1949 42.8758 90.0997 43.3077 89.7759 43.5172C59.9752 62.7337 37.4358 91.5583 26.3025 124.695C26.2073 124.981 25.9344 125.165 25.6424 125.165Z" fill="black"/>
<path d="M125.283 36.1888L126.679 40.4055L129.116 37.6684L125.283 36.1888ZM126.393 42.4694C126.349 42.4694 126.298 42.463 126.254 42.4503C126.013 42.4059 125.809 42.2281 125.733 41.9931L123.499 35.2299C123.41 34.9759 123.48 34.6901 123.677 34.5059C123.873 34.3154 124.159 34.2646 124.407 34.3599L130.557 36.7349C130.773 36.8175 130.932 36.9953 130.983 37.2176C131.04 37.4398 130.976 37.6748 130.824 37.8463L126.914 42.2344C126.781 42.3868 126.59 42.4694 126.393 42.4694Z" fill="black"/>
<path d="M237.44 35.2362C237.129 35.2362 236.85 35.0267 236.768 34.7092L236.152 32.2769C236.057 31.9023 236.279 31.5212 236.653 31.426C237.021 31.3371 237.409 31.5593 237.498 31.934L238.12 34.3662C238.215 34.7409 237.986 35.1219 237.612 35.2172C237.555 35.2299 237.498 35.2362 237.44 35.2362Z" fill="black"/>
<path d="M235.276 26.7139C234.965 26.7139 234.686 26.5044 234.603 26.1932L233.987 23.7546C233.892 23.3863 234.114 23.0053 234.489 22.91C234.863 22.8147 235.238 23.0434 235.333 23.4117L235.955 25.8503C236.044 26.2186 235.822 26.5996 235.447 26.6949C235.396 26.7076 235.333 26.7139 235.276 26.7139Z" fill="black"/>
<path d="M239.091 28.9874C238.786 28.9874 238.501 28.7778 238.418 28.4603C238.323 28.092 238.551 27.711 238.926 27.6157L241.357 26.9997C241.731 26.9045 242.106 27.1331 242.201 27.5014C242.296 27.8761 242.068 28.2571 241.7 28.346L239.269 28.9684C239.205 28.9811 239.148 28.9874 239.091 28.9874Z" fill="black"/>
<path d="M230.572 31.1465C230.268 31.1465 229.982 30.9369 229.9 30.6194C229.804 30.2447 230.033 29.87 230.407 29.7748L232.838 29.1588C233.213 29.0635 233.587 29.2921 233.683 29.6605C233.778 30.0351 233.549 30.4162 233.181 30.5114L230.744 31.1274C230.687 31.1401 230.629 31.1465 230.572 31.1465Z" fill="black"/>
<path d="M220.379 21.5574C219.338 21.5574 218.316 22.0908 217.751 23.0497C217.332 23.7483 217.212 24.5739 217.415 25.3613C217.612 26.1551 218.113 26.8219 218.811 27.2347C219.516 27.6538 220.335 27.7745 221.128 27.5713C221.921 27.3744 222.588 26.8791 223 26.1742C223.419 25.4756 223.54 24.6564 223.337 23.8626C223.134 23.0688 222.639 22.4084 221.934 21.9892C221.445 21.6971 220.906 21.5574 220.379 21.5574ZM220.373 29.0636C219.579 29.0636 218.798 28.8477 218.1 28.4349C217.078 27.8253 216.355 26.86 216.063 25.7042C215.771 24.5548 215.949 23.3546 216.552 22.3385C217.808 20.2302 220.544 19.5316 222.651 20.789C223.667 21.3986 224.39 22.3639 224.689 23.5197C224.981 24.6691 224.803 25.8693 224.2 26.8918C223.591 27.9142 222.62 28.6318 221.471 28.9239C221.103 29.0192 220.734 29.0636 220.373 29.0636Z" fill="black"/>
<path d="M19.4473 146.686C19.3013 146.686 19.1553 146.706 19.0093 146.744C18.546 146.858 18.1651 147.15 17.9176 147.557C17.6764 147.963 17.6065 148.439 17.7271 148.896C17.8414 149.354 18.1334 149.741 18.5396 149.982C19.3775 150.484 20.4692 150.211 20.9706 149.366C21.2118 148.966 21.2817 148.484 21.1611 148.026C21.0468 147.569 20.7612 147.182 20.3486 146.941C20.0757 146.769 19.7646 146.686 19.4473 146.686ZM19.4409 151.627C18.8887 151.627 18.3365 151.481 17.8287 151.183C17.0988 150.751 16.5846 150.059 16.3752 149.239C16.1657 148.42 16.2926 147.569 16.7243 146.839C17.1559 146.115 17.8477 145.601 18.6666 145.391C19.4854 145.188 20.3359 145.308 21.0658 145.74C21.7894 146.172 22.3036 146.864 22.513 147.684C22.7225 148.503 22.5956 149.354 22.1639 150.084C21.5736 151.075 20.52 151.627 19.4409 151.627Z" fill="black"/>
<path d="M17.7588 164.277C17.5811 164.277 17.4033 164.214 17.27 164.074L15.2452 162.055C14.9723 161.781 14.9723 161.337 15.2452 161.064C15.5182 160.797 15.9561 160.797 16.2291 161.064L18.2539 163.09C18.5268 163.363 18.5268 163.807 18.2539 164.074C18.1206 164.214 17.9429 164.277 17.7588 164.277Z" fill="black"/>
<path d="M24.8487 171.364C24.671 171.364 24.4933 171.294 24.3536 171.161L22.3288 169.135C22.0623 168.862 22.0623 168.424 22.3288 168.151C22.6018 167.878 23.0461 167.878 23.3127 168.151L25.3375 170.177C25.6104 170.45 25.6104 170.888 25.3375 171.161C25.2042 171.294 25.0265 171.364 24.8487 171.364Z" fill="black"/>
<path d="M15.734 171.364C15.5562 171.364 15.3785 171.294 15.2452 171.161C14.9723 170.888 14.9723 170.45 15.2452 170.177L17.27 168.151C17.543 167.878 17.9809 167.878 18.2539 168.151C18.5268 168.424 18.5268 168.862 18.2539 169.135L16.2291 171.161C16.0958 171.294 15.918 171.364 15.734 171.364Z" fill="black"/>
<path d="M22.8239 164.277C22.6462 164.277 22.4685 164.214 22.3288 164.074C22.0623 163.807 22.0623 163.363 22.3288 163.09L24.3536 161.064C24.6266 160.797 25.0709 160.797 25.3375 161.064C25.6104 161.337 25.6104 161.781 25.3375 162.055L23.3127 164.074C23.1794 164.214 23.0017 164.277 22.8239 164.277Z" fill="black"/>
</svg>
