<svg xmlns="http://www.w3.org/2000/svg" xmlns:xlink="http://www.w3.org/1999/xlink" width="340" zoomAndPan="magnify" viewBox="0 0 255 482.249988" height="642" preserveAspectRatio="xMidYMid meet" version="1.0"><defs><clipPath id="f543559fd1"><path d="M 76.613281 190 L 178.457031 190 L 178.457031 291.46875 L 76.613281 291.46875 Z M 76.613281 190 " clip-rule="nonzero"/></clipPath></defs><g clip-path="url(#f543559fd1)"><path fill="#000000" d="M 173.136719 266.132812 L 168.070312 266.132812 L 168.070312 254.3125 C 168.070312 254.085938 168.027344 253.871094 167.941406 253.664062 C 167.855469 253.457031 167.734375 253.277344 167.574219 253.117188 C 167.417969 252.960938 167.234375 252.835938 167.027344 252.75 C 166.820312 252.664062 166.605469 252.621094 166.378906 252.621094 L 161.3125 252.621094 L 161.3125 242.488281 L 166.378906 242.488281 C 166.605469 242.488281 166.820312 242.445312 167.027344 242.359375 C 167.234375 242.273438 167.417969 242.152344 167.574219 241.996094 C 167.734375 241.835938 167.855469 241.652344 167.941406 241.445312 C 168.027344 241.238281 168.070312 241.023438 168.070312 240.800781 L 168.070312 227.289062 C 168.070312 227.066406 168.027344 226.851562 167.941406 226.644531 C 167.855469 226.4375 167.734375 226.253906 167.574219 226.09375 C 167.417969 225.9375 167.234375 225.816406 167.027344 225.730469 C 166.820312 225.644531 166.605469 225.601562 166.378906 225.601562 L 156.0625 225.601562 C 156.328125 225.339844 156.582031 225.066406 156.824219 224.78125 C 156.847656 224.757812 156.867188 224.730469 156.890625 224.707031 C 157.773438 223.648438 158.453125 222.46875 158.921875 221.171875 C 159.390625 219.875 159.625 218.535156 159.625 217.15625 C 159.625 216.714844 159.578125 216.277344 159.492188 215.84375 C 159.40625 215.414062 159.277344 214.992188 159.109375 214.585938 C 158.941406 214.179688 158.734375 213.792969 158.492188 213.425781 C 158.246094 213.058594 157.96875 212.714844 157.660156 212.402344 C 157.347656 212.089844 157.011719 211.808594 156.644531 211.5625 C 156.28125 211.316406 155.894531 211.105469 155.488281 210.933594 C 155.082031 210.761719 154.664062 210.632812 154.230469 210.542969 C 153.800781 210.453125 153.363281 210.40625 152.921875 210.398438 L 152.894531 210.398438 C 151.957031 210.398438 151.152344 210.726562 150.488281 211.390625 C 149.820312 212.046875 149.488281 212.84375 149.492188 213.777344 L 149.492188 216.976562 C 149.507812 217.410156 149.382812 217.800781 149.121094 218.144531 C 148.859375 218.492188 148.519531 218.71875 148.097656 218.820312 C 147.574219 218.910156 147.113281 218.785156 146.707031 218.441406 C 146.3125 218.105469 146.113281 217.675781 146.113281 217.15625 C 146.113281 216.492188 146.046875 215.832031 145.917969 215.179688 C 145.785156 214.527344 145.59375 213.894531 145.339844 213.28125 C 145.085938 212.664062 144.773438 212.082031 144.402344 211.527344 C 144.03125 210.976562 143.613281 210.464844 143.140625 209.992188 C 142.671875 209.523438 142.160156 209.101562 141.605469 208.734375 C 141.054688 208.363281 140.472656 208.050781 139.855469 207.796875 C 139.242188 207.542969 138.609375 207.347656 137.957031 207.21875 C 137.304688 207.089844 136.644531 207.023438 135.980469 207.023438 L 130.914062 207.023438 C 130.257812 207.027344 129.613281 207.089844 128.96875 207.21875 C 128.328125 207.347656 127.707031 207.535156 127.101562 207.785156 C 126.496094 208.03125 125.917969 208.335938 125.371094 208.695312 C 124.824219 209.054688 124.316406 209.460938 123.851562 209.917969 C 123.382812 210.375 122.960938 210.875 122.589844 211.410156 C 122.214844 211.949219 121.898438 212.515625 121.636719 213.117188 C 121.371094 213.714844 121.167969 214.332031 121.023438 214.972656 C 120.882812 215.609375 120.800781 216.253906 120.78125 216.910156 C 120.789062 217.128906 120.761719 217.34375 120.695312 217.554688 C 120.628906 217.765625 120.527344 217.957031 120.394531 218.132812 C 120.261719 218.308594 120.101562 218.457031 119.914062 218.574219 C 119.730469 218.695312 119.53125 218.78125 119.316406 218.828125 C 119.074219 218.863281 118.835938 218.84375 118.605469 218.773438 C 118.371094 218.703125 118.164062 218.585938 117.980469 218.425781 C 117.796875 218.265625 117.652344 218.074219 117.554688 217.855469 C 117.453125 217.632812 117.402344 217.398438 117.402344 217.15625 L 117.402344 208.898438 C 117.394531 208.769531 117.441406 208.660156 117.535156 208.574219 C 118.449219 207.863281 119.1875 207.003906 119.746094 205.984375 C 120.304688 204.96875 120.636719 203.882812 120.742188 202.730469 C 121.167969 202.488281 121.566406 202.203125 121.929688 201.875 C 122.296875 201.546875 122.621094 201.183594 122.90625 200.785156 C 123.191406 200.382812 123.429688 199.957031 123.621094 199.507812 C 123.8125 199.054688 123.957031 198.589844 124.046875 198.105469 C 124.136719 197.625 124.171875 197.136719 124.15625 196.648438 C 124.140625 196.15625 124.070312 195.675781 123.949219 195.199219 C 123.828125 194.722656 123.65625 194.265625 123.433594 193.828125 C 123.214844 193.390625 122.945312 192.980469 122.636719 192.601562 C 122.324219 192.222656 121.976562 191.882812 121.589844 191.578125 C 121.207031 191.273438 120.792969 191.015625 120.347656 190.804688 C 119.90625 190.589844 119.445312 190.429688 118.96875 190.316406 C 118.492188 190.203125 118.007812 190.144531 117.515625 190.136719 C 117.027344 190.132812 116.539062 190.179688 116.058594 190.277344 C 115.578125 190.378906 115.117188 190.527344 114.667969 190.730469 C 114.222656 190.929688 113.800781 191.175781 113.40625 191.46875 C 113.011719 191.761719 112.65625 192.097656 112.335938 192.46875 C 112.015625 192.097656 111.65625 191.761719 111.261719 191.46875 C 110.871094 191.175781 110.449219 190.929688 110 190.730469 C 109.554688 190.527344 109.089844 190.378906 108.609375 190.277344 C 108.128906 190.179688 107.644531 190.132812 107.152344 190.136719 C 106.664062 190.144531 106.179688 190.203125 105.699219 190.316406 C 105.222656 190.429688 104.761719 190.59375 104.320312 190.804688 C 103.878906 191.019531 103.464844 191.277344 103.078125 191.578125 C 102.695312 191.882812 102.347656 192.226562 102.035156 192.605469 C 101.722656 192.984375 101.457031 193.394531 101.238281 193.832031 C 101.015625 194.269531 100.84375 194.726562 100.722656 195.199219 C 100.601562 195.675781 100.53125 196.160156 100.515625 196.648438 C 100.5 197.140625 100.539062 197.625 100.628906 198.109375 C 100.71875 198.589844 100.859375 199.058594 101.050781 199.507812 C 101.246094 199.960938 101.484375 200.386719 101.769531 200.785156 C 102.054688 201.183594 102.378906 201.546875 102.746094 201.875 C 103.109375 202.203125 103.507812 202.488281 103.933594 202.730469 C 104.039062 203.882812 104.371094 204.96875 104.925781 205.984375 C 105.484375 207 106.21875 207.863281 107.132812 208.574219 C 107.230469 208.660156 107.273438 208.769531 107.269531 208.898438 L 107.269531 219.6875 C 107.269531 220.769531 107.449219 221.816406 107.816406 222.832031 C 108.183594 223.847656 108.710938 224.769531 109.398438 225.601562 L 102.203125 225.601562 C 101.648438 225.601562 101.097656 225.65625 100.554688 225.765625 C 100.011719 225.871094 99.484375 226.035156 98.972656 226.246094 C 98.460938 226.457031 97.972656 226.71875 97.511719 227.027344 C 97.050781 227.335938 96.625 227.683594 96.234375 228.078125 C 95.839844 228.46875 95.492188 228.894531 95.183594 229.355469 C 94.875 229.816406 94.613281 230.304688 94.402344 230.816406 C 94.191406 231.328125 94.03125 231.855469 93.921875 232.398438 C 93.8125 232.941406 93.757812 233.492188 93.757812 234.042969 C 93.761719 235.929688 94.339844 237.617188 95.488281 239.113281 L 95.445312 239.113281 C 94.890625 239.113281 94.34375 239.167969 93.800781 239.273438 C 93.253906 239.382812 92.726562 239.542969 92.214844 239.757812 C 91.703125 239.96875 91.21875 240.230469 90.757812 240.535156 C 90.296875 240.84375 89.871094 241.195312 89.480469 241.585938 C 89.085938 241.980469 88.738281 242.40625 88.429688 242.867188 C 88.121094 243.328125 87.863281 243.8125 87.648438 244.324219 C 87.4375 244.839844 87.277344 245.367188 87.167969 245.910156 C 87.0625 246.453125 87.007812 247 87.007812 247.554688 C 87.007812 248.109375 87.0625 248.660156 87.167969 249.203125 C 87.277344 249.746094 87.4375 250.273438 87.648438 250.785156 C 87.863281 251.296875 88.121094 251.785156 88.429688 252.246094 C 88.738281 252.707031 89.085938 253.132812 89.480469 253.523438 C 89.871094 253.917969 90.296875 254.265625 90.757812 254.574219 C 91.21875 254.882812 91.703125 255.144531 92.214844 255.355469 C 92.726562 255.570312 93.253906 255.730469 93.800781 255.835938 C 94.34375 255.945312 94.890625 256 95.445312 256 L 95.488281 256 C 94.929688 256.726562 94.5 257.523438 94.203125 258.390625 C 93.90625 259.257812 93.757812 260.148438 93.757812 261.066406 C 93.757812 261.984375 93.90625 262.878906 94.203125 263.746094 C 94.5 264.613281 94.929688 265.410156 95.488281 266.132812 L 81.933594 266.132812 C 81.601562 266.132812 81.273438 266.167969 80.945312 266.230469 C 80.621094 266.296875 80.304688 266.390625 79.996094 266.519531 C 79.6875 266.648438 79.394531 266.804688 79.121094 266.988281 C 78.84375 267.171875 78.585938 267.382812 78.351562 267.617188 C 78.117188 267.851562 77.90625 268.109375 77.722656 268.386719 C 77.535156 268.664062 77.382812 268.953125 77.253906 269.261719 C 77.125 269.570312 77.03125 269.886719 76.964844 270.210938 C 76.898438 270.539062 76.867188 270.867188 76.867188 271.199219 C 76.867188 271.535156 76.898438 271.863281 76.964844 272.1875 C 77.03125 272.515625 77.125 272.832031 77.253906 273.140625 C 77.382812 273.445312 77.535156 273.738281 77.722656 274.015625 C 77.90625 274.292969 78.117188 274.546875 78.351562 274.785156 C 78.585938 275.019531 78.84375 275.230469 79.121094 275.414062 C 79.394531 275.597656 79.6875 275.753906 79.996094 275.882812 C 80.304688 276.007812 80.621094 276.105469 80.945312 276.171875 C 81.273438 276.234375 81.601562 276.269531 81.933594 276.269531 L 87 276.269531 L 87 284.710938 C 87 285.15625 87.042969 285.59375 87.132812 286.03125 C 87.21875 286.464844 87.347656 286.886719 87.515625 287.296875 C 87.683594 287.707031 87.894531 288.097656 88.140625 288.464844 C 88.386719 288.835938 88.667969 289.175781 88.980469 289.488281 C 89.292969 289.804688 89.636719 290.082031 90.003906 290.328125 C 90.371094 290.574219 90.761719 290.785156 91.171875 290.953125 C 91.582031 291.125 92.003906 291.25 92.4375 291.339844 C 92.875 291.425781 93.3125 291.46875 93.757812 291.46875 C 94.199219 291.46875 94.640625 291.425781 95.074219 291.339844 C 95.511719 291.25 95.933594 291.125 96.34375 290.953125 C 96.753906 290.785156 97.140625 290.574219 97.511719 290.328125 C 97.878906 290.082031 98.21875 289.804688 98.535156 289.488281 C 98.847656 289.175781 99.128906 288.835938 99.375 288.464844 C 99.621094 288.097656 99.828125 287.707031 100 287.296875 C 100.167969 286.886719 100.296875 286.464844 100.382812 286.03125 C 100.46875 285.59375 100.511719 285.15625 100.511719 284.710938 L 100.511719 276.269531 L 135.980469 276.269531 L 135.980469 272.890625 L 81.933594 272.890625 C 81.710938 272.890625 81.496094 272.847656 81.289062 272.761719 C 81.082031 272.675781 80.898438 272.554688 80.742188 272.394531 C 80.582031 272.238281 80.460938 272.054688 80.375 271.847656 C 80.289062 271.640625 80.246094 271.425781 80.246094 271.199219 C 80.246094 270.976562 80.289062 270.761719 80.375 270.554688 C 80.460938 270.347656 80.582031 270.164062 80.742188 270.007812 C 80.898438 269.847656 81.082031 269.726562 81.289062 269.640625 C 81.496094 269.554688 81.710938 269.511719 81.933594 269.511719 L 173.136719 269.511719 C 173.359375 269.511719 173.574219 269.554688 173.78125 269.640625 C 173.988281 269.726562 174.171875 269.847656 174.332031 270.007812 C 174.488281 270.164062 174.609375 270.347656 174.695312 270.554688 C 174.78125 270.761719 174.824219 270.976562 174.824219 271.199219 C 174.824219 271.425781 174.78125 271.640625 174.695312 271.847656 C 174.609375 272.054688 174.488281 272.238281 174.332031 272.394531 C 174.171875 272.554688 173.988281 272.675781 173.78125 272.761719 C 173.574219 272.847656 173.359375 272.890625 173.136719 272.890625 L 139.359375 272.890625 L 139.359375 276.269531 L 156.246094 276.269531 L 156.246094 284.710938 C 156.246094 285.15625 156.289062 285.59375 156.375 286.03125 C 156.464844 286.464844 156.589844 286.886719 156.761719 287.296875 C 156.929688 287.707031 157.140625 288.097656 157.386719 288.464844 C 157.632812 288.835938 157.910156 289.175781 158.226562 289.488281 C 158.539062 289.804688 158.878906 290.082031 159.25 290.328125 C 159.617188 290.574219 160.007812 290.785156 160.417969 290.953125 C 160.828125 291.125 161.25 291.25 161.683594 291.339844 C 162.121094 291.425781 162.558594 291.46875 163.003906 291.46875 C 163.445312 291.46875 163.886719 291.425781 164.320312 291.339844 C 164.753906 291.25 165.179688 291.125 165.585938 290.953125 C 165.996094 290.785156 166.386719 290.574219 166.753906 290.328125 C 167.125 290.082031 167.464844 289.804688 167.78125 289.488281 C 168.09375 289.175781 168.375 288.835938 168.621094 288.464844 C 168.867188 288.097656 169.074219 287.707031 169.242188 287.296875 C 169.414062 286.886719 169.542969 286.464844 169.628906 286.03125 C 169.714844 285.59375 169.757812 285.15625 169.757812 284.710938 L 169.757812 276.269531 L 173.136719 276.269531 C 173.46875 276.269531 173.796875 276.234375 174.125 276.171875 C 174.449219 276.105469 174.769531 276.007812 175.074219 275.882812 C 175.382812 275.753906 175.675781 275.597656 175.949219 275.414062 C 176.226562 275.230469 176.484375 275.019531 176.71875 274.785156 C 176.953125 274.546875 177.164062 274.292969 177.347656 274.015625 C 177.535156 273.738281 177.691406 273.445312 177.816406 273.140625 C 177.945312 272.832031 178.039062 272.515625 178.105469 272.1875 C 178.171875 271.863281 178.203125 271.535156 178.203125 271.199219 C 178.203125 270.867188 178.171875 270.539062 178.105469 270.210938 C 178.039062 269.886719 177.945312 269.570312 177.816406 269.261719 C 177.691406 268.953125 177.535156 268.664062 177.347656 268.386719 C 177.164062 268.109375 176.953125 267.851562 176.71875 267.617188 C 176.484375 267.382812 176.226562 267.171875 175.949219 266.988281 C 175.675781 266.804688 175.382812 266.648438 175.074219 266.519531 C 174.769531 266.390625 174.449219 266.296875 174.125 266.230469 C 173.796875 266.167969 173.46875 266.132812 173.136719 266.132812 Z M 97.136719 276.269531 L 97.136719 284.710938 C 97.136719 285.160156 97.050781 285.589844 96.878906 286.003906 C 96.707031 286.417969 96.460938 286.785156 96.144531 287.101562 C 95.828125 287.417969 95.464844 287.660156 95.050781 287.832031 C 94.636719 288.003906 94.203125 288.089844 93.757812 288.089844 C 93.308594 288.089844 92.878906 288.003906 92.464844 287.832031 C 92.050781 287.660156 91.683594 287.417969 91.367188 287.101562 C 91.050781 286.785156 90.808594 286.417969 90.636719 286.003906 C 90.464844 285.589844 90.378906 285.160156 90.378906 284.710938 L 90.378906 276.269531 Z M 157.9375 245.867188 L 139.359375 245.867188 L 139.359375 249.246094 L 157.9375 249.246094 L 157.9375 252.621094 L 115.714844 252.621094 C 115.191406 252.621094 114.679688 252.539062 114.183594 252.378906 C 113.6875 252.21875 113.226562 251.988281 112.800781 251.6875 C 112.375 251.382812 112.003906 251.023438 111.691406 250.609375 C 111.375 250.191406 111.132812 249.738281 110.957031 249.246094 L 135.980469 249.246094 L 135.980469 245.867188 L 110.957031 245.867188 C 111.132812 245.375 111.375 244.921875 111.691406 244.503906 C 112.003906 244.085938 112.375 243.726562 112.800781 243.425781 C 113.226562 243.121094 113.6875 242.890625 114.183594 242.730469 C 114.679688 242.574219 115.191406 242.492188 115.714844 242.488281 L 157.9375 242.488281 Z M 164.691406 228.976562 L 164.691406 232.355469 L 146.113281 232.355469 L 146.113281 235.734375 L 164.691406 235.734375 L 164.691406 239.113281 L 122.46875 239.113281 C 121.945312 239.109375 121.4375 239.027344 120.941406 238.867188 C 120.441406 238.710938 119.980469 238.476562 119.554688 238.175781 C 119.128906 237.875 118.761719 237.515625 118.445312 237.097656 C 118.132812 236.679688 117.886719 236.226562 117.710938 235.734375 L 142.734375 235.734375 L 142.734375 232.355469 L 117.710938 232.355469 C 117.886719 231.863281 118.132812 231.410156 118.445312 230.992188 C 118.761719 230.574219 119.128906 230.214844 119.554688 229.914062 C 119.980469 229.613281 120.441406 229.378906 120.941406 229.222656 C 121.4375 229.0625 121.945312 228.980469 122.46875 228.976562 Z M 110.644531 219.6875 L 110.644531 213.777344 L 114.023438 213.777344 L 114.023438 217.15625 C 114.03125 218.160156 114.3125 219.078125 114.867188 219.910156 L 111.058594 221.816406 C 110.789062 221.132812 110.648438 220.425781 110.644531 219.6875 Z M 113.179688 224.53125 L 118.078125 222.089844 C 118.628906 222.210938 119.1875 222.242188 119.75 222.183594 C 119.882812 222.164062 120.003906 222.121094 120.132812 222.097656 L 125.050781 224.554688 C 124.015625 225.25 122.871094 225.597656 121.625 225.601562 L 116.558594 225.601562 C 115.320312 225.601562 114.191406 225.242188 113.179688 224.53125 Z M 130.914062 219.78125 C 130.894531 219.335938 130.988281 218.914062 131.195312 218.515625 C 131.402344 218.121094 131.695312 217.800781 132.070312 217.558594 C 132.484375 217.300781 132.9375 217.164062 133.425781 217.152344 C 133.914062 217.140625 134.371094 217.253906 134.796875 217.492188 C 135.1875 217.730469 135.488281 218.050781 135.699219 218.453125 C 135.914062 218.855469 136.003906 219.285156 135.980469 219.738281 C 135.984375 220.8125 136.171875 221.847656 136.539062 222.855469 C 136.90625 223.863281 137.429688 224.777344 138.113281 225.601562 L 128.835938 225.601562 C 129.535156 224.792969 130.0625 223.890625 130.421875 222.886719 C 130.777344 221.882812 130.941406 220.847656 130.914062 219.78125 Z M 145.269531 225.601562 C 144.03125 225.597656 142.910156 225.242188 141.898438 224.53125 L 146.777344 222.089844 C 147.390625 222.226562 148.011719 222.246094 148.632812 222.152344 C 148.703125 222.144531 148.769531 222.113281 148.835938 222.097656 L 152.675781 224.019531 C 151.222656 225.070312 149.597656 225.59375 147.800781 225.601562 Z M 152.894531 213.777344 C 153.339844 213.78125 153.769531 213.871094 154.179688 214.046875 C 154.589844 214.21875 154.949219 214.464844 155.265625 214.78125 C 155.578125 215.09375 155.820312 215.460938 155.988281 215.871094 C 156.160156 216.28125 156.246094 216.710938 156.246094 217.15625 C 156.238281 218.6875 155.839844 220.109375 155.046875 221.421875 L 151.988281 219.894531 C 152.570312 219.007812 152.863281 218.035156 152.867188 216.976562 Z M 142.734375 217.15625 C 142.742188 218.160156 143.023438 219.078125 143.578125 219.910156 L 139.773438 221.816406 C 139.503906 221.144531 139.367188 220.445312 139.359375 219.722656 C 139.375 219.183594 139.316406 218.652344 139.179688 218.132812 C 139.046875 217.609375 138.847656 217.113281 138.574219 216.648438 C 138.304688 216.183594 137.972656 215.765625 137.582031 215.390625 C 137.195312 215.019531 136.761719 214.707031 136.285156 214.453125 C 135.652344 214.144531 134.988281 213.945312 134.292969 213.855469 L 134.292969 210.398438 L 135.980469 210.398438 C 136.421875 210.398438 136.863281 210.441406 137.296875 210.53125 C 137.734375 210.617188 138.15625 210.746094 138.566406 210.914062 C 138.976562 211.085938 139.363281 211.292969 139.734375 211.539062 C 140.101562 211.785156 140.441406 212.066406 140.757812 212.378906 C 141.070312 212.691406 141.351562 213.035156 141.597656 213.402344 C 141.84375 213.769531 142.050781 214.160156 142.222656 214.570312 C 142.390625 214.980469 142.519531 215.402344 142.605469 215.835938 C 142.691406 216.273438 142.734375 216.710938 142.734375 217.15625 Z M 124.15625 216.988281 C 124.171875 216.550781 124.226562 216.121094 124.324219 215.695312 C 124.417969 215.269531 124.554688 214.859375 124.730469 214.460938 C 124.90625 214.0625 125.117188 213.683594 125.367188 213.324219 C 125.613281 212.964844 125.894531 212.632812 126.207031 212.332031 C 126.519531 212.027344 126.855469 211.753906 127.222656 211.515625 C 127.585938 211.277344 127.96875 211.074219 128.371094 210.910156 C 128.777344 210.742188 129.191406 210.617188 129.617188 210.53125 C 130.046875 210.445312 130.476562 210.402344 130.914062 210.398438 L 130.914062 214.347656 C 130.679688 214.457031 130.453125 214.582031 130.238281 214.722656 C 129.359375 215.285156 128.679688 216.027344 128.199219 216.953125 C 127.714844 217.875 127.496094 218.859375 127.535156 219.898438 C 127.554688 220.574219 127.441406 221.230469 127.199219 221.859375 L 123.265625 219.894531 C 123.832031 219.007812 124.132812 218.039062 124.15625 216.988281 Z M 117.402344 193.511719 C 117.851562 193.511719 118.28125 193.597656 118.695312 193.769531 C 119.109375 193.9375 119.472656 194.183594 119.789062 194.5 C 120.105469 194.816406 120.351562 195.183594 120.523438 195.597656 C 120.695312 196.011719 120.78125 196.441406 120.78125 196.886719 C 120.78125 197.335938 120.695312 197.765625 120.523438 198.179688 C 120.351562 198.59375 120.105469 198.960938 119.789062 199.277344 C 119.472656 199.59375 119.109375 199.839844 118.695312 200.007812 C 118.28125 200.179688 117.851562 200.265625 117.402344 200.265625 C 116.953125 200.265625 116.523438 200.179688 116.109375 200.007812 C 115.695312 199.839844 115.332031 199.59375 115.011719 199.277344 C 114.695312 198.960938 114.453125 198.59375 114.28125 198.179688 C 114.109375 197.765625 114.023438 197.335938 114.023438 196.886719 C 114.023438 196.441406 114.109375 196.011719 114.28125 195.597656 C 114.453125 195.183594 114.695312 194.816406 115.011719 194.5 C 115.332031 194.183594 115.695312 193.9375 116.109375 193.769531 C 116.523438 193.597656 116.953125 193.511719 117.402344 193.511719 Z M 107.269531 193.511719 C 107.714844 193.511719 108.148438 193.597656 108.5625 193.769531 C 108.976562 193.9375 109.339844 194.183594 109.65625 194.5 C 109.972656 194.816406 110.21875 195.183594 110.390625 195.597656 C 110.558594 196.011719 110.644531 196.441406 110.644531 196.886719 C 110.644531 197.335938 110.558594 197.765625 110.390625 198.179688 C 110.21875 198.59375 109.972656 198.960938 109.65625 199.277344 C 109.339844 199.59375 108.976562 199.839844 108.5625 200.007812 C 108.148438 200.179688 107.714844 200.265625 107.269531 200.265625 C 106.820312 200.265625 106.390625 200.179688 105.976562 200.007812 C 105.5625 199.839844 105.195312 199.59375 104.878906 199.277344 C 104.5625 198.960938 104.320312 198.59375 104.148438 198.179688 C 103.976562 197.765625 103.890625 197.335938 103.890625 196.886719 C 103.890625 196.441406 103.976562 196.011719 104.148438 195.597656 C 104.320312 195.183594 104.5625 194.816406 104.878906 194.5 C 105.195312 194.183594 105.5625 193.9375 105.976562 193.769531 C 106.390625 193.597656 106.820312 193.511719 107.269531 193.511719 Z M 107.585938 203.613281 C 108.5 203.570312 109.371094 203.347656 110.195312 202.949219 C 111.023438 202.546875 111.734375 202.003906 112.335938 201.308594 C 112.9375 202.003906 113.648438 202.546875 114.472656 202.949219 C 115.296875 203.347656 116.167969 203.570312 117.085938 203.613281 C 116.765625 204.539062 116.222656 205.308594 115.453125 205.914062 C 114.996094 206.277344 114.644531 206.71875 114.390625 207.242188 C 114.140625 207.765625 114.019531 208.316406 114.023438 208.898438 L 114.023438 210.398438 L 110.644531 210.398438 L 110.644531 208.898438 C 110.652344 208.316406 110.527344 207.761719 110.277344 207.238281 C 110.027344 206.714844 109.671875 206.273438 109.214844 205.914062 C 108.449219 205.304688 107.90625 204.539062 107.585938 203.613281 Z M 97.136719 234.042969 C 97.136719 233.710938 97.167969 233.382812 97.230469 233.054688 C 97.296875 232.730469 97.394531 232.414062 97.519531 232.105469 C 97.648438 231.796875 97.804688 231.507812 97.988281 231.230469 C 98.171875 230.953125 98.382812 230.699219 98.617188 230.460938 C 98.855469 230.226562 99.109375 230.015625 99.386719 229.832031 C 99.664062 229.648438 99.957031 229.492188 100.261719 229.363281 C 100.570312 229.238281 100.886719 229.140625 101.214844 229.074219 C 101.539062 229.011719 101.867188 228.976562 102.203125 228.976562 L 115.757812 228.976562 C 115.195312 229.703125 114.765625 230.5 114.46875 231.367188 C 114.171875 232.234375 114.023438 233.128906 114.023438 234.042969 C 114.023438 234.960938 114.171875 235.855469 114.46875 236.722656 C 114.765625 237.589844 115.195312 238.386719 115.757812 239.113281 L 102.203125 239.113281 C 101.867188 239.113281 101.539062 239.078125 101.214844 239.015625 C 100.886719 238.949219 100.570312 238.851562 100.261719 238.726562 C 99.957031 238.597656 99.664062 238.441406 99.386719 238.257812 C 99.109375 238.074219 98.855469 237.863281 98.617188 237.628906 C 98.382812 237.390625 98.171875 237.136719 97.988281 236.859375 C 97.804688 236.582031 97.648438 236.292969 97.519531 235.984375 C 97.394531 235.675781 97.296875 235.359375 97.230469 235.035156 C 97.167969 234.707031 97.136719 234.378906 97.136719 234.042969 Z M 90.378906 247.554688 C 90.378906 247.222656 90.410156 246.894531 90.476562 246.566406 C 90.542969 246.242188 90.636719 245.925781 90.765625 245.617188 C 90.890625 245.308594 91.046875 245.019531 91.234375 244.742188 C 91.417969 244.464844 91.628906 244.207031 91.863281 243.972656 C 92.097656 243.738281 92.355469 243.527344 92.632812 243.34375 C 92.90625 243.160156 93.199219 243.003906 93.507812 242.875 C 93.8125 242.746094 94.132812 242.652344 94.457031 242.585938 C 94.785156 242.523438 95.113281 242.488281 95.445312 242.488281 L 109 242.488281 C 108.441406 243.214844 108.011719 244.011719 107.714844 244.878906 C 107.417969 245.746094 107.269531 246.640625 107.269531 247.554688 C 107.269531 248.472656 107.417969 249.367188 107.714844 250.234375 C 108.011719 251.101562 108.441406 251.898438 109 252.621094 L 95.445312 252.621094 C 95.113281 252.621094 94.785156 252.589844 94.457031 252.527344 C 94.132812 252.460938 93.8125 252.363281 93.507812 252.238281 C 93.199219 252.109375 92.90625 251.953125 92.632812 251.769531 C 92.355469 251.585938 92.097656 251.375 91.863281 251.140625 C 91.628906 250.902344 91.417969 250.648438 91.234375 250.371094 C 91.046875 250.09375 90.890625 249.800781 90.765625 249.496094 C 90.636719 249.1875 90.542969 248.871094 90.476562 248.542969 C 90.410156 248.21875 90.378906 247.890625 90.378906 247.554688 Z M 97.136719 261.066406 C 97.136719 260.734375 97.167969 260.40625 97.230469 260.078125 C 97.296875 259.753906 97.394531 259.4375 97.519531 259.128906 C 97.648438 258.820312 97.804688 258.527344 97.988281 258.253906 C 98.171875 257.976562 98.382812 257.71875 98.617188 257.484375 C 98.855469 257.25 99.109375 257.039062 99.386719 256.855469 C 99.664062 256.667969 99.957031 256.515625 100.261719 256.386719 C 100.570312 256.257812 100.886719 256.164062 101.214844 256.097656 C 101.539062 256.03125 101.867188 256 102.203125 256 L 115.757812 256 C 115.195312 256.726562 114.765625 257.523438 114.46875 258.390625 C 114.171875 259.257812 114.023438 260.148438 114.023438 261.066406 C 114.023438 261.984375 114.171875 262.878906 114.46875 263.746094 C 114.765625 264.613281 115.195312 265.410156 115.757812 266.132812 L 102.203125 266.132812 C 101.867188 266.132812 101.539062 266.101562 101.214844 266.035156 C 100.886719 265.972656 100.570312 265.875 100.261719 265.75 C 99.957031 265.621094 99.664062 265.464844 99.386719 265.28125 C 99.109375 265.09375 98.855469 264.886719 98.617188 264.648438 C 98.382812 264.414062 98.171875 264.160156 97.988281 263.882812 C 97.804688 263.605469 97.648438 263.3125 97.519531 263.007812 C 97.394531 262.699219 97.296875 262.382812 97.230469 262.054688 C 97.167969 261.730469 97.136719 261.398438 97.136719 261.066406 Z M 129.222656 266.132812 L 122.46875 266.132812 C 121.945312 266.132812 121.4375 266.050781 120.941406 265.890625 C 120.441406 265.730469 119.980469 265.5 119.554688 265.199219 C 119.128906 264.894531 118.761719 264.535156 118.445312 264.121094 C 118.132812 263.703125 117.886719 263.25 117.710938 262.757812 L 142.734375 262.757812 L 142.734375 259.378906 L 117.710938 259.378906 C 117.886719 258.886719 118.132812 258.433594 118.445312 258.015625 C 118.761719 257.597656 119.128906 257.238281 119.554688 256.9375 C 119.980469 256.632812 120.441406 256.402344 120.941406 256.242188 C 121.4375 256.082031 121.945312 256.003906 122.46875 256 L 164.691406 256 L 164.691406 259.378906 L 146.113281 259.378906 L 146.113281 262.757812 L 164.691406 262.757812 L 164.691406 266.132812 Z M 166.378906 284.710938 C 166.378906 285.160156 166.292969 285.589844 166.125 286.003906 C 165.953125 286.417969 165.707031 286.785156 165.390625 287.101562 C 165.074219 287.417969 164.710938 287.660156 164.296875 287.832031 C 163.882812 288.003906 163.449219 288.089844 163.003906 288.089844 C 162.554688 288.089844 162.125 288.003906 161.710938 287.832031 C 161.296875 287.660156 160.929688 287.417969 160.613281 287.101562 C 160.296875 286.785156 160.054688 286.417969 159.882812 286.003906 C 159.710938 285.589844 159.625 285.160156 159.625 284.710938 L 159.625 276.269531 L 166.378906 276.269531 Z M 166.378906 284.710938 " fill-opacity="1" fill-rule="nonzero"/></g><path fill="#000000" d="M 92.066406 279.644531 L 95.445312 279.644531 L 95.445312 283.023438 L 92.066406 283.023438 Z M 92.066406 279.644531 " fill-opacity="1" fill-rule="nonzero"/><path fill="#000000" d="M 161.3125 279.644531 L 164.691406 279.644531 L 164.691406 283.023438 L 161.3125 283.023438 Z M 161.3125 279.644531 " fill-opacity="1" fill-rule="nonzero"/></svg>