<svg width="112" height="120" viewBox="0 0 112 120" fill="none" xmlns="http://www.w3.org/2000/svg">
    <g clip-path="url(#clip0_839_637)">
    <path d="M44.1363 53.2729C43.0966 53.2729 42.251 54.1165 42.251 55.1493V68.297C42.251 69.3298 43.0966 70.1733 44.1363 70.1733H53.5673C54.6027 70.1733 55.4526 69.3298 55.4526 68.297V55.1493C55.4526 54.1165 54.6027 53.2729 53.5673 53.2729H44.1363ZM51.6777 66.4206H46.0216V57.0257H51.6777V66.4206Z" fill="black"/>
    <path d="M62.9942 42.0015C61.9588 42.0015 61.1089 42.8493 61.1089 43.8822V68.2967C61.1089 69.3296 61.9588 70.1731 62.9942 70.1731H72.4252C73.4649 70.1731 74.3105 69.3296 74.3105 68.2967V43.8822C74.3105 42.8493 73.4649 42.0015 72.4252 42.0015H62.9942ZM70.5399 66.4203H64.8839V45.7585H70.5399V66.4203Z" fill="black"/>
    <path d="M81.856 34.4873C80.8206 34.4873 79.9707 35.3351 79.9707 36.368V68.2967C79.9707 69.3296 80.8206 70.1731 81.856 70.1731H91.287C92.3225 70.1731 93.1724 69.3296 93.1724 68.2967V36.368C93.1724 35.3351 92.3225 34.4873 91.287 34.4873H81.856ZM89.4017 66.4203H83.7414V38.2444H89.4017V66.4203Z" fill="black"/>
    <path d="M110.149 23.2202H100.718C99.6781 23.2202 98.8325 24.0637 98.8325 25.0966V68.2966C98.8325 69.3294 99.6781 70.1729 100.718 70.1729H110.149C111.184 70.1729 112.034 69.3294 112.034 68.2966V25.0966C112.034 24.0637 111.184 23.2202 110.149 23.2202ZM108.259 66.4202H102.603V26.9773H108.259V66.4202Z" fill="black"/>
    <mask id="mask0_839_637" style="mask-type:luminance" maskUnits="userSpaceOnUse" x="38" y="2" width="58" height="37">
    <path d="M38.1914 2.33496H95.6229V38.5157H38.1914V2.33496Z" fill="white"/>
    </mask>
    <g mask="url(#mask0_839_637)">
    <path d="M94.4451 3.05346C93.9489 2.60588 93.2457 2.44234 92.6072 2.65322L73.1326 8.80312C72.4984 9.014 72.0023 9.53474 71.8599 10.1889C71.7175 10.8474 71.9332 11.5273 72.4251 11.9749L74.785 14.1095C74.6642 14.3204 74.5261 14.5571 74.4053 14.768C73.4648 16.2958 72.4035 17.7719 71.2473 19.1362C68.8658 21.9507 66.0356 24.4167 62.8776 26.461C59.6505 28.5267 56.1128 30.1234 52.3163 31.1562C48.4722 32.2364 44.4643 32.7271 40.4089 32.6109C39.4425 32.5893 38.6185 33.2693 38.502 34.229C38.3596 35.1715 38.9722 36.0624 39.8912 36.3206C43.6403 37.3061 47.5059 37.8011 51.4189 37.8011C52.0574 37.8011 52.7175 37.7752 53.3776 37.7537C58.0456 37.5644 62.6662 36.6735 67.0969 35.0984C71.6269 33.5017 75.9153 31.2251 79.8068 28.3373C81.7396 26.9042 83.5774 25.3334 85.273 23.6421L87.5379 25.7078C88.0341 26.1554 88.7416 26.3189 89.3758 26.1081C90.0143 25.8972 90.5105 25.3807 90.6485 24.7223L95.0361 4.86099C95.1526 4.18101 94.9412 3.49673 94.4451 3.05346ZM87.6544 20.707L86.4551 19.6053C85.7001 18.9253 84.5223 18.9468 83.8147 19.6999L83.53 20.0055C83.2496 20.2852 82.9864 20.5908 82.706 20.8705C81.1011 22.4672 79.3581 23.9692 77.5418 25.3076C73.9566 27.9629 69.9961 30.076 65.8242 31.5307C62.856 32.5893 59.7886 33.2908 56.6564 33.6911C59.5772 32.6324 62.334 31.2509 64.9053 29.6069C68.3955 27.3733 71.4846 24.6534 74.099 21.5548C75.3976 20.027 76.5538 18.4088 77.5892 16.7175C77.7532 16.4593 77.8956 16.2011 78.0595 15.917C78.1544 15.7793 78.2278 15.6115 78.3184 15.4738C78.3442 15.4479 78.3442 15.4264 78.3658 15.4006L78.7929 14.6044C79.1941 13.8513 79.0518 12.9131 78.3917 12.3278L77.352 11.3853L90.5795 7.20647L87.6544 20.707Z" fill="black"/>
    </g>
    <mask id="mask1_839_637" style="mask-type:luminance" maskUnits="userSpaceOnUse" x="0" y="71" width="113" height="45">
    <path d="M0.212891 71.5674H112.19V115.361H0.212891V71.5674Z" fill="white"/>
    </mask>
    <g mask="url(#mask1_839_637)">
    <path d="M100.835 74.5411L84.4749 87.7145C84.4749 87.5467 84.4749 87.3831 84.4749 87.2196C84.4015 83.299 81.3125 80.0841 77.5677 80.0841H59.3874C58.352 80.0841 57.3597 79.473 56.7471 78.4617C56.609 78.2508 56.4407 78.0614 56.2293 77.8979C48.5197 72.3333 38.7824 71.2789 30.2272 75.0833L27.0649 76.4906H19.6185V73.6029C19.6185 72.57 18.7686 71.7222 17.7331 71.7222H2.09823C1.0628 71.7222 0.212891 72.57 0.212891 73.6029V108.35C0.212891 109.383 1.0628 110.227 2.09823 110.227H17.7547C18.7901 110.227 19.64 109.383 19.64 108.35V105.39H27.1857L49.5595 112.456C54.6287 114.337 58.8956 115.254 63.1365 115.254C67.4033 115.254 71.6701 114.311 76.7653 112.435C76.9508 112.366 77.1406 112.271 77.3045 112.129L110.076 85.5067C110.171 85.4121 110.266 85.3174 110.36 85.2227C112.694 82.3349 112.574 77.9237 110.076 75.1737C107.599 72.428 103.617 72.1482 100.835 74.5411ZM9.64388 103.677C8.60846 103.677 7.75854 102.833 7.75854 101.8C7.75854 100.767 8.60846 99.9196 9.64388 99.9196C10.6836 99.9196 11.5292 100.767 11.5292 101.8C11.5292 102.833 10.6836 103.677 9.64388 103.677ZM15.8694 78.3928V106.496H12.7804C14.2903 105.484 15.3042 103.771 15.3042 101.8C15.3042 98.7017 12.7545 96.1625 9.64388 96.1625C6.53329 96.1625 3.98787 98.7017 3.98787 101.8C3.98787 103.746 5.00173 105.484 6.50741 106.496H3.98787V75.5051H15.8694V78.3928ZM107.509 82.7352L75.1603 109.03C66.0141 112.366 60.0475 112.318 50.8322 108.914C50.8063 108.914 50.7847 108.888 50.7373 108.888L28.0356 101.706C27.8458 101.658 27.6559 101.611 27.4661 101.611H19.64V80.2477H27.4661C27.725 80.2477 27.9881 80.2003 28.2211 80.0841L31.7588 78.509C38.9723 75.3157 47.1521 76.1635 53.7314 80.7383C55.0515 82.6878 57.1267 83.8154 59.3874 83.8154H77.5677C79.2632 83.8154 80.6783 85.3647 80.6999 87.2411C80.7258 88.2998 80.3461 89.2853 79.6644 89.9653C79.3322 90.2967 78.9353 90.5549 78.5341 90.6926C77.9905 90.7873 77.4469 90.8346 76.9076 90.8346H56.678C55.6426 90.8346 54.7927 91.6782 54.7927 92.711C54.7927 93.7482 55.6426 94.5917 56.678 94.5917H77.7532C78.3184 94.5917 78.8879 94.5229 79.4272 94.3808C81.7871 93.9591 84.0003 92.9262 85.959 91.3769L103.263 77.4288C103.285 77.4073 103.285 77.4073 103.311 77.3815C104.536 76.3271 106.21 76.4648 107.319 77.6655C108.497 79.0513 108.592 81.2547 107.509 82.7352Z" fill="black"/>
    </g>
    </g>
    <defs>
    <clipPath id="clip0_839_637">
    <rect width="112" height="120" fill="white"/>
    </clipPath>
    </defs>
    </svg>
    