<svg width="110" height="125" viewBox="0 0 104 138" fill="none" xmlns="http://www.w3.org/2000/svg">
    <mask id="mask0_839_608" style="mask-type:luminance" maskUnits="userSpaceOnUse" x="0" y="0" width="105" height="138">
    <path d="M0.197266 0.267578H104.176V137.767H0.197266V0.267578Z" fill="white"/>
    </mask>
    <g mask="url(#mask0_839_608)">
    <path d="M97.8782 37.6286L97.758 44.8452L103.298 49.6872C104.645 50.8927 104.244 53.2028 102.349 53.7592L95.4305 55.8879L92.5821 62.7054C91.849 64.4632 89.4894 64.6164 88.4799 63.1045L84.2855 57.0611L76.9703 56.412C75.1035 56.2588 74.154 54.0978 75.3799 52.5577L79.7265 46.7562L78.072 39.5718C77.6754 37.8422 79.3299 36.1167 81.2569 36.8867L88.0512 39.2331L94.3568 35.4071C95.9793 34.3911 98.0304 35.7135 97.8782 37.6286ZM93.0428 45.8652L93.135 41.636L89.5215 43.8292C88.9406 44.1679 88.2355 44.2606 87.5625 44.0429L83.5844 42.656L84.5018 46.6957C84.6861 47.373 84.5619 48.1149 84.1052 48.7317L81.5613 52.0941L85.7277 52.465C86.4007 52.5255 87.0417 52.8641 87.4383 53.4527L89.858 56.9361L91.4805 53.0496C91.7248 52.4327 92.2456 51.9086 92.9507 51.7232L96.9929 50.4895L93.808 47.7157C93.3473 47.2521 93.0428 46.5748 93.0428 45.8652ZM18.5974 59.0325L10.0564 44.1034C9.167 44.3816 8.2496 44.567 7.3322 44.6315L16.1176 59.9921C16.9429 59.7139 17.7681 59.4035 18.5974 59.0325ZM14.0665 41.7287L22.6355 56.6579C23.3727 56.1338 24.0457 55.5815 24.6867 54.9646L15.9013 39.6C15.3524 40.4023 14.7675 41.1119 14.0665 41.7287ZM16.4541 31.952C16.8828 32.1697 17.2193 32.5084 17.4316 32.9075L29.6142 54.1623C30.135 55.0856 29.9827 56.1983 29.3417 56.9038C27.5951 58.8471 25.3917 60.6089 23.0041 61.9958C20.6165 63.3827 18.0445 64.4027 15.4726 64.955C14.431 65.1727 13.3934 64.6486 12.9007 63.7536L0.750174 42.531C0.5058 42.0996 0.441704 41.7005 0.441704 41.2691L0.22938 26.34C0.197331 24.4894 2.22041 23.3485 3.77879 24.304L16.4541 31.952ZM5.06475 39.725C6.68722 40.1282 8.37379 39.9105 9.84003 39.0477C11.2782 38.1849 12.3519 36.8263 12.8086 35.2217L4.94457 30.5046L5.06475 39.725ZM27.4108 119.027H27.8114V108.848C14.431 100.704 7.3322 85.2221 9.93217 69.5511C10.1164 68.4101 11.126 67.5796 12.2277 67.5796H82.7551C83.981 67.5796 84.9625 68.5029 85.0827 69.7083C85.3271 71.4016 85.3912 71.5589 85.5114 73.5948C85.6035 75.1349 85.6035 76.2759 85.5434 77.82C85.5114 78.1586 85.5114 78.4973 85.4793 78.836L94.6012 92.6847C95.4906 94.0433 94.7855 95.8334 93.2552 96.2648L85.3271 98.3935V111.964C85.3271 113.258 84.2855 114.339 83.0035 114.339H62.2479V118.995H63.1973C68.3091 118.995 72.4715 123.192 72.4715 128.34V135.311C72.4715 136.609 71.4299 137.69 70.1439 137.69H22.4833C21.1973 137.69 20.1557 136.638 20.1557 135.311V126.369C20.1277 122.329 23.4007 119.027 27.4108 119.027ZM63.1653 123.777H27.4108C26.0047 123.777 24.8389 124.95 24.8389 126.369V133.029H67.7563V128.405C67.7563 125.845 65.6771 123.777 63.1653 123.777ZM80.8603 73.9012C80.8282 73.4094 80.7681 72.8853 80.704 72.3289H14.2507C13.4856 79.6987 15.076 86.9194 18.6575 93.0556C21.658 98.1758 25.9726 102.433 31.1165 105.364C31.9137 105.731 32.4946 106.566 32.4946 107.521V119.06H57.5648V112.057C57.5648 110.763 58.6063 109.71 59.8883 109.71H80.6159V96.6961C80.6159 95.6479 81.317 94.6924 82.3586 94.4142L88.8805 92.6564L81.1046 80.8397C80.4917 79.9164 80.7681 78.9609 80.8603 77.695V73.9012ZM77.6754 27.7591C78.9614 27.7591 80.003 28.8073 80.003 30.1015C80.003 31.3956 78.9614 32.4479 77.6754 32.4479H71.8305C70.5445 32.4479 69.503 31.3956 69.503 30.1015C69.503 28.8073 70.5445 27.7591 71.8305 27.7591H77.6754ZM23.1283 32.4761C21.8423 32.4761 20.7687 31.4279 20.7687 30.1337C20.7687 28.8355 21.8103 27.7873 23.1283 27.7873H28.9732C30.2591 27.7873 31.3007 28.8355 31.3007 30.1337C31.3007 31.4279 30.2591 32.4761 28.9732 32.4761H23.1283ZM29.4619 12.334C28.5445 11.4108 28.5445 9.93117 29.4619 9.0039C30.3793 8.08065 31.8496 8.08065 32.767 9.0039L36.9013 13.1686C37.8187 14.0918 37.8187 15.5755 36.9013 16.4987C35.9839 17.426 34.5136 17.426 33.5962 16.4987L29.4619 12.334ZM48.0743 2.61777C48.0743 1.32362 49.1159 0.275391 50.4018 0.275391C51.6878 0.275391 52.7254 1.32362 52.7254 2.61777V8.51204C52.7254 9.80619 51.6878 10.8544 50.4018 10.8544C49.1159 10.8544 48.0743 9.80619 48.0743 8.51204V2.61777ZM68.0327 9.0039C68.9501 8.08065 70.4204 8.08065 71.3378 9.0039C72.2551 9.93117 72.2551 11.4108 71.3378 12.334L67.2075 16.4987C66.2861 17.426 64.8198 17.426 63.8984 16.4987C62.981 15.5755 62.981 14.0918 63.8984 13.1686L68.0327 9.0039ZM60.7456 41.7287C63.6861 44.2284 63.2574 51.2313 59.3074 52.3118C54.472 61.9958 46.2996 61.9958 41.4642 52.3118C37.5142 51.1991 37.0855 44.1679 40.0541 41.7005C39.6575 41.1119 39.2288 40.5878 38.8002 40.0637C36.9013 37.7818 35.0344 35.5321 35.0344 30.0087C35.0344 21.4657 41.9209 14.5232 50.4018 14.5232C58.8788 14.5232 65.7693 21.4657 65.7693 30.0087C65.7693 35.5603 63.8984 37.814 62.0035 40.1282C61.5749 40.6523 61.1462 41.1441 60.7456 41.7287ZM53.799 52.465H47.0047C49.3002 55.6419 51.4715 55.6419 53.799 52.465ZM58.2057 45.5548H42.5939C42.3175 45.5548 42.9305 45.6797 42.9024 45.8007C42.7782 46.2966 42.7782 46.9739 42.9024 47.4658C42.9305 47.5907 42.3175 47.7157 42.5939 47.7157H58.2057C58.4822 47.7157 57.8412 47.5907 57.9013 47.4658C58.0215 46.9739 58.0215 46.2643 57.9013 45.8007C57.8412 45.6797 58.4822 45.5548 58.2057 45.5548ZM57.9293 22.4212C53.767 18.2283 47.0047 18.2283 42.8383 22.4212C40.9114 24.3645 39.7176 27.0495 39.7176 30.0087C39.7176 36.024 42.9024 36.4876 44.9535 40.8377H55.8822C57.9293 36.5481 61.0821 36.024 61.0821 30.0087C61.0821 27.0495 59.8883 24.3322 57.9293 22.4212Z" fill="black"/>
    </g>
    </svg>
    