<svg width="110" height="125" viewBox="0 0 110 125" fill="none" xmlns="http://www.w3.org/2000/svg">
    <g clip-path="url(#clip0_839_564)">
    <path d="M48.5605 52.1497C47.1738 47.9887 44.006 44.4445 40.0841 42.6683C32.5005 39.2236 24.5961 39.6873 17.7795 40.387C16.9084 40.4781 16.1414 40.9915 15.7644 41.7492C15.383 42.5069 15.4437 43.397 15.9161 44.1092C16.7611 45.3761 18.0005 47.3138 18.5985 48.3571C20.1152 51.0069 20.8259 54.0625 21.3763 56.7206C22.7067 63.1505 29.2937 69.2823 38.0691 69.2823C38.9878 69.2823 39.9281 69.216 40.8902 69.0753C42.2769 68.8724 43.226 67.6344 43.0179 66.3095C42.8056 64.9846 41.4969 64.0696 40.1275 64.2766C33.1418 65.2952 27.3696 60.7036 26.3469 55.7766C25.7272 52.7624 24.9038 49.2763 23.0404 46.022C22.854 45.6908 22.6157 45.3016 22.3557 44.871C28.1843 44.5232 33.2155 44.9207 37.9087 47.0529C40.5868 48.2661 42.7623 50.7213 43.733 53.6236C44.175 54.9609 44.4827 56.7744 44.0927 58.8528C41.8089 56.4225 39.0614 53.8265 35.6769 51.0401C34.6152 50.1623 33.0118 50.2782 32.1018 51.2968C31.1874 52.3111 31.3131 53.8431 32.3748 54.7208C36.8687 58.4181 40.1751 61.7221 42.6496 64.6658C42.8056 64.9929 43.0396 65.2827 43.3386 65.5187C48.0665 71.3856 49.4576 75.737 50.4066 78.7595C50.5366 79.1694 50.6623 79.5544 50.7793 79.9188C48.2268 85.0693 46.6754 89.9052 45.9734 93.5652C45.7221 94.8819 46.6364 96.1446 48.0102 96.3848C48.1662 96.4138 48.3178 96.4262 48.4739 96.4262C49.6742 96.4262 50.7403 95.6064 50.9613 94.4347C51.6373 90.8989 53.1671 86.1706 55.7455 81.165C55.7802 81.107 55.8105 81.0449 55.8408 80.9787C57.4269 77.9273 59.4203 74.7889 61.8384 71.7458C62.0421 71.7168 62.2458 71.6754 62.4451 71.5967C68.1524 69.3527 74.761 70.7769 74.826 70.7894C76.1868 71.0916 77.5475 70.2842 77.8682 68.98C78.1889 67.6758 77.3438 66.3716 75.9831 66.0611C75.7621 66.0114 72.1349 65.2248 67.5934 65.5643C71.1685 62.3141 75.3807 59.3952 80.3253 57.1594C81.5907 56.5881 82.128 55.139 81.53 53.9259C80.932 52.7169 79.4239 52.1994 78.1585 52.7707C75.2897 54.0666 72.6679 55.582 70.2325 57.234L70.3452 56.8696C70.7309 55.5778 69.9508 54.2364 68.6074 53.8638C67.2597 53.4953 65.86 54.2405 65.4699 55.5282L63.3465 62.6122C63.3248 62.6868 63.3205 62.7613 63.3075 62.8317C60.014 65.9618 57.2146 69.3403 54.9178 72.7602C53.7001 68.7565 54.2504 65.2331 55.0781 62.753C56.6035 58.178 60.0444 54.2985 64.2826 52.3732C71.9659 48.8954 80.1519 48.4482 89.768 49.1935C89.0183 50.3735 88.286 51.5659 87.7746 52.4561C85.1095 57.1139 83.9264 62.1485 83.0251 66.5041C82.076 71.0957 79.4282 75.0497 75.7621 77.3476C71.7882 79.836 66.7657 80.4694 60.8547 79.2273C59.4853 78.9458 58.1333 79.7697 57.8343 81.078C57.5353 82.3864 58.402 83.6823 59.767 83.968C62.0508 84.4483 64.2609 84.6884 66.38 84.6884C70.9389 84.6884 75.0644 83.5829 78.5355 81.4093C83.4021 78.3579 86.7649 73.4019 88 67.4481C88.8277 63.4486 89.9024 58.8404 92.2251 54.787C93.0962 53.2551 94.9336 50.3818 96.212 48.4524C96.6843 47.7444 96.745 46.8542 96.3593 46.0965C95.9823 45.3389 95.2196 44.8255 94.3486 44.7344C84.4725 43.72 73.0233 43.0493 62.1158 47.9887C56.6296 50.477 52.192 55.4454 50.2463 61.2791C49.8129 62.575 49.5312 63.8957 49.3579 65.2165C48.9202 64.5996 48.4435 63.962 47.9365 63.312C49.5616 59.743 49.7912 55.8387 48.5605 52.1497Z" fill="black"/>
    <mask id="mask0_839_564" style="mask-type:luminance" maskUnits="userSpaceOnUse" x="0" y="-1" width="64" height="112">
    <path d="M0.0854492 -0.29541H63.3203V110.462H0.0854492V-0.29541Z" fill="white"/>
    </mask>
    <g mask="url(#mask0_839_564)">
    <path d="M33.8218 110.181C34.1468 110.313 34.4805 110.371 34.8142 110.371C35.7979 110.371 36.7382 109.82 37.1499 108.897C37.696 107.663 37.0979 106.239 35.8065 105.713C15.8333 97.5651 3.97678 78.1926 6.29955 57.5034C8.96467 33.8374 29.6573 16.1582 53.8817 15.62L47.6241 20.4434C46.532 21.2881 46.363 22.8117 47.2384 23.8592C47.7411 24.4513 48.4734 24.7618 49.2145 24.7618C49.7735 24.7618 50.3369 24.5879 50.8049 24.2277L62.3277 15.3426C63.4154 14.498 63.5888 12.9743 62.7134 11.9268L53.431 0.897024C52.5556 -0.146336 50.9609 -0.311948 49.8688 0.528536C48.7768 1.36902 48.6034 2.8968 49.4832 3.94429L55.1991 10.7386C27.8675 10.635 4.25412 30.4009 1.25965 56.9817C-1.30579 79.8114 11.7771 101.188 33.8218 110.181Z" fill="black"/>
    </g>
    <mask id="mask1_839_564" style="mask-type:luminance" maskUnits="userSpaceOnUse" x="46" y="14" width="64" height="112">
    <path d="M46.6797 14.0093H109.915V125.11H46.6797V14.0093Z" fill="white"/>
    </mask>
    <g mask="url(#mask1_839_564)">
    <path d="M73.8076 19.1516C93.7765 27.0596 106.101 46.9621 103.787 67.5602C101.126 91.2221 80.4292 108.909 56.2005 109.439L62.4581 104.612C63.5501 103.771 63.7235 102.244 62.8438 101.2C61.9641 100.157 60.3693 99.9912 59.2816 100.832L47.7544 109.717C47.2344 110.123 46.9007 110.706 46.8271 111.348C46.7534 111.986 46.9527 112.627 47.3688 113.128L56.6555 124.162C57.1539 124.754 57.8906 125.065 58.6273 125.065C59.1863 125.065 59.7496 124.887 60.2177 124.527C61.3097 123.686 61.4787 122.158 60.6033 121.115L54.8788 114.317C54.9481 114.317 55.0131 114.321 55.0824 114.321C82.3317 114.317 105.845 94.5923 108.827 68.0777C111.384 45.3557 97.7807 23.3955 75.7447 14.6677C74.4533 14.1584 72.9712 14.7463 72.4339 15.9843C71.8965 17.2223 72.5162 18.6382 73.8076 19.1516Z" fill="black"/>
    </g>
    </g>
    <defs>
    <clipPath id="clip0_839_564">
    <rect width="110" height="125" fill="white"/>
    </clipPath>
    </defs>
    </svg>
    