<svg width="112" height="120" viewBox="0 0 113 101" fill="none" xmlns="http://www.w3.org/2000/svg">
    <g clip-path="url(#clip0_839_613)">
    <mask id="mask0_839_613" style="mask-type:luminance" maskUnits="userSpaceOnUse" x="22" y="0" width="67" height="67">
    <path d="M22.0947 0.0620117H88.9535V66.3357H22.0947V0.0620117Z" fill="white"/>
    </mask>
    <g mask="url(#mask0_839_613)">
    <path d="M55.5679 65.6497C54.9977 65.6497 54.4536 65.424 54.0531 65.0203C38.727 49.702 22.8828 33.8585 22.8828 17.7024C22.8828 8.10084 30.6917 0.287598 40.2896 0.287598C47.006 0.287598 52.6559 3.16548 55.5897 7.64941C58.4712 2.90503 63.7642 0.287598 70.8331 0.287598C80.4354 0.287598 88.253 8.10084 88.253 17.7024C88.253 33.8455 72.4306 49.6716 57.1262 64.9769L57.0827 65.0203C56.6822 65.424 56.1381 65.6497 55.5679 65.6497ZM40.2896 4.5762C33.0596 4.5762 27.1703 10.4622 27.1703 17.7024C27.1703 31.5883 41.3517 46.2425 55.5635 60.4713C69.7754 46.2425 83.9568 31.5883 83.9568 17.7024C83.9568 10.4622 78.0675 4.5762 70.8331 4.5762C65.588 4.5762 59.0501 6.26039 57.679 14.282C57.5005 15.3455 56.5516 16.1094 55.4765 16.066C54.4014 16.0226 53.5221 15.1805 53.4307 14.1084C52.8822 7.84908 46.4053 4.5762 40.2896 4.5762Z" fill="black"/>
    </g>
    <path d="M62.937 34.6181H48.0026C46.5227 34.6181 45.3213 33.4201 45.3213 31.9399C45.3213 30.4597 46.5227 29.2617 48.0026 29.2617H62.937C64.417 29.2617 65.614 30.4597 65.614 31.9399C65.614 33.4201 64.417 34.6181 62.937 34.6181Z" fill="black"/>
    <path d="M55.4679 42.0843C53.988 42.0843 52.7866 40.8863 52.7866 39.4061V24.4741C52.7866 22.9939 53.988 21.7959 55.4679 21.7959C56.9479 21.7959 58.1493 22.9939 58.1493 24.4741V39.4061C58.1493 40.8863 56.9479 42.0843 55.4679 42.0843Z" fill="black"/>
    <path d="M25.8646 87.7223C25.2378 87.7223 24.6241 87.4532 24.2062 86.941C23.4662 86.0425 22.513 84.9052 21.4074 83.5856C17.8816 79.3752 13.05 73.6064 9.23698 68.5104C8.27066 67.2299 5.64158 62.351 3.4086 56.9034C0.479171 49.7543 -0.622084 44.4934 0.139654 41.2596L4.54032 22.6033C4.97125 20.7715 6.41202 19.5908 8.20537 19.5908C11.8312 19.5908 15.7009 24.2831 15.8967 32.1354C15.8967 32.296 15.8837 32.4566 15.8532 32.6129L15.7966 32.9081C14.6301 38.6768 14.0468 41.5721 14.4516 43.903C14.5561 44.4977 14.7302 45.0924 14.987 45.7261C15.8663 44.4022 17.2853 43.6513 18.9306 43.6513C21.5728 43.6513 24.6241 45.5134 27.9975 49.1857C29.4687 50.6137 31.2969 52.4325 34.2437 55.8269C34.9533 56.6473 35.4712 57.2159 35.8891 57.6717C37.4082 59.3385 37.6215 59.6771 38.0133 61.8257C38.1221 62.4291 38.2701 63.2538 38.5356 64.4432L41.5216 77.8168C41.7349 78.7544 41.2909 79.7181 40.4465 80.1738L26.8832 87.4705C26.5567 87.6398 26.2085 87.7223 25.8646 87.7223ZM8.60147 24.0574L4.31833 42.2405C3.05167 47.61 11.0216 63.7443 12.6713 65.9364C16.4191 70.9412 21.2028 76.6579 24.6981 80.8293C25.3118 81.5629 25.882 82.24 26.3957 82.8564L36.9817 77.1614L34.3482 65.3764C34.0609 64.1003 33.9042 63.2278 33.7911 62.5897C33.704 62.1296 33.6169 61.6521 33.5691 61.5523C33.4951 61.4177 33.1338 61.0227 32.7159 60.5626C32.3068 60.1112 31.7409 59.4948 31.0009 58.6353C28.1324 55.3364 26.3783 53.5915 24.9636 52.2198C24.9331 52.1894 24.9027 52.159 24.8722 52.1286C21.2246 48.1395 19.2832 47.9399 18.9306 47.9399C18.6608 47.9399 18.6129 48.005 18.5345 48.1395C18.1297 48.8471 18.1036 50.9957 19.7141 53.7911C19.8186 53.9213 19.9405 54.0689 20.0711 54.2295L20.3148 54.5204C21.0374 55.3711 22.5435 57.1421 25.4859 60.6928C25.5033 60.7145 25.5208 60.7362 25.5382 60.7579C26.1737 61.5957 26.2999 62.4248 25.9038 63.2234C25.5425 63.9527 24.7982 64.4171 23.9799 64.4171C22.9657 64.4171 22.5391 63.918 21.6947 62.9196C21.3029 62.4551 20.7675 61.8171 20.1799 61.1139C18.9872 59.6814 17.6161 58.019 16.7673 56.9729C16.3973 56.5344 16.2493 56.3521 16.1187 56.1438L15.6791 55.458C9.16734 45.2877 9.04981 44.6323 11.5831 32.0616L11.5962 32.0095C11.4177 27.0221 9.56344 24.6825 8.60147 24.0574Z" fill="black"/>
    <path d="M30.844 99.5462C30.6394 99.5462 30.4304 99.5158 30.2302 99.455C29.6818 99.2901 29.2247 98.9168 28.9549 98.4176L22.9045 87.1622C22.6346 86.663 22.5693 86.077 22.7347 85.5301C22.9045 84.9832 23.2745 84.5274 23.7794 84.2583L41.4474 74.7608C42.492 74.1966 43.7935 74.5872 44.355 75.6333L50.4054 86.8757C50.6753 87.3792 50.7362 87.9652 50.5751 88.5121C50.4097 89.0547 50.0354 89.5148 49.5348 89.784L31.8625 99.2901C31.5448 99.4594 31.1965 99.5462 30.844 99.5462ZM27.7012 87.0233L31.7189 94.4936L45.613 87.0233L41.5953 79.553L27.7012 87.0233Z" fill="black"/>
    <path d="M85.3717 88.7032C85.0234 88.7032 84.6752 88.6207 84.3575 88.4471L70.7811 81.1504C69.9367 80.6946 69.4927 79.731 69.7016 78.7934L72.6963 65.4197C72.9662 64.2217 73.1142 63.3926 73.223 62.7936C73.6104 60.645 73.8281 60.3064 75.3515 58.6396C75.7694 58.1838 76.2874 57.6195 76.9925 56.8078C79.9394 53.409 81.7632 51.5946 83.2388 50.1622C86.6078 46.49 89.6592 44.6278 92.3056 44.6278C93.9466 44.6278 95.3657 45.3788 96.2449 46.7027C96.5017 46.0689 96.6758 45.4743 96.7803 44.8796C97.1851 42.553 96.6018 39.6534 95.4397 33.8846L95.3831 33.5938C95.3482 33.4375 95.3352 33.2769 95.3395 33.1163C95.5354 25.2597 99.4007 20.5674 103.027 20.5674C104.824 20.5674 106.261 21.7481 106.687 23.5755L111.088 42.2361C112.92 50.0016 103.366 67.6509 101.999 69.487C98.1819 74.5873 93.3503 80.3561 89.8246 84.5622C88.7189 85.8818 87.7613 87.0234 87.0257 87.9175C86.6078 88.4297 85.9941 88.7032 85.3717 88.7032ZM74.2459 78.1423L84.8363 83.8373C85.3455 83.2253 85.9158 82.5438 86.5295 81.8102C90.0291 77.6388 94.8129 71.9264 98.5606 66.9216C100.258 64.6428 108.193 48.6603 106.909 43.2214L102.626 25.034C101.668 25.6634 99.8142 28.003 99.6314 32.9861L99.6444 33.0382C102.178 45.6088 102.06 46.2643 95.5441 56.4302L95.1045 57.116C94.9696 57.333 94.8041 57.5284 94.4516 57.9494C93.6202 58.9782 92.2795 60.6059 91.0433 62.0948C90.4557 62.8023 89.9247 63.436 89.5329 63.8962C88.6928 64.8902 88.2706 65.385 87.2695 65.3937C87.2608 65.3937 87.2521 65.3937 87.2477 65.3937C86.4337 65.3937 85.6894 64.9379 85.3281 64.2087C84.9277 63.41 85.0495 62.5766 85.6894 61.7388C85.7068 61.7171 85.7242 61.6954 85.7416 61.6694C88.5361 58.301 90.003 56.5691 90.7865 55.6358L91.1391 55.2191C91.274 55.0498 91.4003 54.8979 91.5047 54.7633C93.1196 51.9723 93.0979 49.8236 92.693 49.1161C92.6147 48.9815 92.5668 48.9164 92.3013 48.9164C91.9487 48.9164 90.003 49.1204 86.3554 53.1052C86.3293 53.1356 86.2988 53.1703 86.2683 53.2007C84.8493 54.5724 83.0951 56.313 80.2267 59.6162C79.4867 60.467 78.9252 61.0834 78.516 61.5305C78.1112 61.9732 77.7282 62.3899 77.6585 62.5245C77.6063 62.62 77.5236 63.0931 77.4409 63.5489C77.3277 64.1913 77.1667 65.0681 76.8794 66.3573L74.2459 78.1423Z" fill="black"/>
    <mask id="mask1_839_613" style="mask-type:luminance" maskUnits="userSpaceOnUse" x="59" y="75" width="30" height="26">
    <path d="M59.9814 75.2251H88.9536V100.744H59.9814V75.2251Z" fill="white"/>
    </mask>
    <g mask="url(#mask1_839_613)">
    <path d="M80.3874 100.518C80.0349 100.518 79.6866 100.431 79.3689 100.262L61.6966 90.7602C61.196 90.4954 60.8216 90.0353 60.6606 89.4884C60.4952 88.9458 60.5561 88.3598 60.8216 87.8563L66.8807 76.6095C67.4379 75.5678 68.7394 75.1771 69.784 75.7371L87.452 85.2345C88.4923 85.7988 88.8841 87.0966 88.3226 88.1428L82.2765 99.3851C82.0067 99.8887 81.5496 100.262 81.0055 100.427C80.8009 100.488 80.5964 100.518 80.3874 100.518ZM65.6228 87.9995L79.5125 95.4698L83.5258 87.9995L69.6404 80.5335L65.6228 87.9995Z" fill="black"/>
    </g>
    </g>
    <defs>
    <clipPath id="clip0_839_613">
    <rect width="113" height="101" fill="white"/>
    </clipPath>
    </defs>
    </svg>
    