<svg width="112" height="120" viewBox="0 0 111 86" fill="none" xmlns="http://www.w3.org/2000/svg">
    <mask id="mask0_839_630" style="mask-type:luminance" maskUnits="userSpaceOnUse" x="-1" y="0" width="112" height="86">
    <path d="M-0.187012 0.0332031H110.41V85.7674H-0.187012V0.0332031Z" fill="white"/>
    </mask>
    <g mask="url(#mask0_839_630)">
    <path d="M96.2261 0.0205078H59.2823C58.3753 0.0205078 57.4768 0.105692 56.5826 0.284581C55.6927 0.459209 54.8283 0.723282 53.9894 1.07254C53.1463 1.41754 52.35 1.84772 51.5963 2.35031C50.8384 2.85716 50.14 3.43216 49.497 4.0753C48.8541 4.71845 48.2792 5.42122 47.7725 6.17511C47.27 6.93325 46.8399 7.73399 46.495 8.57306C46.1459 9.41639 45.8819 10.281 45.703 11.1755C45.5242 12.0699 45.4348 12.9729 45.4348 13.8843V21.551H13.7029C12.7917 21.551 11.8932 21.6404 11.0033 21.8193C10.1133 21.9982 9.24464 22.2623 8.40578 22.6115C7.56692 22.9608 6.77064 23.3867 6.01695 23.8935C5.259 24.4004 4.56066 24.9754 3.91768 25.6228C3.27469 26.2659 2.7041 26.9687 2.19738 27.7269C1.69491 28.485 1.2691 29.2857 0.91993 30.1248C0.57076 30.9681 0.311012 31.837 0.13217 32.7315C-0.0424154 33.6259 -0.131836 34.5246 -0.131836 35.4361V56.4938C-0.131836 57.3243 -0.0551885 58.1463 0.0895885 58.9641C0.238624 59.7776 0.460049 60.5784 0.749604 61.3535C1.03916 62.1287 1.39684 62.8741 1.82266 63.5896C2.24422 64.3009 2.72965 64.9696 3.27044 65.5957C3.81548 66.2219 4.40736 66.7926 5.05461 67.3122C5.70185 67.8318 6.38741 68.2876 7.11556 68.6837C7.83944 69.0798 8.5974 69.4078 9.38516 69.6676C10.1687 69.9274 10.9735 70.1148 11.791 70.2298V83.7486C11.7953 84.0936 11.8847 84.4173 12.0593 84.7197C12.2381 85.0179 12.4808 85.2479 12.7832 85.4183C13.0898 85.5844 13.4134 85.661 13.7625 85.6525C14.1075 85.6397 14.4268 85.5418 14.7206 85.3586L38.4045 70.3576H50.7362C51.6389 70.3533 52.5374 70.2596 53.4231 70.0807C54.3088 69.8976 55.1689 69.6335 56.0035 69.2842C56.8381 68.935 57.6344 68.5048 58.3838 67.998C59.1333 67.4911 59.8273 66.9161 60.4661 66.273C61.1048 65.6298 61.6754 64.9313 62.1778 64.1774C62.6803 63.4193 63.1019 62.6228 63.4468 61.7837C63.7917 60.9447 64.0514 60.08 64.2303 59.1899C64.4049 58.2997 64.4943 57.401 64.4943 56.4938V48.8271H71.5884L95.1829 63.8026C95.4937 63.9943 95.8344 64.0922 96.2006 64.0965C96.5284 64.0965 96.8393 64.0198 97.1331 63.8665C97.4354 63.6961 97.6739 63.4576 97.8485 63.1552C98.0273 62.8571 98.1125 62.5291 98.1125 62.1798V48.6738C98.93 48.5588 99.7348 48.3714 100.518 48.1116C101.306 47.8518 102.064 47.5238 102.788 47.132C103.516 46.7358 104.202 46.2758 104.849 45.7562C105.496 45.2408 106.088 44.6659 106.633 44.0397C107.174 43.4136 107.659 42.7449 108.085 42.0336C108.507 41.3223 108.864 40.577 109.154 39.7975C109.443 39.0224 109.665 38.2259 109.814 37.4081C109.959 36.5903 110.035 35.7683 110.035 34.9377V13.8843C110.035 12.9729 109.946 12.0742 109.767 11.184C109.588 10.2895 109.328 9.42491 108.979 8.58584C108.63 7.74677 108.204 6.94603 107.702 6.19214C107.199 5.434 106.625 4.73549 105.986 4.09234C105.343 3.44919 104.649 2.8742 103.895 2.36735C103.141 1.86476 102.345 1.43457 101.51 1.08532C100.672 0.736059 99.8072 0.471988 98.9215 0.293099C98.0316 0.114212 97.1331 0.0247679 96.2261 0.0205078ZM60.6705 56.4938C60.6705 57.1539 60.6066 57.8056 60.4788 58.4487C60.3468 59.0962 60.1595 59.7223 59.9082 60.3313C59.657 60.9404 59.3462 61.5154 58.9842 62.0648C58.618 62.61 58.205 63.1169 57.7408 63.5811C57.2767 64.0496 56.77 64.4628 56.2249 64.8291C55.6799 65.1954 55.1008 65.5063 54.4961 65.7576C53.8915 66.0089 53.2655 66.2006 52.6225 66.3283C51.9795 66.4561 51.328 66.5243 50.6723 66.5243H37.7914C37.4166 66.52 37.0717 66.6222 36.7609 66.8309L15.6276 80.2603V68.3898C15.6276 68.1343 15.5765 67.8915 15.4786 67.6572C15.3849 67.423 15.2444 67.2143 15.0655 67.0354C14.8867 66.8565 14.6781 66.7159 14.4481 66.618C14.2139 66.52 13.9669 66.4732 13.7157 66.4732C13.0599 66.4732 12.4085 66.405 11.7655 66.2772C11.1182 66.1495 10.4965 65.9578 9.88762 65.7065C9.28296 65.4552 8.70385 65.1443 8.1588 64.778C7.61376 64.4117 7.10704 63.9985 6.6429 63.5343C6.17876 63.0658 5.76146 62.5589 5.39952 62.0137C5.03331 61.4643 4.72247 60.8893 4.47124 60.2802C4.22001 59.6712 4.02839 59.045 3.89639 58.3976C3.76864 57.7545 3.70477 57.1028 3.70051 56.4426V35.4361C3.70477 34.7802 3.76864 34.1285 3.89639 33.4811C4.02839 32.8337 4.22001 32.2076 4.47124 31.5985C4.72247 30.9937 5.03331 30.4144 5.39952 29.8693C5.76146 29.3198 6.17876 28.813 6.6429 28.3487C7.10704 27.8844 7.61376 27.467 8.1588 27.1007C8.70385 26.7345 9.28296 26.4278 9.88762 26.1765C10.4965 25.9209 11.1182 25.7335 11.7655 25.6015C12.4085 25.4737 13.0599 25.4098 13.7157 25.4098H50.6595C51.3153 25.4098 51.9668 25.4737 52.6098 25.6015C53.2527 25.7335 53.8787 25.9209 54.4833 26.1765C55.088 26.4278 55.6671 26.7345 56.2122 27.1007C56.7572 27.467 57.2639 27.8844 57.7281 28.3487C58.1922 28.813 58.6053 29.3198 58.9715 29.8693C59.3334 30.4144 59.6442 30.9937 59.8955 31.6028C60.1467 32.2076 60.3341 32.8379 60.4661 33.4811C60.5938 34.1285 60.6577 34.7802 60.6577 35.4361L60.6705 56.4938ZM106.241 34.9377C106.237 35.5979 106.173 36.2496 106.045 36.897C105.913 37.5401 105.722 38.1705 105.471 38.7753C105.219 39.3844 104.909 39.9636 104.542 40.5088C104.18 41.0583 103.763 41.5651 103.299 42.0294C102.835 42.4936 102.328 42.911 101.783 43.2773C101.238 43.6394 100.659 43.9503 100.054 44.2016C99.4495 44.4529 98.8236 44.6446 98.1763 44.7766C97.5334 44.9044 96.8819 44.9683 96.2261 44.9683C95.9749 44.9683 95.7279 45.0194 95.498 45.1173C95.2638 45.211 95.0551 45.3516 94.8763 45.5305C94.6974 45.7094 94.5569 45.9181 94.4632 46.1523C94.3653 46.3866 94.3142 46.6336 94.3142 46.8849V58.7043L73.1682 45.2749C72.8573 45.0705 72.5124 44.9683 72.1377 44.9683H64.4943V35.4361C64.4943 34.5289 64.4049 33.6259 64.226 32.7357C64.0472 31.8413 63.7874 30.9767 63.4383 30.1333C63.0891 29.2943 62.6633 28.4935 62.1608 27.7396C61.6541 26.9815 61.0835 26.283 60.4405 25.6398C59.8018 24.9967 59.1035 24.4217 58.3455 23.9148C57.5918 23.408 56.7955 22.9821 55.9609 22.6328C55.1221 22.2836 54.2577 22.0195 53.3677 21.8448C52.4778 21.666 51.5793 21.5765 50.6723 21.5765H49.2586V13.9099C49.2586 13.2497 49.3225 12.598 49.4502 11.9549C49.5822 11.3075 49.7696 10.6814 50.0208 10.0723C50.272 9.46324 50.5829 8.88824 50.9448 8.3388C51.311 7.79362 51.7241 7.28677 52.1882 6.81825C52.6523 6.354 53.1591 5.94085 53.7041 5.57456C54.2491 5.20826 54.8283 4.89734 55.4329 4.64604C56.0376 4.39475 56.6635 4.20308 57.3065 4.0753C57.9495 3.94327 58.601 3.87938 59.2567 3.87938H96.2006C96.8563 3.87938 97.5078 3.94327 98.1508 4.0753C98.798 4.20308 99.424 4.39475 100.029 4.64604C100.633 4.89734 101.212 5.20826 101.757 5.57456C102.303 5.93659 102.809 6.354 103.273 6.81825C103.738 7.28677 104.155 7.78936 104.521 8.3388C104.883 8.88398 105.194 9.46324 105.445 10.0723C105.696 10.6814 105.888 11.3075 106.02 11.9506C106.148 12.598 106.212 13.2497 106.216 13.9099L106.241 34.9377Z" fill="black"/>
    </g>
    </svg>
    