<svg width="109" height="108" viewBox="0 0 109 108" fill="none" xmlns="http://www.w3.org/2000/svg">
    <mask id="mask0_839_557" style="mask-type:luminance" maskUnits="userSpaceOnUse" x="0" y="-1" width="109" height="109">
    <path d="M0.405273 -0.0483398H108.87V107.425H0.405273V-0.0483398Z" fill="white"/>
    </mask>
    <g mask="url(#mask0_839_557)">
    <path d="M103.204 80.5898H97.8078V68.07C97.8078 67.83 97.7621 67.6024 97.6705 67.3832C97.579 67.1639 97.45 66.9735 97.2795 66.8039C97.1131 66.6384 96.9175 66.506 96.6971 66.415C96.4766 66.324 96.2477 66.2785 96.0065 66.2785H90.6107V55.546H96.0065C96.2477 55.546 96.4766 55.5005 96.6971 55.4095C96.9175 55.3185 97.1131 55.1902 97.2795 55.0247C97.45 54.8551 97.579 54.6606 97.6705 54.4413C97.7621 54.222 97.8078 53.9945 97.8078 53.7587V39.4474C97.8078 39.2115 97.7621 38.984 97.6705 38.7647C97.579 38.5454 97.45 38.3509 97.2795 38.1813C97.1131 38.0158 96.9175 37.8875 96.6971 37.7965C96.4766 37.7055 96.2477 37.66 96.0065 37.66H85.0194C85.3023 37.3828 85.5727 37.0932 85.8306 36.7911C85.8556 36.7663 85.8764 36.7373 85.9014 36.7125C86.8416 35.5913 87.5654 34.3418 88.0647 32.9682C88.5639 31.5945 88.8135 30.1754 88.8135 28.7149C88.8135 28.2474 88.7636 27.784 88.6721 27.3247C88.5805 26.8696 88.4432 26.4228 88.2644 25.9925C88.0855 25.5622 87.865 25.1526 87.607 24.7637C87.3449 24.3748 87.0496 24.0107 86.7209 23.6797C86.3881 23.3487 86.0303 23.0508 85.6393 22.7901C85.2524 22.5295 84.8405 22.3061 84.4079 22.124C83.9752 21.942 83.5301 21.8054 83.0683 21.7103C82.6107 21.6151 82.1447 21.5655 81.6746 21.5572H81.6455C80.647 21.5572 79.7901 21.9047 79.0828 22.6081C78.3714 23.3032 78.0178 24.1472 78.022 25.136V28.5246C78.0386 28.9838 77.9055 29.3976 77.6268 29.7617C77.348 30.1299 76.9861 30.3699 76.5368 30.4774C75.9793 30.5726 75.4884 30.4402 75.0558 30.0761C74.6356 29.7203 74.4234 29.2652 74.4234 28.7149C74.4234 28.0115 74.3527 27.3123 74.2154 26.6214C74.074 25.9304 73.8701 25.2602 73.5997 24.6106C73.3293 23.9569 72.9965 23.3404 72.6012 22.7529C72.206 22.1695 71.7609 21.6275 71.2575 21.1269C70.7583 20.6304 70.2133 20.1836 69.6226 19.7946C69.036 19.4016 68.4161 19.0706 67.7588 18.8017C67.1056 18.5327 66.4317 18.3259 65.7369 18.1893C65.0422 18.0528 64.3391 17.9825 63.6319 17.9825H58.2361C57.5372 17.9866 56.8508 18.0528 56.1644 18.1893C55.4821 18.3259 54.8206 18.5245 54.1758 18.7893C53.531 19.0499 52.9152 19.3726 52.3328 19.7533C51.7504 20.1339 51.2096 20.5642 50.7145 21.0483C50.2153 21.5324 49.766 22.0619 49.3708 22.6288C48.9714 23.1997 48.6344 23.7997 48.3557 24.4368C48.0728 25.0698 47.8565 25.7236 47.7025 26.4021C47.5528 27.0765 47.4654 27.7592 47.4446 28.4543C47.4529 28.6859 47.4238 28.9135 47.3531 29.1369C47.2824 29.3603 47.1742 29.5631 47.0327 29.7493C46.8913 29.9354 46.7207 30.0927 46.521 30.2168C46.3255 30.345 46.1133 30.4361 45.8845 30.4857C45.6266 30.523 45.3728 30.5023 45.1274 30.4278C44.8778 30.3533 44.6573 30.2292 44.4617 30.0596C44.2662 29.8899 44.1123 29.6872 44.0083 29.4555C43.9001 29.2197 43.846 28.9714 43.846 28.7149V19.9684C43.8377 19.8319 43.8876 19.716 43.9875 19.625C44.961 18.872 45.7472 17.9618 46.3422 16.8819C46.9371 15.8062 47.2907 14.656 47.403 13.4354C47.8565 13.1789 48.2808 12.8769 48.6677 12.5294C49.0588 12.1818 49.404 11.797 49.7077 11.375C50.0114 10.9489 50.2652 10.4979 50.4691 10.0221C50.6729 9.54214 50.8268 9.04979 50.9225 8.53675C51.0182 8.02785 51.0556 7.51067 51.039 6.9935C51.0224 6.47218 50.9475 5.96328 50.8185 5.45852C50.6895 4.95375 50.5065 4.46967 50.2694 4.00628C50.0364 3.54289 49.7493 3.10847 49.4207 2.70714C49.0879 2.30581 48.7176 1.94585 48.3058 1.62314C47.8981 1.30042 47.4571 1.02735 46.9828 0.803928C46.5127 0.57637 46.0218 0.406737 45.5143 0.286751C45.0067 0.166766 44.4909 0.104704 43.9667 0.0964302C43.4467 0.092292 42.9266 0.141942 42.4149 0.245377C41.9032 0.352949 41.4123 0.510171 40.9339 0.725317C40.4596 0.936325 40.0103 1.19698 39.5902 1.50729C39.17 1.81759 38.7914 2.17341 38.4503 2.56647C38.1091 2.17341 37.7264 1.81759 37.3062 1.50729C36.8902 1.19698 36.4409 0.936325 35.9625 0.725317C35.4882 0.510171 34.9932 0.352949 34.4815 0.245377C33.9698 0.141942 33.4539 0.092292 32.9297 0.0964302C32.4097 0.104704 31.8938 0.166766 31.3821 0.286751C30.8746 0.406737 30.3837 0.580507 29.9136 0.803928C29.4435 1.03148 29.0025 1.30455 28.5906 1.62314C28.1829 1.94585 27.8127 2.30994 27.4799 2.71127C27.147 3.1126 26.8642 3.54703 26.6312 4.01042C26.3941 4.47381 26.211 4.95789 26.082 5.45852C25.9531 5.96328 25.8782 6.47632 25.8616 6.9935C25.8449 7.51481 25.8865 8.02785 25.9822 8.54089C26.0779 9.04979 26.2276 9.54628 26.4315 10.0221C26.6395 10.502 26.8933 10.953 27.197 11.375C27.5007 11.797 27.846 12.1818 28.237 12.5294C28.6239 12.8769 29.0483 13.1789 29.5017 13.4354C29.614 14.656 29.9677 15.8062 30.5584 16.8819C31.1533 17.9576 31.9354 18.872 32.9089 19.625C33.0129 19.716 33.0587 19.8319 33.0545 19.9684V31.396C33.0545 32.542 33.2459 33.6508 33.6369 34.7266C34.028 35.8023 34.5896 36.7787 35.3218 37.66H27.6588C27.068 37.66 26.4814 37.7179 25.9032 37.8338C25.3249 37.9455 24.7633 38.1192 24.2183 38.3427C23.6733 38.5661 23.1533 38.8433 22.6624 39.1701C22.1715 39.497 21.718 39.8652 21.302 40.2831C20.8818 40.6968 20.5116 41.1478 20.1829 41.636C19.8542 42.1243 19.5755 42.6414 19.3509 43.1834C19.1262 43.7254 18.9556 44.284 18.8392 44.8591C18.7227 45.4342 18.6644 46.0176 18.6644 46.6009C18.6686 48.5993 19.2843 50.3867 20.5074 51.9713H20.4616C19.8709 51.9713 19.2885 52.0292 18.7102 52.1409C18.1278 52.2568 17.5661 52.4264 17.0212 52.654C16.4762 52.8774 15.9603 53.1546 15.4694 53.4773C14.9785 53.8042 14.525 54.1765 14.109 54.5903C13.6888 55.0082 13.3186 55.4591 12.9899 55.9473C12.6613 56.4356 12.3867 56.9486 12.1579 57.4906C11.9332 58.0367 11.7627 58.5953 11.6462 59.1704C11.5339 59.7455 11.4756 60.3247 11.4756 60.9122C11.4756 61.4998 11.5339 62.0831 11.6462 62.6582C11.7627 63.2333 11.9332 63.7919 12.1579 64.3339C12.3867 64.8759 12.6613 65.3931 12.9899 65.8813C13.3186 66.3695 13.6888 66.8205 14.109 67.2342C14.525 67.6521 14.9785 68.0203 15.4694 68.3472C15.9603 68.674 16.4762 68.9512 17.0212 69.1747C17.5661 69.4022 18.1278 69.5719 18.7102 69.6836C19.2885 69.7994 19.8709 69.8573 20.4616 69.8573H20.5074C19.9125 70.6269 19.4549 71.4709 19.1387 72.3894C18.8225 73.3079 18.6644 74.2513 18.6644 75.2236C18.6644 76.1958 18.8225 77.1433 19.1387 78.0618C19.4549 78.9803 19.9125 79.8244 20.5074 80.5898H6.07154C5.71793 80.5898 5.36847 80.627 5.01902 80.6932C4.67372 80.7635 4.33675 80.8628 4.00809 80.9994C3.67944 81.1359 3.36742 81.3014 3.07621 81.4959C2.78084 81.6903 2.50626 81.9137 2.25665 82.162C2.00704 82.4102 1.78239 82.6833 1.58686 82.9771C1.38717 83.2708 1.22493 83.577 1.08764 83.9038C0.950354 84.2307 0.850509 84.5658 0.779786 84.9092C0.709063 85.2568 0.675781 85.6043 0.675781 85.956C0.675781 86.3118 0.709063 86.6594 0.779786 87.0028C0.850509 87.3503 0.950354 87.6854 1.08764 88.0123C1.22493 88.335 1.38717 88.6453 1.58686 88.9391C1.78239 89.2328 2.00704 89.5018 2.25665 89.7541C2.50626 90.0024 2.78084 90.2258 3.07621 90.4203C3.36742 90.6147 3.67944 90.7802 4.00809 90.9168C4.33675 91.0492 4.67372 91.1526 5.01902 91.2229C5.36847 91.2891 5.71793 91.3264 6.07154 91.3264H11.4673V100.267C11.4673 100.739 11.5131 101.202 11.6088 101.666C11.7003 102.125 11.8376 102.572 12.0164 103.006C12.1953 103.441 12.42 103.854 12.6821 104.243C12.9442 104.636 13.2437 104.996 13.5765 105.327C13.9093 105.662 14.2754 105.956 14.6665 106.217C15.0575 106.478 15.4736 106.701 15.9104 106.879C16.3472 107.061 16.7965 107.193 17.2583 107.288C17.7242 107.38 18.1902 107.425 18.6644 107.425C19.1345 107.425 19.6046 107.38 20.0664 107.288C20.5324 107.193 20.9817 107.061 21.4185 106.879C21.8553 106.701 22.2672 106.478 22.6624 106.217C23.0534 105.956 23.4154 105.662 23.7523 105.327C24.0852 104.996 24.3847 104.636 24.6468 104.243C24.9089 103.854 25.1294 103.441 25.3124 103.006C25.4913 102.572 25.6286 102.125 25.7201 101.666C25.8116 101.202 25.8574 100.739 25.8574 100.267V91.3264H63.6319V87.7475H6.07154C5.83441 87.7475 5.6056 87.702 5.38511 87.611C5.16462 87.5199 4.96909 87.3917 4.80269 87.222C4.63212 87.0566 4.50315 86.8621 4.41163 86.6428C4.3201 86.4235 4.27434 86.196 4.27434 85.956C4.27434 85.7202 4.3201 85.4926 4.41163 85.2733C4.50315 85.054 4.63212 84.8596 4.80269 84.6941C4.96909 84.5245 5.16462 84.3962 5.38511 84.3052C5.6056 84.2141 5.83441 84.1686 6.07154 84.1686H103.204C103.441 84.1686 103.67 84.2141 103.89 84.3052C104.111 84.3962 104.306 84.5245 104.477 84.6941C104.643 84.8596 104.772 85.054 104.863 85.2733C104.955 85.4926 105.001 85.7202 105.001 85.956C105.001 86.196 104.955 86.4235 104.863 86.6428C104.772 86.8621 104.643 87.0566 104.477 87.222C104.306 87.3917 104.111 87.5199 103.89 87.611C103.67 87.702 103.441 87.7475 103.204 87.7475H67.2304V91.3264H85.2149V100.267C85.2149 100.739 85.2607 101.202 85.3522 101.666C85.4479 102.125 85.581 102.572 85.7641 103.006C85.943 103.441 86.1676 103.854 86.4297 104.243C86.6918 104.636 86.9872 104.996 87.3242 105.327C87.657 105.662 88.0189 105.956 88.4141 106.217C88.8052 106.478 89.2212 106.701 89.658 106.879C90.0948 107.061 90.5441 107.193 91.0059 107.288C91.4719 107.38 91.9378 107.425 92.4121 107.425C92.8822 107.425 93.3523 107.38 93.814 107.288C94.2758 107.193 94.7293 107.061 95.1619 106.879C95.5988 106.701 96.0148 106.478 96.4058 106.217C96.8011 105.956 97.163 105.662 97.5 105.327C97.8328 104.996 98.1323 104.636 98.3944 104.243C98.6565 103.854 98.877 103.441 99.0559 103.006C99.2389 102.572 99.3762 102.125 99.4677 101.666C99.5593 101.202 99.605 100.739 99.605 100.267V91.3264H103.204C103.557 91.3264 103.907 91.2891 104.256 91.2229C104.601 91.1526 104.943 91.0492 105.267 90.9168C105.596 90.7802 105.908 90.6147 106.199 90.4203C106.494 90.2258 106.769 90.0024 107.018 89.7541C107.268 89.5018 107.493 89.2328 107.688 88.9391C107.888 88.6453 108.054 88.335 108.187 88.0123C108.325 87.6854 108.425 87.3503 108.495 87.0028C108.566 86.6594 108.599 86.3118 108.599 85.956C108.599 85.6043 108.566 85.2568 108.495 84.9092C108.425 84.5658 108.325 84.2307 108.187 83.9038C108.054 83.577 107.888 83.2708 107.688 82.9771C107.493 82.6833 107.268 82.4102 107.018 82.162C106.769 81.9137 106.494 81.6903 106.199 81.4959C105.908 81.3014 105.596 81.1359 105.267 80.9994C104.943 80.8628 104.601 80.7635 104.256 80.6932C103.907 80.627 103.557 80.5898 103.204 80.5898ZM22.263 91.3264V100.267C22.263 100.743 22.1715 101.198 21.9884 101.637C21.8054 102.075 21.5433 102.464 21.2063 102.799C20.8693 103.135 20.4824 103.391 20.0415 103.573C19.6005 103.755 19.1387 103.846 18.6644 103.846C18.186 103.846 17.7284 103.755 17.2874 103.573C16.8464 103.391 16.4554 103.135 16.1184 102.799C15.7814 102.464 15.5235 102.075 15.3404 101.637C15.1574 101.198 15.0659 100.743 15.0659 100.267V91.3264H22.263ZM87.0163 59.1249H67.2304V62.7037H87.0163V66.2785H42.0488C41.4914 66.2785 40.9464 66.1916 40.418 66.0219C39.8897 65.8523 39.3988 65.6082 38.9453 65.2896C38.4919 64.9669 38.0967 64.5863 37.7638 64.1477C37.4269 63.705 37.1689 63.2251 36.9817 62.7037H63.6319V59.1249H36.9817C37.1689 58.6036 37.4269 58.1236 37.7638 57.6809C38.0967 57.2382 38.4919 56.8576 38.9453 56.539C39.3988 56.2163 39.8897 55.9722 40.418 55.8025C40.9464 55.637 41.4914 55.5502 42.0488 55.546H87.0163V59.1249ZM94.2093 41.2347V44.8136H74.4234V48.3924H94.2093V51.9713H49.2418C48.6843 51.9672 48.1435 51.8803 47.6152 51.7106C47.0827 51.5451 46.5918 51.2969 46.1383 50.9783C45.6848 50.6597 45.2938 50.2791 44.9568 49.8364C44.624 49.3937 44.3619 48.9137 44.1747 48.3924H70.8249V44.8136H44.1747C44.3619 44.2923 44.624 43.8123 44.9568 43.3696C45.2938 42.9269 45.6848 42.5463 46.1383 42.2277C46.5918 41.9091 47.0827 41.6609 47.6152 41.4954C48.1435 41.3257 48.6843 41.2389 49.2418 41.2347H94.2093ZM36.6489 31.396V25.136H40.2475V28.7149C40.2558 29.7782 40.5553 30.7505 41.1461 31.6318L37.0899 33.6508C36.8028 32.9268 36.6531 32.1779 36.6489 31.396ZM39.3489 36.5263L44.5658 33.9405C45.1523 34.0687 45.7472 34.1018 46.3463 34.0398C46.4878 34.0191 46.6167 33.9736 46.754 33.9487L51.9917 36.5512C50.8892 37.2876 49.6703 37.6559 48.3432 37.66H42.9474C41.6287 37.66 40.4264 37.2794 39.3489 36.5263ZM58.2361 31.4952C58.2153 31.0236 58.3152 30.5767 58.5357 30.1547C58.7561 29.7368 59.0682 29.3976 59.4675 29.1411C59.9085 28.868 60.3911 28.7232 60.9111 28.7108C61.4311 28.6984 61.9179 28.8183 62.3713 29.0707C62.7874 29.3231 63.1077 29.6624 63.3324 30.0885C63.5612 30.5147 63.6568 30.9698 63.6319 31.4497C63.636 32.5875 63.8357 33.6839 64.2268 34.7514C64.6179 35.8188 65.1753 36.787 65.9034 37.66H56.0229C56.7676 36.8035 57.3292 35.8478 57.7119 34.7845C58.0905 33.7212 58.2652 32.6248 58.2361 31.4952ZM73.5248 37.66C72.206 37.6559 71.0121 37.2794 69.9346 36.5263L75.1306 33.9405C75.7838 34.0853 76.4453 34.106 77.1067 34.0067C77.1816 33.9984 77.2523 33.9653 77.3231 33.9487L81.4125 35.9843C79.8649 37.0973 78.1343 37.6517 76.2206 37.66H73.5248ZM81.6455 25.136C82.1198 25.1402 82.5774 25.2353 83.0142 25.4215C83.451 25.6036 83.8338 25.8642 84.1707 26.1994C84.5035 26.5304 84.7615 26.9193 84.9404 27.3537C85.1234 27.7881 85.2149 28.2432 85.2149 28.7149C85.2066 30.3368 84.7823 31.8428 83.9378 33.233L80.6803 31.6152C81.3002 30.676 81.6122 29.6458 81.6164 28.5246L81.6455 25.136ZM70.8249 28.7149C70.8332 29.7782 71.1327 30.7505 71.7234 31.6318L67.6714 33.6508C67.3844 32.9392 67.2388 32.1986 67.2304 31.4332C67.2471 30.8622 67.1847 30.2995 67.0391 29.7493C66.8976 29.1948 66.6855 28.6694 66.3942 28.177C66.1072 27.6847 65.7536 27.242 65.3376 26.8448C64.9257 26.4517 64.4639 26.1207 63.9564 25.8518C63.2824 25.525 62.5752 25.314 61.8347 25.2188V21.5572H63.6319C64.102 21.5572 64.5721 21.6027 65.0339 21.6979C65.4998 21.7889 65.9491 21.9254 66.3859 22.1033C66.8228 22.2854 67.2346 22.5047 67.6298 22.7653C68.0209 23.026 68.3828 23.3239 68.7198 23.6549C69.0526 23.9858 69.3521 24.3499 69.6142 24.7389C69.8763 25.1278 70.0968 25.5415 70.2799 25.9759C70.4588 26.4104 70.596 26.8572 70.6876 27.3165C70.7791 27.7799 70.8249 28.2432 70.8249 28.7149ZM51.039 28.537C51.0556 28.0736 51.1139 27.6185 51.2179 27.1675C51.3177 26.7165 51.4633 26.2821 51.6506 25.8601C51.8378 25.4381 52.0624 25.0367 52.3287 24.6561C52.5908 24.2755 52.8903 23.9238 53.2231 23.6052C53.5559 23.2825 53.9137 22.9929 54.3047 22.7405C54.6916 22.4881 55.0993 22.273 55.5278 22.0992C55.9605 21.9213 56.4015 21.7889 56.8549 21.6979C57.3126 21.6068 57.7702 21.5613 58.2361 21.5572V25.7401C57.9865 25.856 57.7452 25.9884 57.5164 26.1373C56.5804 26.7331 55.8565 27.5192 55.3448 28.4998C54.8289 29.4762 54.596 30.5188 54.6376 31.6194C54.6584 32.3351 54.5377 33.0302 54.2798 33.6964L50.0905 31.6152C50.6937 30.676 51.014 29.65 51.039 28.537ZM43.846 3.67115C44.3245 3.67115 44.7821 3.76218 45.2231 3.94422C45.664 4.12213 46.0509 4.38279 46.3879 4.71792C46.7249 5.05305 46.987 5.44197 47.17 5.88053C47.3531 6.3191 47.4446 6.77421 47.4446 7.24588C47.4446 7.72168 47.3531 8.17679 47.17 8.61536C46.987 9.05393 46.7249 9.44284 46.3879 9.77797C46.0509 10.1131 45.664 10.3738 45.2231 10.5517C44.7821 10.7337 44.3245 10.8247 43.846 10.8247C43.3676 10.8247 42.91 10.7337 42.469 10.5517C42.028 10.3738 41.6411 10.1131 41.3 9.77797C40.963 9.44284 40.7051 9.05393 40.522 8.61536C40.339 8.17679 40.2475 7.72168 40.2475 7.24588C40.2475 6.77421 40.339 6.3191 40.522 5.88053C40.7051 5.44197 40.963 5.05305 41.3 4.71792C41.6411 4.38279 42.028 4.12213 42.469 3.94422C42.91 3.76218 43.3676 3.67115 43.846 3.67115ZM33.0545 3.67115C33.5288 3.67115 33.9906 3.76218 34.4315 3.94422C34.8725 4.12213 35.2594 4.38279 35.5964 4.71792C35.9334 5.05305 36.1955 5.44197 36.3785 5.88053C36.5574 6.3191 36.6489 6.77421 36.6489 7.24588C36.6489 7.72168 36.5574 8.17679 36.3785 8.61536C36.1955 9.05393 35.9334 9.44284 35.5964 9.77797C35.2594 10.1131 34.8725 10.3738 34.4315 10.5517C33.9906 10.7337 33.5288 10.8247 33.0545 10.8247C32.5761 10.8247 32.1185 10.7337 31.6775 10.5517C31.2365 10.3738 30.8455 10.1131 30.5085 9.77797C30.1715 9.44284 29.9136 9.05393 29.7305 8.61536C29.5475 8.17679 29.456 7.72168 29.456 7.24588C29.456 6.77421 29.5475 6.3191 29.7305 5.88053C29.9136 5.44197 30.1715 5.05305 30.5085 4.71792C30.8455 4.38279 31.2365 4.12213 31.6775 3.94422C32.1185 3.76218 32.5761 3.67115 33.0545 3.67115ZM33.3915 14.3705C34.365 14.325 35.2927 14.0892 36.1705 13.6671C37.0525 13.241 37.8096 12.6659 38.4503 11.9294C39.0909 12.6659 39.8481 13.241 40.7259 13.6671C41.6037 14.0892 42.5314 14.325 43.5091 14.3705C43.1679 15.3511 42.5897 16.1661 41.7701 16.8074C41.2834 17.1922 40.9089 17.6597 40.6385 18.2142C40.3723 18.7686 40.2433 19.3519 40.2475 19.9684V21.5572H36.6489V19.9684C36.6572 19.3519 36.5241 18.7644 36.2579 18.21C35.9916 17.6556 35.613 17.1881 35.1263 16.8074C34.3109 16.162 33.7326 15.3511 33.3915 14.3705ZM22.263 46.6009C22.263 46.2493 22.2963 45.9017 22.3628 45.5542C22.4336 45.2108 22.5376 44.8756 22.6707 44.5488C22.808 44.2219 22.9744 43.9158 23.1699 43.622C23.3654 43.3282 23.5901 43.0593 23.8397 42.8069C24.0935 42.5587 24.3639 42.3353 24.6593 42.1408C24.9546 41.9464 25.2666 41.7809 25.5911 41.6443C25.9198 41.5119 26.2568 41.4085 26.6062 41.3382C26.9515 41.2719 27.301 41.2347 27.6588 41.2347H42.0946C41.4955 42.0043 41.0379 42.8483 40.7217 43.7668C40.4056 44.6853 40.2475 45.6328 40.2475 46.6009C40.2475 47.5732 40.4056 48.5207 40.7217 49.4392C41.0379 50.3577 41.4955 51.2017 42.0946 51.9713H27.6588C27.301 51.9713 26.9515 51.9341 26.6062 51.8679C26.2568 51.7975 25.9198 51.6941 25.5911 51.5617C25.2666 51.4252 24.9546 51.2597 24.6593 51.0652C24.3639 50.8707 24.0935 50.6473 23.8397 50.3991C23.5901 50.1467 23.3654 49.8778 23.1699 49.584C22.9744 49.2903 22.808 48.9841 22.6707 48.6572C22.5376 48.3304 22.4336 47.9952 22.3628 47.6518C22.2963 47.3043 22.263 46.9568 22.263 46.6009ZM15.0659 60.9122C15.0659 60.5606 15.0991 60.213 15.1699 59.8655C15.2406 59.5221 15.3404 59.1869 15.4777 58.8601C15.6109 58.5332 15.7773 58.2271 15.9769 57.9333C16.1725 57.6396 16.3971 57.3665 16.6467 57.1182C16.8963 56.87 17.1709 56.6466 17.4663 56.4521C17.7575 56.2577 18.0695 56.0922 18.3982 55.9556C18.7227 55.8191 19.0638 55.7198 19.4091 55.6495C19.7586 55.5833 20.108 55.546 20.4616 55.546H34.8975C34.3026 56.3156 33.845 57.1596 33.5288 58.0781C33.2126 58.9966 33.0545 59.9441 33.0545 60.9122C33.0545 61.8845 33.2126 62.832 33.5288 63.7505C33.845 64.669 34.3026 65.513 34.8975 66.2785H20.4616C20.108 66.2785 19.7586 66.2454 19.4091 66.1792C19.0638 66.1088 18.7227 66.0054 18.3982 65.873C18.0695 65.7365 17.7575 65.571 17.4663 65.3765C17.1709 65.1821 16.8963 64.9586 16.6467 64.7104C16.3971 64.458 16.1725 64.1891 15.9769 63.8953C15.7773 63.6016 15.6109 63.2913 15.4777 62.9685C15.3404 62.6417 15.2406 62.3066 15.1699 61.959C15.0991 61.6156 15.0659 61.2681 15.0659 60.9122ZM22.263 75.2236C22.263 74.8719 22.2963 74.5243 22.3628 74.1768C22.4336 73.8334 22.5376 73.4983 22.6707 73.1714C22.808 72.8445 22.9744 72.5342 23.1699 72.2446C23.3654 71.9509 23.5901 71.6778 23.8397 71.4296C24.0935 71.1813 24.3639 70.9579 24.6593 70.7634C24.9546 70.5648 25.2666 70.4035 25.5911 70.2669C25.9198 70.1304 26.2568 70.0311 26.6062 69.9608C26.9515 69.8904 27.301 69.8573 27.6588 69.8573H42.0946C41.4955 70.6269 41.0379 71.4709 40.7217 72.3894C40.4056 73.3079 40.2475 74.2513 40.2475 75.2236C40.2475 76.1958 40.4056 77.1433 40.7217 78.0618C41.0379 78.9803 41.4955 79.8244 42.0946 80.5898H27.6588C27.301 80.5898 26.9515 80.5567 26.6062 80.4863C26.2568 80.4201 25.9198 80.3167 25.5911 80.1843C25.2666 80.0478 24.9546 79.8823 24.6593 79.6878C24.3639 79.4892 24.0935 79.2699 23.8397 79.0176C23.5901 78.7693 23.3654 78.5004 23.1699 78.2066C22.9744 77.9129 22.808 77.6026 22.6707 77.2798C22.5376 76.953 22.4336 76.6179 22.3628 76.2703C22.2963 75.9269 22.263 75.5752 22.263 75.2236ZM56.4348 80.5898H49.2418C48.6843 80.5898 48.1435 80.5029 47.6152 80.3333C47.0827 80.1636 46.5918 79.9195 46.1383 79.6009C45.6848 79.2782 45.2938 78.8976 44.9568 78.459C44.624 78.0163 44.3619 77.5364 44.1747 77.0151H70.8249V73.4362H44.1747C44.3619 72.9149 44.624 72.4349 44.9568 71.9922C45.2938 71.5495 45.6848 71.1689 46.1383 70.8503C46.5918 70.5276 47.0827 70.2835 47.6152 70.1139C48.1435 69.9442 48.6843 69.8615 49.2418 69.8573H94.2093V73.4362H74.4234V77.0151H94.2093V80.5898H56.4348ZM96.0065 100.267C96.0065 100.743 95.9149 101.198 95.736 101.637C95.553 102.075 95.2909 102.464 94.9539 102.799C94.617 103.135 94.2301 103.391 93.7891 103.573C93.3481 103.755 92.8863 103.846 92.4121 103.846C91.9336 103.846 91.476 103.755 91.035 103.573C90.5941 103.391 90.203 103.135 89.866 102.799C89.5291 102.464 89.2711 102.075 89.0881 101.637C88.905 101.198 88.8135 100.743 88.8135 100.267V91.3264H96.0065V100.267Z" fill="black"/>
    </g>
    </svg>
    