<svg width="119" height="122" viewBox="0 0 119 122" fill="none" xmlns="http://www.w3.org/2000/svg">
    <g clip-path="url(#clip0_839_582)">
        <path
            d="M59.0496 45.5874C50.6772 45.5874 43.8701 52.4246 43.8701 60.8319C43.8701 69.2347 50.6772 76.0719 59.0496 76.0719C67.422 76.0719 74.2291 69.2347 74.2291 60.8319C74.2291 52.4246 67.422 45.5874 59.0496 45.5874ZM59.0496 72.1193C52.8522 72.1193 47.806 67.053 47.806 60.8319C47.806 54.6063 52.8522 49.54 59.0496 49.54C65.247 49.54 70.2932 54.6063 70.2932 60.8319C70.2932 67.053 65.247 72.1193 59.0496 72.1193Z"
            fill="black" />
        <mask id="mask0_839_582" style="mask-type:luminance" maskUnits="userSpaceOnUse" x="0" y="-1"
            width="119" height="124">
            <path d="M0.224121 -0.415527H118.857V122.079H0.224121V-0.415527Z" fill="white" />
        </mask>
        <g mask="url(#mask0_839_582)">
            <path
                d="M110.416 53.0271C115.067 53.0271 118.857 49.2342 118.857 44.5604C118.857 41.1509 116.782 38.0929 113.761 36.7784C113.615 34.3685 112.983 32.164 111.863 30.2059C107.936 23.3733 98.6312 20.3609 85.6767 21.721C84.2207 21.8716 82.7237 22.0861 81.213 22.3463C76.0667 8.38888 68.1175 -0.415527 59.0489 -0.415527C49.9895 -0.415527 42.0494 8.36606 36.9076 22.287C22.124 19.7173 10.7394 22.3737 6.23472 30.1968C4.583 33.0723 3.98237 36.4315 4.44649 40.2244C1.85743 41.7078 0.1875 44.4646 0.1875 47.5546C0.1875 52.2283 3.97327 56.0303 8.62813 56.0303C9.42441 56.0303 10.1979 55.9117 10.9578 55.6926C12.109 57.3951 13.3967 59.1112 14.8119 60.8091C13.8199 62.0141 12.8871 63.219 12.0089 64.424C4.35549 75.0267 2.31244 84.6161 6.23472 91.4534C9.55182 97.2134 16.682 100.262 26.606 100.262C28.4579 100.262 30.3963 100.157 32.4302 99.9474C33.8863 99.8013 35.3833 99.5823 36.8985 99.3267C42.0312 113.275 49.9804 122.075 59.0489 122.075C63.0804 122.075 67.0664 120.258 70.6565 116.84C71.6394 117.237 72.6905 117.46 73.7734 117.46C78.4283 117.46 82.2049 113.658 82.2049 108.985C82.2049 106.684 81.2812 104.544 79.7069 102.983C80.2165 101.805 80.6988 100.6 81.1629 99.3632C84.8122 99.9976 88.2522 100.322 91.4418 100.322C101.17 100.322 108.469 97.3595 111.872 91.4534C116.259 83.8265 113.119 72.7217 103.304 60.8502C105.488 58.2029 107.377 55.5374 108.942 52.8902C109.411 52.9769 109.916 53.0271 110.416 53.0271ZM110.416 49.0745C109.834 49.0745 109.265 48.9649 108.733 48.7504C107.022 48.0566 105.911 46.4181 105.911 44.5696C105.911 42.0729 107.927 40.0464 110.416 40.0464C110.771 40.0464 111.085 40.0875 111.408 40.1559C113.447 40.6078 114.921 42.4654 114.921 44.5696C114.921 47.0525 112.905 49.0745 110.416 49.0745ZM86.0908 25.6554C97.2525 24.4869 105.397 26.8695 108.46 32.1822C109.138 33.3598 109.552 34.6834 109.738 36.1257C105.397 36.4726 101.976 40.124 101.976 44.5696C101.976 47.267 103.245 49.718 105.302 51.2881C103.991 53.4424 102.44 55.6241 100.656 57.8195C96.5836 53.3511 91.7831 49.0379 86.4139 44.994C85.6085 38.1294 84.2707 31.7897 82.5098 26.1392C83.7201 25.9429 84.9078 25.774 86.0908 25.6554ZM71.2253 82.0191C67.1938 84.3605 63.1123 86.4327 59.058 88.2401C54.9583 86.4145 50.854 84.3286 46.8726 82.0191C42.8366 79.6776 39.0098 77.181 35.4197 74.552C34.9374 70.1338 34.6826 65.5422 34.6826 60.8319C34.6826 56.1171 34.9374 51.5255 35.4197 47.1118C39.0007 44.4828 42.8366 41.9816 46.8726 39.6402C50.9041 37.2987 54.9856 35.2266 59.0398 33.4191C63.1396 35.2448 67.2439 37.3307 71.2253 39.6402C75.2613 41.9816 79.088 44.4828 82.6782 47.1118C83.1605 51.5255 83.4153 56.1171 83.4153 60.8319C83.4153 65.5148 83.1696 70.0973 82.6964 74.5109C79.0971 77.1582 75.2477 79.6868 71.2253 82.0191ZM82.0093 79.8648C81.1993 85.1821 80.0481 90.1891 78.5739 94.7716C73.96 93.772 69.0548 92.2841 63.9768 90.3077C67.0573 88.8244 70.1332 87.2041 73.1819 85.4377C76.2533 83.6668 79.1927 81.8 82.0093 79.8648ZM54.1211 90.3077C49.1431 92.2521 44.2562 93.7537 39.5741 94.7716C38.1271 90.2575 36.9668 85.2414 36.1296 79.8967C38.9325 81.8228 41.8628 83.6805 44.9024 85.4377C47.9237 87.1949 51.0133 88.8152 54.1211 90.3077ZM31.1516 71.2703C27.0019 67.9247 23.2616 64.4148 20.0173 60.8228C23.2343 57.2536 26.9791 53.7482 31.1425 50.389C30.8877 53.7756 30.7376 57.2536 30.7376 60.8319C30.7467 64.3966 30.8877 67.8837 31.1516 71.2703ZM36.1296 41.7762C36.9668 36.4224 38.1271 31.4154 39.5741 26.8968C44.1652 27.8964 49.0658 29.3798 54.1211 31.3561C51.0406 32.8349 47.9646 34.4552 44.9115 36.2261C41.8628 37.9834 38.9325 39.8501 36.1296 41.7762ZM63.9768 31.3561C68.9547 29.4072 73.8417 27.9055 78.5238 26.8877C79.9708 31.4017 81.1311 36.4224 81.9683 41.7671C79.1654 39.841 76.2351 37.9834 73.1955 36.2261C70.1742 34.4643 67.0846 32.844 63.9768 31.3561ZM86.9462 50.389C91.0869 53.73 94.8226 57.2262 98.0715 60.8228C94.8636 64.3646 91.1142 67.8745 86.9462 71.2429C87.2102 67.8426 87.3467 64.3646 87.3467 60.8411C87.3467 57.2627 87.2102 53.7756 86.9462 50.389ZM59.0489 3.5371C66.1791 3.5371 72.7132 11.2004 77.2179 23.1359C71.3754 24.4413 65.2463 26.4541 59.0489 29.1105C52.6832 26.3857 46.5768 24.382 40.8891 23.0948C45.3938 11.1822 51.9279 3.5371 59.0489 3.5371ZM4.11888 47.5637C4.11888 45.5965 5.36108 43.8804 7.24942 43.2688C7.67259 43.1181 8.13216 43.0497 8.62813 43.0497C11.1125 43.0497 13.1328 45.0762 13.1328 47.5637C13.1328 49.2251 12.2273 50.7541 10.7895 51.5346C10.1115 51.8997 9.38346 52.0869 8.62813 52.0869C6.13917 52.0869 4.11888 50.0649 4.11888 47.5637ZM14.3887 53.7482C16.0723 52.169 17.0642 49.9371 17.0642 47.5637C17.0642 42.8899 13.2784 39.097 8.62813 39.097C8.50982 39.097 8.40062 39.1199 8.29141 39.129C8.073 36.4726 8.51892 34.1403 9.63827 32.1822C13.1419 26.0981 22.9476 24.1035 35.5881 26.1483C33.8272 31.7897 32.4894 38.1386 31.6749 44.994C26.292 49.0562 21.4825 53.3831 17.4419 57.8195C16.3271 56.4548 15.3169 55.0992 14.3887 53.7482ZM32.0071 96.0085C20.8545 97.1815 12.7006 94.8035 9.63827 89.4771C6.58054 84.1506 8.60538 75.8756 15.185 66.7563C15.8857 65.7887 16.641 64.8119 17.4282 63.8443C21.5007 68.3081 26.3011 72.6259 31.6613 76.6744C32.4803 83.5207 33.8181 89.8741 35.579 95.5247C34.3777 95.7209 33.1901 95.8898 32.0071 96.0085ZM73.7734 113.512C72.9089 113.512 72.0625 113.266 71.3345 112.791C70.0377 111.951 69.2687 110.536 69.2687 108.985C69.2687 106.488 71.2844 104.461 73.7734 104.461C74.6607 104.461 75.4979 104.717 76.2351 105.215C77.5046 106.041 78.269 107.456 78.269 108.985C78.269 111.486 76.2533 113.512 73.7734 113.512ZM76.3124 100.915C75.4979 100.659 74.6516 100.509 73.7734 100.509C69.1231 100.509 65.3328 104.315 65.3328 108.985C65.3328 111.052 66.0836 112.987 67.3804 114.507C64.6957 116.899 61.8928 118.122 59.0489 118.122C51.9188 118.122 45.3847 110.459 40.88 98.5234C46.7224 97.2226 52.8516 95.2052 59.0489 92.5488C65.4329 95.2873 71.562 97.291 77.2543 98.5827C76.9494 99.3769 76.6355 100.144 76.3124 100.915ZM108.46 89.4771C104.947 95.5703 95.1412 97.5557 82.4779 95.511C84.2798 89.7737 85.6085 83.4203 86.4139 76.6835C91.8332 72.6031 96.6427 68.2671 100.679 63.8534C108.951 74.0591 111.872 83.539 108.46 89.4771Z"
                fill="black" />
        </g>
    </g>
    <defs>
        <clipPath id="clip0_839_582">
            <rect width="119" height="122" fill="white" />
        </clipPath>
    </defs>
</svg>
    