<svg xmlns="http://www.w3.org/2000/svg" xmlns:xlink="http://www.w3.org/1999/xlink" width="340" zoomAndPan="magnify" viewBox="0 0 255 482.249988" height="642" preserveAspectRatio="xMidYMid meet" version="1.0"><defs><clipPath id="a6602c7887"><path d="M 76.613281 188.1875 L 178.457031 188.1875 L 178.457031 293.023438 L 76.613281 293.023438 Z M 76.613281 188.1875 " clip-rule="nonzero"/></clipPath></defs><path fill="#000000" d="M 127.113281 227.558594 C 119.925781 227.558594 114.082031 233.410156 114.082031 240.605469 C 114.082031 247.796875 119.925781 253.648438 127.113281 253.648438 C 134.300781 253.648438 140.144531 247.796875 140.144531 240.605469 C 140.144531 233.410156 134.300781 227.558594 127.113281 227.558594 Z M 127.113281 250.265625 C 121.792969 250.265625 117.460938 245.929688 117.460938 240.605469 C 117.460938 235.277344 121.792969 230.941406 127.113281 230.941406 C 132.433594 230.941406 136.765625 235.277344 136.765625 240.605469 C 136.765625 245.929688 132.433594 250.265625 127.113281 250.265625 Z M 127.113281 250.265625 " fill-opacity="1" fill-rule="nonzero"/><g clip-path="url(#a6602c7887)"><path fill="#000000" d="M 171.210938 233.925781 C 175.203125 233.925781 178.457031 230.679688 178.457031 226.679688 C 178.457031 223.761719 176.675781 221.144531 174.082031 220.019531 C 173.957031 217.957031 173.414062 216.070312 172.453125 214.394531 C 169.082031 208.546875 161.09375 205.96875 149.972656 207.132812 C 148.722656 207.261719 147.4375 207.445312 146.140625 207.667969 C 141.722656 195.722656 134.898438 188.1875 127.113281 188.1875 C 119.335938 188.1875 112.519531 195.703125 108.105469 207.617188 C 95.414062 205.417969 85.640625 207.691406 81.773438 214.386719 C 80.355469 216.847656 79.839844 219.722656 80.238281 222.96875 C 78.015625 224.238281 76.582031 226.597656 76.582031 229.242188 C 76.582031 233.242188 79.832031 236.496094 83.828125 236.496094 C 84.511719 236.496094 85.175781 236.394531 85.828125 236.207031 C 86.816406 237.664062 87.921875 239.132812 89.136719 240.585938 C 88.285156 241.617188 87.484375 242.648438 86.730469 243.679688 C 80.160156 252.753906 78.40625 260.960938 81.773438 266.8125 C 84.621094 271.742188 90.742188 274.351562 99.261719 274.351562 C 100.851562 274.351562 102.515625 274.261719 104.261719 274.082031 C 105.511719 273.957031 106.796875 273.769531 108.097656 273.550781 C 112.503906 285.488281 119.328125 293.019531 127.113281 293.019531 C 130.574219 293.019531 133.996094 291.464844 137.078125 288.539062 C 137.921875 288.878906 138.824219 289.070312 139.753906 289.070312 C 143.75 289.070312 146.992188 285.816406 146.992188 281.816406 C 146.992188 279.847656 146.199219 278.015625 144.847656 276.679688 C 145.285156 275.671875 145.699219 274.640625 146.097656 273.582031 C 149.230469 274.125 152.183594 274.402344 154.921875 274.402344 C 163.273438 274.402344 169.539062 271.867188 172.460938 266.8125 C 176.226562 260.285156 173.53125 250.78125 165.105469 240.621094 C 166.980469 238.355469 168.601562 236.074219 169.945312 233.808594 C 170.347656 233.882812 170.78125 233.925781 171.210938 233.925781 Z M 171.210938 230.542969 C 170.710938 230.542969 170.222656 230.449219 169.765625 230.265625 C 168.296875 229.671875 167.34375 228.269531 167.34375 226.6875 C 167.34375 224.550781 169.074219 222.816406 171.210938 222.816406 C 171.515625 222.816406 171.785156 222.851562 172.0625 222.910156 C 173.8125 223.296875 175.078125 224.886719 175.078125 226.6875 C 175.078125 228.8125 173.347656 230.542969 171.210938 230.542969 Z M 150.328125 210.5 C 159.910156 209.5 166.902344 211.539062 169.53125 216.085938 C 170.113281 217.09375 170.46875 218.226562 170.628906 219.460938 C 166.902344 219.757812 163.964844 222.882812 163.964844 226.6875 C 163.964844 228.996094 165.054688 231.09375 166.820312 232.4375 C 165.695312 234.28125 164.363281 236.148438 162.832031 238.027344 C 159.335938 234.203125 155.214844 230.511719 150.605469 227.050781 C 149.914062 221.175781 148.765625 215.75 147.253906 210.914062 C 148.292969 210.746094 149.3125 210.601562 150.328125 210.5 Z M 137.566406 258.738281 C 134.105469 260.742188 130.601562 262.515625 127.121094 264.0625 C 123.601562 262.5 120.078125 260.714844 116.660156 258.738281 C 113.195312 256.734375 109.910156 254.597656 106.828125 252.347656 C 106.414062 248.566406 106.195312 244.636719 106.195312 240.605469 C 106.195312 236.570312 106.414062 232.640625 106.828125 228.863281 C 109.902344 226.613281 113.195312 224.472656 116.660156 222.46875 C 120.121094 220.464844 123.625 218.691406 127.105469 217.144531 C 130.625 218.707031 134.148438 220.492188 137.566406 222.46875 C 141.03125 224.472656 144.316406 226.613281 147.398438 228.863281 C 147.8125 232.640625 148.03125 236.570312 148.03125 240.605469 C 148.03125 244.613281 147.820312 248.535156 147.414062 252.3125 C 144.324219 254.578125 141.019531 256.742188 137.566406 258.738281 Z M 146.824219 256.894531 C 146.128906 261.445312 145.140625 265.730469 143.875 269.652344 C 139.914062 268.796875 135.703125 267.523438 131.34375 265.832031 C 133.988281 264.5625 136.628906 263.175781 139.246094 261.664062 C 141.882812 260.148438 144.40625 258.550781 146.824219 256.894531 Z M 122.882812 265.832031 C 118.609375 267.496094 114.414062 268.78125 110.394531 269.652344 C 109.152344 265.789062 108.15625 261.496094 107.4375 256.921875 C 109.84375 258.570312 112.359375 260.160156 114.96875 261.664062 C 117.5625 263.167969 120.214844 264.554688 122.882812 265.832031 Z M 103.164062 249.539062 C 99.601562 246.675781 96.390625 243.671875 93.605469 240.597656 C 96.367188 237.542969 99.582031 234.542969 103.15625 231.667969 C 102.9375 234.566406 102.808594 237.542969 102.808594 240.605469 C 102.816406 243.65625 102.9375 246.640625 103.164062 249.539062 Z M 107.4375 224.296875 C 108.15625 219.714844 109.152344 215.429688 110.394531 211.5625 C 114.335938 212.417969 118.542969 213.6875 122.882812 215.378906 C 120.238281 216.644531 117.597656 218.03125 114.976562 219.546875 C 112.359375 221.050781 109.84375 222.648438 107.4375 224.296875 Z M 131.34375 215.378906 C 135.617188 213.710938 139.8125 212.425781 143.832031 211.554688 C 145.074219 215.417969 146.070312 219.714844 146.789062 224.289062 C 144.382812 222.640625 141.867188 221.050781 139.257812 219.546875 C 136.664062 218.039062 134.011719 216.652344 131.34375 215.378906 Z M 151.0625 231.667969 C 154.617188 234.527344 157.824219 237.519531 160.613281 240.597656 C 157.859375 243.628906 154.640625 246.632812 151.0625 249.515625 C 151.289062 246.605469 151.40625 243.628906 151.40625 240.613281 C 151.40625 237.550781 151.289062 234.566406 151.0625 231.667969 Z M 127.113281 191.570312 C 133.234375 191.570312 138.84375 198.128906 142.710938 208.34375 C 137.695312 209.460938 132.433594 211.183594 127.113281 213.457031 C 121.648438 211.125 116.40625 209.410156 111.523438 208.308594 C 115.390625 198.113281 121 191.570312 127.113281 191.570312 Z M 79.957031 229.25 C 79.957031 227.566406 81.023438 226.097656 82.644531 225.574219 C 83.007812 225.445312 83.402344 225.386719 83.828125 225.386719 C 85.960938 225.386719 87.695312 227.121094 87.695312 229.25 C 87.695312 230.671875 86.917969 231.980469 85.683594 232.648438 C 85.101562 232.960938 84.476562 233.121094 83.828125 233.121094 C 81.691406 233.121094 79.957031 231.390625 79.957031 229.25 Z M 88.773438 234.542969 C 90.21875 233.191406 91.070312 231.28125 91.070312 229.25 C 91.070312 225.25 87.820312 222.003906 83.828125 222.003906 C 83.726562 222.003906 83.632812 222.023438 83.539062 222.03125 C 83.351562 219.757812 83.734375 217.761719 84.695312 216.085938 C 87.703125 210.878906 96.121094 209.171875 106.972656 210.921875 C 105.460938 215.75 104.3125 221.183594 103.613281 227.050781 C 98.992188 230.527344 94.863281 234.230469 91.394531 238.027344 C 90.4375 236.859375 89.570312 235.699219 88.773438 234.542969 Z M 103.898438 270.710938 C 94.324219 271.714844 87.324219 269.679688 84.695312 265.121094 C 82.070312 260.5625 83.808594 253.480469 89.457031 245.675781 C 90.058594 244.847656 90.707031 244.011719 91.382812 243.183594 C 94.878906 247.003906 99 250.699219 103.601562 254.164062 C 104.304688 260.023438 105.453125 265.460938 106.964844 270.296875 C 105.933594 270.464844 104.914062 270.609375 103.898438 270.710938 Z M 139.753906 285.691406 C 139.011719 285.691406 138.285156 285.480469 137.660156 285.074219 C 136.546875 284.355469 135.886719 283.144531 135.886719 281.816406 C 135.886719 279.679688 137.617188 277.945312 139.753906 277.945312 C 140.515625 277.945312 141.234375 278.164062 141.867188 278.589844 C 142.957031 279.296875 143.613281 280.507812 143.613281 281.816406 C 143.613281 283.957031 141.882812 285.691406 139.753906 285.691406 Z M 141.933594 274.910156 C 141.234375 274.691406 140.507812 274.5625 139.753906 274.5625 C 135.761719 274.5625 132.507812 277.820312 132.507812 281.816406 C 132.507812 283.585938 133.152344 285.242188 134.265625 286.542969 C 131.960938 288.589844 129.554688 289.636719 127.113281 289.636719 C 120.992188 289.636719 115.382812 283.078125 111.515625 272.863281 C 116.53125 271.75 121.792969 270.023438 127.113281 267.75 C 132.59375 270.09375 137.855469 271.808594 142.742188 272.914062 C 142.480469 273.59375 142.210938 274.25 141.933594 274.910156 Z M 169.53125 265.121094 C 166.515625 270.335938 158.097656 272.035156 147.226562 270.285156 C 148.773438 265.375 149.914062 259.9375 150.605469 254.171875 C 155.257812 250.679688 159.386719 246.96875 162.851562 243.191406 C 169.953125 251.925781 172.460938 260.039062 169.53125 265.121094 Z M 169.53125 265.121094 " fill-opacity="1" fill-rule="nonzero"/></g></svg>