<svg xmlns="http://www.w3.org/2000/svg" xmlns:xlink="http://www.w3.org/1999/xlink" width="340" zoomAndPan="magnify" viewBox="0 0 255 482.249988" height="642" preserveAspectRatio="xMidYMid meet" version="1.0"><defs><clipPath id="b514350bfe"><path d="M 107 184.867188 L 147 184.867188 L 147 296.441406 L 107 296.441406 Z M 107 184.867188 " clip-rule="nonzero"/></clipPath></defs><g clip-path="url(#b514350bfe)"><path fill="#000000" d="M 126.832031 296.402344 C 121.351562 296.402344 116.308594 290.449219 112.628906 279.652344 C 109.074219 269.21875 107.117188 255.371094 107.117188 240.660156 C 107.117188 225.945312 109.074219 212.097656 112.628906 201.664062 C 116.308594 190.863281 121.351562 184.914062 126.832031 184.914062 C 132.316406 184.914062 137.355469 190.863281 141.035156 201.664062 C 144.589844 212.097656 146.546875 225.945312 146.546875 240.660156 C 146.546875 255.375 144.589844 269.21875 141.035156 279.652344 C 137.355469 290.453125 132.3125 296.402344 126.832031 296.402344 Z M 126.832031 187.121094 C 122.433594 187.121094 118.011719 192.683594 114.710938 202.378906 C 111.230469 212.585938 109.316406 226.183594 109.316406 240.660156 C 109.316406 255.140625 111.230469 268.730469 114.710938 278.941406 C 118.007812 288.640625 122.433594 294.199219 126.832031 294.199219 C 131.234375 294.199219 135.652344 288.636719 138.957031 278.941406 C 142.433594 268.730469 144.347656 255.136719 144.347656 240.660156 C 144.347656 226.183594 142.433594 212.585938 138.957031 202.378906 C 135.652344 192.683594 131.234375 187.121094 126.832031 187.121094 Z M 126.832031 187.121094 " fill-opacity="1" fill-rule="nonzero"/></g><path fill="#000000" d="M 165.636719 279.207031 C 161.964844 279.207031 157.457031 278.347656 152.253906 276.617188 C 141.257812 272.972656 128.296875 265.898438 115.742188 256.703125 C 103.1875 247.507812 92.539062 237.273438 85.742188 227.882812 C 78.703125 218.164062 76.613281 210.367188 79.851562 205.925781 C 83.09375 201.484375 91.144531 201.121094 102.519531 204.894531 C 113.515625 208.539062 126.476562 215.613281 139.03125 224.808594 C 151.589844 234.003906 162.242188 244.242188 169.042969 253.632812 C 176.082031 263.351562 178.175781 271.148438 174.933594 275.585938 C 173.164062 277.996094 169.988281 279.207031 165.636719 279.207031 Z M 89.089844 204.5 C 85.515625 204.5 82.933594 205.410156 81.613281 207.226562 C 79.019531 210.777344 81.171875 217.835938 87.507812 226.589844 C 94.179688 235.796875 104.667969 245.859375 117.035156 254.921875 C 129.40625 263.988281 142.15625 270.949219 152.9375 274.527344 C 163.183594 277.925781 170.542969 277.832031 173.136719 274.285156 C 175.730469 270.738281 173.578125 263.679688 167.242188 254.925781 C 160.570312 245.71875 150.082031 235.652344 137.714844 226.589844 C 125.34375 217.523438 112.59375 210.5625 101.8125 206.988281 C 96.820312 205.328125 92.503906 204.5 89.097656 204.5 Z M 89.089844 204.5 " fill-opacity="1" fill-rule="nonzero"/><path fill="#000000" d="M 89.90625 280.113281 C 86.113281 280.113281 83.285156 279.058594 81.59375 276.949219 C 78.148438 272.660156 79.96875 264.707031 86.714844 254.542969 C 93.226562 244.726562 103.609375 233.847656 115.945312 223.90625 C 128.273438 213.964844 141.105469 206.136719 152.070312 201.867188 C 163.421875 197.441406 171.566406 197.367188 175.007812 201.648438 C 178.453125 205.925781 176.636719 213.890625 169.890625 224.050781 C 163.375 233.867188 152.992188 244.75 140.660156 254.6875 C 128.328125 264.625 115.496094 272.460938 104.53125 276.730469 C 98.761719 278.984375 93.820312 280.113281 89.90625 280.113281 Z M 117.324219 225.621094 C 105.160156 235.425781 94.941406 246.132812 88.542969 255.765625 C 82.464844 264.921875 80.554688 272.140625 83.304688 275.566406 C 86.054688 278.992188 93.503906 278.671875 103.730469 274.683594 C 114.492188 270.496094 127.121094 262.785156 139.28125 252.972656 C 151.441406 243.164062 161.664062 232.464844 168.058594 222.828125 C 174.136719 213.667969 176.046875 206.453125 173.296875 203.027344 C 170.542969 199.601562 163.101562 199.921875 152.871094 203.90625 C 142.109375 208.09375 129.484375 215.808594 117.324219 225.621094 Z M 117.324219 225.621094 " fill-opacity="1" fill-rule="nonzero"/><path fill="#000000" d="M 126.46875 247.84375 C 125.933594 247.84375 125.402344 247.789062 124.875 247.683594 C 124.347656 247.578125 123.835938 247.425781 123.34375 247.21875 C 122.847656 247.011719 122.375 246.761719 121.929688 246.460938 C 121.484375 246.164062 121.070312 245.824219 120.691406 245.445312 C 120.3125 245.0625 119.972656 244.652344 119.675781 244.203125 C 119.378906 243.757812 119.125 243.285156 118.921875 242.789062 C 118.714844 242.292969 118.5625 241.78125 118.457031 241.253906 C 118.351562 240.726562 118.300781 240.195312 118.300781 239.65625 C 118.300781 239.117188 118.351562 238.585938 118.457031 238.058594 C 118.5625 237.53125 118.714844 237.019531 118.921875 236.523438 C 119.125 236.027344 119.378906 235.554688 119.675781 235.109375 C 119.972656 234.660156 120.3125 234.246094 120.691406 233.867188 C 121.070312 233.488281 121.484375 233.148438 121.929688 232.847656 C 122.375 232.550781 122.847656 232.296875 123.34375 232.09375 C 123.835938 231.886719 124.347656 231.730469 124.875 231.628906 C 125.402344 231.523438 125.933594 231.46875 126.46875 231.46875 C 127.003906 231.46875 127.535156 231.523438 128.0625 231.628906 C 128.589844 231.730469 129.097656 231.886719 129.59375 232.09375 C 130.089844 232.296875 130.5625 232.550781 131.007812 232.847656 C 131.453125 233.148438 131.867188 233.488281 132.246094 233.867188 C 132.625 234.246094 132.964844 234.660156 133.261719 235.109375 C 133.558594 235.554688 133.8125 236.027344 134.015625 236.523438 C 134.222656 237.019531 134.375 237.53125 134.480469 238.058594 C 134.585938 238.585938 134.636719 239.117188 134.636719 239.65625 C 134.636719 240.191406 134.585938 240.726562 134.480469 241.253906 C 134.375 241.777344 134.21875 242.289062 134.011719 242.785156 C 133.808594 243.28125 133.554688 243.753906 133.257812 244.203125 C 132.960938 244.648438 132.621094 245.0625 132.242188 245.441406 C 131.863281 245.820312 131.449219 246.160156 131.003906 246.457031 C 130.558594 246.757812 130.089844 247.011719 129.59375 247.214844 C 129.097656 247.421875 128.585938 247.578125 128.0625 247.683594 C 127.535156 247.789062 127.003906 247.839844 126.46875 247.84375 Z M 126.46875 234.113281 C 126.105469 234.113281 125.746094 234.148438 125.390625 234.222656 C 125.035156 234.292969 124.6875 234.398438 124.351562 234.535156 C 124.015625 234.675781 123.699219 234.847656 123.394531 235.046875 C 123.09375 235.25 122.816406 235.480469 122.558594 235.738281 C 122.300781 235.996094 122.074219 236.273438 121.871094 236.578125 C 121.667969 236.878906 121.5 237.199219 121.359375 237.535156 C 121.222656 237.871094 121.117188 238.21875 121.046875 238.574219 C 120.972656 238.933594 120.9375 239.292969 120.9375 239.65625 C 120.9375 240.019531 120.972656 240.378906 121.046875 240.738281 C 121.117188 241.09375 121.222656 241.441406 121.359375 241.777344 C 121.5 242.113281 121.667969 242.433594 121.871094 242.734375 C 122.074219 243.035156 122.300781 243.316406 122.558594 243.574219 C 122.816406 243.832031 123.09375 244.0625 123.394531 244.261719 C 123.699219 244.464844 124.015625 244.636719 124.351562 244.773438 C 124.6875 244.914062 125.035156 245.019531 125.390625 245.089844 C 125.746094 245.160156 126.105469 245.195312 126.46875 245.195312 C 126.832031 245.195312 127.191406 245.160156 127.546875 245.089844 C 127.902344 245.019531 128.25 244.914062 128.585938 244.773438 C 128.921875 244.636719 129.238281 244.464844 129.539062 244.261719 C 129.84375 244.0625 130.121094 243.832031 130.378906 243.574219 C 130.636719 243.316406 130.863281 243.035156 131.066406 242.734375 C 131.269531 242.433594 131.4375 242.113281 131.578125 241.777344 C 131.714844 241.441406 131.820312 241.09375 131.890625 240.738281 C 131.964844 240.378906 132 240.019531 132 239.65625 C 131.996094 239.292969 131.960938 238.933594 131.890625 238.574219 C 131.820312 238.21875 131.714844 237.871094 131.574219 237.535156 C 131.4375 237.199219 131.265625 236.882812 131.0625 236.578125 C 130.863281 236.277344 130.632812 235.996094 130.375 235.738281 C 130.121094 235.484375 129.839844 235.253906 129.539062 235.050781 C 129.238281 234.847656 128.917969 234.679688 128.582031 234.539062 C 128.25 234.398438 127.902344 234.292969 127.546875 234.222656 C 127.191406 234.152344 126.832031 234.117188 126.46875 234.113281 Z M 126.46875 234.113281 " fill-opacity="1" fill-rule="nonzero"/></svg>