<svg width="120" height="126" viewBox="0 0 120 126" fill="none" xmlns="http://www.w3.org/2000/svg">
    <mask id="mask0_839_576" style="mask-type:luminance" maskUnits="userSpaceOnUse" x="0" y="2" width="120" height="120">
    <path d="M0.226562 2.30127H119.856V121.759H0.226562V2.30127Z" fill="white"/>
    </mask>
    <g mask="url(#mask0_839_576)">
    <path d="M117.966 33.6514L117.957 33.6468L110.253 32.5471C109.175 32.3959 108.418 31.3924 108.574 30.3065C108.647 29.7841 108.927 29.3122 109.344 29.0006L115.571 24.3224C116.447 23.6671 116.626 22.4254 115.97 21.5502L108.84 12.0334C108.184 11.1582 106.94 10.9795 106.068 11.6347L99.8417 16.3084C98.9699 16.9728 97.7265 16.7987 97.0657 15.9281C96.7445 15.502 96.6115 14.9659 96.6849 14.4435L97.7861 6.73197C97.9421 5.64603 97.1896 4.64257 96.1113 4.4822L84.3512 2.80518C83.2729 2.64939 82.2634 3.40084 82.1074 4.4822L81.0062 12.1983C80.8548 13.2797 79.8499 14.0357 78.767 13.8799C78.2485 13.8066 77.7759 13.5271 77.4639 13.1056L72.7929 6.87402C72.1367 5.99885 70.8933 5.82015 70.0215 6.47538L64.0703 10.9474C61.3768 10.6588 58.6651 10.6588 55.9717 10.9474C38.3337 12.9635 24.5087 27.0441 22.7926 44.7307C22.7376 45.2897 22.7146 45.8487 22.6917 46.4031H22.0952C21.1546 46.4031 20.347 47.0675 20.1589 47.9885L18.7915 54.5042L13.3083 50.724C12.5237 50.1787 11.4592 50.2749 10.7847 50.9531L4.84266 56.9006C4.16815 57.5787 4.0718 58.6371 4.61323 59.4253L8.37576 64.9054L1.86476 66.2754C0.951659 66.477 0.304688 67.2834 0.304688 68.2182V76.1496C0.304688 77.0844 0.960835 77.8954 1.87852 78.0878L8.38952 79.4579L4.627 84.938C4.08097 85.7261 4.17733 86.7845 4.85642 87.4627L10.7985 93.4101C11.473 94.0883 12.5329 94.1845 13.3221 93.6392L18.7915 89.8636L20.1635 96.3839C20.3516 97.3048 21.1592 97.9647 22.0998 97.9692H30.0194C30.9555 97.9692 31.763 97.3094 31.9603 96.393L33.3277 89.8774L38.7971 93.6438C39.5863 94.1845 40.6463 94.0883 41.3208 93.4147L44.395 90.3264V95.9761C44.4042 98.794 45.9138 101.397 48.3548 102.803V113.818C48.3548 118.199 51.9063 121.75 56.2791 121.75H64.1987C68.5761 121.75 72.123 118.199 72.123 113.818V102.803C74.5686 101.397 76.0736 98.794 76.0828 95.9761V88.1271C76.1379 84.828 77.8631 81.7809 80.6621 80.0352C82.3093 78.9676 83.8648 77.7717 85.3239 76.4658L82.6856 73.5104C81.3779 74.6834 79.983 75.751 78.5101 76.7041C74.5778 79.1784 72.1689 83.4809 72.1184 88.1271V95.9761C72.1184 98.1663 70.3472 99.9395 68.1586 99.9395H52.3147C50.126 99.9395 48.3548 98.1663 48.3548 95.9761V87.9621C48.309 83.403 45.9367 79.1829 42.0733 76.7728C26.3716 66.8985 21.6455 46.1557 31.5061 30.4394C37.6271 20.6888 48.309 14.7505 59.8122 14.7139C59.7801 14.7826 59.7571 14.8559 59.7342 14.9292C59.6608 15.447 59.7984 15.9785 60.115 16.4L64.7815 22.627C65.277 23.2639 65.3229 24.1437 64.9008 24.831C64.497 25.5229 63.7124 25.8986 62.9231 25.784L55.2146 24.6798C54.1363 24.524 53.1314 25.28 52.9754 26.3614L51.296 38.1372C51.14 39.2231 51.8925 40.2266 52.9754 40.3824L60.6794 41.4866C61.7577 41.6424 62.5148 42.6459 62.3588 43.7318C62.2853 44.2496 62.0055 44.7215 61.5879 45.0377L55.3614 49.7114C54.485 50.3666 54.3106 51.6083 54.9668 52.4881L62.0972 62.0049C62.7534 62.8801 63.9968 63.0588 64.8686 62.399L71.0952 57.7253C71.9715 57.0701 73.2104 57.2488 73.8666 58.1285C74.1832 58.5455 74.3162 59.0724 74.2428 59.5902L73.1416 67.3063C72.9856 68.3877 73.7381 69.3957 74.821 69.5515L86.5857 71.2331C86.6775 71.2469 86.7693 71.2515 86.8656 71.2515C87.8521 71.2515 88.6872 70.5275 88.8295 69.5515L89.9261 61.8354C90.0821 60.754 91.0824 60.0026 92.1699 60.1538C92.6884 60.2271 93.1564 60.5066 93.473 60.9282L98.1394 67.1597C98.7956 68.0349 100.039 68.2136 100.915 67.5538L110.423 60.4196C111.299 59.7597 111.473 58.518 110.817 57.6428L106.146 51.4113C105.66 50.7698 105.609 49.8992 106.027 49.2119C106.426 48.5109 107.215 48.1306 108.009 48.2589L115.713 49.3585C116.796 49.5143 117.801 48.7629 117.957 47.6769L119.636 35.9011C119.792 34.8198 119.04 33.8117 117.957 33.6559L117.966 33.6514ZM52.3193 103.908H68.1631V107.871H52.3193V103.908ZM52.3193 111.839H68.1631V113.818C68.1631 116.013 66.392 117.786 64.2033 117.786H56.2837C54.095 117.786 52.3193 116.013 52.3193 113.818V111.839ZM36.5534 77.6434C37.6362 78.5277 38.765 79.3571 39.9351 80.1131C41.8071 81.2998 43.2158 83.0868 43.927 85.1854L39.6781 89.4329L35.5669 86.5921C33.7636 85.3503 31.2996 85.804 30.0561 87.6093C29.7579 88.04 29.5514 88.5257 29.4413 89.0389L28.4043 93.992H23.6966L22.6596 89.0526C22.2099 86.9082 20.1084 85.5382 17.9702 85.9872C17.4563 86.0972 16.9699 86.3034 16.5386 86.6012L12.4228 89.4329L8.81166 85.8269L11.6473 81.7122C12.8908 79.9115 12.4365 77.4372 10.6379 76.1955C10.2065 75.8976 9.72017 75.6869 9.20626 75.5769L4.2691 74.5368V69.8264L9.20626 68.7863C11.3445 68.3327 12.7118 66.225 12.2576 64.0852C12.1475 63.5766 11.941 63.0909 11.6519 62.6647L8.81166 58.5318L12.4228 54.9303L16.5386 57.7711C18.3418 59.0129 20.8104 58.5547 22.0493 56.7539C22.3476 56.3186 22.554 55.8329 22.6642 55.3198L23.0083 53.6702C23.3249 55.9521 23.8526 58.2064 24.5775 60.3921C18.062 61.171 13.4093 67.091 14.1847 73.6112C14.9648 80.136 20.8747 84.7959 27.3948 84.017C31.318 83.5496 34.7501 81.1578 36.5534 77.6434ZM33.4791 74.8529C32.0016 78.9676 27.4683 81.1028 23.357 79.6228C19.2504 78.1428 17.1167 73.6066 18.5942 69.492C19.723 66.3441 22.71 64.2455 26.0504 64.2501H26.1238C27.95 68.1815 30.4324 71.7692 33.4791 74.8529ZM114.309 45.1477L108.564 44.3229C105.32 43.8601 102.31 46.1191 101.847 49.3723C101.622 50.9348 102.03 52.5201 102.976 53.7848L106.454 58.4264L100.117 63.1871L96.6344 58.5409C94.6706 55.9154 90.9447 55.3793 88.3202 57.3496C87.0583 58.2981 86.2232 59.7048 86.003 61.2672L85.2 67.0268L77.3584 65.9042L78.1797 60.1538C78.6431 56.9006 76.3902 53.8856 73.137 53.4228C71.5769 53.1983 69.9893 53.6061 68.7321 54.55L64.0932 58.0369L59.3396 51.6908L63.9785 48.2085C66.6031 46.2382 67.1353 42.5084 65.1669 39.8783C64.2217 38.6183 62.813 37.7798 61.2529 37.5598L55.5128 36.7397L56.6324 28.8906L62.3771 29.7108C65.6257 30.1736 68.6357 27.9147 69.0992 24.6614C69.324 23.099 68.9156 21.5136 67.9704 20.2535L64.4786 15.6028L70.8198 10.842L74.2979 15.4882C76.2663 18.1137 79.9921 18.6498 82.6167 16.6795C83.8786 15.7311 84.7136 14.3244 84.9339 12.7619L85.7552 7.01148L93.5923 8.13407L92.7755 13.8845C92.3121 17.1332 94.565 20.1481 97.8182 20.6109C99.3783 20.8354 100.961 20.4276 102.223 19.4792L106.862 15.9968L111.616 22.3429L106.977 25.8253C104.348 27.7955 103.815 31.5253 105.788 34.1554C106.734 35.4154 108.138 36.2494 109.698 36.4739L115.442 37.2941L114.314 45.1385L114.309 45.1477ZM85.4662 21.1562C76.716 21.1562 69.6223 28.2537 69.6223 37.0146C69.6223 45.7754 76.716 52.8775 85.4662 52.8775C94.2163 52.8775 101.31 45.7754 101.31 37.0146C101.301 28.2583 94.2117 21.1653 85.4662 21.1562ZM85.4662 48.9141C78.9047 48.9141 73.5821 43.5852 73.5821 37.0146C73.5821 30.4439 78.9047 25.1196 85.4662 25.1196C92.0276 25.1196 97.3502 30.4439 97.3502 37.0146C97.341 43.5852 92.0276 48.9049 85.4662 48.9141ZM58.2613 90.0286H62.2211V95.9761H58.2613V90.0286ZM51.5805 70.555C39.3569 65.7714 33.3139 51.9749 38.0905 39.7363C39.9442 34.9893 43.2617 30.9709 47.5656 28.2583L45.4504 24.8997C32.4926 33.074 28.6062 50.2154 36.769 63.1825C39.9305 68.209 44.6199 72.0854 50.1443 74.2435C55.0356 76.1221 58.2613 80.8187 58.2659 86.0606H62.2257C62.2349 79.1829 57.9952 73.0155 51.5805 70.555ZM97.8733 76.1496H111.735V80.1131H97.8733V76.1496ZM94.6247 89.5658L97.1575 86.5188L109.042 96.4297L106.509 99.4767L94.6247 89.5658ZM85.9892 92.008H89.9491V105.887H85.9892V92.008ZM2.32819 36.5518L18.1721 32.5838L19.1311 36.4281L3.28717 40.3961L2.32819 36.5518ZM5.6181 16.2947L7.91691 13.0735L21.7832 22.9844L19.4798 26.2102L5.6181 16.2947ZM22.5862 3.27713L26.4221 2.29199L30.4737 18.155L26.6378 19.1355L22.5862 3.27713Z" fill="black"/>
    </g>
    </svg>
    