<svg width="110" height="117" viewBox="0 0 110 117" fill="none" xmlns="http://www.w3.org/2000/svg">
    <g clip-path="url(#clip0_839_548)">
    <path d="M37.1184 50.191L46.3132 41.3794L52.775 55.2456C53.0674 55.854 53.6097 56.271 54.275 56.3986C54.9233 56.522 55.6097 56.2923 56.0716 55.8327L60.4486 51.4248C60.991 50.9015 61.1774 50.1059 60.9698 49.3698L55.8385 32.2573L63.0545 25.3348C64.5121 23.952 65.3257 22.0629 65.3468 20.0504C65.368 18.0379 64.5969 16.1275 63.1774 14.7022C61.7621 13.2769 59.8639 12.5834 57.8639 12.5195C55.8597 12.5408 53.9868 13.3577 52.6097 14.8299L45.7285 22.0842L28.7203 16.9232C27.9915 16.7147 27.2203 16.9062 26.6779 17.4508L22.3009 21.8544C21.8178 22.3352 21.6102 23.0075 21.7373 23.6584C21.839 24.3094 22.2797 24.8753 22.8814 25.1689L36.6608 31.6701L27.9067 40.9199L22.339 39.2223C21.6102 39.0095 20.839 39.201 20.2966 39.7456L16.3772 43.6897C15.8984 44.1705 15.6908 44.8428 15.8179 45.4895C15.9196 46.1405 16.356 46.7063 16.962 46.9999L26.5932 51.5312L31.0973 61.2235C31.3897 61.8277 31.9278 62.2489 32.5973 62.3765C32.7202 62.3978 32.8261 62.3978 32.9532 62.3978C33.4914 62.3978 34.0126 62.1851 34.3897 61.7894L38.3091 57.8452C38.8515 57.3219 39.0379 56.522 38.8303 55.7902L37.1184 50.191ZM33.5337 56.8156L29.9491 49.1188C29.7414 48.6805 29.4067 48.3444 28.9703 48.1359L21.3178 44.5279L22.3178 43.5195L27.9067 45.2172C28.6355 45.4512 29.4491 45.2385 29.9702 44.6726L41.5591 32.4445C42.0209 31.9637 42.2073 31.2914 42.0802 30.6405C41.9574 29.9937 41.5379 29.4449 40.9362 29.1513L27.2203 22.6926L28.6779 21.246L45.7073 26.4283C46.4403 26.6367 47.2496 26.4453 47.7708 25.8794L55.508 17.7231C56.1309 17.0721 56.9656 16.6934 57.8639 16.6934C58.7156 16.5913 59.5927 17.0296 60.2367 17.6593C60.8639 18.289 61.2198 19.1484 61.1986 20.0504C61.1986 20.9524 60.8215 21.7906 60.1774 22.4203L52.0674 30.2022C51.5038 30.7255 51.2962 31.5425 51.525 32.2785L56.6732 49.4123L55.2368 50.8802L48.8132 37.0821C48.542 36.4737 47.9827 36.0525 47.3344 35.9291C46.6903 35.8014 46.0209 36.0099 45.542 36.4524L33.3897 48.1147C32.8261 48.638 32.6185 49.4549 32.8473 50.191L34.5337 55.8115L33.5337 56.8156Z" fill="#5CC46B"/>
    <mask id="mask0_839_548" style="mask-type:luminance" maskUnits="userSpaceOnUse" x="-1" y="-1" width="111" height="119">
    <path d="M-0.186035 -0.333984H109.867V117.118H-0.186035V-0.333984Z" fill="white"/>
    </mask>
    <g mask="url(#mask0_839_548)">
    <path d="M109.27 59.4791C109.249 59.4578 109.228 59.4408 109.228 59.4195C109.372 57.8027 109.456 56.1689 109.456 54.5096C109.456 41.8858 105.181 30.2448 98.0117 20.9525C97.9693 20.8674 97.927 20.7865 97.8677 20.7227C97.8253 20.6802 97.7617 20.6589 97.7194 20.5951C87.7576 7.86489 72.2875 -0.333984 54.9445 -0.333984C24.8857 -0.333984 0.432617 24.2669 0.432617 54.5096C0.432617 63.6317 2.6614 72.2348 6.60202 79.804C2.39022 89.726 -0.215679 100.988 4.66137 108.6C8.27149 114.263 15.4621 117.118 26.0721 117.118C31.5127 117.118 37.8516 116.361 45.0845 114.872C46.1904 114.642 46.8981 113.553 46.6692 112.438C46.4404 111.327 45.3769 110.613 44.2498 110.847C24.7162 114.872 12.5426 113.382 8.05963 106.379C4.62324 101.01 6.05965 92.6192 9.18673 84.314C18.9408 99.3715 35.8092 109.357 54.9445 109.357C82.6052 109.357 105.516 88.5092 108.978 61.6192C109.456 61.0321 109.601 60.2152 109.27 59.4791ZM105.181 58.6835C103.075 58.5388 100.702 56.1859 97.7194 52.9991C95.5499 50.6718 93.5287 48.4678 91.3423 47.6509C88.5881 46.6255 85.7958 47.8424 83.1052 49.0167C79.8552 50.442 76.4781 51.9099 72.6223 50.1697C71.4104 49.6251 70.1604 48.6806 71.0799 46.2043C72.1434 43.3324 75.0587 41.3369 75.8086 41.5709C77.6646 43.226 80.3128 43.4345 83.1052 42.1581C86.4017 40.6264 89.8381 36.8311 89.7576 32.8019C89.694 30.3469 93.9864 26.6581 95.9482 25.0413C101.868 33.3465 105.372 43.5409 105.372 54.5096C105.372 55.9136 105.308 57.3007 105.181 58.6835ZM54.9445 105.247C36.2245 105.247 19.8603 94.9253 11.1655 79.638C14.6485 71.92 19.1315 64.789 21.9238 60.9087C22.5891 59.9854 22.3815 58.7047 21.4662 58.0325C20.5467 57.3645 19.2756 57.573 18.6103 58.475C18.1527 59.1047 13.1909 66.0442 8.79267 74.9578C6.03847 68.6863 4.49612 61.7682 4.49612 54.4883C4.5173 26.5304 27.1356 3.77609 54.9445 3.77609C70.368 3.77609 84.1899 10.7794 93.4482 21.7906C90.5076 24.2031 85.5882 28.4195 85.6899 32.887C85.7322 34.7718 83.7746 37.3119 81.4187 38.4011C80.834 38.6734 79.3764 39.2223 78.5629 38.4862C77.2493 37.2906 75.351 37.1247 73.3722 38.0054C70.1604 39.4521 66.7198 43.6898 66.7198 47.7148C66.7198 50.442 68.224 52.6417 70.9952 53.8799C76.4993 56.3561 81.2704 54.2798 84.7746 52.7481C86.9017 51.8036 88.7576 51.0079 89.9652 51.4674C91.2364 51.9525 93.0499 53.9011 94.7787 55.769C97.5965 58.7898 100.931 62.3553 104.723 62.751C100.762 86.8285 79.9611 105.247 54.9445 105.247Z" fill="#5CC46B"/>
    </g>
    <path d="M60.4273 63.0449C57.7155 62.8364 55.1732 62.6279 53.6944 62.062C49.275 60.3601 47.2496 56.4798 47.2326 56.4202C46.9191 55.7905 46.3343 55.3693 45.6479 55.3055C44.9572 55.2247 44.2708 55.497 43.8344 56.0416C36.9743 64.3894 41.6225 69.6099 44.9996 73.4264C46.6267 75.273 48.169 77.0132 48.5843 78.9235C49.1055 81.3998 48.9826 84.5015 48.8555 87.5224C48.6267 92.9982 48.3767 98.64 52.3173 100.989C53.0885 101.448 53.902 101.682 54.7156 101.682C55.4444 101.682 56.152 101.491 56.8596 101.133C61.3426 98.8272 64.0332 88.8881 64.3468 85.3397C64.4485 84.5441 67.262 82.6762 68.7874 81.6934C72.8297 79.0299 78.3762 75.3581 76.3127 69.861C74.1644 64.1383 66.5544 63.5299 60.4273 63.0449ZM66.5332 78.23C63.3044 80.3702 60.5078 82.1954 60.2578 84.9653C59.9273 88.8243 57.2367 96.3127 54.9867 97.4657C54.7367 97.5891 54.6308 97.5891 54.402 97.4444C52.5673 96.3509 52.7537 91.926 52.9232 87.6713C53.0673 84.3994 53.2156 81.0211 52.5673 78.0428C51.9402 75.0858 49.9614 72.8393 48.0419 70.6821C45.1267 67.389 43.042 65.0403 45.3767 60.909C46.7708 62.5854 49.0038 64.6617 52.2325 65.8998C54.2579 66.6742 57.0926 66.9039 60.1138 67.1379C65.3256 67.5549 71.245 68.0187 72.4738 71.2906C73.3297 73.5328 70.5374 75.5878 66.5332 78.23Z" fill="#5CC46B"/>
    </g>
    <defs>
    <clipPath id="clip0_839_548">
    <rect width="110" height="117" fill="white"/>
    </clipPath>
    </defs>
    </svg>
    